M48
; DRILL file {KiCad (6.0.2-0)} date Saturday, April 16, 2022 at 06:23:20 PM
; FORMAT={-:-/ absolute / inch / decimal}
; #@! TF.CreationDate,2022-04-16T18:23:20-06:00
; #@! TF.GenerationSoftware,Kicad,Pcbnew,(6.0.2-0)
; #@! TF.FileFunction,Plated,1,2,PTH
FMAT,2
INCH
; #@! TA.AperFunction,Plated,PTH,ViaDrill
T1C0.0118
; #@! TA.AperFunction,Plated,PTH,ViaDrill
T2C0.0157
; #@! TA.AperFunction,Plated,PTH,ComponentDrill
T3C0.0295
; #@! TA.AperFunction,Plated,PTH,ComponentDrill
T4C0.0394
; #@! TA.AperFunction,Plated,PTH,ComponentDrill
T5C0.0433
%
G90
G05
T1
X6.3717Y-4.7035
T2
X4.1086Y-3.7599
X5.0173Y-4.8024
X5.4543Y-4.3642
X6.1461Y-3.8728
X6.1508Y-3.974
X6.1701Y-4.0709
X6.2228Y-3.878
X6.2622Y-4.7591
X6.2898Y-4.4925
X6.2988Y-3.9382
X6.3031Y-4.772
X6.3476Y-4.8228
X6.3957Y-3.9933
X6.3957Y-4.7594
X6.4331Y-4.0673
X6.4388Y-3.9909
X6.4465Y-4.1315
X6.4516Y-4.3122
X6.476Y-3.9051
X6.4866Y-4.5874
X6.4866Y-4.6854
X6.4913Y-4.5453
X6.4933Y-4.6374
X6.5102Y-4.4563
X6.5205Y-4.1205
X6.5421Y-3.6079
X6.5673Y-4.1398
X6.5776Y-3.8728
X6.5811Y-3.4488
X6.5819Y-3.9161
X6.6087Y-3.6622
X6.626Y-4.2177
X6.6287Y-4.1724
X6.6685Y-3.9339
X6.6783Y-4.0244
X6.6811Y-4.4008
X6.6971Y-4.4367
X6.7079Y-4.4787
X6.7642Y-3.6862
X6.7728Y-4.1201
X6.7732Y-4.1661
X6.8098Y-3.6843
X6.8169Y-4.1654
X6.8619Y-4.0453
X6.9389Y-3.9056
X6.9472Y-3.5398
X6.9913Y-3.511
X7.0736Y-3.4512
X7.124Y-3.4409
X7.1268Y-3.7929
X7.1365Y-3.8747
X7.1831Y-3.7961
X7.2043Y-3.6768
X7.2524Y-4.0035
X7.5965Y-3.8945
X7.5996Y-3.9626
X7.7344Y-3.8837
X7.8941Y-3.8681
X7.9909Y-3.9055
T3
X7.4904Y-3.4831
X7.546Y-3.4274
T4
X4.5183Y-3.2386
X4.5183Y-3.3386
X4.5183Y-3.4386
X4.5183Y-3.5386
X7.6637Y-3.7241
X7.7344Y-3.6534
X7.8051Y-3.5827
T5
X7.0343Y-4.3303
X7.0343Y-4.5075
X7.2902Y-4.3303
X7.2902Y-4.5075
T0
M30
