%TF.GenerationSoftware,KiCad,Pcbnew,(6.0.2-0)*%
%TF.CreationDate,2022-04-16T18:23:20-06:00*%
%TF.ProjectId,Graduation Cap,47726164-7561-4746-996f-6e204361702e,rev?*%
%TF.SameCoordinates,Original*%
%TF.FileFunction,Legend,Bot*%
%TF.FilePolarity,Positive*%
%FSLAX46Y46*%
G04 Gerber Fmt 4.6, Leading zero omitted, Abs format (unit mm)*
G04 Created by KiCad (PCBNEW (6.0.2-0)) date 2022-04-16 18:23:20*
%MOMM*%
%LPD*%
G01*
G04 APERTURE LIST*
%ADD10C,0.300000*%
G04 APERTURE END LIST*
D10*
X139177619Y-60974761D02*
X139177619Y-62403333D01*
X139272857Y-62689047D01*
X139463333Y-62879523D01*
X139749047Y-62974761D01*
X139939523Y-62974761D01*
X137463333Y-62879523D02*
X137653809Y-62974761D01*
X138034761Y-62974761D01*
X138225238Y-62879523D01*
X138320476Y-62689047D01*
X138320476Y-61927142D01*
X138225238Y-61736666D01*
X138034761Y-61641428D01*
X137653809Y-61641428D01*
X137463333Y-61736666D01*
X137368095Y-61927142D01*
X137368095Y-62117619D01*
X138320476Y-62308095D01*
X136606190Y-62879523D02*
X136415714Y-62974761D01*
X136034761Y-62974761D01*
X135844285Y-62879523D01*
X135749047Y-62689047D01*
X135749047Y-62593809D01*
X135844285Y-62403333D01*
X136034761Y-62308095D01*
X136320476Y-62308095D01*
X136510952Y-62212857D01*
X136606190Y-62022380D01*
X136606190Y-61927142D01*
X136510952Y-61736666D01*
X136320476Y-61641428D01*
X136034761Y-61641428D01*
X135844285Y-61736666D01*
X134034761Y-61641428D02*
X134034761Y-62974761D01*
X134891904Y-61641428D02*
X134891904Y-62689047D01*
X134796666Y-62879523D01*
X134606190Y-62974761D01*
X134320476Y-62974761D01*
X134130000Y-62879523D01*
X134034761Y-62784285D01*
X133177619Y-62879523D02*
X132987142Y-62974761D01*
X132606190Y-62974761D01*
X132415714Y-62879523D01*
X132320476Y-62689047D01*
X132320476Y-62593809D01*
X132415714Y-62403333D01*
X132606190Y-62308095D01*
X132891904Y-62308095D01*
X133082380Y-62212857D01*
X133177619Y-62022380D01*
X133177619Y-61927142D01*
X133082380Y-61736666D01*
X132891904Y-61641428D01*
X132606190Y-61641428D01*
X132415714Y-61736666D01*
X129939523Y-62974761D02*
X129939523Y-60974761D01*
X129272857Y-62403333D01*
X128606190Y-60974761D01*
X128606190Y-62974761D01*
X127653809Y-62974761D02*
X127653809Y-61641428D01*
X127653809Y-60974761D02*
X127749047Y-61070000D01*
X127653809Y-61165238D01*
X127558571Y-61070000D01*
X127653809Y-60974761D01*
X127653809Y-61165238D01*
X126701428Y-61641428D02*
X126701428Y-62974761D01*
X126701428Y-61831904D02*
X126606190Y-61736666D01*
X126415714Y-61641428D01*
X126130000Y-61641428D01*
X125939523Y-61736666D01*
X125844285Y-61927142D01*
X125844285Y-62974761D01*
X124891904Y-61641428D02*
X124891904Y-63355714D01*
X124987142Y-63546190D01*
X125177619Y-63641428D01*
X125272857Y-63641428D01*
X124891904Y-60974761D02*
X124987142Y-61070000D01*
X124891904Y-61165238D01*
X124796666Y-61070000D01*
X124891904Y-60974761D01*
X124891904Y-61165238D01*
X123082380Y-62974761D02*
X123082380Y-61927142D01*
X123177619Y-61736666D01*
X123368095Y-61641428D01*
X123749047Y-61641428D01*
X123939523Y-61736666D01*
X123082380Y-62879523D02*
X123272857Y-62974761D01*
X123749047Y-62974761D01*
X123939523Y-62879523D01*
X124034761Y-62689047D01*
X124034761Y-62498571D01*
X123939523Y-62308095D01*
X123749047Y-62212857D01*
X123272857Y-62212857D01*
X123082380Y-62117619D01*
X122130000Y-62974761D02*
X122130000Y-61641428D01*
X122130000Y-62022380D02*
X122034761Y-61831904D01*
X121939523Y-61736666D01*
X121749047Y-61641428D01*
X121558571Y-61641428D01*
X120130000Y-62879523D02*
X120320476Y-62974761D01*
X120701428Y-62974761D01*
X120891904Y-62879523D01*
X120987142Y-62689047D01*
X120987142Y-61927142D01*
X120891904Y-61736666D01*
X120701428Y-61641428D01*
X120320476Y-61641428D01*
X120130000Y-61736666D01*
X120034761Y-61927142D01*
X120034761Y-62117619D01*
X120987142Y-62308095D01*
X119272857Y-62879523D02*
X119082380Y-62974761D01*
X118701428Y-62974761D01*
X118510952Y-62879523D01*
X118415714Y-62689047D01*
X118415714Y-62593809D01*
X118510952Y-62403333D01*
X118701428Y-62308095D01*
X118987142Y-62308095D01*
X119177619Y-62212857D01*
X119272857Y-62022380D01*
X119272857Y-61927142D01*
X119177619Y-61736666D01*
X118987142Y-61641428D01*
X118701428Y-61641428D01*
X118510952Y-61736666D01*
X161796666Y-66194761D02*
X161796666Y-64194761D01*
X161130000Y-65623333D01*
X160463333Y-64194761D01*
X160463333Y-66194761D01*
X158653809Y-66194761D02*
X158653809Y-65147142D01*
X158749047Y-64956666D01*
X158939523Y-64861428D01*
X159320476Y-64861428D01*
X159510952Y-64956666D01*
X158653809Y-66099523D02*
X158844285Y-66194761D01*
X159320476Y-66194761D01*
X159510952Y-66099523D01*
X159606190Y-65909047D01*
X159606190Y-65718571D01*
X159510952Y-65528095D01*
X159320476Y-65432857D01*
X158844285Y-65432857D01*
X158653809Y-65337619D01*
X157796666Y-66099523D02*
X157606190Y-66194761D01*
X157225238Y-66194761D01*
X157034761Y-66099523D01*
X156939523Y-65909047D01*
X156939523Y-65813809D01*
X157034761Y-65623333D01*
X157225238Y-65528095D01*
X157510952Y-65528095D01*
X157701428Y-65432857D01*
X157796666Y-65242380D01*
X157796666Y-65147142D01*
X157701428Y-64956666D01*
X157510952Y-64861428D01*
X157225238Y-64861428D01*
X157034761Y-64956666D01*
X156368095Y-64861428D02*
X155606190Y-64861428D01*
X156082380Y-64194761D02*
X156082380Y-65909047D01*
X155987142Y-66099523D01*
X155796666Y-66194761D01*
X155606190Y-66194761D01*
X154177619Y-66099523D02*
X154368095Y-66194761D01*
X154749047Y-66194761D01*
X154939523Y-66099523D01*
X155034761Y-65909047D01*
X155034761Y-65147142D01*
X154939523Y-64956666D01*
X154749047Y-64861428D01*
X154368095Y-64861428D01*
X154177619Y-64956666D01*
X154082380Y-65147142D01*
X154082380Y-65337619D01*
X155034761Y-65528095D01*
X153225238Y-66194761D02*
X153225238Y-64861428D01*
X153225238Y-65242380D02*
X153130000Y-65051904D01*
X153034761Y-64956666D01*
X152844285Y-64861428D01*
X152653809Y-64861428D01*
X150177619Y-66194761D02*
X150368095Y-66099523D01*
X150463333Y-66004285D01*
X150558571Y-65813809D01*
X150558571Y-65242380D01*
X150463333Y-65051904D01*
X150368095Y-64956666D01*
X150177619Y-64861428D01*
X149891904Y-64861428D01*
X149701428Y-64956666D01*
X149606190Y-65051904D01*
X149510952Y-65242380D01*
X149510952Y-65813809D01*
X149606190Y-66004285D01*
X149701428Y-66099523D01*
X149891904Y-66194761D01*
X150177619Y-66194761D01*
X148939523Y-64861428D02*
X148177619Y-64861428D01*
X148653809Y-66194761D02*
X148653809Y-64480476D01*
X148558571Y-64290000D01*
X148368095Y-64194761D01*
X148177619Y-64194761D01*
X146082380Y-66099523D02*
X145796666Y-66194761D01*
X145320476Y-66194761D01*
X145130000Y-66099523D01*
X145034761Y-66004285D01*
X144939523Y-65813809D01*
X144939523Y-65623333D01*
X145034761Y-65432857D01*
X145130000Y-65337619D01*
X145320476Y-65242380D01*
X145701428Y-65147142D01*
X145891904Y-65051904D01*
X145987142Y-64956666D01*
X146082380Y-64766190D01*
X146082380Y-64575714D01*
X145987142Y-64385238D01*
X145891904Y-64290000D01*
X145701428Y-64194761D01*
X145225238Y-64194761D01*
X144939523Y-64290000D01*
X143225238Y-66099523D02*
X143415714Y-66194761D01*
X143796666Y-66194761D01*
X143987142Y-66099523D01*
X144082380Y-66004285D01*
X144177619Y-65813809D01*
X144177619Y-65242380D01*
X144082380Y-65051904D01*
X143987142Y-64956666D01*
X143796666Y-64861428D01*
X143415714Y-64861428D01*
X143225238Y-64956666D01*
X142368095Y-66194761D02*
X142368095Y-64861428D01*
X142368095Y-64194761D02*
X142463333Y-64290000D01*
X142368095Y-64385238D01*
X142272857Y-64290000D01*
X142368095Y-64194761D01*
X142368095Y-64385238D01*
X140653809Y-66099523D02*
X140844285Y-66194761D01*
X141225238Y-66194761D01*
X141415714Y-66099523D01*
X141510952Y-65909047D01*
X141510952Y-65147142D01*
X141415714Y-64956666D01*
X141225238Y-64861428D01*
X140844285Y-64861428D01*
X140653809Y-64956666D01*
X140558571Y-65147142D01*
X140558571Y-65337619D01*
X141510952Y-65528095D01*
X139701428Y-64861428D02*
X139701428Y-66194761D01*
X139701428Y-65051904D02*
X139606190Y-64956666D01*
X139415714Y-64861428D01*
X139130000Y-64861428D01*
X138939523Y-64956666D01*
X138844285Y-65147142D01*
X138844285Y-66194761D01*
X137034761Y-66099523D02*
X137225238Y-66194761D01*
X137606190Y-66194761D01*
X137796666Y-66099523D01*
X137891904Y-66004285D01*
X137987142Y-65813809D01*
X137987142Y-65242380D01*
X137891904Y-65051904D01*
X137796666Y-64956666D01*
X137606190Y-64861428D01*
X137225238Y-64861428D01*
X137034761Y-64956666D01*
X135415714Y-66099523D02*
X135606190Y-66194761D01*
X135987142Y-66194761D01*
X136177619Y-66099523D01*
X136272857Y-65909047D01*
X136272857Y-65147142D01*
X136177619Y-64956666D01*
X135987142Y-64861428D01*
X135606190Y-64861428D01*
X135415714Y-64956666D01*
X135320476Y-65147142D01*
X135320476Y-65337619D01*
X136272857Y-65528095D01*
X132939523Y-66194761D02*
X132939523Y-64861428D01*
X132939523Y-64194761D02*
X133034761Y-64290000D01*
X132939523Y-64385238D01*
X132844285Y-64290000D01*
X132939523Y-64194761D01*
X132939523Y-64385238D01*
X131987142Y-64861428D02*
X131987142Y-66194761D01*
X131987142Y-65051904D02*
X131891904Y-64956666D01*
X131701428Y-64861428D01*
X131415714Y-64861428D01*
X131225238Y-64956666D01*
X131130000Y-65147142D01*
X131130000Y-66194761D01*
X127510952Y-66004285D02*
X127606190Y-66099523D01*
X127891904Y-66194761D01*
X128082380Y-66194761D01*
X128368095Y-66099523D01*
X128558571Y-65909047D01*
X128653809Y-65718571D01*
X128749047Y-65337619D01*
X128749047Y-65051904D01*
X128653809Y-64670952D01*
X128558571Y-64480476D01*
X128368095Y-64290000D01*
X128082380Y-64194761D01*
X127891904Y-64194761D01*
X127606190Y-64290000D01*
X127510952Y-64385238D01*
X126368095Y-66194761D02*
X126558571Y-66099523D01*
X126653809Y-66004285D01*
X126749047Y-65813809D01*
X126749047Y-65242380D01*
X126653809Y-65051904D01*
X126558571Y-64956666D01*
X126368095Y-64861428D01*
X126082380Y-64861428D01*
X125891904Y-64956666D01*
X125796666Y-65051904D01*
X125701428Y-65242380D01*
X125701428Y-65813809D01*
X125796666Y-66004285D01*
X125891904Y-66099523D01*
X126082380Y-66194761D01*
X126368095Y-66194761D01*
X124844285Y-66194761D02*
X124844285Y-64861428D01*
X124844285Y-65051904D02*
X124749047Y-64956666D01*
X124558571Y-64861428D01*
X124272857Y-64861428D01*
X124082380Y-64956666D01*
X123987142Y-65147142D01*
X123987142Y-66194761D01*
X123987142Y-65147142D02*
X123891904Y-64956666D01*
X123701428Y-64861428D01*
X123415714Y-64861428D01*
X123225238Y-64956666D01*
X123130000Y-65147142D01*
X123130000Y-66194761D01*
X122177619Y-64861428D02*
X122177619Y-66861428D01*
X122177619Y-64956666D02*
X121987142Y-64861428D01*
X121606190Y-64861428D01*
X121415714Y-64956666D01*
X121320476Y-65051904D01*
X121225238Y-65242380D01*
X121225238Y-65813809D01*
X121320476Y-66004285D01*
X121415714Y-66099523D01*
X121606190Y-66194761D01*
X121987142Y-66194761D01*
X122177619Y-66099523D01*
X119510952Y-64861428D02*
X119510952Y-66194761D01*
X120368095Y-64861428D02*
X120368095Y-65909047D01*
X120272857Y-66099523D01*
X120082380Y-66194761D01*
X119796666Y-66194761D01*
X119606190Y-66099523D01*
X119510952Y-66004285D01*
X118844285Y-64861428D02*
X118082380Y-64861428D01*
X118558571Y-64194761D02*
X118558571Y-65909047D01*
X118463333Y-66099523D01*
X118272857Y-66194761D01*
X118082380Y-66194761D01*
X116653809Y-66099523D02*
X116844285Y-66194761D01*
X117225238Y-66194761D01*
X117415714Y-66099523D01*
X117510952Y-65909047D01*
X117510952Y-65147142D01*
X117415714Y-64956666D01*
X117225238Y-64861428D01*
X116844285Y-64861428D01*
X116653809Y-64956666D01*
X116558571Y-65147142D01*
X116558571Y-65337619D01*
X117510952Y-65528095D01*
X115701428Y-66194761D02*
X115701428Y-64861428D01*
X115701428Y-65242380D02*
X115606190Y-65051904D01*
X115510952Y-64956666D01*
X115320476Y-64861428D01*
X115130000Y-64861428D01*
X112939523Y-65147142D02*
X112272857Y-65147142D01*
X111987142Y-66194761D02*
X112939523Y-66194761D01*
X112939523Y-64194761D01*
X111987142Y-64194761D01*
X111130000Y-64861428D02*
X111130000Y-66194761D01*
X111130000Y-65051904D02*
X111034761Y-64956666D01*
X110844285Y-64861428D01*
X110558571Y-64861428D01*
X110368095Y-64956666D01*
X110272857Y-65147142D01*
X110272857Y-66194761D01*
X108463333Y-64861428D02*
X108463333Y-66480476D01*
X108558571Y-66670952D01*
X108653809Y-66766190D01*
X108844285Y-66861428D01*
X109130000Y-66861428D01*
X109320476Y-66766190D01*
X108463333Y-66099523D02*
X108653809Y-66194761D01*
X109034761Y-66194761D01*
X109225238Y-66099523D01*
X109320476Y-66004285D01*
X109415714Y-65813809D01*
X109415714Y-65242380D01*
X109320476Y-65051904D01*
X109225238Y-64956666D01*
X109034761Y-64861428D01*
X108653809Y-64861428D01*
X108463333Y-64956666D01*
X107510952Y-66194761D02*
X107510952Y-64861428D01*
X107510952Y-64194761D02*
X107606190Y-64290000D01*
X107510952Y-64385238D01*
X107415714Y-64290000D01*
X107510952Y-64194761D01*
X107510952Y-64385238D01*
X106558571Y-64861428D02*
X106558571Y-66194761D01*
X106558571Y-65051904D02*
X106463333Y-64956666D01*
X106272857Y-64861428D01*
X105987142Y-64861428D01*
X105796666Y-64956666D01*
X105701428Y-65147142D01*
X105701428Y-66194761D01*
X103987142Y-66099523D02*
X104177619Y-66194761D01*
X104558571Y-66194761D01*
X104749047Y-66099523D01*
X104844285Y-65909047D01*
X104844285Y-65147142D01*
X104749047Y-64956666D01*
X104558571Y-64861428D01*
X104177619Y-64861428D01*
X103987142Y-64956666D01*
X103891904Y-65147142D01*
X103891904Y-65337619D01*
X104844285Y-65528095D01*
X102272857Y-66099523D02*
X102463333Y-66194761D01*
X102844285Y-66194761D01*
X103034761Y-66099523D01*
X103130000Y-65909047D01*
X103130000Y-65147142D01*
X103034761Y-64956666D01*
X102844285Y-64861428D01*
X102463333Y-64861428D01*
X102272857Y-64956666D01*
X102177619Y-65147142D01*
X102177619Y-65337619D01*
X103130000Y-65528095D01*
X101320476Y-66194761D02*
X101320476Y-64861428D01*
X101320476Y-65242380D02*
X101225238Y-65051904D01*
X101130000Y-64956666D01*
X100939523Y-64861428D01*
X100749047Y-64861428D01*
X100082380Y-66194761D02*
X100082380Y-64861428D01*
X100082380Y-64194761D02*
X100177619Y-64290000D01*
X100082380Y-64385238D01*
X99987142Y-64290000D01*
X100082380Y-64194761D01*
X100082380Y-64385238D01*
X99130000Y-64861428D02*
X99130000Y-66194761D01*
X99130000Y-65051904D02*
X99034761Y-64956666D01*
X98844285Y-64861428D01*
X98558571Y-64861428D01*
X98368095Y-64956666D01*
X98272857Y-65147142D01*
X98272857Y-66194761D01*
X96463333Y-64861428D02*
X96463333Y-66480476D01*
X96558571Y-66670952D01*
X96653809Y-66766190D01*
X96844285Y-66861428D01*
X97130000Y-66861428D01*
X97320476Y-66766190D01*
X96463333Y-66099523D02*
X96653809Y-66194761D01*
X97034761Y-66194761D01*
X97225238Y-66099523D01*
X97320476Y-66004285D01*
X97415714Y-65813809D01*
X97415714Y-65242380D01*
X97320476Y-65051904D01*
X97225238Y-64956666D01*
X97034761Y-64861428D01*
X96653809Y-64861428D01*
X96463333Y-64956666D01*
X143844285Y-67510000D02*
X144034761Y-67414761D01*
X144320476Y-67414761D01*
X144606190Y-67510000D01*
X144796666Y-67700476D01*
X144891904Y-67890952D01*
X144987142Y-68271904D01*
X144987142Y-68557619D01*
X144891904Y-68938571D01*
X144796666Y-69129047D01*
X144606190Y-69319523D01*
X144320476Y-69414761D01*
X144130000Y-69414761D01*
X143844285Y-69319523D01*
X143749047Y-69224285D01*
X143749047Y-68557619D01*
X144130000Y-68557619D01*
X142891904Y-69414761D02*
X142891904Y-68081428D01*
X142891904Y-68462380D02*
X142796666Y-68271904D01*
X142701428Y-68176666D01*
X142510952Y-68081428D01*
X142320476Y-68081428D01*
X140796666Y-69414761D02*
X140796666Y-68367142D01*
X140891904Y-68176666D01*
X141082380Y-68081428D01*
X141463333Y-68081428D01*
X141653809Y-68176666D01*
X140796666Y-69319523D02*
X140987142Y-69414761D01*
X141463333Y-69414761D01*
X141653809Y-69319523D01*
X141749047Y-69129047D01*
X141749047Y-68938571D01*
X141653809Y-68748095D01*
X141463333Y-68652857D01*
X140987142Y-68652857D01*
X140796666Y-68557619D01*
X138987142Y-69414761D02*
X138987142Y-67414761D01*
X138987142Y-69319523D02*
X139177619Y-69414761D01*
X139558571Y-69414761D01*
X139749047Y-69319523D01*
X139844285Y-69224285D01*
X139939523Y-69033809D01*
X139939523Y-68462380D01*
X139844285Y-68271904D01*
X139749047Y-68176666D01*
X139558571Y-68081428D01*
X139177619Y-68081428D01*
X138987142Y-68176666D01*
X137177619Y-68081428D02*
X137177619Y-69414761D01*
X138034761Y-68081428D02*
X138034761Y-69129047D01*
X137939523Y-69319523D01*
X137749047Y-69414761D01*
X137463333Y-69414761D01*
X137272857Y-69319523D01*
X137177619Y-69224285D01*
X135368095Y-69414761D02*
X135368095Y-68367142D01*
X135463333Y-68176666D01*
X135653809Y-68081428D01*
X136034761Y-68081428D01*
X136225238Y-68176666D01*
X135368095Y-69319523D02*
X135558571Y-69414761D01*
X136034761Y-69414761D01*
X136225238Y-69319523D01*
X136320476Y-69129047D01*
X136320476Y-68938571D01*
X136225238Y-68748095D01*
X136034761Y-68652857D01*
X135558571Y-68652857D01*
X135368095Y-68557619D01*
X134701428Y-68081428D02*
X133939523Y-68081428D01*
X134415714Y-67414761D02*
X134415714Y-69129047D01*
X134320476Y-69319523D01*
X134130000Y-69414761D01*
X133939523Y-69414761D01*
X133272857Y-69414761D02*
X133272857Y-68081428D01*
X133272857Y-67414761D02*
X133368095Y-67510000D01*
X133272857Y-67605238D01*
X133177619Y-67510000D01*
X133272857Y-67414761D01*
X133272857Y-67605238D01*
X132034761Y-69414761D02*
X132225238Y-69319523D01*
X132320476Y-69224285D01*
X132415714Y-69033809D01*
X132415714Y-68462380D01*
X132320476Y-68271904D01*
X132225238Y-68176666D01*
X132034761Y-68081428D01*
X131749047Y-68081428D01*
X131558571Y-68176666D01*
X131463333Y-68271904D01*
X131368095Y-68462380D01*
X131368095Y-69033809D01*
X131463333Y-69224285D01*
X131558571Y-69319523D01*
X131749047Y-69414761D01*
X132034761Y-69414761D01*
X130510952Y-68081428D02*
X130510952Y-69414761D01*
X130510952Y-68271904D02*
X130415714Y-68176666D01*
X130225238Y-68081428D01*
X129939523Y-68081428D01*
X129749047Y-68176666D01*
X129653809Y-68367142D01*
X129653809Y-69414761D01*
X126034761Y-69224285D02*
X126130000Y-69319523D01*
X126415714Y-69414761D01*
X126606190Y-69414761D01*
X126891904Y-69319523D01*
X127082380Y-69129047D01*
X127177619Y-68938571D01*
X127272857Y-68557619D01*
X127272857Y-68271904D01*
X127177619Y-67890952D01*
X127082380Y-67700476D01*
X126891904Y-67510000D01*
X126606190Y-67414761D01*
X126415714Y-67414761D01*
X126130000Y-67510000D01*
X126034761Y-67605238D01*
X124320476Y-69414761D02*
X124320476Y-68367142D01*
X124415714Y-68176666D01*
X124606190Y-68081428D01*
X124987142Y-68081428D01*
X125177619Y-68176666D01*
X124320476Y-69319523D02*
X124510952Y-69414761D01*
X124987142Y-69414761D01*
X125177619Y-69319523D01*
X125272857Y-69129047D01*
X125272857Y-68938571D01*
X125177619Y-68748095D01*
X124987142Y-68652857D01*
X124510952Y-68652857D01*
X124320476Y-68557619D01*
X123368095Y-68081428D02*
X123368095Y-70081428D01*
X123368095Y-68176666D02*
X123177619Y-68081428D01*
X122796666Y-68081428D01*
X122606190Y-68176666D01*
X122510952Y-68271904D01*
X122415714Y-68462380D01*
X122415714Y-69033809D01*
X122510952Y-69224285D01*
X122606190Y-69319523D01*
X122796666Y-69414761D01*
X123177619Y-69414761D01*
X123368095Y-69319523D01*
X120130000Y-67605238D02*
X120034761Y-67510000D01*
X119844285Y-67414761D01*
X119368095Y-67414761D01*
X119177619Y-67510000D01*
X119082380Y-67605238D01*
X118987142Y-67795714D01*
X118987142Y-67986190D01*
X119082380Y-68271904D01*
X120225238Y-69414761D01*
X118987142Y-69414761D01*
X117749047Y-67414761D02*
X117558571Y-67414761D01*
X117368095Y-67510000D01*
X117272857Y-67605238D01*
X117177619Y-67795714D01*
X117082380Y-68176666D01*
X117082380Y-68652857D01*
X117177619Y-69033809D01*
X117272857Y-69224285D01*
X117368095Y-69319523D01*
X117558571Y-69414761D01*
X117749047Y-69414761D01*
X117939523Y-69319523D01*
X118034761Y-69224285D01*
X118130000Y-69033809D01*
X118225238Y-68652857D01*
X118225238Y-68176666D01*
X118130000Y-67795714D01*
X118034761Y-67605238D01*
X117939523Y-67510000D01*
X117749047Y-67414761D01*
X116320476Y-67605238D02*
X116225238Y-67510000D01*
X116034761Y-67414761D01*
X115558571Y-67414761D01*
X115368095Y-67510000D01*
X115272857Y-67605238D01*
X115177619Y-67795714D01*
X115177619Y-67986190D01*
X115272857Y-68271904D01*
X116415714Y-69414761D01*
X115177619Y-69414761D01*
X114415714Y-67605238D02*
X114320476Y-67510000D01*
X114130000Y-67414761D01*
X113653809Y-67414761D01*
X113463333Y-67510000D01*
X113368095Y-67605238D01*
X113272857Y-67795714D01*
X113272857Y-67986190D01*
X113368095Y-68271904D01*
X114510952Y-69414761D01*
X113272857Y-69414761D01*
%TO.C,G\u002A\u002A\u002A*%
X125442571Y-120358000D02*
X125587714Y-120285428D01*
X125805428Y-120285428D01*
X126023142Y-120358000D01*
X126168285Y-120503142D01*
X126240857Y-120648285D01*
X126313428Y-120938571D01*
X126313428Y-121156285D01*
X126240857Y-121446571D01*
X126168285Y-121591714D01*
X126023142Y-121736857D01*
X125805428Y-121809428D01*
X125660285Y-121809428D01*
X125442571Y-121736857D01*
X125370000Y-121664285D01*
X125370000Y-121156285D01*
X125660285Y-121156285D01*
X124499142Y-120285428D02*
X124499142Y-120648285D01*
X124862000Y-120503142D02*
X124499142Y-120648285D01*
X124136285Y-120503142D01*
X124716857Y-120938571D02*
X124499142Y-120648285D01*
X124281428Y-120938571D01*
X123338000Y-120285428D02*
X123338000Y-120648285D01*
X123700857Y-120503142D02*
X123338000Y-120648285D01*
X122975142Y-120503142D01*
X123555714Y-120938571D02*
X123338000Y-120648285D01*
X123120285Y-120938571D01*
X122176857Y-120285428D02*
X122176857Y-120648285D01*
X122539714Y-120503142D02*
X122176857Y-120648285D01*
X121814000Y-120503142D01*
X122394571Y-120938571D02*
X122176857Y-120648285D01*
X121959142Y-120938571D01*
G36*
X124496876Y-152808742D02*
G01*
X124213697Y-153036848D01*
X123947723Y-153128588D01*
X123626486Y-153124779D01*
X123342102Y-153008949D01*
X123113430Y-152805878D01*
X122959329Y-152540349D01*
X122898658Y-152237145D01*
X122902084Y-152216163D01*
X123074669Y-152216163D01*
X123145153Y-152484284D01*
X123293132Y-152731149D01*
X123486213Y-152890402D01*
X123620053Y-152942303D01*
X123877899Y-152964929D01*
X124151826Y-152862182D01*
X124259152Y-152789525D01*
X124439718Y-152551933D01*
X124506306Y-152258949D01*
X124454521Y-151951449D01*
X124279968Y-151670308D01*
X124233628Y-151625956D01*
X123987301Y-151503920D01*
X123709569Y-151500194D01*
X123440075Y-151601617D01*
X123218461Y-151795026D01*
X123084368Y-152067261D01*
X123074669Y-152216163D01*
X122902084Y-152216163D01*
X122950278Y-151921045D01*
X123133047Y-151616833D01*
X123196611Y-151549017D01*
X123497630Y-151339291D01*
X123825401Y-151283535D01*
X124180408Y-151381641D01*
X124470504Y-151572613D01*
X124645843Y-151839258D01*
X124704287Y-152199422D01*
X124696243Y-152258949D01*
X124665071Y-152489627D01*
X124496876Y-152808742D01*
G37*
G36*
X109465783Y-126674270D02*
G01*
X109477082Y-126674794D01*
X109822491Y-126689899D01*
X110284290Y-126708755D01*
X110845441Y-126730760D01*
X111488908Y-126755311D01*
X112197655Y-126781806D01*
X112954644Y-126809644D01*
X113742839Y-126838222D01*
X114545204Y-126866938D01*
X115344702Y-126895189D01*
X116124296Y-126922374D01*
X116866949Y-126947891D01*
X117555625Y-126971136D01*
X118173288Y-126991509D01*
X118702900Y-127008406D01*
X119127425Y-127021226D01*
X119429827Y-127029367D01*
X119593068Y-127032226D01*
X119705307Y-127034668D01*
X119937643Y-127065944D01*
X120034917Y-127130000D01*
X120038306Y-127143529D01*
X120066988Y-127283847D01*
X120117410Y-127547078D01*
X120184994Y-127908782D01*
X120265163Y-128344519D01*
X120353338Y-128829846D01*
X120448365Y-129353131D01*
X120555731Y-129938743D01*
X120660591Y-130505567D01*
X120754612Y-131008577D01*
X120829462Y-131402745D01*
X120838281Y-131448828D01*
X120904398Y-131812940D01*
X120953089Y-132114619D01*
X120979828Y-132323609D01*
X120980090Y-132409654D01*
X120946405Y-132418344D01*
X120784812Y-132429240D01*
X120523609Y-132433714D01*
X120198886Y-132430790D01*
X120004419Y-132428750D01*
X119721115Y-132433826D01*
X119526306Y-132448126D01*
X119453846Y-132469874D01*
X119458510Y-132502296D01*
X119488274Y-132667482D01*
X119541877Y-132951251D01*
X119615055Y-133331350D01*
X119703542Y-133785527D01*
X119803071Y-134291532D01*
X119883434Y-134698816D01*
X120001991Y-135300835D01*
X120139125Y-135998135D01*
X120288615Y-136759063D01*
X120444246Y-137551965D01*
X120599798Y-138345187D01*
X120749054Y-139107077D01*
X120791798Y-139325265D01*
X120920128Y-139978704D01*
X121038117Y-140577102D01*
X121142502Y-141104062D01*
X121230018Y-141543187D01*
X121297402Y-141878084D01*
X121341389Y-142092355D01*
X121358716Y-142169605D01*
X121396325Y-142179287D01*
X121559413Y-142210081D01*
X121821014Y-142255293D01*
X122147803Y-142309034D01*
X122373335Y-142346219D01*
X122662920Y-142397060D01*
X122866084Y-142436691D01*
X122948803Y-142458752D01*
X122951277Y-142464244D01*
X122979259Y-142575850D01*
X123031182Y-142812395D01*
X123102141Y-143150583D01*
X123187229Y-143567120D01*
X123281540Y-144038708D01*
X123401166Y-144643631D01*
X123543066Y-145362981D01*
X123683745Y-146077882D01*
X123819971Y-146771789D01*
X123948515Y-147428159D01*
X124066146Y-148030447D01*
X124169633Y-148562111D01*
X124255746Y-149006606D01*
X124321255Y-149347388D01*
X124362929Y-149567914D01*
X124377538Y-149651641D01*
X124376725Y-149654425D01*
X124365989Y-149657575D01*
X124335278Y-149654766D01*
X124275215Y-149643606D01*
X124176422Y-149621707D01*
X124029523Y-149586678D01*
X123825141Y-149536130D01*
X123553898Y-149467673D01*
X123206416Y-149378916D01*
X122773320Y-149267471D01*
X122245230Y-149130948D01*
X121612771Y-148966956D01*
X120866565Y-148773105D01*
X119997235Y-148547007D01*
X118995403Y-148286271D01*
X117851692Y-147988507D01*
X117842944Y-147986229D01*
X117030241Y-147774700D01*
X116216831Y-147563126D01*
X115424423Y-147357143D01*
X114674727Y-147162390D01*
X113989450Y-146984504D01*
X113390303Y-146829122D01*
X112898993Y-146701882D01*
X112537231Y-146608422D01*
X112154568Y-146509771D01*
X111660297Y-146382323D01*
X111202153Y-146264163D01*
X110818548Y-146165200D01*
X110547892Y-146095341D01*
X110492908Y-146080947D01*
X110215898Y-146002178D01*
X110007811Y-145932866D01*
X109910162Y-145886600D01*
X109906973Y-145880417D01*
X109876746Y-145765085D01*
X109824229Y-145523227D01*
X109753449Y-145176374D01*
X109668427Y-144746061D01*
X109573189Y-144253819D01*
X109471759Y-143721180D01*
X109368160Y-143169678D01*
X109266417Y-142620846D01*
X109170553Y-142096214D01*
X109084593Y-141617317D01*
X109012561Y-141205687D01*
X108958481Y-140882856D01*
X108926376Y-140670357D01*
X108920271Y-140589722D01*
X108951763Y-140588073D01*
X109108125Y-140600938D01*
X109363991Y-140630296D01*
X109684615Y-140672388D01*
X109886617Y-140700083D01*
X110436581Y-140773612D01*
X111037848Y-140851767D01*
X111671661Y-140932311D01*
X112319264Y-141013007D01*
X112961898Y-141091616D01*
X113580807Y-141165901D01*
X114157235Y-141233623D01*
X114672423Y-141292546D01*
X115107615Y-141340431D01*
X115444054Y-141375041D01*
X115662983Y-141394138D01*
X115745644Y-141395484D01*
X115748798Y-141319389D01*
X115731918Y-141123213D01*
X115699042Y-140844700D01*
X115655213Y-140520968D01*
X115605475Y-140189138D01*
X115554870Y-139886328D01*
X115508443Y-139649657D01*
X115505943Y-139639425D01*
X115479349Y-139585745D01*
X115418108Y-139541163D01*
X115302091Y-139501398D01*
X115111168Y-139462166D01*
X114825211Y-139419185D01*
X114424088Y-139368173D01*
X113887671Y-139304847D01*
X113775074Y-139291667D01*
X113303237Y-139234014D01*
X112890102Y-139179728D01*
X112559838Y-139132242D01*
X112336610Y-139094990D01*
X112244585Y-139071405D01*
X112241237Y-139068069D01*
X112218528Y-139022933D01*
X112189402Y-138925410D01*
X112151428Y-138762780D01*
X112102173Y-138522322D01*
X112039208Y-138191315D01*
X111960099Y-137757038D01*
X111862417Y-137206771D01*
X111743729Y-136527794D01*
X111601605Y-135707385D01*
X111582836Y-135598827D01*
X111497695Y-135109088D01*
X111419778Y-134665047D01*
X111353884Y-134293796D01*
X111304815Y-134022422D01*
X111277372Y-133878017D01*
X111229874Y-133650803D01*
X112078937Y-133706689D01*
X112272491Y-133719603D01*
X112755075Y-133752867D01*
X113243060Y-133787690D01*
X113655748Y-133818360D01*
X113833828Y-133831381D01*
X114120372Y-133849263D01*
X114321802Y-133857662D01*
X114402790Y-133854851D01*
X114401677Y-133787782D01*
X114378275Y-133601236D01*
X114337809Y-133333837D01*
X114286808Y-133023890D01*
X114231796Y-132709699D01*
X114179303Y-132429571D01*
X114135854Y-132221809D01*
X114107977Y-132124717D01*
X114035219Y-132097645D01*
X113834589Y-132064484D01*
X113540112Y-132032670D01*
X113184850Y-132006439D01*
X112878474Y-131987756D01*
X112366720Y-131954213D01*
X111828613Y-131916604D01*
X111286942Y-131876743D01*
X110764496Y-131836448D01*
X110284064Y-131797533D01*
X109868434Y-131761813D01*
X109540395Y-131731106D01*
X109322736Y-131707226D01*
X109238246Y-131691990D01*
X109233378Y-131677860D01*
X109204595Y-131542029D01*
X109155290Y-131278336D01*
X109088837Y-130905888D01*
X109008615Y-130443794D01*
X108917998Y-129911159D01*
X108820364Y-129327091D01*
X108786775Y-129124715D01*
X108689840Y-128543708D01*
X108600554Y-128012895D01*
X108522465Y-127553084D01*
X108459120Y-127185083D01*
X108414066Y-126929700D01*
X108390851Y-126807741D01*
X108348181Y-126622251D01*
X109465783Y-126674270D01*
G37*
G36*
X106137830Y-135584003D02*
G01*
X106291686Y-136505921D01*
X106454942Y-137482092D01*
X106625756Y-138501385D01*
X106794405Y-139510375D01*
X106955594Y-140481910D01*
X107106306Y-141397472D01*
X107244803Y-142246156D01*
X107369344Y-143017060D01*
X107478191Y-143699278D01*
X107569603Y-144281907D01*
X107641840Y-144754044D01*
X107693164Y-145104785D01*
X107721834Y-145323225D01*
X107726112Y-145398462D01*
X107705813Y-145396071D01*
X107629592Y-145380358D01*
X107489290Y-145347245D01*
X107272460Y-145293573D01*
X106966650Y-145216183D01*
X106559411Y-145111913D01*
X106038292Y-144977605D01*
X105390844Y-144810099D01*
X104604615Y-144606235D01*
X104343969Y-144537487D01*
X103957487Y-144431084D01*
X103640646Y-144338317D01*
X103420773Y-144267303D01*
X103325195Y-144226160D01*
X103309712Y-144200621D01*
X103285550Y-144130797D01*
X103253494Y-144007922D01*
X103211339Y-143820798D01*
X103156881Y-143558228D01*
X103087916Y-143209015D01*
X103002240Y-142761960D01*
X102897649Y-142205868D01*
X102771939Y-141529539D01*
X102622906Y-140721777D01*
X102448346Y-139771385D01*
X102416659Y-139601022D01*
X102339886Y-139207286D01*
X102270280Y-138875284D01*
X102214454Y-138635756D01*
X102179021Y-138519444D01*
X102146003Y-138481002D01*
X101988498Y-138386828D01*
X101763821Y-138306133D01*
X101709304Y-138290641D01*
X101355782Y-138163292D01*
X100924324Y-137975026D01*
X100458974Y-137747198D01*
X100003774Y-137501164D01*
X99602769Y-137258280D01*
X99225873Y-136978984D01*
X98786326Y-136595867D01*
X98327100Y-136149249D01*
X97881604Y-135673246D01*
X97483248Y-135201971D01*
X97165441Y-134769539D01*
X96678761Y-133970627D01*
X96068214Y-132732500D01*
X95567783Y-131404586D01*
X95343391Y-130588308D01*
X98586607Y-130588308D01*
X98588802Y-130783692D01*
X98589888Y-130809268D01*
X98646292Y-131064534D01*
X98776365Y-131407083D01*
X98963932Y-131802425D01*
X99192823Y-132216071D01*
X99446862Y-132613533D01*
X99745533Y-133011825D01*
X100180370Y-133491929D01*
X100621216Y-133874038D01*
X101041342Y-134132682D01*
X101068470Y-134145434D01*
X101303010Y-134251001D01*
X101455038Y-134292819D01*
X101536042Y-134252780D01*
X101557504Y-134112778D01*
X101530912Y-133854708D01*
X101467751Y-133460462D01*
X101424523Y-133196071D01*
X101344187Y-132692520D01*
X101261419Y-132161767D01*
X101188568Y-131682462D01*
X101048615Y-130744616D01*
X98586607Y-130588308D01*
X95343391Y-130588308D01*
X95182847Y-130004292D01*
X94918789Y-128549027D01*
X94780989Y-127056197D01*
X94734866Y-126103163D01*
X95429894Y-126139320D01*
X95533567Y-126144258D01*
X95825573Y-126156642D01*
X96246932Y-126173410D01*
X96780664Y-126193927D01*
X97409789Y-126217558D01*
X98117326Y-126243667D01*
X98886296Y-126271619D01*
X99699719Y-126300779D01*
X100540615Y-126330511D01*
X101030311Y-126347827D01*
X101858066Y-126377647D01*
X102648856Y-126406804D01*
X103385645Y-126434632D01*
X104051397Y-126460467D01*
X104629076Y-126483644D01*
X105101646Y-126503495D01*
X105452071Y-126519358D01*
X105663315Y-126530566D01*
X106370322Y-126575586D01*
X106745040Y-128894562D01*
X106776592Y-129089465D01*
X106870636Y-129666090D01*
X106957206Y-130190674D01*
X107032858Y-130642756D01*
X107094148Y-131001875D01*
X107137634Y-131247570D01*
X107159872Y-131359382D01*
X107167594Y-131392962D01*
X107159241Y-131443836D01*
X107097022Y-131472084D01*
X106955434Y-131480451D01*
X106708976Y-131471685D01*
X106332147Y-131448532D01*
X106083078Y-131433358D01*
X105776678Y-131421326D01*
X105587688Y-131427191D01*
X105492260Y-131452318D01*
X105466544Y-131498074D01*
X105478855Y-131584813D01*
X105515309Y-131815245D01*
X105574062Y-132177859D01*
X105653272Y-132661520D01*
X105751097Y-133255098D01*
X105865693Y-133947460D01*
X105893145Y-134112778D01*
X105995219Y-134727472D01*
X106137830Y-135584003D01*
G37*
G36*
X121296143Y-115626451D02*
G01*
X121888515Y-115635712D01*
X122581965Y-115651281D01*
X123365505Y-115673093D01*
X125049779Y-115723955D01*
X125269649Y-116485312D01*
X125489520Y-117246668D01*
X126995940Y-117303152D01*
X128502359Y-117359636D01*
X128571991Y-117602426D01*
X128597454Y-117679783D01*
X128644954Y-117761561D01*
X128726914Y-117824885D01*
X128863578Y-117874661D01*
X129075189Y-117915800D01*
X129381991Y-117953208D01*
X129804226Y-117991793D01*
X130362138Y-118036466D01*
X131349278Y-118135786D01*
X132903275Y-118371563D01*
X134527495Y-118706038D01*
X136197208Y-119132695D01*
X137887688Y-119645018D01*
X139574205Y-120236491D01*
X141232031Y-120900599D01*
X141329523Y-120942640D01*
X141822132Y-121163950D01*
X142391047Y-121430907D01*
X142999708Y-121725405D01*
X143611556Y-122029336D01*
X144190031Y-122324592D01*
X144698574Y-122593067D01*
X145100626Y-122816653D01*
X145203276Y-122876700D01*
X145549265Y-123085380D01*
X145920377Y-123316897D01*
X146294012Y-123556272D01*
X146647574Y-123788527D01*
X146958464Y-123998684D01*
X147204083Y-124171763D01*
X147361835Y-124292787D01*
X147409121Y-124346777D01*
X147377124Y-124349996D01*
X147207241Y-124350587D01*
X146904027Y-124345580D01*
X146481757Y-124335390D01*
X145954707Y-124320431D01*
X145337153Y-124301117D01*
X144643370Y-124277864D01*
X143887633Y-124251085D01*
X143084218Y-124221195D01*
X142230993Y-124188746D01*
X141246589Y-124151364D01*
X140234215Y-124112972D01*
X139224564Y-124074732D01*
X138248331Y-124037805D01*
X137336209Y-124003353D01*
X136518893Y-123972538D01*
X135827077Y-123946521D01*
X135194469Y-123922521D01*
X134478146Y-123894779D01*
X133788805Y-123867520D01*
X133152291Y-123841791D01*
X132594446Y-123818638D01*
X132141117Y-123799107D01*
X131818146Y-123784245D01*
X130779062Y-123733454D01*
X130833870Y-123956573D01*
X130864043Y-124067918D01*
X130941229Y-124322654D01*
X131032800Y-124602235D01*
X131093540Y-124783839D01*
X131153658Y-124973757D01*
X131176923Y-125062399D01*
X131176229Y-125063340D01*
X131087710Y-125070735D01*
X130864777Y-125073569D01*
X130527371Y-125072022D01*
X130095428Y-125066275D01*
X129588889Y-125056508D01*
X129027692Y-125042904D01*
X128775128Y-125036476D01*
X128089209Y-125022810D01*
X127557752Y-125018846D01*
X127179589Y-125024599D01*
X126953548Y-125040078D01*
X126878461Y-125065298D01*
X126881889Y-125097341D01*
X126911178Y-125260848D01*
X126963941Y-125519689D01*
X127032316Y-125834559D01*
X127067834Y-125994345D01*
X127146312Y-126349049D01*
X127247050Y-126805682D01*
X127363242Y-127333344D01*
X127488080Y-127901135D01*
X127614755Y-128478154D01*
X127640424Y-128595173D01*
X127796199Y-129305252D01*
X127970184Y-130098258D01*
X128149456Y-130915293D01*
X128321091Y-131697456D01*
X128472166Y-132385846D01*
X128482844Y-132434496D01*
X128619646Y-133057907D01*
X128783889Y-133806504D01*
X128970036Y-134655044D01*
X129172551Y-135578282D01*
X129385897Y-136550974D01*
X129604538Y-137547876D01*
X129822937Y-138543743D01*
X130035558Y-139513330D01*
X130236865Y-140431394D01*
X130421320Y-141272690D01*
X130583389Y-142011973D01*
X130717533Y-142624000D01*
X130782206Y-142919308D01*
X130908808Y-143498270D01*
X131037742Y-144088857D01*
X131157056Y-144636304D01*
X131254800Y-145085846D01*
X131282963Y-145215370D01*
X131363889Y-145586273D01*
X131471154Y-146076729D01*
X131599863Y-146664403D01*
X131745120Y-147326962D01*
X131902031Y-148042073D01*
X132065700Y-148787402D01*
X132231233Y-149540616D01*
X132286745Y-149793157D01*
X132460726Y-150585231D01*
X132636459Y-151386098D01*
X132808050Y-152168852D01*
X132969608Y-152906584D01*
X133115237Y-153572387D01*
X133239045Y-154139354D01*
X133335137Y-154580577D01*
X133374449Y-154760819D01*
X133478514Y-155231429D01*
X133571302Y-155641861D01*
X133647453Y-155968949D01*
X133701607Y-156189525D01*
X133728404Y-156280423D01*
X133734554Y-156322008D01*
X133666407Y-156334252D01*
X133505618Y-156306843D01*
X133238530Y-156236600D01*
X132851484Y-156120341D01*
X132330824Y-155954885D01*
X131873154Y-155807488D01*
X131311760Y-155627233D01*
X130696686Y-155430159D01*
X130075711Y-155231575D01*
X129496615Y-155046791D01*
X129283913Y-154978733D01*
X128822858Y-154829179D01*
X128422327Y-154696486D01*
X128104471Y-154588149D01*
X127891440Y-154511662D01*
X127805384Y-154474521D01*
X127801485Y-154465895D01*
X127769702Y-154341629D01*
X127712381Y-154082561D01*
X127632505Y-153703336D01*
X127533059Y-153218604D01*
X127417026Y-152643010D01*
X127287391Y-151991203D01*
X127147138Y-151277830D01*
X126999251Y-150517539D01*
X126859539Y-149795723D01*
X126695128Y-148946809D01*
X126531935Y-148104676D01*
X126374701Y-147293772D01*
X126228169Y-146538542D01*
X126097080Y-145863437D01*
X125986176Y-145292901D01*
X125900201Y-144851385D01*
X125854662Y-144617846D01*
X125725790Y-143956821D01*
X125571785Y-143166725D01*
X125395994Y-142264742D01*
X125201765Y-141268057D01*
X124992448Y-140193855D01*
X124771391Y-139059319D01*
X124541942Y-137881635D01*
X124307450Y-136677988D01*
X124071263Y-135465561D01*
X123836730Y-134261539D01*
X123821803Y-134184900D01*
X123695410Y-133535451D01*
X123546763Y-132770945D01*
X123382438Y-131925238D01*
X123209008Y-131032185D01*
X123033050Y-130125639D01*
X122861136Y-129239455D01*
X122699843Y-128407489D01*
X122594356Y-127865595D01*
X122461271Y-127189061D01*
X122338351Y-126572149D01*
X122228801Y-126030507D01*
X122135820Y-125579786D01*
X122062611Y-125235636D01*
X122012377Y-125013708D01*
X121988318Y-124929652D01*
X121979758Y-124925886D01*
X121855447Y-124909547D01*
X121604855Y-124891947D01*
X121251952Y-124874330D01*
X120820710Y-124857937D01*
X120335100Y-124844009D01*
X118728439Y-124804923D01*
X118523847Y-124062462D01*
X118319254Y-123320000D01*
X111989473Y-123152484D01*
X111113628Y-123129341D01*
X109993557Y-123099839D01*
X108855733Y-123069965D01*
X107721906Y-123040285D01*
X106613826Y-123011366D01*
X105553246Y-122983774D01*
X104561914Y-122958077D01*
X103661583Y-122934840D01*
X102874002Y-122914630D01*
X102220923Y-122898014D01*
X101595563Y-122881913D01*
X100532409Y-122852889D01*
X99620017Y-122825544D01*
X98854772Y-122799729D01*
X98233056Y-122775296D01*
X97751252Y-122752096D01*
X97405742Y-122729981D01*
X97192911Y-122708803D01*
X97109140Y-122688413D01*
X97133216Y-122661548D01*
X97273954Y-122578099D01*
X97518760Y-122450711D01*
X97844799Y-122290084D01*
X98229231Y-122106915D01*
X98649221Y-121911903D01*
X99081930Y-121715745D01*
X99504521Y-121529141D01*
X99894157Y-121362787D01*
X100228000Y-121227383D01*
X100784075Y-121015705D01*
X102189680Y-120521340D01*
X103672876Y-120051881D01*
X105209686Y-119612671D01*
X106776131Y-119209056D01*
X108348233Y-118846378D01*
X109902012Y-118529980D01*
X111413492Y-118265208D01*
X112858693Y-118057405D01*
X114213637Y-117911914D01*
X115454346Y-117834079D01*
X115488362Y-117832856D01*
X115968105Y-117814865D01*
X116313795Y-117798475D01*
X116546328Y-117780296D01*
X116686600Y-117756943D01*
X116755508Y-117725026D01*
X116773946Y-117681158D01*
X116762812Y-117621953D01*
X116728259Y-117496536D01*
X116668461Y-117275282D01*
X116619681Y-117092102D01*
X118505728Y-117118974D01*
X118698668Y-117121641D01*
X119253206Y-117127757D01*
X119674257Y-117128805D01*
X119979379Y-117123947D01*
X120186129Y-117112340D01*
X120312065Y-117093143D01*
X120374742Y-117065515D01*
X120391720Y-117028616D01*
X120391023Y-117012278D01*
X120371318Y-116856312D01*
X120329987Y-116603109D01*
X120274448Y-116298817D01*
X120259071Y-116218182D01*
X120207214Y-115941593D01*
X120170907Y-115740566D01*
X120157231Y-115654048D01*
X120157243Y-115653795D01*
X120235401Y-115637171D01*
X120458597Y-115627115D01*
X120815841Y-115623564D01*
X121296143Y-115626451D01*
G37*
G36*
X130633650Y-127444999D02*
G01*
X131086066Y-127453603D01*
X131605161Y-127465646D01*
X132170118Y-127480510D01*
X132760119Y-127497573D01*
X133354346Y-127516216D01*
X133931982Y-127535819D01*
X134472210Y-127555761D01*
X134954211Y-127575423D01*
X135357168Y-127594185D01*
X135660264Y-127611427D01*
X135842681Y-127626528D01*
X136096463Y-127688472D01*
X136210212Y-127798507D01*
X136233270Y-127891155D01*
X136288312Y-128122510D01*
X136371343Y-128475808D01*
X136478730Y-128935469D01*
X136606842Y-129485914D01*
X136752047Y-130111562D01*
X136910713Y-130796836D01*
X137079208Y-131526154D01*
X137108036Y-131651063D01*
X137316392Y-132553430D01*
X137543860Y-133537976D01*
X137781404Y-134565621D01*
X138019984Y-135597282D01*
X138250564Y-136593877D01*
X138464105Y-137516323D01*
X138651570Y-138325539D01*
X138689855Y-138490736D01*
X138861642Y-139232356D01*
X139031898Y-139967928D01*
X139194992Y-140673084D01*
X139345291Y-141323455D01*
X139477164Y-141894669D01*
X139584977Y-142362359D01*
X139663099Y-142702154D01*
X139685924Y-142801509D01*
X139841129Y-143464348D01*
X139974428Y-144003384D01*
X140093699Y-144444576D01*
X140206821Y-144813888D01*
X140321672Y-145137280D01*
X140446131Y-145440715D01*
X140588076Y-145750154D01*
X140677370Y-145931254D01*
X141023314Y-146528930D01*
X141380094Y-146989124D01*
X141742742Y-147308194D01*
X142106290Y-147482504D01*
X142465769Y-147508412D01*
X142816212Y-147382281D01*
X142941909Y-147297568D01*
X143106058Y-147119605D01*
X143216504Y-146869278D01*
X143296148Y-146504715D01*
X143313449Y-146386407D01*
X143328670Y-146225900D01*
X143333969Y-146049521D01*
X143327511Y-145848211D01*
X143307460Y-145612911D01*
X143271982Y-145334561D01*
X143219242Y-145004103D01*
X143147406Y-144612479D01*
X143054638Y-144150628D01*
X142939104Y-143609492D01*
X142798968Y-142980013D01*
X142632397Y-142253131D01*
X142437555Y-141419787D01*
X142212608Y-140470922D01*
X141955720Y-139397478D01*
X141665057Y-138190396D01*
X141338785Y-136840616D01*
X141327610Y-136794371D01*
X141266548Y-136540690D01*
X141175413Y-136161157D01*
X141059094Y-135676159D01*
X140922474Y-135106081D01*
X140770441Y-134471310D01*
X140607881Y-133792231D01*
X140439679Y-133089231D01*
X140412723Y-132976554D01*
X140238297Y-132248206D01*
X140065262Y-131526856D01*
X139899436Y-130836678D01*
X139746635Y-130201844D01*
X139612676Y-129646527D01*
X139503378Y-129194900D01*
X139424558Y-128871135D01*
X139385678Y-128710807D01*
X139298933Y-128340357D01*
X139232625Y-128038549D01*
X139192669Y-127833025D01*
X139184980Y-127751430D01*
X139208165Y-127749119D01*
X139363200Y-127749092D01*
X139649719Y-127754604D01*
X140051383Y-127765175D01*
X140551851Y-127780323D01*
X141134783Y-127799568D01*
X141783839Y-127822429D01*
X142482679Y-127848427D01*
X142568339Y-127851692D01*
X143347243Y-127881130D01*
X144138590Y-127910623D01*
X144914275Y-127939152D01*
X145646190Y-127965697D01*
X146306233Y-127989236D01*
X146866296Y-128008751D01*
X147298274Y-128023220D01*
X147738020Y-128040129D01*
X148210667Y-128065761D01*
X148582155Y-128095034D01*
X148834100Y-128126440D01*
X148948122Y-128158473D01*
X148959773Y-128173621D01*
X149019576Y-128313862D01*
X149107180Y-128574917D01*
X149215331Y-128933075D01*
X149336776Y-129364622D01*
X149464262Y-129845846D01*
X149599951Y-130373376D01*
X149754419Y-130973553D01*
X149906189Y-131562916D01*
X150043194Y-132094607D01*
X150153365Y-132521767D01*
X150190350Y-132667047D01*
X150279729Y-133037709D01*
X150346019Y-133342317D01*
X150383343Y-133552586D01*
X150385820Y-133640231D01*
X150383683Y-133641594D01*
X150281459Y-133650829D01*
X150050260Y-133651660D01*
X149714762Y-133644589D01*
X149299646Y-133630114D01*
X148829589Y-133608735D01*
X148783109Y-133606408D01*
X148316814Y-133584813D01*
X147907499Y-133568921D01*
X147579936Y-133559462D01*
X147358898Y-133557167D01*
X147269156Y-133562764D01*
X147258780Y-133610106D01*
X147277474Y-133772896D01*
X147329636Y-134005416D01*
X147377967Y-134188273D01*
X147544712Y-134826874D01*
X147729213Y-135543565D01*
X147927959Y-136323995D01*
X148137440Y-137153815D01*
X148354147Y-138018673D01*
X148574569Y-138904220D01*
X148795196Y-139796105D01*
X149012519Y-140679977D01*
X149223027Y-141541487D01*
X149423209Y-142366284D01*
X149609558Y-143140017D01*
X149778561Y-143848336D01*
X149926710Y-144476892D01*
X150050493Y-145011332D01*
X150146402Y-145437307D01*
X150210926Y-145740467D01*
X150240555Y-145906462D01*
X150265614Y-146145883D01*
X150307760Y-146802499D01*
X150321500Y-147505307D01*
X150307440Y-148204227D01*
X150266187Y-148849177D01*
X150198349Y-149390074D01*
X150106813Y-149852413D01*
X149823068Y-150826831D01*
X149437332Y-151698827D01*
X148955260Y-152462561D01*
X148382504Y-153112192D01*
X147724718Y-153641880D01*
X146987556Y-154045785D01*
X146176670Y-154318066D01*
X145297714Y-154452883D01*
X144924954Y-154474227D01*
X144106736Y-154480595D01*
X143286027Y-154424607D01*
X142394063Y-154302707D01*
X142066684Y-154244323D01*
X140871433Y-153946481D01*
X139763551Y-153533036D01*
X138749767Y-153009122D01*
X137836815Y-152379875D01*
X137031424Y-151650430D01*
X136340326Y-150825921D01*
X135770251Y-149911483D01*
X135327932Y-148912251D01*
X135301430Y-148837858D01*
X135149895Y-148380589D01*
X134966289Y-147782032D01*
X134753007Y-147051390D01*
X134512445Y-146197864D01*
X134247000Y-145230658D01*
X133959066Y-144158974D01*
X133651039Y-142992015D01*
X133325315Y-141738984D01*
X132984291Y-140409084D01*
X132630360Y-139011516D01*
X132265920Y-137555484D01*
X131893366Y-136050191D01*
X131515094Y-134504839D01*
X131133499Y-132928631D01*
X130750977Y-131330769D01*
X130651529Y-130913496D01*
X130505984Y-130304238D01*
X130358623Y-129688764D01*
X130222084Y-129119841D01*
X130109002Y-128650235D01*
X130058083Y-128435326D01*
X129973551Y-128057010D01*
X129911257Y-127748259D01*
X129876533Y-127536405D01*
X129874707Y-127448780D01*
X129884653Y-127446026D01*
X130012126Y-127440591D01*
X130268730Y-127440455D01*
X130633650Y-127444999D01*
G37*
G36*
X124141527Y-152291049D02*
G01*
X124119169Y-152529112D01*
X124076651Y-152654778D01*
X124022220Y-152653433D01*
X123964124Y-152510462D01*
X123924698Y-152419368D01*
X123840528Y-152354154D01*
X123772801Y-152386643D01*
X123674154Y-152510462D01*
X123592315Y-152633537D01*
X123524719Y-152644169D01*
X123486559Y-152506425D01*
X123475857Y-152217385D01*
X123476996Y-152041539D01*
X123596000Y-152041539D01*
X123638171Y-152161212D01*
X123791385Y-152197846D01*
X123940977Y-152164109D01*
X123986769Y-152041539D01*
X123944598Y-151921865D01*
X123791385Y-151885231D01*
X123641793Y-151918968D01*
X123596000Y-152041539D01*
X123476996Y-152041539D01*
X123478769Y-151768000D01*
X124143077Y-151719936D01*
X124143077Y-152193353D01*
X124141527Y-152291049D01*
G37*
%TD*%
M02*
