%TF.GenerationSoftware,KiCad,Pcbnew,(6.0.2-0)*%
%TF.CreationDate,2022-04-16T18:23:20-06:00*%
%TF.ProjectId,Graduation Cap,47726164-7561-4746-996f-6e204361702e,rev?*%
%TF.SameCoordinates,Original*%
%TF.FileFunction,Copper,L2,Bot*%
%TF.FilePolarity,Positive*%
%FSLAX46Y46*%
G04 Gerber Fmt 4.6, Leading zero omitted, Abs format (unit mm)*
G04 Created by KiCad (PCBNEW (6.0.2-0)) date 2022-04-16 18:23:20*
%MOMM*%
%LPD*%
G01*
G04 APERTURE LIST*
G04 Aperture macros list*
%AMRoundRect*
0 Rectangle with rounded corners*
0 $1 Rounding radius*
0 $2 $3 $4 $5 $6 $7 $8 $9 X,Y pos of 4 corners*
0 Add a 4 corners polygon primitive as box body*
4,1,4,$2,$3,$4,$5,$6,$7,$8,$9,$2,$3,0*
0 Add four circle primitives for the rounded corners*
1,1,$1+$1,$2,$3*
1,1,$1+$1,$4,$5*
1,1,$1+$1,$6,$7*
1,1,$1+$1,$8,$9*
0 Add four rect primitives between the rounded corners*
20,1,$1+$1,$2,$3,$4,$5,0*
20,1,$1+$1,$4,$5,$6,$7,0*
20,1,$1+$1,$6,$7,$8,$9,0*
20,1,$1+$1,$8,$9,$2,$3,0*%
%AMHorizOval*
0 Thick line with rounded ends*
0 $1 width*
0 $2 $3 position (X,Y) of the first rounded end (center of the circle)*
0 $4 $5 position (X,Y) of the second rounded end (center of the circle)*
0 Add line between two ends*
20,1,$1,$2,$3,$4,$5,0*
0 Add two circle primitives to create the rounded ends*
1,1,$1,$2,$3*
1,1,$1,$4,$5*%
%AMRotRect*
0 Rectangle, with rotation*
0 The origin of the aperture is its center*
0 $1 length*
0 $2 width*
0 $3 Rotation angle, in degrees counterclockwise*
0 Add horizontal line*
21,1,$1,$2,0,0,$3*%
G04 Aperture macros list end*
%TA.AperFunction,ComponentPad*%
%ADD10C,2.000000*%
%TD*%
%TA.AperFunction,ComponentPad*%
%ADD11R,1.700000X1.700000*%
%TD*%
%TA.AperFunction,ComponentPad*%
%ADD12O,1.700000X1.700000*%
%TD*%
%TA.AperFunction,ComponentPad*%
%ADD13RotRect,1.700000X1.700000X315.000000*%
%TD*%
%TA.AperFunction,ComponentPad*%
%ADD14HorizOval,1.700000X0.000000X0.000000X0.000000X0.000000X0*%
%TD*%
%TA.AperFunction,ComponentPad*%
%ADD15RoundRect,0.250000X-0.194454X0.689429X-0.689429X0.194454X0.194454X-0.689429X0.689429X-0.194454X0*%
%TD*%
%TA.AperFunction,ComponentPad*%
%ADD16HorizOval,1.200000X-0.194454X0.194454X0.194454X-0.194454X0*%
%TD*%
%TA.AperFunction,ViaPad*%
%ADD17C,0.800000*%
%TD*%
%TA.AperFunction,ViaPad*%
%ADD18C,0.400000*%
%TD*%
%TA.AperFunction,Conductor*%
%ADD19C,0.200000*%
%TD*%
%TA.AperFunction,Conductor*%
%ADD20C,0.250000*%
%TD*%
%TA.AperFunction,Conductor*%
%ADD21C,0.450000*%
%TD*%
G04 APERTURE END LIST*
D10*
%TO.P,J1,1,Pin_1*%
%TO.N,/~USB_BOOT*%
X185170000Y-109990000D03*
X178670000Y-109990000D03*
%TO.P,J1,2,Pin_2*%
%TO.N,GND*%
X178670000Y-114490000D03*
X185170000Y-114490000D03*
%TD*%
D11*
%TO.P,J3,1,Pin_1*%
%TO.N,/OLED_SDA*%
X114765000Y-82260000D03*
D12*
%TO.P,J3,2,Pin_2*%
%TO.N,/OLED_SCL*%
X114765000Y-84800000D03*
%TO.P,J3,3,Pin_3*%
%TO.N,+3V3*%
X114765000Y-87340000D03*
%TO.P,J3,4,Pin_4*%
%TO.N,GND*%
X114765000Y-89880000D03*
%TD*%
D13*
%TO.P,J5,1,Pin_1*%
%TO.N,/USB_5V*%
X198250000Y-91000000D03*
D14*
%TO.P,J5,2,Pin_2*%
%TO.N,VBUS*%
X196453949Y-92796051D03*
%TO.P,J5,3,Pin_3*%
%TO.N,/Bat*%
X194657898Y-94592102D03*
%TD*%
D15*
%TO.P,J4,1,Pin_1*%
%TO.N,/Bat*%
X191669519Y-87055305D03*
D16*
%TO.P,J4,2,Pin_2*%
%TO.N,GND*%
X190255305Y-88469519D03*
%TD*%
D17*
%TO.N,GND*%
X127440000Y-121980000D03*
X165360000Y-113190000D03*
%TO.N,+3V3*%
X168370000Y-105980000D03*
X167160000Y-87600000D03*
X172030000Y-104650000D03*
X167860000Y-93020000D03*
X163870000Y-109530000D03*
X184210000Y-101690000D03*
X181021250Y-96338750D03*
X171811250Y-93628750D03*
X181266278Y-98416278D03*
%TO.N,/XOUT*%
X167180000Y-99470000D03*
X159990500Y-100030000D03*
%TO.N,/QSPI_SS*%
X176460000Y-89910000D03*
X180950000Y-87400000D03*
%TO.N,/~USB_BOOT*%
X182990000Y-93390000D03*
%TO.N,/LED12*%
X138540000Y-110850000D03*
X163400000Y-103310000D03*
%TO.N,GND*%
X173150000Y-105800000D03*
X156230000Y-100940000D03*
X182450000Y-96420000D03*
X202970000Y-99200000D03*
X169380000Y-99920000D03*
X158060000Y-98500000D03*
X172970000Y-93580000D03*
X192950000Y-98920000D03*
X166170000Y-91640000D03*
X172040000Y-105820000D03*
X168300000Y-107130000D03*
D18*
X161840000Y-119470000D03*
D17*
X167070000Y-98370000D03*
X162450000Y-101430000D03*
X159760000Y-114110000D03*
X164760000Y-119010000D03*
X164880000Y-115450000D03*
X200510000Y-98250000D03*
X156720000Y-103400000D03*
%TO.N,/XIN*%
X164490000Y-99189500D03*
X156110000Y-98370000D03*
%TO.N,+1V1*%
X163545000Y-101370000D03*
X176248717Y-99201283D03*
X174292500Y-102750000D03*
%TO.N,/LED13*%
X163740000Y-104940000D03*
X159060000Y-120880000D03*
%TO.N,/LED15*%
X160100000Y-121210000D03*
X165620000Y-104660000D03*
%TO.N,/LED16*%
X166810000Y-105150000D03*
X161230000Y-122500000D03*
%TO.N,/LED20*%
X104358537Y-95500434D03*
X169630000Y-102220000D03*
%TO.N,/X_Axis*%
X164760000Y-116520000D03*
X169700000Y-111780000D03*
%TO.N,/Y_Axis*%
X170105937Y-112693357D03*
X164930000Y-117790000D03*
%TO.N,/Z_Axis*%
X162450000Y-120890000D03*
X170380000Y-113760000D03*
%TO.N,/QSPI_SD1*%
X179670000Y-87660000D03*
X177580000Y-89180000D03*
%TO.N,VBUS*%
X193030000Y-100650000D03*
X196453949Y-98646051D03*
%TD*%
D19*
%TO.N,/LED20*%
X119510000Y-89810000D02*
X159499259Y-89810000D01*
X159499259Y-89810000D02*
X168050000Y-98360741D01*
X168050000Y-98360741D02*
X168050000Y-100640000D01*
X116770000Y-92550000D02*
X119510000Y-89810000D01*
X168050000Y-100640000D02*
X169630000Y-102220000D01*
X104358537Y-95500434D02*
X104369566Y-95500434D01*
X107320000Y-92550000D02*
X116770000Y-92550000D01*
X104369566Y-95500434D02*
X107320000Y-92550000D01*
%TO.N,/LED12*%
X138510000Y-110850000D02*
X155860000Y-110850000D01*
X155860000Y-110850000D02*
X163400000Y-103310000D01*
%TO.N,+3V3*%
X167160000Y-87600000D02*
X167160000Y-92320000D01*
D20*
X167280000Y-103480000D02*
X168470000Y-104670000D01*
X164790000Y-103990000D02*
X165300000Y-103480000D01*
D19*
X168468750Y-93628750D02*
X167860000Y-93020000D01*
D20*
X162870181Y-104785205D02*
X163665386Y-103990000D01*
D19*
X172010000Y-104670000D02*
X168470000Y-104670000D01*
D20*
X181266278Y-98746278D02*
X184210000Y-101690000D01*
D19*
X167160000Y-92320000D02*
X167860000Y-93020000D01*
X172030000Y-104650000D02*
X172010000Y-104670000D01*
D20*
X168470000Y-105880000D02*
X168370000Y-105980000D01*
X168470000Y-104670000D02*
X168470000Y-105880000D01*
X181021250Y-96338750D02*
X181021250Y-98171250D01*
X181021250Y-98171250D02*
X181266278Y-98416278D01*
X181266278Y-98416278D02*
X181266278Y-98746278D01*
X163665386Y-103990000D02*
X164790000Y-103990000D01*
X163870000Y-109530000D02*
X162870181Y-108530181D01*
X165300000Y-103480000D02*
X167280000Y-103480000D01*
X162870181Y-108530181D02*
X162870181Y-104785205D01*
D19*
X171811250Y-93628750D02*
X168468750Y-93628750D01*
%TO.N,/XOUT*%
X166960000Y-99690000D02*
X167180000Y-99470000D01*
X163959991Y-99889011D02*
X164779748Y-99889011D01*
X163660000Y-99589020D02*
X163959991Y-99889011D01*
X164978759Y-99690000D02*
X166960000Y-99690000D01*
X159990500Y-100030000D02*
X160431480Y-99589020D01*
X160010000Y-100030000D02*
X159990500Y-100030000D01*
X160431480Y-99589020D02*
X163660000Y-99589020D01*
X160150989Y-99889011D02*
X160010000Y-100030000D01*
X164779748Y-99889011D02*
X164978759Y-99690000D01*
%TO.N,/QSPI_SS*%
X178409259Y-89910000D02*
X180919259Y-87400000D01*
X180919259Y-87400000D02*
X180950000Y-87400000D01*
X176460000Y-89910000D02*
X178409259Y-89910000D01*
D20*
%TO.N,/~USB_BOOT*%
X185170000Y-109990000D02*
X185170000Y-95570000D01*
X185170000Y-95570000D02*
X182990000Y-93390000D01*
D19*
%TO.N,/XIN*%
X164490000Y-99189500D02*
X158359759Y-99189500D01*
X158359759Y-99189500D02*
X158349748Y-99199511D01*
X158349748Y-99199511D02*
X156939511Y-99199511D01*
X156939511Y-99199511D02*
X156110000Y-98370000D01*
%TO.N,+1V1*%
X165230480Y-103055480D02*
X167455841Y-103055480D01*
X173972500Y-103070000D02*
X174292500Y-102750000D01*
X167470361Y-103070000D02*
X173972500Y-103070000D01*
X174292500Y-101707500D02*
X176248717Y-99751283D01*
X174292500Y-102750000D02*
X174292500Y-101707500D01*
X163545000Y-101370000D02*
X165230480Y-103055480D01*
X176248717Y-99751283D02*
X176248717Y-99201283D01*
X167455841Y-103055480D02*
X167470361Y-103070000D01*
%TO.N,/LED13*%
X159060000Y-120880000D02*
X159060000Y-115799259D01*
X164980000Y-109879259D02*
X164980000Y-106180000D01*
X159060000Y-115799259D02*
X164980000Y-109879259D01*
X164980000Y-106180000D02*
X163740000Y-104940000D01*
%TO.N,/LED15*%
X165480000Y-104800000D02*
X165620000Y-104660000D01*
X165480000Y-109944265D02*
X165480000Y-104800000D01*
X160100000Y-115324265D02*
X165480000Y-109944265D01*
X160100000Y-121210000D02*
X160100000Y-115324265D01*
%TO.N,/LED16*%
X161180489Y-122450489D02*
X161180489Y-114959511D01*
X161180489Y-114959511D02*
X166150000Y-109990000D01*
X166610000Y-105150000D02*
X166810000Y-105150000D01*
X161230000Y-122500000D02*
X161180489Y-122450489D01*
X166150000Y-109990000D02*
X166150000Y-105610000D01*
X166150000Y-105610000D02*
X166610000Y-105150000D01*
%TO.N,/X_Axis*%
X169700000Y-111780000D02*
X164960000Y-116520000D01*
X164960000Y-116520000D02*
X164760000Y-116520000D01*
%TO.N,/Y_Axis*%
X170105937Y-112693357D02*
X170026643Y-112693357D01*
X170026643Y-112693357D02*
X164930000Y-117790000D01*
%TO.N,/Z_Axis*%
X170380000Y-113760000D02*
X170380000Y-117240000D01*
X170380000Y-117240000D02*
X166730000Y-120890000D01*
X166730000Y-120890000D02*
X162450000Y-120890000D01*
%TO.N,/QSPI_SD1*%
X179100000Y-87660000D02*
X179670000Y-87660000D01*
X177580000Y-89180000D02*
X179100000Y-87660000D01*
D21*
%TO.N,VBUS*%
X196453949Y-98646051D02*
X194450000Y-100650000D01*
X194450000Y-100650000D02*
X193030000Y-100650000D01*
%TD*%
%TA.AperFunction,Conductor*%
%TO.N,GND*%
G36*
X126474593Y-16413987D02*
G01*
X126519657Y-16442948D01*
X178858377Y-68785109D01*
X204385719Y-94314128D01*
X204419742Y-94376442D01*
X204422621Y-94402923D01*
X204451378Y-106547717D01*
X204431537Y-106615885D01*
X204414475Y-106637109D01*
X126519666Y-184533526D01*
X126457356Y-184567550D01*
X126386541Y-184562486D01*
X126341477Y-184533525D01*
X63376817Y-121568866D01*
X42385277Y-100577327D01*
X42351251Y-100515015D01*
X42356316Y-100444200D01*
X42385277Y-100399137D01*
X47283980Y-95500434D01*
X103445033Y-95500434D01*
X103445723Y-95506999D01*
X103461792Y-95659884D01*
X103464995Y-95690362D01*
X103524010Y-95871990D01*
X103619497Y-96037378D01*
X103623915Y-96042285D01*
X103623916Y-96042286D01*
X103725751Y-96155385D01*
X103747284Y-96179300D01*
X103901785Y-96291552D01*
X103907813Y-96294236D01*
X103907815Y-96294237D01*
X104022539Y-96345315D01*
X104076249Y-96369228D01*
X104169649Y-96389081D01*
X104256593Y-96407562D01*
X104256598Y-96407562D01*
X104263050Y-96408934D01*
X104454024Y-96408934D01*
X104460476Y-96407562D01*
X104460481Y-96407562D01*
X104547425Y-96389081D01*
X104640825Y-96369228D01*
X104694535Y-96345315D01*
X104809259Y-96294237D01*
X104809261Y-96294236D01*
X104815289Y-96291552D01*
X104969790Y-96179300D01*
X104991323Y-96155385D01*
X105093158Y-96042286D01*
X105093159Y-96042285D01*
X105097577Y-96037378D01*
X105193064Y-95871990D01*
X105252079Y-95690362D01*
X105255283Y-95659884D01*
X105272041Y-95500434D01*
X105274492Y-95500692D01*
X105291353Y-95443267D01*
X105308256Y-95422293D01*
X107535144Y-93195405D01*
X107597456Y-93161379D01*
X107624239Y-93158500D01*
X116721864Y-93158500D01*
X116738307Y-93159578D01*
X116770000Y-93163750D01*
X116778189Y-93162672D01*
X116809874Y-93158501D01*
X116809884Y-93158500D01*
X116809885Y-93158500D01*
X116909457Y-93145391D01*
X116920664Y-93143916D01*
X116920666Y-93143915D01*
X116928851Y-93142838D01*
X117076876Y-93081524D01*
X117148500Y-93026565D01*
X117172072Y-93008477D01*
X117172075Y-93008474D01*
X117192056Y-92993142D01*
X117203987Y-92983987D01*
X117213123Y-92972081D01*
X117223452Y-92958621D01*
X117234319Y-92946230D01*
X119725144Y-90455405D01*
X119787456Y-90421379D01*
X119814239Y-90418500D01*
X122653866Y-90418500D01*
X122721987Y-90438502D01*
X122768480Y-90492158D01*
X122778584Y-90562432D01*
X122749090Y-90627012D01*
X122697477Y-90662712D01*
X122493309Y-90738033D01*
X122493297Y-90738038D01*
X122491494Y-90738703D01*
X121903771Y-90997308D01*
X121332931Y-91291309D01*
X120781105Y-91619612D01*
X120559476Y-91770514D01*
X120316060Y-91936250D01*
X120250350Y-91980990D01*
X119742647Y-92374096D01*
X119741199Y-92375366D01*
X119741194Y-92375370D01*
X119632533Y-92470663D01*
X119259889Y-92797463D01*
X119258521Y-92798820D01*
X119258519Y-92798821D01*
X119066658Y-92989015D01*
X118803877Y-93249512D01*
X118802591Y-93250953D01*
X118802588Y-93250956D01*
X118760723Y-93297862D01*
X118376313Y-93728557D01*
X117978792Y-94232810D01*
X117612796Y-94760391D01*
X117611807Y-94762021D01*
X117611803Y-94762027D01*
X117492531Y-94958582D01*
X117279691Y-95309332D01*
X116980719Y-95877584D01*
X116979923Y-95879350D01*
X116979923Y-95879351D01*
X116725262Y-96444677D01*
X116716995Y-96463028D01*
X116716324Y-96464799D01*
X116716317Y-96464816D01*
X116620813Y-96716896D01*
X116489504Y-97063481D01*
X116299095Y-97676701D01*
X116298641Y-97678558D01*
X116298637Y-97678571D01*
X116146933Y-98298531D01*
X116146929Y-98298549D01*
X116146476Y-98300401D01*
X116146134Y-98302292D01*
X116146133Y-98302297D01*
X116032961Y-98928148D01*
X116032218Y-98932256D01*
X116031993Y-98934158D01*
X116031992Y-98934164D01*
X116018416Y-99048866D01*
X115956747Y-99569907D01*
X115956637Y-99571846D01*
X115920700Y-100204731D01*
X115920345Y-100210976D01*
X115920353Y-100212898D01*
X115920353Y-100212912D01*
X115921273Y-100423780D01*
X115921545Y-100486174D01*
X115923146Y-100853072D01*
X115965142Y-101493799D01*
X116046174Y-102130767D01*
X116046529Y-102132636D01*
X116046529Y-102132637D01*
X116090446Y-102363955D01*
X116165942Y-102761601D01*
X116212826Y-102946206D01*
X116322537Y-103378196D01*
X116323997Y-103383946D01*
X116324575Y-103385753D01*
X116324578Y-103385762D01*
X116510716Y-103967255D01*
X116519751Y-103995481D01*
X116520447Y-103997270D01*
X116520452Y-103997285D01*
X116629789Y-104278444D01*
X116752473Y-104593925D01*
X116753266Y-104595644D01*
X116753271Y-104595657D01*
X116870492Y-104849928D01*
X117021296Y-105177045D01*
X117022203Y-105178734D01*
X117022208Y-105178743D01*
X117108816Y-105339928D01*
X117325215Y-105742667D01*
X117663098Y-106288680D01*
X117764421Y-106432049D01*
X118032563Y-106811462D01*
X118032576Y-106811480D01*
X118033684Y-106813047D01*
X118435591Y-107313812D01*
X118867319Y-107789108D01*
X118868686Y-107790440D01*
X118868695Y-107790449D01*
X119120429Y-108035677D01*
X119327258Y-108237160D01*
X119813692Y-108656299D01*
X120324806Y-109044959D01*
X120326408Y-109046029D01*
X120326413Y-109046033D01*
X120717892Y-109307611D01*
X120858694Y-109401692D01*
X121413365Y-109725166D01*
X121415099Y-109726040D01*
X121985013Y-110013301D01*
X121985027Y-110013307D01*
X121986748Y-110014175D01*
X122281157Y-110140663D01*
X122574948Y-110266886D01*
X122574956Y-110266889D01*
X122576706Y-110267641D01*
X122578507Y-110268288D01*
X122578513Y-110268290D01*
X123179226Y-110483968D01*
X123179232Y-110483970D01*
X123181037Y-110484618D01*
X123797487Y-110664297D01*
X124423756Y-110806007D01*
X125057508Y-110909220D01*
X125059412Y-110909412D01*
X125059414Y-110909412D01*
X125694462Y-110973358D01*
X125696379Y-110973551D01*
X125698288Y-110973626D01*
X125698302Y-110973627D01*
X126336074Y-110998685D01*
X126336078Y-110998685D01*
X126337986Y-110998760D01*
X126825504Y-110988122D01*
X126978013Y-110984794D01*
X126978015Y-110984794D01*
X126979935Y-110984752D01*
X127563715Y-110936244D01*
X127617919Y-110931740D01*
X127617920Y-110931740D01*
X127619832Y-110931581D01*
X128255289Y-110839444D01*
X128257174Y-110839052D01*
X128882049Y-110709078D01*
X128882065Y-110709074D01*
X128883936Y-110708685D01*
X129503428Y-110539793D01*
X130111453Y-110333396D01*
X130705745Y-110090265D01*
X130996295Y-109950120D01*
X131282357Y-109812140D01*
X131282370Y-109812133D01*
X131284085Y-109811306D01*
X131844316Y-109497562D01*
X132384349Y-109150201D01*
X132902168Y-108770520D01*
X133024376Y-108668881D01*
X133394359Y-108361170D01*
X133394373Y-108361157D01*
X133395843Y-108359935D01*
X133863532Y-107919978D01*
X134303489Y-107452289D01*
X134304711Y-107450819D01*
X134304724Y-107450805D01*
X134712844Y-106960093D01*
X134712845Y-106960092D01*
X134714074Y-106958614D01*
X135093755Y-106440795D01*
X135151156Y-106351556D01*
X135378180Y-105998607D01*
X135441116Y-105900762D01*
X135754860Y-105340531D01*
X135755687Y-105338816D01*
X135755694Y-105338803D01*
X135951718Y-104932404D01*
X136033819Y-104762191D01*
X136276950Y-104167899D01*
X136483347Y-103559874D01*
X136652239Y-102940382D01*
X136652628Y-102938511D01*
X136652632Y-102938495D01*
X136782606Y-102313620D01*
X136782606Y-102313617D01*
X136782998Y-102311735D01*
X136875135Y-101676278D01*
X136928306Y-101036381D01*
X136942714Y-100486174D01*
X136923105Y-99844372D01*
X136913779Y-99742872D01*
X136864530Y-99206895D01*
X136864528Y-99206880D01*
X136864352Y-99204963D01*
X136771425Y-98601206D01*
X136766964Y-98572224D01*
X136766963Y-98572221D01*
X136766673Y-98570334D01*
X136757336Y-98527328D01*
X136681939Y-98180072D01*
X136630433Y-97942852D01*
X136624475Y-97921724D01*
X136456671Y-97326736D01*
X136456668Y-97326726D01*
X136456141Y-97324858D01*
X136244446Y-96718657D01*
X135996138Y-96126510D01*
X135954604Y-96042286D01*
X135781054Y-95690362D01*
X135712144Y-95550626D01*
X135702705Y-95534110D01*
X135474687Y-95135163D01*
X135393522Y-94993154D01*
X135392472Y-94991552D01*
X135042513Y-94457775D01*
X135042502Y-94457760D01*
X135041462Y-94456173D01*
X134828216Y-94170602D01*
X134658432Y-93943232D01*
X134658423Y-93943221D01*
X134657277Y-93941686D01*
X134242399Y-93451613D01*
X134230155Y-93438822D01*
X133829147Y-93019925D01*
X133798377Y-92987782D01*
X133788402Y-92978561D01*
X133328278Y-92553227D01*
X133328272Y-92553222D01*
X133326867Y-92551923D01*
X132829628Y-92145661D01*
X132797777Y-92122731D01*
X132310082Y-91771642D01*
X132310080Y-91771641D01*
X132308515Y-91770514D01*
X132134528Y-91660736D01*
X131767108Y-91428911D01*
X131767102Y-91428908D01*
X131765472Y-91427879D01*
X131372631Y-91212359D01*
X131204192Y-91119950D01*
X131204190Y-91119949D01*
X131202524Y-91119035D01*
X130621771Y-90845134D01*
X130161563Y-90661530D01*
X130105704Y-90617709D01*
X130082403Y-90550645D01*
X130099059Y-90481630D01*
X130150383Y-90432576D01*
X130208253Y-90418500D01*
X159195020Y-90418500D01*
X159263141Y-90438502D01*
X159284115Y-90455405D01*
X167175115Y-98346405D01*
X167209141Y-98408717D01*
X167204076Y-98479532D01*
X167161529Y-98536368D01*
X167097618Y-98560206D01*
X167097682Y-98560810D01*
X167095338Y-98561056D01*
X167095009Y-98561179D01*
X167093739Y-98561224D01*
X167091112Y-98561500D01*
X167084513Y-98561500D01*
X167078061Y-98562872D01*
X167078056Y-98562872D01*
X166997845Y-98579922D01*
X166897712Y-98601206D01*
X166891682Y-98603891D01*
X166891681Y-98603891D01*
X166729278Y-98676197D01*
X166729276Y-98676198D01*
X166723248Y-98678882D01*
X166568747Y-98791134D01*
X166440960Y-98933056D01*
X166429317Y-98953222D01*
X166391629Y-99018500D01*
X166340247Y-99067493D01*
X166282510Y-99081500D01*
X165501706Y-99081500D01*
X165433585Y-99061498D01*
X165387092Y-99007842D01*
X165381873Y-98994436D01*
X165370077Y-98958130D01*
X165324527Y-98817944D01*
X165229040Y-98652556D01*
X165160854Y-98576827D01*
X165105675Y-98515545D01*
X165105674Y-98515544D01*
X165101253Y-98510634D01*
X164960977Y-98408717D01*
X164952094Y-98402263D01*
X164952093Y-98402262D01*
X164946752Y-98398382D01*
X164940724Y-98395698D01*
X164940722Y-98395697D01*
X164778319Y-98323391D01*
X164778318Y-98323391D01*
X164772288Y-98320706D01*
X164676761Y-98300401D01*
X164591944Y-98282372D01*
X164591939Y-98282372D01*
X164585487Y-98281000D01*
X164394513Y-98281000D01*
X164388061Y-98282372D01*
X164388056Y-98282372D01*
X164303239Y-98300401D01*
X164207712Y-98320706D01*
X164201682Y-98323391D01*
X164201681Y-98323391D01*
X164039278Y-98395697D01*
X164039276Y-98395698D01*
X164033248Y-98398382D01*
X164027907Y-98402262D01*
X164027906Y-98402263D01*
X163953775Y-98456123D01*
X163878747Y-98510634D01*
X163874334Y-98515536D01*
X163874332Y-98515537D01*
X163852926Y-98539311D01*
X163792480Y-98576550D01*
X163759290Y-98581000D01*
X158407903Y-98581000D01*
X158391457Y-98579922D01*
X158367947Y-98576827D01*
X158359759Y-98575749D01*
X158301795Y-98583380D01*
X158252020Y-98589933D01*
X158235574Y-98591011D01*
X157243750Y-98591011D01*
X157175629Y-98571009D01*
X157154655Y-98554106D01*
X157059719Y-98459170D01*
X157025693Y-98396858D01*
X157023159Y-98373284D01*
X157023504Y-98370000D01*
X157019844Y-98335174D01*
X157004232Y-98186635D01*
X157004232Y-98186633D01*
X157003542Y-98180072D01*
X156944527Y-97998444D01*
X156921564Y-97958670D01*
X156900233Y-97921724D01*
X156849040Y-97833056D01*
X156798799Y-97777257D01*
X156725675Y-97696045D01*
X156725674Y-97696044D01*
X156721253Y-97691134D01*
X156566752Y-97578882D01*
X156560724Y-97576198D01*
X156560722Y-97576197D01*
X156398319Y-97503891D01*
X156398318Y-97503891D01*
X156392288Y-97501206D01*
X156298887Y-97481353D01*
X156211944Y-97462872D01*
X156211939Y-97462872D01*
X156205487Y-97461500D01*
X156014513Y-97461500D01*
X156008061Y-97462872D01*
X156008056Y-97462872D01*
X155921112Y-97481353D01*
X155827712Y-97501206D01*
X155821682Y-97503891D01*
X155821681Y-97503891D01*
X155659278Y-97576197D01*
X155659276Y-97576198D01*
X155653248Y-97578882D01*
X155498747Y-97691134D01*
X155494326Y-97696044D01*
X155494325Y-97696045D01*
X155421202Y-97777257D01*
X155370960Y-97833056D01*
X155319767Y-97921724D01*
X155298437Y-97958670D01*
X155275473Y-97998444D01*
X155216458Y-98180072D01*
X155215768Y-98186633D01*
X155215768Y-98186635D01*
X155200156Y-98335174D01*
X155196496Y-98370000D01*
X155197186Y-98376565D01*
X155214284Y-98539239D01*
X155216458Y-98559928D01*
X155275473Y-98741556D01*
X155370960Y-98906944D01*
X155375378Y-98911851D01*
X155375379Y-98911852D01*
X155459319Y-99005077D01*
X155498747Y-99048866D01*
X155653248Y-99161118D01*
X155659276Y-99163802D01*
X155659278Y-99163803D01*
X155796786Y-99225025D01*
X155827712Y-99238794D01*
X155921113Y-99258647D01*
X156008056Y-99277128D01*
X156008061Y-99277128D01*
X156014513Y-99278500D01*
X156105761Y-99278500D01*
X156173882Y-99298502D01*
X156194856Y-99315405D01*
X156475196Y-99595745D01*
X156486063Y-99608136D01*
X156505524Y-99633498D01*
X156512074Y-99638524D01*
X156537432Y-99657982D01*
X156537448Y-99657996D01*
X156586816Y-99695877D01*
X156632635Y-99731035D01*
X156780660Y-99792349D01*
X156939511Y-99813262D01*
X156971210Y-99809089D01*
X156987655Y-99808011D01*
X158301612Y-99808011D01*
X158318055Y-99809089D01*
X158349748Y-99813261D01*
X158357937Y-99812183D01*
X158389622Y-99808012D01*
X158389632Y-99808011D01*
X158389633Y-99808011D01*
X158457486Y-99799078D01*
X158473932Y-99798000D01*
X158961443Y-99798000D01*
X159029564Y-99818002D01*
X159076057Y-99871658D01*
X159086753Y-99937170D01*
X159076996Y-100030000D01*
X159077686Y-100036565D01*
X159096221Y-100212912D01*
X159096958Y-100219928D01*
X159155973Y-100401556D01*
X159159276Y-100407278D01*
X159159277Y-100407279D01*
X159168755Y-100423695D01*
X159251460Y-100566944D01*
X159255878Y-100571851D01*
X159255879Y-100571852D01*
X159374825Y-100703955D01*
X159379247Y-100708866D01*
X159533748Y-100821118D01*
X159539776Y-100823802D01*
X159539778Y-100823803D01*
X159702181Y-100896109D01*
X159708212Y-100898794D01*
X159801613Y-100918647D01*
X159888556Y-100937128D01*
X159888561Y-100937128D01*
X159895013Y-100938500D01*
X160085987Y-100938500D01*
X160092439Y-100937128D01*
X160092444Y-100937128D01*
X160179388Y-100918647D01*
X160272788Y-100898794D01*
X160278819Y-100896109D01*
X160441222Y-100823803D01*
X160441224Y-100823802D01*
X160447252Y-100821118D01*
X160601753Y-100708866D01*
X160606175Y-100703955D01*
X160725121Y-100571852D01*
X160725122Y-100571851D01*
X160729540Y-100566944D01*
X160812245Y-100423695D01*
X160821723Y-100407279D01*
X160821724Y-100407278D01*
X160825027Y-100401556D01*
X160863034Y-100284583D01*
X160903108Y-100225978D01*
X160968505Y-100198341D01*
X160982867Y-100197520D01*
X163355761Y-100197520D01*
X163423882Y-100217522D01*
X163444856Y-100234425D01*
X163468849Y-100258418D01*
X163502875Y-100320730D01*
X163497810Y-100391545D01*
X163455263Y-100448381D01*
X163405953Y-100470759D01*
X163262712Y-100501206D01*
X163256682Y-100503891D01*
X163256681Y-100503891D01*
X163094278Y-100576197D01*
X163094276Y-100576198D01*
X163088248Y-100578882D01*
X163082907Y-100582762D01*
X163082906Y-100582763D01*
X163047744Y-100608310D01*
X162933747Y-100691134D01*
X162929326Y-100696044D01*
X162929325Y-100696045D01*
X162818205Y-100819457D01*
X162805960Y-100833056D01*
X162710473Y-100998444D01*
X162651458Y-101180072D01*
X162650768Y-101186633D01*
X162650768Y-101186635D01*
X162633471Y-101351206D01*
X162631496Y-101370000D01*
X162632186Y-101376565D01*
X162650273Y-101548650D01*
X162651458Y-101559928D01*
X162710473Y-101741556D01*
X162805960Y-101906944D01*
X162933747Y-102048866D01*
X163088248Y-102161118D01*
X163094274Y-102163801D01*
X163094281Y-102163805D01*
X163169310Y-102197209D01*
X163223406Y-102243189D01*
X163244056Y-102311116D01*
X163224704Y-102379424D01*
X163171494Y-102426426D01*
X163144260Y-102435562D01*
X163124176Y-102439831D01*
X163124167Y-102439834D01*
X163117712Y-102441206D01*
X163111682Y-102443891D01*
X163111681Y-102443891D01*
X162949278Y-102516197D01*
X162949276Y-102516198D01*
X162943248Y-102518882D01*
X162788747Y-102631134D01*
X162784326Y-102636044D01*
X162784325Y-102636045D01*
X162669589Y-102763473D01*
X162660960Y-102773056D01*
X162565473Y-102938444D01*
X162506458Y-103120072D01*
X162505768Y-103126633D01*
X162505768Y-103126635D01*
X162489520Y-103281226D01*
X162486496Y-103310000D01*
X162486684Y-103311786D01*
X162467184Y-103378196D01*
X162450281Y-103399170D01*
X155644856Y-110204595D01*
X155582544Y-110238621D01*
X155555761Y-110241500D01*
X139270710Y-110241500D01*
X139202589Y-110221498D01*
X139177074Y-110199811D01*
X139155668Y-110176037D01*
X139155666Y-110176036D01*
X139151253Y-110171134D01*
X139014604Y-110071852D01*
X139002094Y-110062763D01*
X139002093Y-110062762D01*
X138996752Y-110058882D01*
X138990724Y-110056198D01*
X138990722Y-110056197D01*
X138828319Y-109983891D01*
X138828318Y-109983891D01*
X138822288Y-109981206D01*
X138728887Y-109961353D01*
X138641944Y-109942872D01*
X138641939Y-109942872D01*
X138635487Y-109941500D01*
X138444513Y-109941500D01*
X138438061Y-109942872D01*
X138438056Y-109942872D01*
X138351113Y-109961353D01*
X138257712Y-109981206D01*
X138251682Y-109983891D01*
X138251681Y-109983891D01*
X138089278Y-110056197D01*
X138089276Y-110056198D01*
X138083248Y-110058882D01*
X138077907Y-110062762D01*
X138077906Y-110062763D01*
X138065396Y-110071852D01*
X137928747Y-110171134D01*
X137924326Y-110176044D01*
X137924325Y-110176045D01*
X137815529Y-110296876D01*
X137800960Y-110313056D01*
X137789634Y-110332673D01*
X137714871Y-110462167D01*
X137705473Y-110478444D01*
X137646458Y-110660072D01*
X137645768Y-110666633D01*
X137645768Y-110666635D01*
X137627647Y-110839052D01*
X137626496Y-110850000D01*
X137627186Y-110856565D01*
X137639490Y-110973627D01*
X137646458Y-111039928D01*
X137705473Y-111221556D01*
X137708776Y-111227278D01*
X137708777Y-111227279D01*
X137737733Y-111277432D01*
X137800960Y-111386944D01*
X137805378Y-111391851D01*
X137805379Y-111391852D01*
X137902926Y-111500189D01*
X137928747Y-111528866D01*
X138083248Y-111641118D01*
X138089276Y-111643802D01*
X138089278Y-111643803D01*
X138251681Y-111716109D01*
X138257712Y-111718794D01*
X138351112Y-111738647D01*
X138438056Y-111757128D01*
X138438061Y-111757128D01*
X138444513Y-111758500D01*
X138635487Y-111758500D01*
X138641939Y-111757128D01*
X138641944Y-111757128D01*
X138728888Y-111738647D01*
X138822288Y-111718794D01*
X138828319Y-111716109D01*
X138990722Y-111643803D01*
X138990724Y-111643802D01*
X138996752Y-111641118D01*
X139057978Y-111596635D01*
X139129671Y-111544546D01*
X139151253Y-111528866D01*
X139177074Y-111500189D01*
X139237520Y-111462950D01*
X139270710Y-111458500D01*
X155811864Y-111458500D01*
X155828307Y-111459578D01*
X155860000Y-111463750D01*
X155868189Y-111462672D01*
X155899874Y-111458501D01*
X155899884Y-111458500D01*
X155899885Y-111458500D01*
X155999457Y-111445391D01*
X156010664Y-111443916D01*
X156010666Y-111443915D01*
X156018851Y-111442838D01*
X156166876Y-111381524D01*
X156223285Y-111338240D01*
X156262072Y-111308477D01*
X156262075Y-111308474D01*
X156287434Y-111289015D01*
X156293987Y-111283987D01*
X156299017Y-111277432D01*
X156313452Y-111258621D01*
X156324319Y-111246230D01*
X162021586Y-105548963D01*
X162083898Y-105514937D01*
X162154713Y-105520002D01*
X162211549Y-105562549D01*
X162236360Y-105629069D01*
X162236681Y-105638058D01*
X162236681Y-108451414D01*
X162236154Y-108462597D01*
X162234479Y-108470090D01*
X162234728Y-108478016D01*
X162234728Y-108478017D01*
X162236619Y-108538167D01*
X162236681Y-108542126D01*
X162236681Y-108570037D01*
X162237178Y-108573971D01*
X162237178Y-108573972D01*
X162237186Y-108574037D01*
X162238119Y-108585874D01*
X162239508Y-108630070D01*
X162245159Y-108649520D01*
X162249168Y-108668881D01*
X162251707Y-108688978D01*
X162254626Y-108696349D01*
X162254626Y-108696351D01*
X162267985Y-108730093D01*
X162271830Y-108741323D01*
X162284163Y-108783774D01*
X162288196Y-108790593D01*
X162288198Y-108790598D01*
X162294474Y-108801209D01*
X162303169Y-108818957D01*
X162310629Y-108837798D01*
X162315291Y-108844214D01*
X162315291Y-108844215D01*
X162336617Y-108873568D01*
X162343133Y-108883488D01*
X162365639Y-108921543D01*
X162379960Y-108935864D01*
X162392800Y-108950897D01*
X162404709Y-108967288D01*
X162410815Y-108972339D01*
X162438786Y-108995479D01*
X162447565Y-109003469D01*
X162922878Y-109478782D01*
X162956904Y-109541094D01*
X162959092Y-109554703D01*
X162976458Y-109719928D01*
X163035473Y-109901556D01*
X163130960Y-110066944D01*
X163258747Y-110208866D01*
X163289933Y-110231524D01*
X163402152Y-110313056D01*
X163413248Y-110321118D01*
X163419276Y-110323802D01*
X163419285Y-110323807D01*
X163428678Y-110327989D01*
X163482772Y-110373970D01*
X163503420Y-110441898D01*
X163484066Y-110510205D01*
X163466521Y-110532189D01*
X158663766Y-115334944D01*
X158651375Y-115345811D01*
X158626013Y-115365272D01*
X158601526Y-115397184D01*
X158601523Y-115397187D01*
X158528476Y-115492383D01*
X158467162Y-115640408D01*
X158466084Y-115648595D01*
X158466084Y-115648596D01*
X158465387Y-115653891D01*
X158464609Y-115659802D01*
X158451500Y-115759374D01*
X158451500Y-115759379D01*
X158446250Y-115799259D01*
X158447328Y-115807447D01*
X158450422Y-115830949D01*
X158451500Y-115847395D01*
X158451500Y-120149710D01*
X158431498Y-120217831D01*
X158419136Y-120234020D01*
X158394395Y-120261498D01*
X158320960Y-120343056D01*
X158225473Y-120508444D01*
X158166458Y-120690072D01*
X158146496Y-120880000D01*
X158166458Y-121069928D01*
X158225473Y-121251556D01*
X158320960Y-121416944D01*
X158448747Y-121558866D01*
X158603248Y-121671118D01*
X158609276Y-121673802D01*
X158609278Y-121673803D01*
X158771681Y-121746109D01*
X158777712Y-121748794D01*
X158871112Y-121768647D01*
X158958056Y-121787128D01*
X158958061Y-121787128D01*
X158964513Y-121788500D01*
X159155487Y-121788500D01*
X159161939Y-121787128D01*
X159161944Y-121787128D01*
X159253247Y-121767720D01*
X159288204Y-121760290D01*
X159358994Y-121765692D01*
X159408035Y-121799227D01*
X159488747Y-121888866D01*
X159643248Y-122001118D01*
X159649276Y-122003802D01*
X159649278Y-122003803D01*
X159761381Y-122053714D01*
X159817712Y-122078794D01*
X159911113Y-122098647D01*
X159998056Y-122117128D01*
X159998061Y-122117128D01*
X160004513Y-122118500D01*
X160195487Y-122118500D01*
X160201944Y-122117128D01*
X160208515Y-122116437D01*
X160208691Y-122118115D01*
X160271105Y-122122879D01*
X160327736Y-122165697D01*
X160352228Y-122232336D01*
X160346340Y-122279658D01*
X160336458Y-122310072D01*
X160316496Y-122500000D01*
X160336458Y-122689928D01*
X160395473Y-122871556D01*
X160490960Y-123036944D01*
X160618747Y-123178866D01*
X160773248Y-123291118D01*
X160779276Y-123293802D01*
X160779278Y-123293803D01*
X160941681Y-123366109D01*
X160947712Y-123368794D01*
X161041112Y-123388647D01*
X161128056Y-123407128D01*
X161128061Y-123407128D01*
X161134513Y-123408500D01*
X161325487Y-123408500D01*
X161331939Y-123407128D01*
X161331944Y-123407128D01*
X161418888Y-123388647D01*
X161512288Y-123368794D01*
X161518319Y-123366109D01*
X161680722Y-123293803D01*
X161680724Y-123293802D01*
X161686752Y-123291118D01*
X161841253Y-123178866D01*
X161969040Y-123036944D01*
X162064527Y-122871556D01*
X162123542Y-122689928D01*
X162143504Y-122500000D01*
X162123542Y-122310072D01*
X162064527Y-122128444D01*
X161969040Y-121963056D01*
X161925766Y-121914996D01*
X161895051Y-121850991D01*
X161903814Y-121780538D01*
X161949277Y-121726007D01*
X162017005Y-121704711D01*
X162070652Y-121715581D01*
X162161677Y-121756108D01*
X162161685Y-121756111D01*
X162167712Y-121758794D01*
X162261113Y-121778647D01*
X162348056Y-121797128D01*
X162348061Y-121797128D01*
X162354513Y-121798500D01*
X162545487Y-121798500D01*
X162551939Y-121797128D01*
X162551944Y-121797128D01*
X162638887Y-121778647D01*
X162732288Y-121758794D01*
X162751667Y-121750166D01*
X162900722Y-121683803D01*
X162900724Y-121683802D01*
X162906752Y-121681118D01*
X162925858Y-121667237D01*
X163055914Y-121572745D01*
X163061253Y-121568866D01*
X163087074Y-121540189D01*
X163147520Y-121502950D01*
X163180710Y-121498500D01*
X166681864Y-121498500D01*
X166698307Y-121499578D01*
X166730000Y-121503750D01*
X166738189Y-121502672D01*
X166769874Y-121498501D01*
X166769884Y-121498500D01*
X166769885Y-121498500D01*
X166869457Y-121485391D01*
X166880664Y-121483916D01*
X166880666Y-121483915D01*
X166888851Y-121482838D01*
X167036876Y-121421524D01*
X167132072Y-121348477D01*
X167132075Y-121348474D01*
X167163987Y-121323987D01*
X167169017Y-121317432D01*
X167183452Y-121298621D01*
X167194319Y-121286230D01*
X170776234Y-117704315D01*
X170788625Y-117693448D01*
X170807437Y-117679013D01*
X170813987Y-117673987D01*
X170838474Y-117642075D01*
X170838478Y-117642071D01*
X170911524Y-117546876D01*
X170964722Y-117418444D01*
X170969678Y-117406480D01*
X170969679Y-117406477D01*
X170972838Y-117398850D01*
X170993751Y-117240000D01*
X170989578Y-117208301D01*
X170988500Y-117191856D01*
X170988500Y-115722670D01*
X177802160Y-115722670D01*
X177807887Y-115730320D01*
X177979042Y-115835205D01*
X177987837Y-115839687D01*
X178197988Y-115926734D01*
X178207373Y-115929783D01*
X178428554Y-115982885D01*
X178438301Y-115984428D01*
X178665070Y-116002275D01*
X178674930Y-116002275D01*
X178901699Y-115984428D01*
X178911446Y-115982885D01*
X179132627Y-115929783D01*
X179142012Y-115926734D01*
X179352163Y-115839687D01*
X179360958Y-115835205D01*
X179528445Y-115732568D01*
X179537400Y-115722670D01*
X184302160Y-115722670D01*
X184307887Y-115730320D01*
X184479042Y-115835205D01*
X184487837Y-115839687D01*
X184697988Y-115926734D01*
X184707373Y-115929783D01*
X184928554Y-115982885D01*
X184938301Y-115984428D01*
X185165070Y-116002275D01*
X185174930Y-116002275D01*
X185401699Y-115984428D01*
X185411446Y-115982885D01*
X185632627Y-115929783D01*
X185642012Y-115926734D01*
X185852163Y-115839687D01*
X185860958Y-115835205D01*
X186028445Y-115732568D01*
X186037907Y-115722110D01*
X186034124Y-115713334D01*
X185182812Y-114862022D01*
X185168868Y-114854408D01*
X185167035Y-114854539D01*
X185160420Y-114858790D01*
X184308920Y-115710290D01*
X184302160Y-115722670D01*
X179537400Y-115722670D01*
X179537907Y-115722110D01*
X179534124Y-115713334D01*
X178682812Y-114862022D01*
X178668868Y-114854408D01*
X178667035Y-114854539D01*
X178660420Y-114858790D01*
X177808920Y-115710290D01*
X177802160Y-115722670D01*
X170988500Y-115722670D01*
X170988500Y-114494930D01*
X177157725Y-114494930D01*
X177175572Y-114721699D01*
X177177115Y-114731446D01*
X177230217Y-114952627D01*
X177233266Y-114962012D01*
X177320313Y-115172163D01*
X177324795Y-115180958D01*
X177427432Y-115348445D01*
X177437890Y-115357907D01*
X177446666Y-115354124D01*
X178297978Y-114502812D01*
X178304356Y-114491132D01*
X179034408Y-114491132D01*
X179034539Y-114492965D01*
X179038790Y-114499580D01*
X179890290Y-115351080D01*
X179902670Y-115357840D01*
X179910320Y-115352113D01*
X180015205Y-115180958D01*
X180019687Y-115172163D01*
X180106734Y-114962012D01*
X180109783Y-114952627D01*
X180162885Y-114731446D01*
X180164428Y-114721699D01*
X180182275Y-114494930D01*
X183657725Y-114494930D01*
X183675572Y-114721699D01*
X183677115Y-114731446D01*
X183730217Y-114952627D01*
X183733266Y-114962012D01*
X183820313Y-115172163D01*
X183824795Y-115180958D01*
X183927432Y-115348445D01*
X183937890Y-115357907D01*
X183946666Y-115354124D01*
X184797978Y-114502812D01*
X184804356Y-114491132D01*
X185534408Y-114491132D01*
X185534539Y-114492965D01*
X185538790Y-114499580D01*
X186390290Y-115351080D01*
X186402670Y-115357840D01*
X186410320Y-115352113D01*
X186515205Y-115180958D01*
X186519687Y-115172163D01*
X186606734Y-114962012D01*
X186609783Y-114952627D01*
X186662885Y-114731446D01*
X186664428Y-114721699D01*
X186682275Y-114494930D01*
X186682275Y-114485070D01*
X186664428Y-114258301D01*
X186662885Y-114248554D01*
X186609783Y-114027373D01*
X186606734Y-114017988D01*
X186519687Y-113807837D01*
X186515205Y-113799042D01*
X186412568Y-113631555D01*
X186402110Y-113622093D01*
X186393334Y-113625876D01*
X185542022Y-114477188D01*
X185534408Y-114491132D01*
X184804356Y-114491132D01*
X184805592Y-114488868D01*
X184805461Y-114487035D01*
X184801210Y-114480420D01*
X183949710Y-113628920D01*
X183937330Y-113622160D01*
X183929680Y-113627887D01*
X183824795Y-113799042D01*
X183820313Y-113807837D01*
X183733266Y-114017988D01*
X183730217Y-114027373D01*
X183677115Y-114248554D01*
X183675572Y-114258301D01*
X183657725Y-114485070D01*
X183657725Y-114494930D01*
X180182275Y-114494930D01*
X180182275Y-114485070D01*
X180164428Y-114258301D01*
X180162885Y-114248554D01*
X180109783Y-114027373D01*
X180106734Y-114017988D01*
X180019687Y-113807837D01*
X180015205Y-113799042D01*
X179912568Y-113631555D01*
X179902110Y-113622093D01*
X179893334Y-113625876D01*
X179042022Y-114477188D01*
X179034408Y-114491132D01*
X178304356Y-114491132D01*
X178305592Y-114488868D01*
X178305461Y-114487035D01*
X178301210Y-114480420D01*
X177449710Y-113628920D01*
X177437330Y-113622160D01*
X177429680Y-113627887D01*
X177324795Y-113799042D01*
X177320313Y-113807837D01*
X177233266Y-114017988D01*
X177230217Y-114027373D01*
X177177115Y-114248554D01*
X177175572Y-114258301D01*
X177157725Y-114485070D01*
X177157725Y-114494930D01*
X170988500Y-114494930D01*
X170988500Y-114490290D01*
X171008502Y-114422169D01*
X171020864Y-114405980D01*
X171114621Y-114301852D01*
X171114622Y-114301851D01*
X171119040Y-114296944D01*
X171199525Y-114157540D01*
X171211223Y-114137279D01*
X171211224Y-114137278D01*
X171214527Y-114131556D01*
X171273542Y-113949928D01*
X171293504Y-113760000D01*
X171273542Y-113570072D01*
X171214527Y-113388444D01*
X171139151Y-113257890D01*
X177802093Y-113257890D01*
X177805876Y-113266666D01*
X178657188Y-114117978D01*
X178671132Y-114125592D01*
X178672965Y-114125461D01*
X178679580Y-114121210D01*
X179531080Y-113269710D01*
X179537534Y-113257890D01*
X184302093Y-113257890D01*
X184305876Y-113266666D01*
X185157188Y-114117978D01*
X185171132Y-114125592D01*
X185172965Y-114125461D01*
X185179580Y-114121210D01*
X186031080Y-113269710D01*
X186037840Y-113257330D01*
X186032113Y-113249680D01*
X185860958Y-113144795D01*
X185852163Y-113140313D01*
X185642012Y-113053266D01*
X185632627Y-113050217D01*
X185411446Y-112997115D01*
X185401699Y-112995572D01*
X185174930Y-112977725D01*
X185165070Y-112977725D01*
X184938301Y-112995572D01*
X184928554Y-112997115D01*
X184707373Y-113050217D01*
X184697988Y-113053266D01*
X184487837Y-113140313D01*
X184479042Y-113144795D01*
X184311555Y-113247432D01*
X184302093Y-113257890D01*
X179537534Y-113257890D01*
X179537840Y-113257330D01*
X179532113Y-113249680D01*
X179360958Y-113144795D01*
X179352163Y-113140313D01*
X179142012Y-113053266D01*
X179132627Y-113050217D01*
X178911446Y-112997115D01*
X178901699Y-112995572D01*
X178674930Y-112977725D01*
X178665070Y-112977725D01*
X178438301Y-112995572D01*
X178428554Y-112997115D01*
X178207373Y-113050217D01*
X178197988Y-113053266D01*
X177987837Y-113140313D01*
X177979042Y-113144795D01*
X177811555Y-113247432D01*
X177802093Y-113257890D01*
X171139151Y-113257890D01*
X171119040Y-113223056D01*
X170998735Y-113089443D01*
X170968018Y-113025436D01*
X170972539Y-112966198D01*
X170997439Y-112889563D01*
X170999479Y-112883285D01*
X171019441Y-112693357D01*
X170999479Y-112503429D01*
X170940464Y-112321801D01*
X170844977Y-112156413D01*
X170717190Y-112014491D01*
X170656815Y-111970625D01*
X170613462Y-111914403D01*
X170605567Y-111855520D01*
X170612814Y-111786565D01*
X170613504Y-111780000D01*
X170593542Y-111590072D01*
X170534527Y-111408444D01*
X170439040Y-111243056D01*
X170424835Y-111227279D01*
X170315675Y-111106045D01*
X170315674Y-111106044D01*
X170311253Y-111101134D01*
X170156752Y-110988882D01*
X170150724Y-110986198D01*
X170150722Y-110986197D01*
X169988319Y-110913891D01*
X169988318Y-110913891D01*
X169982288Y-110911206D01*
X169888888Y-110891353D01*
X169801944Y-110872872D01*
X169801939Y-110872872D01*
X169795487Y-110871500D01*
X169604513Y-110871500D01*
X169598061Y-110872872D01*
X169598056Y-110872872D01*
X169511112Y-110891353D01*
X169417712Y-110911206D01*
X169411682Y-110913891D01*
X169411681Y-110913891D01*
X169249278Y-110986197D01*
X169249276Y-110986198D01*
X169243248Y-110988882D01*
X169088747Y-111101134D01*
X169084326Y-111106044D01*
X169084325Y-111106045D01*
X168975166Y-111227279D01*
X168960960Y-111243056D01*
X168865473Y-111408444D01*
X168806458Y-111590072D01*
X168786496Y-111780000D01*
X168786684Y-111781786D01*
X168767184Y-111848196D01*
X168750281Y-111869170D01*
X165029600Y-115589851D01*
X164967288Y-115623877D01*
X164914310Y-115624003D01*
X164881271Y-115616980D01*
X164861943Y-115612872D01*
X164861941Y-115612872D01*
X164855487Y-115611500D01*
X164664513Y-115611500D01*
X164658061Y-115612872D01*
X164658056Y-115612872D01*
X164571112Y-115631353D01*
X164477712Y-115651206D01*
X164471682Y-115653891D01*
X164471681Y-115653891D01*
X164309278Y-115726197D01*
X164309276Y-115726198D01*
X164303248Y-115728882D01*
X164297907Y-115732762D01*
X164297906Y-115732763D01*
X164261273Y-115759379D01*
X164148747Y-115841134D01*
X164144326Y-115846044D01*
X164144325Y-115846045D01*
X164143110Y-115847395D01*
X164020960Y-115983056D01*
X163925473Y-116148444D01*
X163866458Y-116330072D01*
X163846496Y-116520000D01*
X163866458Y-116709928D01*
X163925473Y-116891556D01*
X164020960Y-117056944D01*
X164025378Y-117061851D01*
X164025379Y-117061852D01*
X164132276Y-117180573D01*
X164162994Y-117244580D01*
X164154229Y-117315034D01*
X164147766Y-117327870D01*
X164095473Y-117418444D01*
X164036458Y-117600072D01*
X164016496Y-117790000D01*
X164036458Y-117979928D01*
X164095473Y-118161556D01*
X164190960Y-118326944D01*
X164318747Y-118468866D01*
X164473248Y-118581118D01*
X164479276Y-118583802D01*
X164479278Y-118583803D01*
X164641681Y-118656109D01*
X164647712Y-118658794D01*
X164741113Y-118678647D01*
X164828056Y-118697128D01*
X164828061Y-118697128D01*
X164834513Y-118698500D01*
X165025487Y-118698500D01*
X165031939Y-118697128D01*
X165031944Y-118697128D01*
X165118887Y-118678647D01*
X165212288Y-118658794D01*
X165218319Y-118656109D01*
X165380722Y-118583803D01*
X165380724Y-118583802D01*
X165386752Y-118581118D01*
X165541253Y-118468866D01*
X165669040Y-118326944D01*
X165764527Y-118161556D01*
X165823542Y-117979928D01*
X165843504Y-117790000D01*
X165843316Y-117788214D01*
X165862816Y-117721804D01*
X165879719Y-117700830D01*
X169394048Y-114186501D01*
X169456360Y-114152475D01*
X169527175Y-114157540D01*
X169584011Y-114200087D01*
X169592258Y-114212591D01*
X169640960Y-114296944D01*
X169645378Y-114301851D01*
X169645379Y-114301852D01*
X169739136Y-114405980D01*
X169769854Y-114469987D01*
X169771500Y-114490290D01*
X169771500Y-116935761D01*
X169751498Y-117003882D01*
X169734595Y-117024856D01*
X166514856Y-120244595D01*
X166452544Y-120278621D01*
X166425761Y-120281500D01*
X163180710Y-120281500D01*
X163112589Y-120261498D01*
X163087074Y-120239811D01*
X163065668Y-120216037D01*
X163065666Y-120216036D01*
X163061253Y-120211134D01*
X163039671Y-120195454D01*
X162912094Y-120102763D01*
X162912093Y-120102762D01*
X162906752Y-120098882D01*
X162900724Y-120096198D01*
X162900722Y-120096197D01*
X162738319Y-120023891D01*
X162738318Y-120023891D01*
X162732288Y-120021206D01*
X162638888Y-120001353D01*
X162551944Y-119982872D01*
X162551939Y-119982872D01*
X162545487Y-119981500D01*
X162354513Y-119981500D01*
X162348061Y-119982872D01*
X162348056Y-119982872D01*
X162261112Y-120001353D01*
X162167712Y-120021206D01*
X162161682Y-120023891D01*
X162161681Y-120023891D01*
X161999278Y-120096197D01*
X161999276Y-120096198D01*
X161993248Y-120098882D01*
X161987907Y-120102763D01*
X161982189Y-120106064D01*
X161981383Y-120104668D01*
X161922182Y-120125791D01*
X161853030Y-120109710D01*
X161803550Y-120058796D01*
X161788989Y-119999996D01*
X161788989Y-115263750D01*
X161808991Y-115195629D01*
X161825894Y-115174655D01*
X166546234Y-110454315D01*
X166558625Y-110443448D01*
X166577437Y-110429013D01*
X166583987Y-110423987D01*
X166608474Y-110392075D01*
X166608478Y-110392071D01*
X166681524Y-110296876D01*
X166742838Y-110148851D01*
X166751953Y-110079614D01*
X166758500Y-110029885D01*
X166758500Y-110029880D01*
X166760467Y-110014936D01*
X166762672Y-109998189D01*
X166763750Y-109990000D01*
X177156835Y-109990000D01*
X177157223Y-109994930D01*
X177157685Y-110000796D01*
X177175465Y-110226711D01*
X177176619Y-110231518D01*
X177176620Y-110231524D01*
X177200904Y-110332673D01*
X177230895Y-110457594D01*
X177232788Y-110462165D01*
X177232789Y-110462167D01*
X177316514Y-110664297D01*
X177321760Y-110676963D01*
X177324346Y-110681183D01*
X177443241Y-110875202D01*
X177443245Y-110875208D01*
X177445824Y-110879416D01*
X177600031Y-111059969D01*
X177780584Y-111214176D01*
X177784792Y-111216755D01*
X177784798Y-111216759D01*
X177934468Y-111308477D01*
X177983037Y-111338240D01*
X177987607Y-111340133D01*
X177987611Y-111340135D01*
X178167699Y-111414729D01*
X178202406Y-111429105D01*
X178270242Y-111445391D01*
X178428476Y-111483380D01*
X178428482Y-111483381D01*
X178433289Y-111484535D01*
X178670000Y-111503165D01*
X178906711Y-111484535D01*
X178911518Y-111483381D01*
X178911524Y-111483380D01*
X179069758Y-111445391D01*
X179137594Y-111429105D01*
X179172301Y-111414729D01*
X179352389Y-111340135D01*
X179352393Y-111340133D01*
X179356963Y-111338240D01*
X179405532Y-111308477D01*
X179555202Y-111216759D01*
X179555208Y-111216755D01*
X179559416Y-111214176D01*
X179739969Y-111059969D01*
X179894176Y-110879416D01*
X179896755Y-110875208D01*
X179896759Y-110875202D01*
X180015654Y-110681183D01*
X180018240Y-110676963D01*
X180023487Y-110664297D01*
X180107211Y-110462167D01*
X180107212Y-110462165D01*
X180109105Y-110457594D01*
X180139096Y-110332673D01*
X180163380Y-110231524D01*
X180163381Y-110231518D01*
X180164535Y-110226711D01*
X180182315Y-110000796D01*
X180182777Y-109994930D01*
X180183165Y-109990000D01*
X180164535Y-109753289D01*
X180157994Y-109726040D01*
X180116860Y-109554707D01*
X180109105Y-109522406D01*
X180099200Y-109498493D01*
X180020135Y-109307611D01*
X180020133Y-109307607D01*
X180018240Y-109303037D01*
X180015654Y-109298817D01*
X179896759Y-109104798D01*
X179896755Y-109104792D01*
X179894176Y-109100584D01*
X179739969Y-108920031D01*
X179559416Y-108765824D01*
X179555208Y-108763245D01*
X179555202Y-108763241D01*
X179361183Y-108644346D01*
X179356963Y-108641760D01*
X179352393Y-108639867D01*
X179352389Y-108639865D01*
X179142167Y-108552789D01*
X179142165Y-108552788D01*
X179137594Y-108550895D01*
X179057391Y-108531640D01*
X178911524Y-108496620D01*
X178911518Y-108496619D01*
X178906711Y-108495465D01*
X178670000Y-108476835D01*
X178433289Y-108495465D01*
X178428482Y-108496619D01*
X178428476Y-108496620D01*
X178282609Y-108531640D01*
X178202406Y-108550895D01*
X178197835Y-108552788D01*
X178197833Y-108552789D01*
X177987611Y-108639865D01*
X177987607Y-108639867D01*
X177983037Y-108641760D01*
X177978817Y-108644346D01*
X177784798Y-108763241D01*
X177784792Y-108763245D01*
X177780584Y-108765824D01*
X177600031Y-108920031D01*
X177445824Y-109100584D01*
X177443245Y-109104792D01*
X177443241Y-109104798D01*
X177324346Y-109298817D01*
X177321760Y-109303037D01*
X177319867Y-109307607D01*
X177319865Y-109307611D01*
X177240800Y-109498493D01*
X177230895Y-109522406D01*
X177223140Y-109554707D01*
X177182007Y-109726040D01*
X177175465Y-109753289D01*
X177156835Y-109990000D01*
X166763750Y-109990000D01*
X166759578Y-109958307D01*
X166758500Y-109941864D01*
X166758500Y-106184500D01*
X166778502Y-106116379D01*
X166832158Y-106069886D01*
X166884500Y-106058500D01*
X166905487Y-106058500D01*
X166911939Y-106057128D01*
X166911944Y-106057128D01*
X166998887Y-106038647D01*
X167092288Y-106018794D01*
X167164676Y-105986565D01*
X167260724Y-105943802D01*
X167260725Y-105943801D01*
X167266752Y-105941118D01*
X167272093Y-105937238D01*
X167273677Y-105936323D01*
X167342672Y-105919583D01*
X167409764Y-105942801D01*
X167453653Y-105998607D01*
X167461990Y-106032268D01*
X167476458Y-106169928D01*
X167535473Y-106351556D01*
X167630960Y-106516944D01*
X167758747Y-106658866D01*
X167913248Y-106771118D01*
X167919276Y-106773802D01*
X167919278Y-106773803D01*
X168081681Y-106846109D01*
X168087712Y-106848794D01*
X168175213Y-106867393D01*
X168268056Y-106887128D01*
X168268061Y-106887128D01*
X168274513Y-106888500D01*
X168465487Y-106888500D01*
X168471939Y-106887128D01*
X168471944Y-106887128D01*
X168564787Y-106867393D01*
X168652288Y-106848794D01*
X168658319Y-106846109D01*
X168820722Y-106773803D01*
X168820724Y-106773802D01*
X168826752Y-106771118D01*
X168981253Y-106658866D01*
X169109040Y-106516944D01*
X169204527Y-106351556D01*
X169263542Y-106169928D01*
X169275254Y-106058500D01*
X169282814Y-105986565D01*
X169283504Y-105980000D01*
X169282762Y-105972941D01*
X169264232Y-105796635D01*
X169264232Y-105796633D01*
X169263542Y-105790072D01*
X169204527Y-105608444D01*
X169183626Y-105572242D01*
X169123153Y-105467500D01*
X169106415Y-105398505D01*
X169129635Y-105331413D01*
X169185443Y-105287526D01*
X169232272Y-105278500D01*
X171317298Y-105278500D01*
X171385419Y-105298502D01*
X171410933Y-105320188D01*
X171418747Y-105328866D01*
X171425632Y-105333868D01*
X171567447Y-105436903D01*
X171573248Y-105441118D01*
X171579276Y-105443802D01*
X171579278Y-105443803D01*
X171632503Y-105467500D01*
X171747712Y-105518794D01*
X171841113Y-105538647D01*
X171928056Y-105557128D01*
X171928061Y-105557128D01*
X171934513Y-105558500D01*
X172125487Y-105558500D01*
X172131939Y-105557128D01*
X172131944Y-105557128D01*
X172218887Y-105538647D01*
X172312288Y-105518794D01*
X172427497Y-105467500D01*
X172480722Y-105443803D01*
X172480724Y-105443802D01*
X172486752Y-105441118D01*
X172492554Y-105436903D01*
X172622900Y-105342200D01*
X172641253Y-105328866D01*
X172769040Y-105186944D01*
X172842920Y-105058980D01*
X172861223Y-105027279D01*
X172861224Y-105027278D01*
X172864527Y-105021556D01*
X172923542Y-104839928D01*
X172931713Y-104762191D01*
X172942814Y-104656565D01*
X172943504Y-104650000D01*
X172923542Y-104460072D01*
X172864527Y-104278444D01*
X172769040Y-104113056D01*
X172689390Y-104024595D01*
X172645675Y-103976045D01*
X172645671Y-103976041D01*
X172641253Y-103971134D01*
X172552204Y-103906436D01*
X172508850Y-103850214D01*
X172502775Y-103779477D01*
X172535906Y-103716686D01*
X172597727Y-103681774D01*
X172626265Y-103678500D01*
X173924364Y-103678500D01*
X173940807Y-103679578D01*
X173972500Y-103683750D01*
X173980689Y-103682672D01*
X174012374Y-103678501D01*
X174012384Y-103678500D01*
X174012385Y-103678500D01*
X174111957Y-103665391D01*
X174131351Y-103662838D01*
X174138298Y-103659960D01*
X174183743Y-103658769D01*
X174183988Y-103656436D01*
X174190547Y-103657125D01*
X174197013Y-103658500D01*
X174387987Y-103658500D01*
X174394439Y-103657128D01*
X174394444Y-103657128D01*
X174481388Y-103638647D01*
X174574788Y-103618794D01*
X174702997Y-103561712D01*
X174743222Y-103543803D01*
X174743224Y-103543802D01*
X174749252Y-103541118D01*
X174903753Y-103428866D01*
X174912310Y-103419363D01*
X175027121Y-103291852D01*
X175027122Y-103291851D01*
X175031540Y-103286944D01*
X175127027Y-103121556D01*
X175186042Y-102939928D01*
X175186800Y-102932721D01*
X175205314Y-102756565D01*
X175206004Y-102750000D01*
X175186042Y-102560072D01*
X175127027Y-102378444D01*
X175031540Y-102213056D01*
X175027121Y-102208148D01*
X174933364Y-102104020D01*
X174902646Y-102040013D01*
X174901000Y-102019710D01*
X174901000Y-102011739D01*
X174921002Y-101943618D01*
X174937905Y-101922644D01*
X176644951Y-100215598D01*
X176657342Y-100204731D01*
X176676154Y-100190296D01*
X176682704Y-100185270D01*
X176707191Y-100153358D01*
X176707195Y-100153354D01*
X176780241Y-100058159D01*
X176840584Y-99912479D01*
X176863353Y-99876392D01*
X176987757Y-99738227D01*
X177083244Y-99572839D01*
X177142259Y-99391211D01*
X177150227Y-99315405D01*
X177161531Y-99207848D01*
X177162221Y-99201283D01*
X177151474Y-99099027D01*
X177142949Y-99017918D01*
X177142949Y-99017916D01*
X177142259Y-99011355D01*
X177083244Y-98829727D01*
X176987757Y-98664339D01*
X176972729Y-98647648D01*
X176864392Y-98527328D01*
X176864391Y-98527327D01*
X176859970Y-98522417D01*
X176722919Y-98422843D01*
X176710811Y-98414046D01*
X176710810Y-98414045D01*
X176705469Y-98410165D01*
X176699441Y-98407481D01*
X176699439Y-98407480D01*
X176537036Y-98335174D01*
X176537035Y-98335174D01*
X176531005Y-98332489D01*
X176437605Y-98312636D01*
X176350661Y-98294155D01*
X176350656Y-98294155D01*
X176344204Y-98292783D01*
X176153230Y-98292783D01*
X176146778Y-98294155D01*
X176146773Y-98294155D01*
X176059829Y-98312636D01*
X175966429Y-98332489D01*
X175960399Y-98335174D01*
X175960398Y-98335174D01*
X175797995Y-98407480D01*
X175797993Y-98407481D01*
X175791965Y-98410165D01*
X175786624Y-98414045D01*
X175786623Y-98414046D01*
X175774515Y-98422843D01*
X175637464Y-98522417D01*
X175633043Y-98527327D01*
X175633042Y-98527328D01*
X175524706Y-98647648D01*
X175509677Y-98664339D01*
X175414190Y-98829727D01*
X175355175Y-99011355D01*
X175354485Y-99017916D01*
X175354485Y-99017918D01*
X175345960Y-99099027D01*
X175335213Y-99201283D01*
X175335903Y-99207848D01*
X175347208Y-99315405D01*
X175355175Y-99391211D01*
X175414190Y-99572839D01*
X175417494Y-99578561D01*
X175417494Y-99578562D01*
X175421639Y-99585741D01*
X175438377Y-99654736D01*
X175415157Y-99721828D01*
X175401615Y-99737836D01*
X173896266Y-101243185D01*
X173883875Y-101254052D01*
X173858513Y-101273513D01*
X173834026Y-101305425D01*
X173834023Y-101305428D01*
X173826426Y-101315328D01*
X173773958Y-101383706D01*
X173760976Y-101400624D01*
X173710526Y-101522422D01*
X173699662Y-101548650D01*
X173684000Y-101667615D01*
X173684000Y-101667620D01*
X173678750Y-101707500D01*
X173679828Y-101715688D01*
X173682922Y-101739190D01*
X173684000Y-101755636D01*
X173684000Y-102019710D01*
X173663998Y-102087831D01*
X173651636Y-102104020D01*
X173557879Y-102208148D01*
X173553460Y-102213056D01*
X173457973Y-102378444D01*
X173455932Y-102384724D01*
X173455030Y-102386751D01*
X173409049Y-102440846D01*
X173339924Y-102461500D01*
X170658059Y-102461500D01*
X170589938Y-102441498D01*
X170543445Y-102387842D01*
X170532749Y-102322330D01*
X170542814Y-102226565D01*
X170543504Y-102220000D01*
X170526851Y-102061556D01*
X170524232Y-102036635D01*
X170524232Y-102036633D01*
X170523542Y-102030072D01*
X170464527Y-101848444D01*
X170369040Y-101683056D01*
X170355142Y-101667620D01*
X170245675Y-101546045D01*
X170245674Y-101546044D01*
X170241253Y-101541134D01*
X170107289Y-101443803D01*
X170092094Y-101432763D01*
X170092093Y-101432762D01*
X170086752Y-101428882D01*
X170080724Y-101426198D01*
X170080722Y-101426197D01*
X169918319Y-101353891D01*
X169918318Y-101353891D01*
X169912288Y-101351206D01*
X169807187Y-101328866D01*
X169731944Y-101312872D01*
X169731939Y-101312872D01*
X169725487Y-101311500D01*
X169634239Y-101311500D01*
X169566118Y-101291498D01*
X169545144Y-101274595D01*
X168695405Y-100424856D01*
X168661379Y-100362544D01*
X168658500Y-100335761D01*
X168658500Y-98408877D01*
X168659578Y-98392431D01*
X168662672Y-98368929D01*
X168663750Y-98360741D01*
X168658500Y-98320861D01*
X168658500Y-98320856D01*
X168654804Y-98292783D01*
X168643916Y-98210077D01*
X168643915Y-98210075D01*
X168642838Y-98201891D01*
X168638195Y-98190681D01*
X168581524Y-98053865D01*
X168508478Y-97958670D01*
X168508474Y-97958666D01*
X168497782Y-97944732D01*
X168489016Y-97933307D01*
X168489013Y-97933304D01*
X168483987Y-97926754D01*
X168477432Y-97921724D01*
X168458621Y-97907289D01*
X168446230Y-97896422D01*
X166888558Y-96338750D01*
X180107746Y-96338750D01*
X180108436Y-96345315D01*
X180115123Y-96408934D01*
X180127708Y-96528678D01*
X180186723Y-96710306D01*
X180282210Y-96875694D01*
X180355387Y-96956965D01*
X180386103Y-97020971D01*
X180387750Y-97041274D01*
X180387750Y-98092483D01*
X180387223Y-98103666D01*
X180385548Y-98111159D01*
X180385797Y-98119085D01*
X180385797Y-98119086D01*
X180387028Y-98158260D01*
X180380925Y-98201147D01*
X180372736Y-98226350D01*
X180352774Y-98416278D01*
X180353464Y-98422843D01*
X180371026Y-98589933D01*
X180372736Y-98606206D01*
X180431751Y-98787834D01*
X180435054Y-98793556D01*
X180435055Y-98793557D01*
X180445831Y-98812221D01*
X180527238Y-98953222D01*
X180531656Y-98958129D01*
X180531657Y-98958130D01*
X180590363Y-99023330D01*
X180655025Y-99095144D01*
X180809526Y-99207396D01*
X180815555Y-99210080D01*
X180815558Y-99210082D01*
X180827792Y-99215529D01*
X180865636Y-99241540D01*
X183262878Y-101638782D01*
X183296904Y-101701094D01*
X183299093Y-101714707D01*
X183313810Y-101854729D01*
X183316458Y-101879928D01*
X183375473Y-102061556D01*
X183470960Y-102226944D01*
X183598747Y-102368866D01*
X183643664Y-102401500D01*
X183704778Y-102445902D01*
X183753248Y-102481118D01*
X183759276Y-102483802D01*
X183759278Y-102483803D01*
X183921681Y-102556109D01*
X183927712Y-102558794D01*
X184021113Y-102578647D01*
X184108056Y-102597128D01*
X184108061Y-102597128D01*
X184114513Y-102598500D01*
X184305487Y-102598500D01*
X184311939Y-102597128D01*
X184311944Y-102597128D01*
X184384303Y-102581747D01*
X184455094Y-102587149D01*
X184511726Y-102629966D01*
X184536220Y-102696603D01*
X184536500Y-102704994D01*
X184536500Y-108538434D01*
X184516498Y-108606555D01*
X184476335Y-108645867D01*
X184284798Y-108763241D01*
X184284792Y-108763245D01*
X184280584Y-108765824D01*
X184100031Y-108920031D01*
X183945824Y-109100584D01*
X183943245Y-109104792D01*
X183943241Y-109104798D01*
X183824346Y-109298817D01*
X183821760Y-109303037D01*
X183819867Y-109307607D01*
X183819865Y-109307611D01*
X183740800Y-109498493D01*
X183730895Y-109522406D01*
X183723140Y-109554707D01*
X183682007Y-109726040D01*
X183675465Y-109753289D01*
X183656835Y-109990000D01*
X183657223Y-109994930D01*
X183657685Y-110000796D01*
X183675465Y-110226711D01*
X183676619Y-110231518D01*
X183676620Y-110231524D01*
X183700904Y-110332673D01*
X183730895Y-110457594D01*
X183732788Y-110462165D01*
X183732789Y-110462167D01*
X183816514Y-110664297D01*
X183821760Y-110676963D01*
X183824346Y-110681183D01*
X183943241Y-110875202D01*
X183943245Y-110875208D01*
X183945824Y-110879416D01*
X184100031Y-111059969D01*
X184280584Y-111214176D01*
X184284792Y-111216755D01*
X184284798Y-111216759D01*
X184434468Y-111308477D01*
X184483037Y-111338240D01*
X184487607Y-111340133D01*
X184487611Y-111340135D01*
X184667699Y-111414729D01*
X184702406Y-111429105D01*
X184770242Y-111445391D01*
X184928476Y-111483380D01*
X184928482Y-111483381D01*
X184933289Y-111484535D01*
X185170000Y-111503165D01*
X185406711Y-111484535D01*
X185411518Y-111483381D01*
X185411524Y-111483380D01*
X185569758Y-111445391D01*
X185637594Y-111429105D01*
X185672301Y-111414729D01*
X185852389Y-111340135D01*
X185852393Y-111340133D01*
X185856963Y-111338240D01*
X185905532Y-111308477D01*
X186055202Y-111216759D01*
X186055208Y-111216755D01*
X186059416Y-111214176D01*
X186239969Y-111059969D01*
X186394176Y-110879416D01*
X186396755Y-110875208D01*
X186396759Y-110875202D01*
X186515654Y-110681183D01*
X186518240Y-110676963D01*
X186523487Y-110664297D01*
X186607211Y-110462167D01*
X186607212Y-110462165D01*
X186609105Y-110457594D01*
X186639096Y-110332673D01*
X186663380Y-110231524D01*
X186663381Y-110231518D01*
X186664535Y-110226711D01*
X186682315Y-110000796D01*
X186682777Y-109994930D01*
X186683165Y-109990000D01*
X186664535Y-109753289D01*
X186657994Y-109726040D01*
X186616860Y-109554707D01*
X186609105Y-109522406D01*
X186599200Y-109498493D01*
X186520135Y-109307611D01*
X186520133Y-109307607D01*
X186518240Y-109303037D01*
X186515654Y-109298817D01*
X186396759Y-109104798D01*
X186396755Y-109104792D01*
X186394176Y-109100584D01*
X186239969Y-108920031D01*
X186059416Y-108765824D01*
X186055208Y-108763245D01*
X186055202Y-108763241D01*
X185863665Y-108645867D01*
X185816034Y-108593219D01*
X185803500Y-108538434D01*
X185803500Y-100650000D01*
X192116496Y-100650000D01*
X192117186Y-100656565D01*
X192127567Y-100755331D01*
X192136458Y-100839928D01*
X192195473Y-101021556D01*
X192198776Y-101027278D01*
X192198777Y-101027279D01*
X192232686Y-101086010D01*
X192290960Y-101186944D01*
X192295378Y-101191851D01*
X192295379Y-101191852D01*
X192414325Y-101323955D01*
X192418747Y-101328866D01*
X192494515Y-101383915D01*
X192556407Y-101428882D01*
X192573248Y-101441118D01*
X192579276Y-101443802D01*
X192579278Y-101443803D01*
X192691572Y-101493799D01*
X192747712Y-101518794D01*
X192834545Y-101537251D01*
X192928056Y-101557128D01*
X192928061Y-101557128D01*
X192934513Y-101558500D01*
X193125487Y-101558500D01*
X193131939Y-101557128D01*
X193131944Y-101557128D01*
X193225455Y-101537251D01*
X193312288Y-101518794D01*
X193368428Y-101493799D01*
X193480722Y-101443803D01*
X193480724Y-101443802D01*
X193486752Y-101441118D01*
X193503594Y-101428882D01*
X193532935Y-101407564D01*
X193599803Y-101383706D01*
X193606996Y-101383500D01*
X194384834Y-101383500D01*
X194403784Y-101384933D01*
X194416993Y-101386943D01*
X194416997Y-101386943D01*
X194424227Y-101388043D01*
X194431519Y-101387450D01*
X194431522Y-101387450D01*
X194474979Y-101383915D01*
X194485194Y-101383500D01*
X194492826Y-101383500D01*
X194496445Y-101383078D01*
X194496464Y-101383077D01*
X194520069Y-101380325D01*
X194524435Y-101379893D01*
X194551754Y-101377671D01*
X194587404Y-101374771D01*
X194587406Y-101374771D01*
X194594704Y-101374177D01*
X194601673Y-101371919D01*
X194607193Y-101370816D01*
X194612618Y-101369534D01*
X194619890Y-101368686D01*
X194686210Y-101344613D01*
X194690356Y-101343190D01*
X194750458Y-101323720D01*
X194750462Y-101323718D01*
X194757420Y-101321464D01*
X194763672Y-101317670D01*
X194768788Y-101315328D01*
X194773789Y-101312824D01*
X194780667Y-101310327D01*
X194786784Y-101306317D01*
X194786789Y-101306314D01*
X194839654Y-101271653D01*
X194843376Y-101269305D01*
X194898848Y-101235644D01*
X194898849Y-101235643D01*
X194903645Y-101232733D01*
X194911755Y-101225571D01*
X194911770Y-101225588D01*
X194915079Y-101222655D01*
X194917587Y-101220558D01*
X194923706Y-101216546D01*
X194975149Y-101162242D01*
X194977526Y-101159800D01*
X195761762Y-100375564D01*
X196565381Y-99571944D01*
X196628278Y-99537793D01*
X196736237Y-99514845D01*
X196742268Y-99512160D01*
X196904671Y-99439854D01*
X196904673Y-99439853D01*
X196910701Y-99437169D01*
X197065202Y-99324917D01*
X197106996Y-99278500D01*
X197188570Y-99187903D01*
X197188571Y-99187902D01*
X197192989Y-99182995D01*
X197259674Y-99067493D01*
X197285172Y-99023330D01*
X197285173Y-99023329D01*
X197288476Y-99017607D01*
X197347491Y-98835979D01*
X197352205Y-98791134D01*
X197366763Y-98652616D01*
X197367453Y-98646051D01*
X197362740Y-98601206D01*
X197348181Y-98462686D01*
X197348181Y-98462684D01*
X197347491Y-98456123D01*
X197288476Y-98274495D01*
X197192989Y-98109107D01*
X197065202Y-97967185D01*
X196910701Y-97854933D01*
X196904673Y-97852249D01*
X196904671Y-97852248D01*
X196742268Y-97779942D01*
X196742267Y-97779942D01*
X196736237Y-97777257D01*
X196642837Y-97757404D01*
X196555893Y-97738923D01*
X196555888Y-97738923D01*
X196549436Y-97737551D01*
X196358462Y-97737551D01*
X196352010Y-97738923D01*
X196352005Y-97738923D01*
X196265061Y-97757404D01*
X196171661Y-97777257D01*
X196165631Y-97779942D01*
X196165630Y-97779942D01*
X196003227Y-97852248D01*
X196003225Y-97852249D01*
X195997197Y-97854933D01*
X195842696Y-97967185D01*
X195714909Y-98109107D01*
X195619422Y-98274495D01*
X195599706Y-98335174D01*
X195573354Y-98416278D01*
X195560407Y-98456123D01*
X195559717Y-98462693D01*
X195559715Y-98462700D01*
X195559650Y-98463320D01*
X195559512Y-98463655D01*
X195558344Y-98469151D01*
X195557339Y-98468937D01*
X195532634Y-98528975D01*
X195523436Y-98539239D01*
X194183080Y-99879595D01*
X194120768Y-99913621D01*
X194093985Y-99916500D01*
X193606996Y-99916500D01*
X193538875Y-99896498D01*
X193532935Y-99892436D01*
X193492094Y-99862763D01*
X193492093Y-99862762D01*
X193486752Y-99858882D01*
X193480724Y-99856198D01*
X193480722Y-99856197D01*
X193318319Y-99783891D01*
X193318318Y-99783891D01*
X193312288Y-99781206D01*
X193218888Y-99761353D01*
X193131944Y-99742872D01*
X193131939Y-99742872D01*
X193125487Y-99741500D01*
X192934513Y-99741500D01*
X192928061Y-99742872D01*
X192928056Y-99742872D01*
X192841112Y-99761353D01*
X192747712Y-99781206D01*
X192741682Y-99783891D01*
X192741681Y-99783891D01*
X192579278Y-99856197D01*
X192579276Y-99856198D01*
X192573248Y-99858882D01*
X192567907Y-99862762D01*
X192567906Y-99862763D01*
X192530189Y-99890166D01*
X192418747Y-99971134D01*
X192414326Y-99976044D01*
X192414325Y-99976045D01*
X192347260Y-100050529D01*
X192290960Y-100113056D01*
X192195473Y-100278444D01*
X192136458Y-100460072D01*
X192135768Y-100466633D01*
X192135768Y-100466635D01*
X192120878Y-100608310D01*
X192116496Y-100650000D01*
X185803500Y-100650000D01*
X185803500Y-95648768D01*
X185804027Y-95637585D01*
X185805702Y-95630092D01*
X185803562Y-95562001D01*
X185803500Y-95558044D01*
X185803500Y-95530144D01*
X185802996Y-95526153D01*
X185802063Y-95514311D01*
X185801834Y-95506999D01*
X185800674Y-95470111D01*
X185795021Y-95450652D01*
X185791012Y-95431293D01*
X185789875Y-95422293D01*
X185788474Y-95411203D01*
X185785558Y-95403837D01*
X185785556Y-95403831D01*
X185772200Y-95370098D01*
X185768355Y-95358868D01*
X185758230Y-95324017D01*
X185758230Y-95324016D01*
X185756019Y-95316407D01*
X185745705Y-95298966D01*
X185737008Y-95281213D01*
X185732472Y-95269758D01*
X185729552Y-95262383D01*
X185703563Y-95226612D01*
X185697047Y-95216692D01*
X185693753Y-95211122D01*
X185674542Y-95178638D01*
X185660221Y-95164317D01*
X185647380Y-95149283D01*
X185640131Y-95139306D01*
X185635472Y-95132893D01*
X185601395Y-95104702D01*
X185592616Y-95096712D01*
X185054701Y-94558797D01*
X193295149Y-94558797D01*
X193295446Y-94563950D01*
X193295446Y-94563953D01*
X193300909Y-94658692D01*
X193308008Y-94781817D01*
X193309145Y-94786863D01*
X193309146Y-94786869D01*
X193316091Y-94817685D01*
X193357120Y-94999741D01*
X193441164Y-95206718D01*
X193557885Y-95397190D01*
X193704148Y-95566040D01*
X193876024Y-95708734D01*
X194068898Y-95821440D01*
X194277590Y-95901132D01*
X194282658Y-95902163D01*
X194282661Y-95902164D01*
X194337731Y-95913368D01*
X194496495Y-95945669D01*
X194501670Y-95945859D01*
X194501672Y-95945859D01*
X194714571Y-95953666D01*
X194714575Y-95953666D01*
X194719735Y-95953855D01*
X194724855Y-95953199D01*
X194724857Y-95953199D01*
X194936186Y-95926127D01*
X194936187Y-95926127D01*
X194941314Y-95925470D01*
X194981652Y-95913368D01*
X195150327Y-95862763D01*
X195150332Y-95862761D01*
X195155282Y-95861276D01*
X195355892Y-95762998D01*
X195537758Y-95633275D01*
X195695994Y-95475591D01*
X195705405Y-95462495D01*
X195823333Y-95298379D01*
X195826351Y-95294179D01*
X195842066Y-95262383D01*
X195923034Y-95098555D01*
X195923035Y-95098553D01*
X195925328Y-95093913D01*
X195990268Y-94880171D01*
X196019427Y-94658692D01*
X196019509Y-94655342D01*
X196020972Y-94595467D01*
X196020972Y-94595463D01*
X196021054Y-94592102D01*
X196002750Y-94369463D01*
X195977691Y-94269699D01*
X195980495Y-94198757D01*
X196021208Y-94140594D01*
X196086903Y-94113675D01*
X196125013Y-94115533D01*
X196292546Y-94149618D01*
X196297721Y-94149808D01*
X196297723Y-94149808D01*
X196510622Y-94157615D01*
X196510626Y-94157615D01*
X196515786Y-94157804D01*
X196520906Y-94157148D01*
X196520908Y-94157148D01*
X196732237Y-94130076D01*
X196732238Y-94130076D01*
X196737365Y-94129419D01*
X196758844Y-94122975D01*
X196946378Y-94066712D01*
X196946383Y-94066710D01*
X196951333Y-94065225D01*
X197151943Y-93966947D01*
X197333809Y-93837224D01*
X197360007Y-93811118D01*
X197429050Y-93742315D01*
X197492045Y-93679540D01*
X197571022Y-93569632D01*
X197619384Y-93502328D01*
X197622402Y-93498128D01*
X197646081Y-93450218D01*
X197719085Y-93302504D01*
X197719086Y-93302502D01*
X197721379Y-93297862D01*
X197759479Y-93172462D01*
X197784814Y-93089074D01*
X197784814Y-93089072D01*
X197786319Y-93084120D01*
X197815478Y-92862641D01*
X197815560Y-92859291D01*
X197817023Y-92799416D01*
X197817023Y-92799412D01*
X197817105Y-92796051D01*
X197816452Y-92788113D01*
X197814857Y-92768703D01*
X197829210Y-92699172D01*
X197878877Y-92648440D01*
X197948087Y-92632613D01*
X197992584Y-92643679D01*
X198105814Y-92695161D01*
X198114697Y-92696433D01*
X198114700Y-92696434D01*
X198241111Y-92714537D01*
X198250000Y-92715810D01*
X198258889Y-92714537D01*
X198385300Y-92696434D01*
X198385303Y-92696433D01*
X198394186Y-92695161D01*
X198526782Y-92634874D01*
X198532935Y-92629927D01*
X198532938Y-92629925D01*
X198566720Y-92602763D01*
X198575528Y-92595681D01*
X199845681Y-91325528D01*
X199859137Y-91308792D01*
X199879925Y-91282938D01*
X199879927Y-91282935D01*
X199884874Y-91276782D01*
X199920209Y-91199065D01*
X199941447Y-91152355D01*
X199941447Y-91152354D01*
X199945161Y-91144186D01*
X199949953Y-91110729D01*
X199964537Y-91008889D01*
X199965810Y-91000000D01*
X199954896Y-90923792D01*
X199946434Y-90864700D01*
X199946433Y-90864697D01*
X199945161Y-90855814D01*
X199884874Y-90723218D01*
X199879927Y-90717065D01*
X199879925Y-90717062D01*
X199857120Y-90688699D01*
X199845681Y-90674472D01*
X198575528Y-89404319D01*
X198558792Y-89390863D01*
X198532938Y-89370075D01*
X198532935Y-89370073D01*
X198526782Y-89365126D01*
X198394186Y-89304839D01*
X198385303Y-89303567D01*
X198385300Y-89303566D01*
X198258889Y-89285463D01*
X198250000Y-89284190D01*
X198241111Y-89285463D01*
X198114700Y-89303566D01*
X198114697Y-89303567D01*
X198105814Y-89304839D01*
X197973218Y-89365126D01*
X197967065Y-89370073D01*
X197967062Y-89370075D01*
X197941208Y-89390863D01*
X197924472Y-89404319D01*
X196654319Y-90674472D01*
X196642880Y-90688699D01*
X196620075Y-90717062D01*
X196620073Y-90717065D01*
X196615126Y-90723218D01*
X196554839Y-90855814D01*
X196553567Y-90864697D01*
X196553566Y-90864700D01*
X196545104Y-90923792D01*
X196534190Y-91000000D01*
X196535463Y-91008889D01*
X196550048Y-91110729D01*
X196554839Y-91144186D01*
X196558553Y-91152354D01*
X196558553Y-91152355D01*
X196607355Y-91259690D01*
X196617341Y-91329981D01*
X196587741Y-91394512D01*
X196527950Y-91432796D01*
X196491116Y-91437832D01*
X196417185Y-91436929D01*
X196364029Y-91436279D01*
X196364027Y-91436279D01*
X196358860Y-91436216D01*
X196138040Y-91470006D01*
X195925705Y-91539408D01*
X195727556Y-91642558D01*
X195723423Y-91645661D01*
X195723420Y-91645663D01*
X195557134Y-91770514D01*
X195548914Y-91776686D01*
X195394578Y-91938189D01*
X195391664Y-91942461D01*
X195391663Y-91942462D01*
X195339810Y-92018476D01*
X195268692Y-92122731D01*
X195174637Y-92325356D01*
X195114938Y-92540621D01*
X195091200Y-92762746D01*
X195091497Y-92767899D01*
X195091497Y-92767902D01*
X195096960Y-92862641D01*
X195104059Y-92985766D01*
X195105196Y-92990812D01*
X195105197Y-92990818D01*
X195134176Y-93119404D01*
X195129640Y-93190256D01*
X195087518Y-93247407D01*
X195021185Y-93272713D01*
X194989163Y-93271152D01*
X194791271Y-93235902D01*
X194791265Y-93235901D01*
X194786182Y-93234996D01*
X194712350Y-93234094D01*
X194567979Y-93232330D01*
X194567977Y-93232330D01*
X194562809Y-93232267D01*
X194341989Y-93266057D01*
X194129654Y-93335459D01*
X193931505Y-93438609D01*
X193927372Y-93441712D01*
X193927369Y-93441714D01*
X193852233Y-93498128D01*
X193752863Y-93572737D01*
X193749291Y-93576475D01*
X193605340Y-93727111D01*
X193598527Y-93734240D01*
X193595613Y-93738512D01*
X193595612Y-93738513D01*
X193579893Y-93761556D01*
X193472641Y-93918782D01*
X193427566Y-94015888D01*
X193381313Y-94115533D01*
X193378586Y-94121407D01*
X193318887Y-94336672D01*
X193295149Y-94558797D01*
X185054701Y-94558797D01*
X183937122Y-93441217D01*
X183903096Y-93378905D01*
X183900907Y-93365292D01*
X183884232Y-93206635D01*
X183884232Y-93206633D01*
X183883542Y-93200072D01*
X183824527Y-93018444D01*
X183806076Y-92986485D01*
X183760428Y-92907421D01*
X183729040Y-92853056D01*
X183714255Y-92836635D01*
X183605675Y-92716045D01*
X183605674Y-92716044D01*
X183601253Y-92711134D01*
X183446752Y-92598882D01*
X183440724Y-92596198D01*
X183440722Y-92596197D01*
X183278319Y-92523891D01*
X183278318Y-92523891D01*
X183272288Y-92521206D01*
X183178888Y-92501353D01*
X183091944Y-92482872D01*
X183091939Y-92482872D01*
X183085487Y-92481500D01*
X182894513Y-92481500D01*
X182888061Y-92482872D01*
X182888056Y-92482872D01*
X182801112Y-92501353D01*
X182707712Y-92521206D01*
X182701682Y-92523891D01*
X182701681Y-92523891D01*
X182539278Y-92596197D01*
X182539276Y-92596198D01*
X182533248Y-92598882D01*
X182378747Y-92711134D01*
X182374326Y-92716044D01*
X182374325Y-92716045D01*
X182265746Y-92836635D01*
X182250960Y-92853056D01*
X182219572Y-92907421D01*
X182173925Y-92986485D01*
X182155473Y-93018444D01*
X182096458Y-93200072D01*
X182095768Y-93206633D01*
X182095768Y-93206635D01*
X182092992Y-93233050D01*
X182076496Y-93390000D01*
X182077186Y-93396565D01*
X182095079Y-93566804D01*
X182096458Y-93579928D01*
X182155473Y-93761556D01*
X182250960Y-93926944D01*
X182255378Y-93931851D01*
X182255379Y-93931852D01*
X182374325Y-94063955D01*
X182378747Y-94068866D01*
X182533248Y-94181118D01*
X182539276Y-94183802D01*
X182539278Y-94183803D01*
X182671117Y-94242501D01*
X182707712Y-94258794D01*
X182801113Y-94278647D01*
X182888056Y-94297128D01*
X182888061Y-94297128D01*
X182894513Y-94298500D01*
X182950406Y-94298500D01*
X183018527Y-94318502D01*
X183039501Y-94335405D01*
X184499595Y-95795499D01*
X184533621Y-95857811D01*
X184536500Y-95884594D01*
X184536500Y-100675006D01*
X184516498Y-100743127D01*
X184462842Y-100789620D01*
X184392568Y-100799724D01*
X184384303Y-100798253D01*
X184311944Y-100782872D01*
X184311939Y-100782872D01*
X184305487Y-100781500D01*
X184249594Y-100781500D01*
X184181473Y-100761498D01*
X184160499Y-100744595D01*
X182180646Y-98764742D01*
X182146620Y-98702430D01*
X182149909Y-98636709D01*
X182157777Y-98612494D01*
X182157777Y-98612493D01*
X182159820Y-98606206D01*
X182161531Y-98589933D01*
X182179092Y-98422843D01*
X182179782Y-98416278D01*
X182174918Y-98370000D01*
X182160510Y-98232913D01*
X182160510Y-98232911D01*
X182159820Y-98226350D01*
X182100805Y-98044722D01*
X182005318Y-97879334D01*
X181877531Y-97737412D01*
X181723030Y-97625160D01*
X181717583Y-97622735D01*
X181668755Y-97571523D01*
X181654750Y-97513789D01*
X181654750Y-97041274D01*
X181674752Y-96973153D01*
X181687108Y-96956971D01*
X181760290Y-96875694D01*
X181855777Y-96710306D01*
X181914792Y-96528678D01*
X181927378Y-96408934D01*
X181934064Y-96345315D01*
X181934754Y-96338750D01*
X181929385Y-96287671D01*
X181915482Y-96155385D01*
X181915482Y-96155383D01*
X181914792Y-96148822D01*
X181855777Y-95967194D01*
X181824701Y-95913368D01*
X181804115Y-95877713D01*
X181760290Y-95801806D01*
X181727398Y-95765275D01*
X181636925Y-95664795D01*
X181636924Y-95664794D01*
X181632503Y-95659884D01*
X181507883Y-95569342D01*
X181483344Y-95551513D01*
X181483343Y-95551512D01*
X181478002Y-95547632D01*
X181471974Y-95544948D01*
X181471972Y-95544947D01*
X181309569Y-95472641D01*
X181309568Y-95472641D01*
X181303538Y-95469956D01*
X181210138Y-95450103D01*
X181123194Y-95431622D01*
X181123189Y-95431622D01*
X181116737Y-95430250D01*
X180925763Y-95430250D01*
X180919311Y-95431622D01*
X180919306Y-95431622D01*
X180832363Y-95450103D01*
X180738962Y-95469956D01*
X180732932Y-95472641D01*
X180732931Y-95472641D01*
X180570528Y-95544947D01*
X180570526Y-95544948D01*
X180564498Y-95547632D01*
X180559157Y-95551512D01*
X180559156Y-95551513D01*
X180534617Y-95569342D01*
X180409997Y-95659884D01*
X180405576Y-95664794D01*
X180405575Y-95664795D01*
X180315103Y-95765275D01*
X180282210Y-95801806D01*
X180238385Y-95877713D01*
X180217800Y-95913368D01*
X180186723Y-95967194D01*
X180127708Y-96148822D01*
X180127018Y-96155383D01*
X180127018Y-96155385D01*
X180113115Y-96287671D01*
X180107746Y-96338750D01*
X166888558Y-96338750D01*
X159963574Y-89413766D01*
X159952707Y-89401375D01*
X159938272Y-89382563D01*
X159933246Y-89376013D01*
X159901334Y-89351526D01*
X159901331Y-89351523D01*
X159806135Y-89278476D01*
X159658110Y-89217162D01*
X159649923Y-89216084D01*
X159649922Y-89216084D01*
X159638717Y-89214609D01*
X159607521Y-89210502D01*
X159539144Y-89201500D01*
X159539141Y-89201500D01*
X159539133Y-89201499D01*
X159507448Y-89197328D01*
X159499259Y-89196250D01*
X159467566Y-89200422D01*
X159451123Y-89201500D01*
X119558136Y-89201500D01*
X119541693Y-89200422D01*
X119510000Y-89196250D01*
X119501811Y-89197328D01*
X119470126Y-89201499D01*
X119470117Y-89201500D01*
X119470115Y-89201500D01*
X119470109Y-89201501D01*
X119470107Y-89201501D01*
X119370543Y-89214609D01*
X119359336Y-89216084D01*
X119359334Y-89216085D01*
X119351149Y-89217162D01*
X119203124Y-89278476D01*
X119107928Y-89351523D01*
X119107925Y-89351526D01*
X119076013Y-89376013D01*
X119070983Y-89382568D01*
X119056548Y-89401379D01*
X119045681Y-89413770D01*
X116554856Y-91904595D01*
X116492544Y-91938621D01*
X116465761Y-91941500D01*
X107368136Y-91941500D01*
X107351693Y-91940422D01*
X107320000Y-91936250D01*
X107311811Y-91937328D01*
X107280126Y-91941499D01*
X107280117Y-91941500D01*
X107280115Y-91941500D01*
X107280109Y-91941501D01*
X107280107Y-91941501D01*
X107180543Y-91954609D01*
X107169336Y-91956084D01*
X107169334Y-91956085D01*
X107161149Y-91957162D01*
X107013124Y-92018476D01*
X106987886Y-92037842D01*
X106917937Y-92091515D01*
X106917921Y-92091529D01*
X106892566Y-92110984D01*
X106892563Y-92110987D01*
X106886013Y-92116013D01*
X106880983Y-92122568D01*
X106866548Y-92141379D01*
X106855681Y-92153770D01*
X104454422Y-94555029D01*
X104392110Y-94589055D01*
X104365327Y-94591934D01*
X104263050Y-94591934D01*
X104256598Y-94593306D01*
X104256593Y-94593306D01*
X104169649Y-94611787D01*
X104076249Y-94631640D01*
X104070219Y-94634325D01*
X104070218Y-94634325D01*
X103907815Y-94706631D01*
X103907813Y-94706632D01*
X103901785Y-94709316D01*
X103747284Y-94821568D01*
X103619497Y-94963490D01*
X103524010Y-95128878D01*
X103464995Y-95310506D01*
X103464305Y-95317067D01*
X103464305Y-95317069D01*
X103448236Y-95469956D01*
X103445033Y-95500434D01*
X47283980Y-95500434D01*
X52636448Y-90147966D01*
X113433257Y-90147966D01*
X113463565Y-90282446D01*
X113466645Y-90292275D01*
X113546770Y-90489603D01*
X113551413Y-90498794D01*
X113662694Y-90680388D01*
X113668777Y-90688699D01*
X113808213Y-90849667D01*
X113815580Y-90856883D01*
X113979434Y-90992916D01*
X113987881Y-90998831D01*
X114171756Y-91106279D01*
X114181042Y-91110729D01*
X114380001Y-91186703D01*
X114389899Y-91189579D01*
X114493250Y-91210606D01*
X114507299Y-91209410D01*
X114511000Y-91199065D01*
X114511000Y-91198517D01*
X115019000Y-91198517D01*
X115023064Y-91212359D01*
X115036478Y-91214393D01*
X115043184Y-91213534D01*
X115053262Y-91211392D01*
X115257255Y-91150191D01*
X115266842Y-91146433D01*
X115458095Y-91052739D01*
X115466945Y-91047464D01*
X115640328Y-90923792D01*
X115648200Y-90917139D01*
X115799052Y-90766812D01*
X115805730Y-90758965D01*
X115930003Y-90586020D01*
X115935313Y-90577183D01*
X116029670Y-90386267D01*
X116033469Y-90376672D01*
X116095377Y-90172910D01*
X116097555Y-90162837D01*
X116098986Y-90151962D01*
X116096775Y-90137778D01*
X116083617Y-90134000D01*
X115037115Y-90134000D01*
X115021876Y-90138475D01*
X115020671Y-90139865D01*
X115019000Y-90147548D01*
X115019000Y-91198517D01*
X114511000Y-91198517D01*
X114511000Y-90152115D01*
X114506525Y-90136876D01*
X114505135Y-90135671D01*
X114497452Y-90134000D01*
X113448225Y-90134000D01*
X113434694Y-90137973D01*
X113433257Y-90147966D01*
X52636448Y-90147966D01*
X55477719Y-87306695D01*
X113402251Y-87306695D01*
X113402548Y-87311848D01*
X113402548Y-87311851D01*
X113408590Y-87416635D01*
X113415110Y-87529715D01*
X113416247Y-87534761D01*
X113416248Y-87534767D01*
X113432429Y-87606565D01*
X113464222Y-87747639D01*
X113548266Y-87954616D01*
X113664987Y-88145088D01*
X113811250Y-88313938D01*
X113983126Y-88456632D01*
X114027103Y-88482330D01*
X114056955Y-88499774D01*
X114105679Y-88551412D01*
X114118750Y-88621195D01*
X114092019Y-88686967D01*
X114051562Y-88720327D01*
X114043457Y-88724546D01*
X114034738Y-88730036D01*
X113864433Y-88857905D01*
X113856726Y-88864748D01*
X113709590Y-89018717D01*
X113703104Y-89026727D01*
X113583098Y-89202649D01*
X113578000Y-89211623D01*
X113488338Y-89404783D01*
X113484775Y-89414470D01*
X113429389Y-89614183D01*
X113430912Y-89622607D01*
X113443292Y-89626000D01*
X116083344Y-89626000D01*
X116096875Y-89622027D01*
X116098180Y-89612947D01*
X116056214Y-89445875D01*
X116052894Y-89436124D01*
X115967972Y-89240814D01*
X115963105Y-89231739D01*
X115847426Y-89052926D01*
X115841136Y-89044757D01*
X115697806Y-88887240D01*
X115690273Y-88880215D01*
X115523139Y-88748222D01*
X115514556Y-88742520D01*
X115477602Y-88722120D01*
X115427631Y-88671687D01*
X115412859Y-88602245D01*
X115437975Y-88535839D01*
X115465327Y-88509232D01*
X115534433Y-88459939D01*
X115644860Y-88381173D01*
X115803096Y-88223489D01*
X115824428Y-88193803D01*
X115930435Y-88046277D01*
X115933453Y-88042077D01*
X115958684Y-87991027D01*
X116030136Y-87846453D01*
X116030137Y-87846451D01*
X116032430Y-87841811D01*
X116074041Y-87704855D01*
X116095865Y-87633023D01*
X116095865Y-87633021D01*
X116097370Y-87628069D01*
X116101065Y-87600000D01*
X166246496Y-87600000D01*
X166247186Y-87606565D01*
X166265628Y-87782027D01*
X166266458Y-87789928D01*
X166325473Y-87971556D01*
X166328776Y-87977278D01*
X166328777Y-87977279D01*
X166362686Y-88036010D01*
X166420960Y-88136944D01*
X166425378Y-88141851D01*
X166425379Y-88141852D01*
X166519136Y-88245980D01*
X166549854Y-88309987D01*
X166551500Y-88330290D01*
X166551500Y-92271864D01*
X166550422Y-92288307D01*
X166546250Y-92320000D01*
X166551500Y-92359880D01*
X166551500Y-92359885D01*
X166557604Y-92406250D01*
X166567162Y-92478851D01*
X166628476Y-92626876D01*
X166633503Y-92633427D01*
X166633504Y-92633429D01*
X166701520Y-92722069D01*
X166701526Y-92722075D01*
X166726013Y-92753987D01*
X166732568Y-92759017D01*
X166751379Y-92773452D01*
X166763770Y-92784319D01*
X166910281Y-92930830D01*
X166944307Y-92993142D01*
X166946841Y-93016716D01*
X166946496Y-93020000D01*
X166947186Y-93026565D01*
X166964932Y-93195405D01*
X166966458Y-93209928D01*
X167025473Y-93391556D01*
X167120960Y-93556944D01*
X167125378Y-93561851D01*
X167125379Y-93561852D01*
X167179703Y-93622185D01*
X167248747Y-93698866D01*
X167403248Y-93811118D01*
X167409276Y-93813802D01*
X167409278Y-93813803D01*
X167518580Y-93862467D01*
X167577712Y-93888794D01*
X167671113Y-93908647D01*
X167758056Y-93927128D01*
X167758061Y-93927128D01*
X167764513Y-93928500D01*
X167855761Y-93928500D01*
X167923882Y-93948502D01*
X167944856Y-93965405D01*
X168004435Y-94024984D01*
X168015302Y-94037375D01*
X168034763Y-94062737D01*
X168041313Y-94067763D01*
X168066671Y-94087221D01*
X168066687Y-94087235D01*
X168105103Y-94116712D01*
X168161874Y-94160274D01*
X168235887Y-94190931D01*
X168302270Y-94218428D01*
X168302273Y-94218429D01*
X168309900Y-94221588D01*
X168468750Y-94242501D01*
X168500449Y-94238328D01*
X168516894Y-94237250D01*
X171080540Y-94237250D01*
X171148661Y-94257252D01*
X171174176Y-94278939D01*
X171190554Y-94297128D01*
X171199997Y-94307616D01*
X171354498Y-94419868D01*
X171360526Y-94422552D01*
X171360528Y-94422553D01*
X171522931Y-94494859D01*
X171528962Y-94497544D01*
X171622363Y-94517397D01*
X171709306Y-94535878D01*
X171709311Y-94535878D01*
X171715763Y-94537250D01*
X171906737Y-94537250D01*
X171913189Y-94535878D01*
X171913194Y-94535878D01*
X172000137Y-94517397D01*
X172093538Y-94497544D01*
X172099569Y-94494859D01*
X172261972Y-94422553D01*
X172261974Y-94422552D01*
X172268002Y-94419868D01*
X172422503Y-94307616D01*
X172430711Y-94298500D01*
X172545871Y-94170602D01*
X172545872Y-94170601D01*
X172550290Y-94165694D01*
X172645777Y-94000306D01*
X172704792Y-93818678D01*
X172705995Y-93807237D01*
X172724064Y-93635315D01*
X172724754Y-93628750D01*
X172724064Y-93622185D01*
X172705482Y-93445385D01*
X172705482Y-93445383D01*
X172704792Y-93438822D01*
X172645777Y-93257194D01*
X172642176Y-93250956D01*
X172591827Y-93163750D01*
X172550290Y-93091806D01*
X172543878Y-93084684D01*
X172426925Y-92954795D01*
X172426924Y-92954794D01*
X172422503Y-92949884D01*
X172268002Y-92837632D01*
X172261974Y-92834948D01*
X172261972Y-92834947D01*
X172099569Y-92762641D01*
X172099568Y-92762641D01*
X172093538Y-92759956D01*
X172000138Y-92740103D01*
X171913194Y-92721622D01*
X171913189Y-92721622D01*
X171906737Y-92720250D01*
X171715763Y-92720250D01*
X171709311Y-92721622D01*
X171709306Y-92721622D01*
X171622362Y-92740103D01*
X171528962Y-92759956D01*
X171522932Y-92762641D01*
X171522931Y-92762641D01*
X171360528Y-92834947D01*
X171360526Y-92834948D01*
X171354498Y-92837632D01*
X171349157Y-92841512D01*
X171349156Y-92841513D01*
X171324687Y-92859291D01*
X171199997Y-92949884D01*
X171195584Y-92954786D01*
X171195582Y-92954787D01*
X171174176Y-92978561D01*
X171113730Y-93015800D01*
X171080540Y-93020250D01*
X168886982Y-93020250D01*
X168818861Y-93000248D01*
X168772368Y-92946592D01*
X168761672Y-92907421D01*
X168754232Y-92836635D01*
X168754232Y-92836633D01*
X168753542Y-92830072D01*
X168694527Y-92648444D01*
X168677670Y-92619246D01*
X168602341Y-92488774D01*
X168599040Y-92483056D01*
X168499863Y-92372908D01*
X168475675Y-92346045D01*
X168475674Y-92346044D01*
X168471253Y-92341134D01*
X168316752Y-92228882D01*
X168310724Y-92226198D01*
X168310722Y-92226197D01*
X168148319Y-92153891D01*
X168148318Y-92153891D01*
X168142288Y-92151206D01*
X168030413Y-92127426D01*
X167961944Y-92112872D01*
X167961939Y-92112872D01*
X167955487Y-92111500D01*
X167894500Y-92111500D01*
X167826379Y-92091498D01*
X167779886Y-92037842D01*
X167768500Y-91985500D01*
X167768500Y-89910000D01*
X175546496Y-89910000D01*
X175566458Y-90099928D01*
X175625473Y-90281556D01*
X175628776Y-90287278D01*
X175628777Y-90287279D01*
X175657733Y-90337432D01*
X175720960Y-90446944D01*
X175725378Y-90451851D01*
X175725379Y-90451852D01*
X175844325Y-90583955D01*
X175848747Y-90588866D01*
X176003248Y-90701118D01*
X176009276Y-90703802D01*
X176009278Y-90703803D01*
X176171681Y-90776109D01*
X176177712Y-90778794D01*
X176271113Y-90798647D01*
X176358056Y-90817128D01*
X176358061Y-90817128D01*
X176364513Y-90818500D01*
X176555487Y-90818500D01*
X176561939Y-90817128D01*
X176561944Y-90817128D01*
X176648888Y-90798647D01*
X176742288Y-90778794D01*
X176748319Y-90776109D01*
X176910722Y-90703803D01*
X176910724Y-90703802D01*
X176916752Y-90701118D01*
X176945285Y-90680388D01*
X177049671Y-90604546D01*
X177071253Y-90588866D01*
X177081773Y-90577183D01*
X177097074Y-90560189D01*
X177157520Y-90522950D01*
X177190710Y-90518500D01*
X178361123Y-90518500D01*
X178377566Y-90519578D01*
X178409259Y-90523750D01*
X178417448Y-90522672D01*
X178449133Y-90518501D01*
X178449143Y-90518500D01*
X178449144Y-90518500D01*
X178548716Y-90505391D01*
X178559923Y-90503916D01*
X178559925Y-90503915D01*
X178568110Y-90502838D01*
X178716135Y-90441524D01*
X178727797Y-90432576D01*
X178811331Y-90368477D01*
X178811334Y-90368474D01*
X178836693Y-90349015D01*
X178843246Y-90343987D01*
X178848276Y-90337432D01*
X178862711Y-90318621D01*
X178873578Y-90306230D01*
X179746079Y-89433729D01*
X189656633Y-89433729D01*
X189656765Y-89435565D01*
X189661014Y-89442177D01*
X189701528Y-89482690D01*
X189705936Y-89486698D01*
X189821122Y-89581818D01*
X189831011Y-89588513D01*
X190006019Y-89684129D01*
X190017001Y-89688837D01*
X190206943Y-89749638D01*
X190218594Y-89752178D01*
X190416618Y-89775966D01*
X190428544Y-89776257D01*
X190627480Y-89762173D01*
X190639255Y-89760202D01*
X190831940Y-89708752D01*
X190843132Y-89704590D01*
X191022609Y-89617634D01*
X191023479Y-89617105D01*
X191029719Y-89608791D01*
X191022947Y-89596371D01*
X190268117Y-88841541D01*
X190254173Y-88833927D01*
X190252340Y-88834058D01*
X190245725Y-88838309D01*
X189664244Y-89419791D01*
X189656633Y-89433729D01*
X179746079Y-89433729D01*
X180834403Y-88345405D01*
X180896715Y-88311379D01*
X180923498Y-88308500D01*
X181045487Y-88308500D01*
X181051939Y-88307128D01*
X181051944Y-88307128D01*
X181138888Y-88288647D01*
X181232288Y-88268794D01*
X181247168Y-88262169D01*
X181387816Y-88199549D01*
X188950931Y-88199549D01*
X188955282Y-88398926D01*
X188956675Y-88410787D01*
X188998651Y-88605757D01*
X189002258Y-88617129D01*
X189080345Y-88800643D01*
X189086044Y-88811139D01*
X189198234Y-88977783D01*
X189203733Y-88984802D01*
X189205608Y-88986771D01*
X189279413Y-89060576D01*
X189293357Y-89068190D01*
X189295192Y-89068059D01*
X189301802Y-89063811D01*
X189883284Y-88482330D01*
X189890897Y-88468387D01*
X189890766Y-88466553D01*
X189886515Y-88459939D01*
X189131431Y-87704855D01*
X189119051Y-87698095D01*
X189111427Y-87703802D01*
X189063585Y-87782027D01*
X189058355Y-87792750D01*
X188988346Y-87979498D01*
X188985235Y-87991027D01*
X188951806Y-88187630D01*
X188950931Y-88199549D01*
X181387816Y-88199549D01*
X181400722Y-88193803D01*
X181400724Y-88193802D01*
X181406752Y-88191118D01*
X181561253Y-88078866D01*
X181689040Y-87936944D01*
X181784527Y-87771556D01*
X181843542Y-87589928D01*
X181863504Y-87400000D01*
X181857687Y-87344656D01*
X181856173Y-87330247D01*
X189480891Y-87330247D01*
X189487663Y-87342667D01*
X191379179Y-89234183D01*
X191391559Y-89240943D01*
X191399183Y-89235236D01*
X191447025Y-89157011D01*
X191452255Y-89146288D01*
X191522264Y-88959540D01*
X191525375Y-88948011D01*
X191558804Y-88751408D01*
X191559679Y-88739489D01*
X191556931Y-88613563D01*
X191575442Y-88545022D01*
X191628071Y-88497370D01*
X191698107Y-88485735D01*
X191711780Y-88488168D01*
X191769077Y-88501660D01*
X191769079Y-88501660D01*
X191776200Y-88503337D01*
X191783516Y-88503331D01*
X191783519Y-88503331D01*
X191864826Y-88503260D01*
X191953070Y-88503183D01*
X192040943Y-88482330D01*
X192118041Y-88464034D01*
X192118042Y-88464034D01*
X192125162Y-88462344D01*
X192136544Y-88456632D01*
X192277092Y-88386097D01*
X192277096Y-88386094D01*
X192283242Y-88383010D01*
X192288578Y-88378666D01*
X192362183Y-88318743D01*
X192362188Y-88318739D01*
X192364676Y-88316713D01*
X192930927Y-87750462D01*
X192968814Y-87703802D01*
X192993612Y-87673263D01*
X192993613Y-87673261D01*
X192997955Y-87667914D01*
X193077012Y-87509695D01*
X193117551Y-87337533D01*
X193117538Y-87321933D01*
X193117451Y-87222721D01*
X193117397Y-87160662D01*
X193093786Y-87061167D01*
X193078248Y-86995691D01*
X193078248Y-86995690D01*
X193076558Y-86988570D01*
X193070878Y-86977251D01*
X193000310Y-86836639D01*
X192997224Y-86830490D01*
X192982792Y-86812763D01*
X192932958Y-86751551D01*
X192932952Y-86751545D01*
X192930927Y-86749057D01*
X191975767Y-85793897D01*
X191893219Y-85726869D01*
X191735000Y-85647812D01*
X191640797Y-85625630D01*
X191569961Y-85608950D01*
X191569959Y-85608950D01*
X191562838Y-85607273D01*
X191555522Y-85607279D01*
X191555519Y-85607279D01*
X191474212Y-85607350D01*
X191385968Y-85607427D01*
X191299922Y-85627847D01*
X191220997Y-85646576D01*
X191220996Y-85646576D01*
X191213876Y-85648266D01*
X191207337Y-85651548D01*
X191207336Y-85651548D01*
X191061946Y-85724513D01*
X191061942Y-85724516D01*
X191055796Y-85727600D01*
X190974362Y-85793897D01*
X190408111Y-86360148D01*
X190341083Y-86442696D01*
X190262026Y-86600915D01*
X190260350Y-86608034D01*
X190226245Y-86752872D01*
X190221487Y-86773077D01*
X190221493Y-86780393D01*
X190221493Y-86780396D01*
X190221532Y-86825155D01*
X190221641Y-86949948D01*
X190223330Y-86957067D01*
X190223331Y-86957072D01*
X190235743Y-87009375D01*
X190232010Y-87080273D01*
X190190539Y-87137898D01*
X190124497Y-87163955D01*
X190098123Y-87163568D01*
X190093997Y-87163073D01*
X190082066Y-87162781D01*
X189883130Y-87176866D01*
X189871353Y-87178837D01*
X189678669Y-87230286D01*
X189667478Y-87234448D01*
X189488001Y-87321404D01*
X189487131Y-87321933D01*
X189480891Y-87330247D01*
X181856173Y-87330247D01*
X181844232Y-87216635D01*
X181844232Y-87216633D01*
X181843542Y-87210072D01*
X181784527Y-87028444D01*
X181773518Y-87009375D01*
X181722571Y-86921134D01*
X181689040Y-86863056D01*
X181659718Y-86830490D01*
X181565675Y-86726045D01*
X181565674Y-86726044D01*
X181561253Y-86721134D01*
X181406752Y-86608882D01*
X181400724Y-86606198D01*
X181400722Y-86606197D01*
X181238319Y-86533891D01*
X181238318Y-86533891D01*
X181232288Y-86531206D01*
X181138888Y-86511353D01*
X181051944Y-86492872D01*
X181051939Y-86492872D01*
X181045487Y-86491500D01*
X180854513Y-86491500D01*
X180848061Y-86492872D01*
X180848056Y-86492872D01*
X180761112Y-86511353D01*
X180667712Y-86531206D01*
X180661682Y-86533891D01*
X180661681Y-86533891D01*
X180499278Y-86606197D01*
X180499276Y-86606198D01*
X180493248Y-86608882D01*
X180338747Y-86721134D01*
X180334326Y-86726044D01*
X180334325Y-86726045D01*
X180244373Y-86825947D01*
X180183927Y-86863187D01*
X180112943Y-86861835D01*
X180099498Y-86856748D01*
X179952288Y-86791206D01*
X179858888Y-86771353D01*
X179771944Y-86752872D01*
X179771939Y-86752872D01*
X179765487Y-86751500D01*
X179574513Y-86751500D01*
X179568061Y-86752872D01*
X179568056Y-86752872D01*
X179481112Y-86771353D01*
X179387712Y-86791206D01*
X179381682Y-86793891D01*
X179381681Y-86793891D01*
X179219278Y-86866197D01*
X179219276Y-86866198D01*
X179213248Y-86868882D01*
X179058747Y-86981134D01*
X179017699Y-87026723D01*
X178956675Y-87064118D01*
X178949339Y-87066084D01*
X178941149Y-87067162D01*
X178793124Y-87128476D01*
X178760459Y-87153541D01*
X178697937Y-87201515D01*
X178697921Y-87201529D01*
X178672566Y-87220984D01*
X178672563Y-87220987D01*
X178666013Y-87226013D01*
X178660983Y-87232568D01*
X178646548Y-87251379D01*
X178635681Y-87263770D01*
X177664856Y-88234595D01*
X177602544Y-88268621D01*
X177575761Y-88271500D01*
X177484513Y-88271500D01*
X177478061Y-88272872D01*
X177478056Y-88272872D01*
X177391113Y-88291353D01*
X177297712Y-88311206D01*
X177291682Y-88313891D01*
X177291681Y-88313891D01*
X177129278Y-88386197D01*
X177129276Y-88386198D01*
X177123248Y-88388882D01*
X177117907Y-88392762D01*
X177117906Y-88392763D01*
X177093098Y-88410787D01*
X176968747Y-88501134D01*
X176964326Y-88506044D01*
X176964325Y-88506045D01*
X176867516Y-88613563D01*
X176840960Y-88643056D01*
X176745473Y-88808444D01*
X176735769Y-88838309D01*
X176709582Y-88918904D01*
X176669508Y-88977509D01*
X176604111Y-89005146D01*
X176568527Y-89003451D01*
X176568515Y-89003563D01*
X176566552Y-89003357D01*
X176563556Y-89003214D01*
X176561954Y-89002873D01*
X176561939Y-89002871D01*
X176555487Y-89001500D01*
X176364513Y-89001500D01*
X176358061Y-89002872D01*
X176358056Y-89002872D01*
X176283514Y-89018717D01*
X176177712Y-89041206D01*
X176171682Y-89043891D01*
X176171681Y-89043891D01*
X176009278Y-89116197D01*
X176009276Y-89116198D01*
X176003248Y-89118882D01*
X175848747Y-89231134D01*
X175720960Y-89373056D01*
X175625473Y-89538444D01*
X175566458Y-89720072D01*
X175565768Y-89726633D01*
X175565768Y-89726635D01*
X175562240Y-89760202D01*
X175546496Y-89910000D01*
X167768500Y-89910000D01*
X167768500Y-88330290D01*
X167788502Y-88262169D01*
X167800864Y-88245980D01*
X167894621Y-88141852D01*
X167894622Y-88141851D01*
X167899040Y-88136944D01*
X167957314Y-88036010D01*
X167991223Y-87977279D01*
X167991224Y-87977278D01*
X167994527Y-87971556D01*
X168053542Y-87789928D01*
X168054373Y-87782027D01*
X168072814Y-87606565D01*
X168073504Y-87600000D01*
X168064013Y-87509695D01*
X168054232Y-87416635D01*
X168054232Y-87416633D01*
X168053542Y-87410072D01*
X167994527Y-87228444D01*
X167899040Y-87063056D01*
X167850706Y-87009375D01*
X167775675Y-86926045D01*
X167775674Y-86926044D01*
X167771253Y-86921134D01*
X167616752Y-86808882D01*
X167610724Y-86806198D01*
X167610722Y-86806197D01*
X167448319Y-86733891D01*
X167448318Y-86733891D01*
X167442288Y-86731206D01*
X167348887Y-86711353D01*
X167261944Y-86692872D01*
X167261939Y-86692872D01*
X167255487Y-86691500D01*
X167064513Y-86691500D01*
X167058061Y-86692872D01*
X167058056Y-86692872D01*
X166971112Y-86711353D01*
X166877712Y-86731206D01*
X166871682Y-86733891D01*
X166871681Y-86733891D01*
X166709278Y-86806197D01*
X166709276Y-86806198D01*
X166703248Y-86808882D01*
X166548747Y-86921134D01*
X166544326Y-86926044D01*
X166544325Y-86926045D01*
X166469295Y-87009375D01*
X166420960Y-87063056D01*
X166325473Y-87228444D01*
X166266458Y-87410072D01*
X166265768Y-87416633D01*
X166265768Y-87416635D01*
X166255987Y-87509695D01*
X166246496Y-87600000D01*
X116101065Y-87600000D01*
X116126529Y-87406590D01*
X116126690Y-87400000D01*
X116128074Y-87343365D01*
X116128074Y-87343361D01*
X116128156Y-87340000D01*
X116109852Y-87117361D01*
X116055431Y-86900702D01*
X115966354Y-86695840D01*
X115900712Y-86594373D01*
X115847822Y-86512617D01*
X115847820Y-86512614D01*
X115845014Y-86508277D01*
X115694670Y-86343051D01*
X115690619Y-86339852D01*
X115690615Y-86339848D01*
X115523414Y-86207800D01*
X115523410Y-86207798D01*
X115519359Y-86204598D01*
X115478053Y-86181796D01*
X115428084Y-86131364D01*
X115413312Y-86061921D01*
X115438428Y-85995516D01*
X115465780Y-85968909D01*
X115509603Y-85937650D01*
X115644860Y-85841173D01*
X115689991Y-85796200D01*
X115755206Y-85731212D01*
X115803096Y-85683489D01*
X115826384Y-85651081D01*
X115930435Y-85506277D01*
X115933453Y-85502077D01*
X116032430Y-85301811D01*
X116097370Y-85088069D01*
X116126529Y-84866590D01*
X116128156Y-84800000D01*
X116109852Y-84577361D01*
X116055431Y-84360702D01*
X115966354Y-84155840D01*
X115845014Y-83968277D01*
X115841532Y-83964450D01*
X115697798Y-83806488D01*
X115666746Y-83742642D01*
X115675141Y-83672143D01*
X115720317Y-83617375D01*
X115746761Y-83603706D01*
X115853297Y-83563767D01*
X115861705Y-83560615D01*
X115978261Y-83473261D01*
X116065615Y-83356705D01*
X116116745Y-83220316D01*
X116123500Y-83158134D01*
X116123500Y-81361866D01*
X116116745Y-81299684D01*
X116065615Y-81163295D01*
X115978261Y-81046739D01*
X115861705Y-80959385D01*
X115725316Y-80908255D01*
X115663134Y-80901500D01*
X113866866Y-80901500D01*
X113804684Y-80908255D01*
X113668295Y-80959385D01*
X113551739Y-81046739D01*
X113464385Y-81163295D01*
X113413255Y-81299684D01*
X113406500Y-81361866D01*
X113406500Y-83158134D01*
X113413255Y-83220316D01*
X113464385Y-83356705D01*
X113551739Y-83473261D01*
X113668295Y-83560615D01*
X113676704Y-83563767D01*
X113676705Y-83563768D01*
X113785451Y-83604535D01*
X113842216Y-83647176D01*
X113866916Y-83713738D01*
X113851709Y-83783087D01*
X113832316Y-83809568D01*
X113705629Y-83942138D01*
X113579743Y-84126680D01*
X113485688Y-84329305D01*
X113425989Y-84544570D01*
X113402251Y-84766695D01*
X113402548Y-84771848D01*
X113402548Y-84771851D01*
X113408011Y-84866590D01*
X113415110Y-84989715D01*
X113416247Y-84994761D01*
X113416248Y-84994767D01*
X113436119Y-85082939D01*
X113464222Y-85207639D01*
X113548266Y-85414616D01*
X113664987Y-85605088D01*
X113811250Y-85773938D01*
X113983126Y-85916632D01*
X114053595Y-85957811D01*
X114056445Y-85959476D01*
X114105169Y-86011114D01*
X114118240Y-86080897D01*
X114091509Y-86146669D01*
X114051055Y-86180027D01*
X114038607Y-86186507D01*
X114034474Y-86189610D01*
X114034471Y-86189612D01*
X114010247Y-86207800D01*
X113859965Y-86320635D01*
X113705629Y-86482138D01*
X113702715Y-86486410D01*
X113702714Y-86486411D01*
X113629067Y-86594373D01*
X113579743Y-86666680D01*
X113552187Y-86726045D01*
X113488589Y-86863056D01*
X113485688Y-86869305D01*
X113425989Y-87084570D01*
X113402251Y-87306695D01*
X55477719Y-87306695D01*
X126341466Y-16442948D01*
X126403778Y-16408922D01*
X126474593Y-16413987D01*
G37*
%TD.AperFunction*%
%TD*%
M02*
