%TF.GenerationSoftware,KiCad,Pcbnew,(6.0.2-0)*%
%TF.CreationDate,2022-04-16T18:23:20-06:00*%
%TF.ProjectId,Graduation Cap,47726164-7561-4746-996f-6e204361702e,rev?*%
%TF.SameCoordinates,Original*%
%TF.FileFunction,Legend,Top*%
%TF.FilePolarity,Positive*%
%FSLAX46Y46*%
G04 Gerber Fmt 4.6, Leading zero omitted, Abs format (unit mm)*
G04 Created by KiCad (PCBNEW (6.0.2-0)) date 2022-04-16 18:23:20*
%MOMM*%
%LPD*%
G01*
G04 APERTURE LIST*
%ADD10C,0.300000*%
%ADD11C,0.150000*%
%ADD12C,0.015000*%
%ADD13C,0.014000*%
%ADD14C,0.100000*%
%ADD15C,0.006350*%
%ADD16C,0.125000*%
%ADD17C,0.254000*%
%ADD18C,0.120000*%
%ADD19C,0.200000*%
%ADD20C,0.325000*%
G04 APERTURE END LIST*
D10*
X74796190Y-114984761D02*
X74796190Y-112984761D01*
X75462857Y-114413333D01*
X76129523Y-112984761D01*
X76129523Y-114984761D01*
X77939047Y-114984761D02*
X77939047Y-113937142D01*
X77843809Y-113746666D01*
X77653333Y-113651428D01*
X77272380Y-113651428D01*
X77081904Y-113746666D01*
X77939047Y-114889523D02*
X77748571Y-114984761D01*
X77272380Y-114984761D01*
X77081904Y-114889523D01*
X76986666Y-114699047D01*
X76986666Y-114508571D01*
X77081904Y-114318095D01*
X77272380Y-114222857D01*
X77748571Y-114222857D01*
X77939047Y-114127619D01*
X78700952Y-113651428D02*
X79177142Y-114984761D01*
X79653333Y-113651428D02*
X79177142Y-114984761D01*
X78986666Y-115460952D01*
X78891428Y-115556190D01*
X78700952Y-115651428D01*
X82986666Y-114984761D02*
X81843809Y-114984761D01*
X82415238Y-114984761D02*
X82415238Y-112984761D01*
X82224761Y-113270476D01*
X82034285Y-113460952D01*
X81843809Y-113556190D01*
X84700952Y-113651428D02*
X84700952Y-114984761D01*
X84224761Y-112889523D02*
X83748571Y-114318095D01*
X84986666Y-114318095D01*
X85462857Y-113651428D02*
X86224761Y-113651428D01*
X85748571Y-112984761D02*
X85748571Y-114699047D01*
X85843809Y-114889523D01*
X86034285Y-114984761D01*
X86224761Y-114984761D01*
X86891428Y-114984761D02*
X86891428Y-112984761D01*
X87748571Y-114984761D02*
X87748571Y-113937142D01*
X87653333Y-113746666D01*
X87462857Y-113651428D01*
X87177142Y-113651428D01*
X86986666Y-113746666D01*
X86891428Y-113841904D01*
X88796190Y-114889523D02*
X88796190Y-114984761D01*
X88700952Y-115175238D01*
X88605714Y-115270476D01*
X91081904Y-113175238D02*
X91177142Y-113080000D01*
X91367619Y-112984761D01*
X91843809Y-112984761D01*
X92034285Y-113080000D01*
X92129523Y-113175238D01*
X92224761Y-113365714D01*
X92224761Y-113556190D01*
X92129523Y-113841904D01*
X90986666Y-114984761D01*
X92224761Y-114984761D01*
X93462857Y-112984761D02*
X93653333Y-112984761D01*
X93843809Y-113080000D01*
X93939047Y-113175238D01*
X94034285Y-113365714D01*
X94129523Y-113746666D01*
X94129523Y-114222857D01*
X94034285Y-114603809D01*
X93939047Y-114794285D01*
X93843809Y-114889523D01*
X93653333Y-114984761D01*
X93462857Y-114984761D01*
X93272380Y-114889523D01*
X93177142Y-114794285D01*
X93081904Y-114603809D01*
X92986666Y-114222857D01*
X92986666Y-113746666D01*
X93081904Y-113365714D01*
X93177142Y-113175238D01*
X93272380Y-113080000D01*
X93462857Y-112984761D01*
X94891428Y-113175238D02*
X94986666Y-113080000D01*
X95177142Y-112984761D01*
X95653333Y-112984761D01*
X95843809Y-113080000D01*
X95939047Y-113175238D01*
X96034285Y-113365714D01*
X96034285Y-113556190D01*
X95939047Y-113841904D01*
X94796190Y-114984761D01*
X96034285Y-114984761D01*
X96796190Y-113175238D02*
X96891428Y-113080000D01*
X97081904Y-112984761D01*
X97558095Y-112984761D01*
X97748571Y-113080000D01*
X97843809Y-113175238D01*
X97939047Y-113365714D01*
X97939047Y-113556190D01*
X97843809Y-113841904D01*
X96700952Y-114984761D01*
X97939047Y-114984761D01*
X74810476Y-93860952D02*
X74810476Y-95646666D01*
X74691428Y-96003809D01*
X74453333Y-96241904D01*
X74096190Y-96360952D01*
X73858095Y-96360952D01*
X76953333Y-96241904D02*
X76715238Y-96360952D01*
X76239047Y-96360952D01*
X76000952Y-96241904D01*
X75881904Y-96003809D01*
X75881904Y-95051428D01*
X76000952Y-94813333D01*
X76239047Y-94694285D01*
X76715238Y-94694285D01*
X76953333Y-94813333D01*
X77072380Y-95051428D01*
X77072380Y-95289523D01*
X75881904Y-95527619D01*
X78024761Y-96241904D02*
X78262857Y-96360952D01*
X78739047Y-96360952D01*
X78977142Y-96241904D01*
X79096190Y-96003809D01*
X79096190Y-95884761D01*
X78977142Y-95646666D01*
X78739047Y-95527619D01*
X78381904Y-95527619D01*
X78143809Y-95408571D01*
X78024761Y-95170476D01*
X78024761Y-95051428D01*
X78143809Y-94813333D01*
X78381904Y-94694285D01*
X78739047Y-94694285D01*
X78977142Y-94813333D01*
X81239047Y-94694285D02*
X81239047Y-96360952D01*
X80167619Y-94694285D02*
X80167619Y-96003809D01*
X80286666Y-96241904D01*
X80524761Y-96360952D01*
X80881904Y-96360952D01*
X81119999Y-96241904D01*
X81239047Y-96122857D01*
X82310476Y-96241904D02*
X82548571Y-96360952D01*
X83024761Y-96360952D01*
X83262857Y-96241904D01*
X83381904Y-96003809D01*
X83381904Y-95884761D01*
X83262857Y-95646666D01*
X83024761Y-95527619D01*
X82667619Y-95527619D01*
X82429523Y-95408571D01*
X82310476Y-95170476D01*
X82310476Y-95051428D01*
X82429523Y-94813333D01*
X82667619Y-94694285D01*
X83024761Y-94694285D01*
X83262857Y-94813333D01*
X86358095Y-96360952D02*
X86358095Y-93860952D01*
X87191428Y-95646666D01*
X88024761Y-93860952D01*
X88024761Y-96360952D01*
X89215238Y-96360952D02*
X89215238Y-94694285D01*
X89215238Y-93860952D02*
X89096190Y-93980000D01*
X89215238Y-94099047D01*
X89334285Y-93980000D01*
X89215238Y-93860952D01*
X89215238Y-94099047D01*
X90405714Y-94694285D02*
X90405714Y-96360952D01*
X90405714Y-94932380D02*
X90524761Y-94813333D01*
X90762857Y-94694285D01*
X91119999Y-94694285D01*
X91358095Y-94813333D01*
X91477142Y-95051428D01*
X91477142Y-96360952D01*
X92667619Y-94694285D02*
X92667619Y-96837142D01*
X92548571Y-97075238D01*
X92310476Y-97194285D01*
X92191428Y-97194285D01*
X92667619Y-93860952D02*
X92548571Y-93980000D01*
X92667619Y-94099047D01*
X92786666Y-93980000D01*
X92667619Y-93860952D01*
X92667619Y-94099047D01*
X94929523Y-96360952D02*
X94929523Y-95051428D01*
X94810476Y-94813333D01*
X94572380Y-94694285D01*
X94096190Y-94694285D01*
X93858095Y-94813333D01*
X94929523Y-96241904D02*
X94691428Y-96360952D01*
X94096190Y-96360952D01*
X93858095Y-96241904D01*
X93739047Y-96003809D01*
X93739047Y-95765714D01*
X93858095Y-95527619D01*
X94096190Y-95408571D01*
X94691428Y-95408571D01*
X94929523Y-95289523D01*
X96120000Y-96360952D02*
X96120000Y-94694285D01*
X96120000Y-95170476D02*
X96239047Y-94932380D01*
X96358095Y-94813333D01*
X96596190Y-94694285D01*
X96834285Y-94694285D01*
X98620000Y-96241904D02*
X98381904Y-96360952D01*
X97905714Y-96360952D01*
X97667619Y-96241904D01*
X97548571Y-96003809D01*
X97548571Y-95051428D01*
X97667619Y-94813333D01*
X97905714Y-94694285D01*
X98381904Y-94694285D01*
X98620000Y-94813333D01*
X98739047Y-95051428D01*
X98739047Y-95289523D01*
X97548571Y-95527619D01*
X99691428Y-96241904D02*
X99929523Y-96360952D01*
X100405714Y-96360952D01*
X100643809Y-96241904D01*
X100762857Y-96003809D01*
X100762857Y-95884761D01*
X100643809Y-95646666D01*
X100405714Y-95527619D01*
X100048571Y-95527619D01*
X99810476Y-95408571D01*
X99691428Y-95170476D01*
X99691428Y-95051428D01*
X99810476Y-94813333D01*
X100048571Y-94694285D01*
X100405714Y-94694285D01*
X100643809Y-94813333D01*
X71601904Y-103268452D02*
X71601904Y-100768452D01*
X72435238Y-102554166D01*
X73268571Y-100768452D01*
X73268571Y-103268452D01*
X75530476Y-103268452D02*
X75530476Y-101958928D01*
X75411428Y-101720833D01*
X75173333Y-101601785D01*
X74697142Y-101601785D01*
X74459047Y-101720833D01*
X75530476Y-103149404D02*
X75292380Y-103268452D01*
X74697142Y-103268452D01*
X74459047Y-103149404D01*
X74340000Y-102911309D01*
X74340000Y-102673214D01*
X74459047Y-102435119D01*
X74697142Y-102316071D01*
X75292380Y-102316071D01*
X75530476Y-102197023D01*
X76601904Y-103149404D02*
X76840000Y-103268452D01*
X77316190Y-103268452D01*
X77554285Y-103149404D01*
X77673333Y-102911309D01*
X77673333Y-102792261D01*
X77554285Y-102554166D01*
X77316190Y-102435119D01*
X76959047Y-102435119D01*
X76720952Y-102316071D01*
X76601904Y-102077976D01*
X76601904Y-101958928D01*
X76720952Y-101720833D01*
X76959047Y-101601785D01*
X77316190Y-101601785D01*
X77554285Y-101720833D01*
X78387619Y-101601785D02*
X79340000Y-101601785D01*
X78744761Y-100768452D02*
X78744761Y-102911309D01*
X78863809Y-103149404D01*
X79101904Y-103268452D01*
X79340000Y-103268452D01*
X81125714Y-103149404D02*
X80887619Y-103268452D01*
X80411428Y-103268452D01*
X80173333Y-103149404D01*
X80054285Y-102911309D01*
X80054285Y-101958928D01*
X80173333Y-101720833D01*
X80411428Y-101601785D01*
X80887619Y-101601785D01*
X81125714Y-101720833D01*
X81244761Y-101958928D01*
X81244761Y-102197023D01*
X80054285Y-102435119D01*
X82316190Y-103268452D02*
X82316190Y-101601785D01*
X82316190Y-102077976D02*
X82435238Y-101839880D01*
X82554285Y-101720833D01*
X82792380Y-101601785D01*
X83030476Y-101601785D01*
X86125714Y-103268452D02*
X85887619Y-103149404D01*
X85768571Y-103030357D01*
X85649523Y-102792261D01*
X85649523Y-102077976D01*
X85768571Y-101839880D01*
X85887619Y-101720833D01*
X86125714Y-101601785D01*
X86482857Y-101601785D01*
X86720952Y-101720833D01*
X86840000Y-101839880D01*
X86959047Y-102077976D01*
X86959047Y-102792261D01*
X86840000Y-103030357D01*
X86720952Y-103149404D01*
X86482857Y-103268452D01*
X86125714Y-103268452D01*
X87673333Y-101601785D02*
X88625714Y-101601785D01*
X88030476Y-103268452D02*
X88030476Y-101125595D01*
X88149523Y-100887500D01*
X88387619Y-100768452D01*
X88625714Y-100768452D01*
X91244761Y-103149404D02*
X91601904Y-103268452D01*
X92197142Y-103268452D01*
X92435238Y-103149404D01*
X92554285Y-103030357D01*
X92673333Y-102792261D01*
X92673333Y-102554166D01*
X92554285Y-102316071D01*
X92435238Y-102197023D01*
X92197142Y-102077976D01*
X91720952Y-101958928D01*
X91482857Y-101839880D01*
X91363809Y-101720833D01*
X91244761Y-101482738D01*
X91244761Y-101244642D01*
X91363809Y-101006547D01*
X91482857Y-100887500D01*
X91720952Y-100768452D01*
X92316190Y-100768452D01*
X92673333Y-100887500D01*
X94816190Y-103149404D02*
X94578095Y-103268452D01*
X94101904Y-103268452D01*
X93863809Y-103149404D01*
X93744761Y-103030357D01*
X93625714Y-102792261D01*
X93625714Y-102077976D01*
X93744761Y-101839880D01*
X93863809Y-101720833D01*
X94101904Y-101601785D01*
X94578095Y-101601785D01*
X94816190Y-101720833D01*
X95887619Y-103268452D02*
X95887619Y-101601785D01*
X95887619Y-100768452D02*
X95768571Y-100887500D01*
X95887619Y-101006547D01*
X96006666Y-100887500D01*
X95887619Y-100768452D01*
X95887619Y-101006547D01*
X98030476Y-103149404D02*
X97792380Y-103268452D01*
X97316190Y-103268452D01*
X97078095Y-103149404D01*
X96959047Y-102911309D01*
X96959047Y-101958928D01*
X97078095Y-101720833D01*
X97316190Y-101601785D01*
X97792380Y-101601785D01*
X98030476Y-101720833D01*
X98149523Y-101958928D01*
X98149523Y-102197023D01*
X96959047Y-102435119D01*
X99220952Y-101601785D02*
X99220952Y-103268452D01*
X99220952Y-101839880D02*
X99339999Y-101720833D01*
X99578095Y-101601785D01*
X99935238Y-101601785D01*
X100173333Y-101720833D01*
X100292380Y-101958928D01*
X100292380Y-103268452D01*
X102554285Y-103149404D02*
X102316190Y-103268452D01*
X101840000Y-103268452D01*
X101601904Y-103149404D01*
X101482857Y-103030357D01*
X101363809Y-102792261D01*
X101363809Y-102077976D01*
X101482857Y-101839880D01*
X101601904Y-101720833D01*
X101840000Y-101601785D01*
X102316190Y-101601785D01*
X102554285Y-101720833D01*
X104578095Y-103149404D02*
X104339999Y-103268452D01*
X103863809Y-103268452D01*
X103625714Y-103149404D01*
X103506666Y-102911309D01*
X103506666Y-101958928D01*
X103625714Y-101720833D01*
X103863809Y-101601785D01*
X104339999Y-101601785D01*
X104578095Y-101720833D01*
X104697142Y-101958928D01*
X104697142Y-102197023D01*
X103506666Y-102435119D01*
X69399523Y-107055357D02*
X69280476Y-107174404D01*
X68923333Y-107293452D01*
X68685238Y-107293452D01*
X68328095Y-107174404D01*
X68090000Y-106936309D01*
X67970952Y-106698214D01*
X67851904Y-106222023D01*
X67851904Y-105864880D01*
X67970952Y-105388690D01*
X68090000Y-105150595D01*
X68328095Y-104912500D01*
X68685238Y-104793452D01*
X68923333Y-104793452D01*
X69280476Y-104912500D01*
X69399523Y-105031547D01*
X70828095Y-107293452D02*
X70590000Y-107174404D01*
X70470952Y-107055357D01*
X70351904Y-106817261D01*
X70351904Y-106102976D01*
X70470952Y-105864880D01*
X70590000Y-105745833D01*
X70828095Y-105626785D01*
X71185238Y-105626785D01*
X71423333Y-105745833D01*
X71542380Y-105864880D01*
X71661428Y-106102976D01*
X71661428Y-106817261D01*
X71542380Y-107055357D01*
X71423333Y-107174404D01*
X71185238Y-107293452D01*
X70828095Y-107293452D01*
X72732857Y-107293452D02*
X72732857Y-105626785D01*
X72732857Y-105864880D02*
X72851904Y-105745833D01*
X73090000Y-105626785D01*
X73447142Y-105626785D01*
X73685238Y-105745833D01*
X73804285Y-105983928D01*
X73804285Y-107293452D01*
X73804285Y-105983928D02*
X73923333Y-105745833D01*
X74161428Y-105626785D01*
X74518571Y-105626785D01*
X74756666Y-105745833D01*
X74875714Y-105983928D01*
X74875714Y-107293452D01*
X76066190Y-105626785D02*
X76066190Y-108126785D01*
X76066190Y-105745833D02*
X76304285Y-105626785D01*
X76780476Y-105626785D01*
X77018571Y-105745833D01*
X77137619Y-105864880D01*
X77256666Y-106102976D01*
X77256666Y-106817261D01*
X77137619Y-107055357D01*
X77018571Y-107174404D01*
X76780476Y-107293452D01*
X76304285Y-107293452D01*
X76066190Y-107174404D01*
X79399523Y-105626785D02*
X79399523Y-107293452D01*
X78328095Y-105626785D02*
X78328095Y-106936309D01*
X78447142Y-107174404D01*
X78685238Y-107293452D01*
X79042380Y-107293452D01*
X79280476Y-107174404D01*
X79399523Y-107055357D01*
X80232857Y-105626785D02*
X81185238Y-105626785D01*
X80590000Y-104793452D02*
X80590000Y-106936309D01*
X80709047Y-107174404D01*
X80947142Y-107293452D01*
X81185238Y-107293452D01*
X82970952Y-107174404D02*
X82732857Y-107293452D01*
X82256666Y-107293452D01*
X82018571Y-107174404D01*
X81899523Y-106936309D01*
X81899523Y-105983928D01*
X82018571Y-105745833D01*
X82256666Y-105626785D01*
X82732857Y-105626785D01*
X82970952Y-105745833D01*
X83090000Y-105983928D01*
X83090000Y-106222023D01*
X81899523Y-106460119D01*
X84161428Y-107293452D02*
X84161428Y-105626785D01*
X84161428Y-106102976D02*
X84280476Y-105864880D01*
X84399523Y-105745833D01*
X84637619Y-105626785D01*
X84875714Y-105626785D01*
X87613809Y-105983928D02*
X88447142Y-105983928D01*
X88804285Y-107293452D02*
X87613809Y-107293452D01*
X87613809Y-104793452D01*
X88804285Y-104793452D01*
X89875714Y-105626785D02*
X89875714Y-107293452D01*
X89875714Y-105864880D02*
X89994761Y-105745833D01*
X90232857Y-105626785D01*
X90590000Y-105626785D01*
X90828095Y-105745833D01*
X90947142Y-105983928D01*
X90947142Y-107293452D01*
X93209047Y-105626785D02*
X93209047Y-107650595D01*
X93090000Y-107888690D01*
X92970952Y-108007738D01*
X92732857Y-108126785D01*
X92375714Y-108126785D01*
X92137619Y-108007738D01*
X93209047Y-107174404D02*
X92970952Y-107293452D01*
X92494761Y-107293452D01*
X92256666Y-107174404D01*
X92137619Y-107055357D01*
X92018571Y-106817261D01*
X92018571Y-106102976D01*
X92137619Y-105864880D01*
X92256666Y-105745833D01*
X92494761Y-105626785D01*
X92970952Y-105626785D01*
X93209047Y-105745833D01*
X94399523Y-107293452D02*
X94399523Y-105626785D01*
X94399523Y-104793452D02*
X94280476Y-104912500D01*
X94399523Y-105031547D01*
X94518571Y-104912500D01*
X94399523Y-104793452D01*
X94399523Y-105031547D01*
X95590000Y-105626785D02*
X95590000Y-107293452D01*
X95590000Y-105864880D02*
X95709047Y-105745833D01*
X95947142Y-105626785D01*
X96304285Y-105626785D01*
X96542380Y-105745833D01*
X96661428Y-105983928D01*
X96661428Y-107293452D01*
X98804285Y-107174404D02*
X98566190Y-107293452D01*
X98090000Y-107293452D01*
X97851904Y-107174404D01*
X97732857Y-106936309D01*
X97732857Y-105983928D01*
X97851904Y-105745833D01*
X98090000Y-105626785D01*
X98566190Y-105626785D01*
X98804285Y-105745833D01*
X98923333Y-105983928D01*
X98923333Y-106222023D01*
X97732857Y-106460119D01*
X100947142Y-107174404D02*
X100709047Y-107293452D01*
X100232857Y-107293452D01*
X99994761Y-107174404D01*
X99875714Y-106936309D01*
X99875714Y-105983928D01*
X99994761Y-105745833D01*
X100232857Y-105626785D01*
X100709047Y-105626785D01*
X100947142Y-105745833D01*
X101066190Y-105983928D01*
X101066190Y-106222023D01*
X99875714Y-106460119D01*
X102137619Y-107293452D02*
X102137619Y-105626785D01*
X102137619Y-106102976D02*
X102256666Y-105864880D01*
X102375714Y-105745833D01*
X102613809Y-105626785D01*
X102851904Y-105626785D01*
X103685238Y-107293452D02*
X103685238Y-105626785D01*
X103685238Y-104793452D02*
X103566190Y-104912500D01*
X103685238Y-105031547D01*
X103804285Y-104912500D01*
X103685238Y-104793452D01*
X103685238Y-105031547D01*
X104875714Y-105626785D02*
X104875714Y-107293452D01*
X104875714Y-105864880D02*
X104994761Y-105745833D01*
X105232857Y-105626785D01*
X105589999Y-105626785D01*
X105828095Y-105745833D01*
X105947142Y-105983928D01*
X105947142Y-107293452D01*
X108209047Y-105626785D02*
X108209047Y-107650595D01*
X108089999Y-107888690D01*
X107970952Y-108007738D01*
X107732857Y-108126785D01*
X107375714Y-108126785D01*
X107137619Y-108007738D01*
X108209047Y-107174404D02*
X107970952Y-107293452D01*
X107494761Y-107293452D01*
X107256666Y-107174404D01*
X107137619Y-107055357D01*
X107018571Y-106817261D01*
X107018571Y-106102976D01*
X107137619Y-105864880D01*
X107256666Y-105745833D01*
X107494761Y-105626785D01*
X107970952Y-105626785D01*
X108209047Y-105745833D01*
D11*
%TO.C,R3*%
X161622380Y-100786666D02*
X161146190Y-101120000D01*
X161622380Y-101358095D02*
X160622380Y-101358095D01*
X160622380Y-100977142D01*
X160670000Y-100881904D01*
X160717619Y-100834285D01*
X160812857Y-100786666D01*
X160955714Y-100786666D01*
X161050952Y-100834285D01*
X161098571Y-100881904D01*
X161146190Y-100977142D01*
X161146190Y-101358095D01*
X160622380Y-100453333D02*
X160622380Y-99834285D01*
X161003333Y-100167619D01*
X161003333Y-100024761D01*
X161050952Y-99929523D01*
X161098571Y-99881904D01*
X161193809Y-99834285D01*
X161431904Y-99834285D01*
X161527142Y-99881904D01*
X161574761Y-99929523D01*
X161622380Y-100024761D01*
X161622380Y-100310476D01*
X161574761Y-100405714D01*
X161527142Y-100453333D01*
%TO.C,C1*%
X194887142Y-99946666D02*
X194934761Y-99994285D01*
X194982380Y-100137142D01*
X194982380Y-100232380D01*
X194934761Y-100375238D01*
X194839523Y-100470476D01*
X194744285Y-100518095D01*
X194553809Y-100565714D01*
X194410952Y-100565714D01*
X194220476Y-100518095D01*
X194125238Y-100470476D01*
X194030000Y-100375238D01*
X193982380Y-100232380D01*
X193982380Y-100137142D01*
X194030000Y-99994285D01*
X194077619Y-99946666D01*
X194982380Y-98994285D02*
X194982380Y-99565714D01*
X194982380Y-99280000D02*
X193982380Y-99280000D01*
X194125238Y-99375238D01*
X194220476Y-99470476D01*
X194268095Y-99565714D01*
%TO.C,C11*%
X166417142Y-119072857D02*
X166464761Y-119120476D01*
X166512380Y-119263333D01*
X166512380Y-119358571D01*
X166464761Y-119501428D01*
X166369523Y-119596666D01*
X166274285Y-119644285D01*
X166083809Y-119691904D01*
X165940952Y-119691904D01*
X165750476Y-119644285D01*
X165655238Y-119596666D01*
X165560000Y-119501428D01*
X165512380Y-119358571D01*
X165512380Y-119263333D01*
X165560000Y-119120476D01*
X165607619Y-119072857D01*
X166512380Y-118120476D02*
X166512380Y-118691904D01*
X166512380Y-118406190D02*
X165512380Y-118406190D01*
X165655238Y-118501428D01*
X165750476Y-118596666D01*
X165798095Y-118691904D01*
X166512380Y-117168095D02*
X166512380Y-117739523D01*
X166512380Y-117453809D02*
X165512380Y-117453809D01*
X165655238Y-117549047D01*
X165750476Y-117644285D01*
X165798095Y-117739523D01*
%TO.C,C20*%
X162407142Y-99527142D02*
X162359523Y-99574761D01*
X162216666Y-99622380D01*
X162121428Y-99622380D01*
X161978571Y-99574761D01*
X161883333Y-99479523D01*
X161835714Y-99384285D01*
X161788095Y-99193809D01*
X161788095Y-99050952D01*
X161835714Y-98860476D01*
X161883333Y-98765238D01*
X161978571Y-98670000D01*
X162121428Y-98622380D01*
X162216666Y-98622380D01*
X162359523Y-98670000D01*
X162407142Y-98717619D01*
X162788095Y-98717619D02*
X162835714Y-98670000D01*
X162930952Y-98622380D01*
X163169047Y-98622380D01*
X163264285Y-98670000D01*
X163311904Y-98717619D01*
X163359523Y-98812857D01*
X163359523Y-98908095D01*
X163311904Y-99050952D01*
X162740476Y-99622380D01*
X163359523Y-99622380D01*
X163978571Y-98622380D02*
X164073809Y-98622380D01*
X164169047Y-98670000D01*
X164216666Y-98717619D01*
X164264285Y-98812857D01*
X164311904Y-99003333D01*
X164311904Y-99241428D01*
X164264285Y-99431904D01*
X164216666Y-99527142D01*
X164169047Y-99574761D01*
X164073809Y-99622380D01*
X163978571Y-99622380D01*
X163883333Y-99574761D01*
X163835714Y-99527142D01*
X163788095Y-99431904D01*
X163740476Y-99241428D01*
X163740476Y-99003333D01*
X163788095Y-98812857D01*
X163835714Y-98717619D01*
X163883333Y-98670000D01*
X163978571Y-98622380D01*
%TO.C,R5*%
X178253333Y-102262380D02*
X177920000Y-101786190D01*
X177681904Y-102262380D02*
X177681904Y-101262380D01*
X178062857Y-101262380D01*
X178158095Y-101310000D01*
X178205714Y-101357619D01*
X178253333Y-101452857D01*
X178253333Y-101595714D01*
X178205714Y-101690952D01*
X178158095Y-101738571D01*
X178062857Y-101786190D01*
X177681904Y-101786190D01*
X179158095Y-101262380D02*
X178681904Y-101262380D01*
X178634285Y-101738571D01*
X178681904Y-101690952D01*
X178777142Y-101643333D01*
X179015238Y-101643333D01*
X179110476Y-101690952D01*
X179158095Y-101738571D01*
X179205714Y-101833809D01*
X179205714Y-102071904D01*
X179158095Y-102167142D01*
X179110476Y-102214761D01*
X179015238Y-102262380D01*
X178777142Y-102262380D01*
X178681904Y-102214761D01*
X178634285Y-102167142D01*
%TO.C,D17*%
X194289096Y-111907214D02*
X193581990Y-111200107D01*
X193750348Y-111031748D01*
X193885035Y-110964405D01*
X194019722Y-110964405D01*
X194120738Y-110998077D01*
X194289096Y-111099092D01*
X194390112Y-111200107D01*
X194491127Y-111368466D01*
X194524799Y-111469481D01*
X194524799Y-111604168D01*
X194457455Y-111738855D01*
X194289096Y-111907214D01*
X195366593Y-110829718D02*
X194962532Y-111233779D01*
X195164562Y-111031748D02*
X194457455Y-110324641D01*
X194491127Y-110493000D01*
X194491127Y-110627687D01*
X194457455Y-110728703D01*
X194895188Y-109886909D02*
X195366593Y-109415504D01*
X195770654Y-110425657D01*
%TO.C,R1*%
X182833333Y-91602380D02*
X182500000Y-91126190D01*
X182261904Y-91602380D02*
X182261904Y-90602380D01*
X182642857Y-90602380D01*
X182738095Y-90650000D01*
X182785714Y-90697619D01*
X182833333Y-90792857D01*
X182833333Y-90935714D01*
X182785714Y-91030952D01*
X182738095Y-91078571D01*
X182642857Y-91126190D01*
X182261904Y-91126190D01*
X183785714Y-91602380D02*
X183214285Y-91602380D01*
X183500000Y-91602380D02*
X183500000Y-90602380D01*
X183404761Y-90745238D01*
X183309523Y-90840476D01*
X183214285Y-90888095D01*
%TO.C,D16*%
X122979096Y-138347214D02*
X122271990Y-137640107D01*
X122440348Y-137471748D01*
X122575035Y-137404405D01*
X122709722Y-137404405D01*
X122810738Y-137438077D01*
X122979096Y-137539092D01*
X123080112Y-137640107D01*
X123181127Y-137808466D01*
X123214799Y-137909481D01*
X123214799Y-138044168D01*
X123147455Y-138178855D01*
X122979096Y-138347214D01*
X124056593Y-137269718D02*
X123652532Y-137673779D01*
X123854562Y-137471748D02*
X123147455Y-136764641D01*
X123181127Y-136933000D01*
X123181127Y-137067687D01*
X123147455Y-137168703D01*
X123955577Y-135956519D02*
X123820890Y-136091206D01*
X123787219Y-136192222D01*
X123787219Y-136259565D01*
X123820890Y-136427924D01*
X123921906Y-136596283D01*
X124191280Y-136865657D01*
X124292295Y-136899328D01*
X124359638Y-136899328D01*
X124460654Y-136865657D01*
X124595341Y-136730970D01*
X124629012Y-136629954D01*
X124629012Y-136562611D01*
X124595341Y-136461596D01*
X124426982Y-136293237D01*
X124325967Y-136259565D01*
X124258623Y-136259565D01*
X124157608Y-136293237D01*
X124022921Y-136427924D01*
X123989249Y-136528939D01*
X123989249Y-136596283D01*
X124022921Y-136697298D01*
%TO.C,D13*%
X126485714Y-122112380D02*
X126485714Y-121112380D01*
X126723809Y-121112380D01*
X126866666Y-121160000D01*
X126961904Y-121255238D01*
X127009523Y-121350476D01*
X127057142Y-121540952D01*
X127057142Y-121683809D01*
X127009523Y-121874285D01*
X126961904Y-121969523D01*
X126866666Y-122064761D01*
X126723809Y-122112380D01*
X126485714Y-122112380D01*
X128009523Y-122112380D02*
X127438095Y-122112380D01*
X127723809Y-122112380D02*
X127723809Y-121112380D01*
X127628571Y-121255238D01*
X127533333Y-121350476D01*
X127438095Y-121398095D01*
X128342857Y-121112380D02*
X128961904Y-121112380D01*
X128628571Y-121493333D01*
X128771428Y-121493333D01*
X128866666Y-121540952D01*
X128914285Y-121588571D01*
X128961904Y-121683809D01*
X128961904Y-121921904D01*
X128914285Y-122017142D01*
X128866666Y-122064761D01*
X128771428Y-122112380D01*
X128485714Y-122112380D01*
X128390476Y-122064761D01*
X128342857Y-122017142D01*
%TO.C,C9*%
X161733333Y-122409642D02*
X161685714Y-122457261D01*
X161542857Y-122504880D01*
X161447619Y-122504880D01*
X161304761Y-122457261D01*
X161209523Y-122362023D01*
X161161904Y-122266785D01*
X161114285Y-122076309D01*
X161114285Y-121933452D01*
X161161904Y-121742976D01*
X161209523Y-121647738D01*
X161304761Y-121552500D01*
X161447619Y-121504880D01*
X161542857Y-121504880D01*
X161685714Y-121552500D01*
X161733333Y-121600119D01*
X162209523Y-122504880D02*
X162400000Y-122504880D01*
X162495238Y-122457261D01*
X162542857Y-122409642D01*
X162638095Y-122266785D01*
X162685714Y-122076309D01*
X162685714Y-121695357D01*
X162638095Y-121600119D01*
X162590476Y-121552500D01*
X162495238Y-121504880D01*
X162304761Y-121504880D01*
X162209523Y-121552500D01*
X162161904Y-121600119D01*
X162114285Y-121695357D01*
X162114285Y-121933452D01*
X162161904Y-122028690D01*
X162209523Y-122076309D01*
X162304761Y-122123928D01*
X162495238Y-122123928D01*
X162590476Y-122076309D01*
X162638095Y-122028690D01*
X162685714Y-121933452D01*
%TO.C,J1*%
X181636666Y-111722380D02*
X181636666Y-112436666D01*
X181589047Y-112579523D01*
X181493809Y-112674761D01*
X181350952Y-112722380D01*
X181255714Y-112722380D01*
X182636666Y-112722380D02*
X182065238Y-112722380D01*
X182350952Y-112722380D02*
X182350952Y-111722380D01*
X182255714Y-111865238D01*
X182160476Y-111960476D01*
X182065238Y-112008095D01*
D10*
%TO.C,G\u002A\u002A\u002A*%
X123587428Y-137998000D02*
X123442285Y-137925428D01*
X123224571Y-137925428D01*
X123006857Y-137998000D01*
X122861714Y-138143142D01*
X122789142Y-138288285D01*
X122716571Y-138578571D01*
X122716571Y-138796285D01*
X122789142Y-139086571D01*
X122861714Y-139231714D01*
X123006857Y-139376857D01*
X123224571Y-139449428D01*
X123369714Y-139449428D01*
X123587428Y-139376857D01*
X123660000Y-139304285D01*
X123660000Y-138796285D01*
X123369714Y-138796285D01*
X124530857Y-137925428D02*
X124530857Y-138288285D01*
X124168000Y-138143142D02*
X124530857Y-138288285D01*
X124893714Y-138143142D01*
X124313142Y-138578571D02*
X124530857Y-138288285D01*
X124748571Y-138578571D01*
X125692000Y-137925428D02*
X125692000Y-138288285D01*
X125329142Y-138143142D02*
X125692000Y-138288285D01*
X126054857Y-138143142D01*
X125474285Y-138578571D02*
X125692000Y-138288285D01*
X125909714Y-138578571D01*
X126853142Y-137925428D02*
X126853142Y-138288285D01*
X126490285Y-138143142D02*
X126853142Y-138288285D01*
X127216000Y-138143142D01*
X126635428Y-138578571D02*
X126853142Y-138288285D01*
X127070857Y-138578571D01*
D11*
%TO.C,R6*%
X198252030Y-108107732D02*
X197679610Y-108006717D01*
X197847969Y-108511793D02*
X197140862Y-107804687D01*
X197410236Y-107535312D01*
X197511251Y-107501641D01*
X197578595Y-107501641D01*
X197679610Y-107535312D01*
X197780625Y-107636328D01*
X197814297Y-107737343D01*
X197814297Y-107804687D01*
X197780625Y-107905702D01*
X197511251Y-108175076D01*
X198151015Y-106794534D02*
X198016328Y-106929221D01*
X197982656Y-107030236D01*
X197982656Y-107097580D01*
X198016328Y-107265938D01*
X198117343Y-107434297D01*
X198386717Y-107703671D01*
X198487732Y-107737343D01*
X198555076Y-107737343D01*
X198656091Y-107703671D01*
X198790778Y-107568984D01*
X198824450Y-107467969D01*
X198824450Y-107400625D01*
X198790778Y-107299610D01*
X198622419Y-107131251D01*
X198521404Y-107097580D01*
X198454061Y-107097580D01*
X198353045Y-107131251D01*
X198218358Y-107265938D01*
X198184687Y-107366954D01*
X198184687Y-107434297D01*
X198218358Y-107535312D01*
%TO.C,D4*%
X118582380Y-127248095D02*
X117582380Y-127248095D01*
X117582380Y-127010000D01*
X117630000Y-126867142D01*
X117725238Y-126771904D01*
X117820476Y-126724285D01*
X118010952Y-126676666D01*
X118153809Y-126676666D01*
X118344285Y-126724285D01*
X118439523Y-126771904D01*
X118534761Y-126867142D01*
X118582380Y-127010000D01*
X118582380Y-127248095D01*
X117915714Y-125819523D02*
X118582380Y-125819523D01*
X117534761Y-126057619D02*
X118249047Y-126295714D01*
X118249047Y-125676666D01*
%TO.C,C13*%
X176697142Y-104597142D02*
X176649523Y-104644761D01*
X176506666Y-104692380D01*
X176411428Y-104692380D01*
X176268571Y-104644761D01*
X176173333Y-104549523D01*
X176125714Y-104454285D01*
X176078095Y-104263809D01*
X176078095Y-104120952D01*
X176125714Y-103930476D01*
X176173333Y-103835238D01*
X176268571Y-103740000D01*
X176411428Y-103692380D01*
X176506666Y-103692380D01*
X176649523Y-103740000D01*
X176697142Y-103787619D01*
X177649523Y-104692380D02*
X177078095Y-104692380D01*
X177363809Y-104692380D02*
X177363809Y-103692380D01*
X177268571Y-103835238D01*
X177173333Y-103930476D01*
X177078095Y-103978095D01*
X177982857Y-103692380D02*
X178601904Y-103692380D01*
X178268571Y-104073333D01*
X178411428Y-104073333D01*
X178506666Y-104120952D01*
X178554285Y-104168571D01*
X178601904Y-104263809D01*
X178601904Y-104501904D01*
X178554285Y-104597142D01*
X178506666Y-104644761D01*
X178411428Y-104692380D01*
X178125714Y-104692380D01*
X178030476Y-104644761D01*
X177982857Y-104597142D01*
%TO.C,C19*%
X173777142Y-108412857D02*
X173824761Y-108460476D01*
X173872380Y-108603333D01*
X173872380Y-108698571D01*
X173824761Y-108841428D01*
X173729523Y-108936666D01*
X173634285Y-108984285D01*
X173443809Y-109031904D01*
X173300952Y-109031904D01*
X173110476Y-108984285D01*
X173015238Y-108936666D01*
X172920000Y-108841428D01*
X172872380Y-108698571D01*
X172872380Y-108603333D01*
X172920000Y-108460476D01*
X172967619Y-108412857D01*
X173872380Y-107460476D02*
X173872380Y-108031904D01*
X173872380Y-107746190D02*
X172872380Y-107746190D01*
X173015238Y-107841428D01*
X173110476Y-107936666D01*
X173158095Y-108031904D01*
X173872380Y-106984285D02*
X173872380Y-106793809D01*
X173824761Y-106698571D01*
X173777142Y-106650952D01*
X173634285Y-106555714D01*
X173443809Y-106508095D01*
X173062857Y-106508095D01*
X172967619Y-106555714D01*
X172920000Y-106603333D01*
X172872380Y-106698571D01*
X172872380Y-106889047D01*
X172920000Y-106984285D01*
X172967619Y-107031904D01*
X173062857Y-107079523D01*
X173300952Y-107079523D01*
X173396190Y-107031904D01*
X173443809Y-106984285D01*
X173491428Y-106889047D01*
X173491428Y-106698571D01*
X173443809Y-106603333D01*
X173396190Y-106555714D01*
X173300952Y-106508095D01*
D12*
%TO.C,G\u002A\u002A\u002A*%
X102787857Y-98765000D02*
X102773571Y-98757857D01*
X102752142Y-98757857D01*
X102730714Y-98765000D01*
X102716428Y-98779285D01*
X102709285Y-98793571D01*
X102702142Y-98822142D01*
X102702142Y-98843571D01*
X102709285Y-98872142D01*
X102716428Y-98886428D01*
X102730714Y-98900714D01*
X102752142Y-98907857D01*
X102766428Y-98907857D01*
X102787857Y-98900714D01*
X102795000Y-98893571D01*
X102795000Y-98843571D01*
X102766428Y-98843571D01*
X102880714Y-98757857D02*
X102880714Y-98793571D01*
X102845000Y-98779285D02*
X102880714Y-98793571D01*
X102916428Y-98779285D01*
X102859285Y-98822142D02*
X102880714Y-98793571D01*
X102902142Y-98822142D01*
X102995000Y-98757857D02*
X102995000Y-98793571D01*
X102959285Y-98779285D02*
X102995000Y-98793571D01*
X103030714Y-98779285D01*
X102973571Y-98822142D02*
X102995000Y-98793571D01*
X103016428Y-98822142D01*
X103109285Y-98757857D02*
X103109285Y-98793571D01*
X103073571Y-98779285D02*
X103109285Y-98793571D01*
X103145000Y-98779285D01*
X103087857Y-98822142D02*
X103109285Y-98793571D01*
X103130714Y-98822142D01*
D11*
%TO.C,C16*%
X169827142Y-107172857D02*
X169874761Y-107220476D01*
X169922380Y-107363333D01*
X169922380Y-107458571D01*
X169874761Y-107601428D01*
X169779523Y-107696666D01*
X169684285Y-107744285D01*
X169493809Y-107791904D01*
X169350952Y-107791904D01*
X169160476Y-107744285D01*
X169065238Y-107696666D01*
X168970000Y-107601428D01*
X168922380Y-107458571D01*
X168922380Y-107363333D01*
X168970000Y-107220476D01*
X169017619Y-107172857D01*
X169922380Y-106220476D02*
X169922380Y-106791904D01*
X169922380Y-106506190D02*
X168922380Y-106506190D01*
X169065238Y-106601428D01*
X169160476Y-106696666D01*
X169208095Y-106791904D01*
X168922380Y-105363333D02*
X168922380Y-105553809D01*
X168970000Y-105649047D01*
X169017619Y-105696666D01*
X169160476Y-105791904D01*
X169350952Y-105839523D01*
X169731904Y-105839523D01*
X169827142Y-105791904D01*
X169874761Y-105744285D01*
X169922380Y-105649047D01*
X169922380Y-105458571D01*
X169874761Y-105363333D01*
X169827142Y-105315714D01*
X169731904Y-105268095D01*
X169493809Y-105268095D01*
X169398571Y-105315714D01*
X169350952Y-105363333D01*
X169303333Y-105458571D01*
X169303333Y-105649047D01*
X169350952Y-105744285D01*
X169398571Y-105791904D01*
X169493809Y-105839523D01*
%TO.C,R4*%
X178233333Y-101092380D02*
X177900000Y-100616190D01*
X177661904Y-101092380D02*
X177661904Y-100092380D01*
X178042857Y-100092380D01*
X178138095Y-100140000D01*
X178185714Y-100187619D01*
X178233333Y-100282857D01*
X178233333Y-100425714D01*
X178185714Y-100520952D01*
X178138095Y-100568571D01*
X178042857Y-100616190D01*
X177661904Y-100616190D01*
X179090476Y-100425714D02*
X179090476Y-101092380D01*
X178852380Y-100044761D02*
X178614285Y-100759047D01*
X179233333Y-100759047D01*
%TO.C,J3*%
X116552380Y-86403333D02*
X117266666Y-86403333D01*
X117409523Y-86450952D01*
X117504761Y-86546190D01*
X117552380Y-86689047D01*
X117552380Y-86784285D01*
X116552380Y-86022380D02*
X116552380Y-85403333D01*
X116933333Y-85736666D01*
X116933333Y-85593809D01*
X116980952Y-85498571D01*
X117028571Y-85450952D01*
X117123809Y-85403333D01*
X117361904Y-85403333D01*
X117457142Y-85450952D01*
X117504761Y-85498571D01*
X117552380Y-85593809D01*
X117552380Y-85879523D01*
X117504761Y-85974761D01*
X117457142Y-86022380D01*
%TO.C,U1*%
X186952380Y-102511904D02*
X187761904Y-102511904D01*
X187857142Y-102464285D01*
X187904761Y-102416666D01*
X187952380Y-102321428D01*
X187952380Y-102130952D01*
X187904761Y-102035714D01*
X187857142Y-101988095D01*
X187761904Y-101940476D01*
X186952380Y-101940476D01*
X187952380Y-100940476D02*
X187952380Y-101511904D01*
X187952380Y-101226190D02*
X186952380Y-101226190D01*
X187095238Y-101321428D01*
X187190476Y-101416666D01*
X187238095Y-101511904D01*
D13*
%TO.C,G\u002A\u002A\u002A*%
X88599523Y-126390000D02*
X88551904Y-126366190D01*
X88480476Y-126366190D01*
X88409047Y-126390000D01*
X88361428Y-126437619D01*
X88337619Y-126485238D01*
X88313809Y-126580476D01*
X88313809Y-126651904D01*
X88337619Y-126747142D01*
X88361428Y-126794761D01*
X88409047Y-126842380D01*
X88480476Y-126866190D01*
X88528095Y-126866190D01*
X88599523Y-126842380D01*
X88623333Y-126818571D01*
X88623333Y-126651904D01*
X88528095Y-126651904D01*
X88909047Y-126366190D02*
X88909047Y-126485238D01*
X88790000Y-126437619D02*
X88909047Y-126485238D01*
X89028095Y-126437619D01*
X88837619Y-126580476D02*
X88909047Y-126485238D01*
X88980476Y-126580476D01*
X89290000Y-126366190D02*
X89290000Y-126485238D01*
X89170952Y-126437619D02*
X89290000Y-126485238D01*
X89409047Y-126437619D01*
X89218571Y-126580476D02*
X89290000Y-126485238D01*
X89361428Y-126580476D01*
X89670952Y-126366190D02*
X89670952Y-126485238D01*
X89551904Y-126437619D02*
X89670952Y-126485238D01*
X89790000Y-126437619D01*
X89599523Y-126580476D02*
X89670952Y-126485238D01*
X89742380Y-126580476D01*
D11*
%TO.C,C6*%
X175964443Y-98350145D02*
X175964443Y-98417488D01*
X175897099Y-98552175D01*
X175829756Y-98619519D01*
X175695068Y-98686862D01*
X175560381Y-98686862D01*
X175459366Y-98653191D01*
X175291007Y-98552175D01*
X175189992Y-98451160D01*
X175088977Y-98282801D01*
X175055305Y-98181786D01*
X175055305Y-98047099D01*
X175122649Y-97912412D01*
X175189992Y-97845068D01*
X175324679Y-97777725D01*
X175392023Y-97777725D01*
X175930771Y-97104290D02*
X175796084Y-97238977D01*
X175762412Y-97339992D01*
X175762412Y-97407336D01*
X175796084Y-97575694D01*
X175897099Y-97744053D01*
X176166473Y-98013427D01*
X176267488Y-98047099D01*
X176334832Y-98047099D01*
X176435847Y-98013427D01*
X176570534Y-97878740D01*
X176604206Y-97777725D01*
X176604206Y-97710381D01*
X176570534Y-97609366D01*
X176402175Y-97441007D01*
X176301160Y-97407336D01*
X176233817Y-97407336D01*
X176132801Y-97441007D01*
X175998114Y-97575694D01*
X175964443Y-97676710D01*
X175964443Y-97744053D01*
X175998114Y-97845068D01*
%TO.C,D8*%
X132242380Y-127005595D02*
X131242380Y-127005595D01*
X131242380Y-126767500D01*
X131290000Y-126624642D01*
X131385238Y-126529404D01*
X131480476Y-126481785D01*
X131670952Y-126434166D01*
X131813809Y-126434166D01*
X132004285Y-126481785D01*
X132099523Y-126529404D01*
X132194761Y-126624642D01*
X132242380Y-126767500D01*
X132242380Y-127005595D01*
X131670952Y-125862738D02*
X131623333Y-125957976D01*
X131575714Y-126005595D01*
X131480476Y-126053214D01*
X131432857Y-126053214D01*
X131337619Y-126005595D01*
X131290000Y-125957976D01*
X131242380Y-125862738D01*
X131242380Y-125672261D01*
X131290000Y-125577023D01*
X131337619Y-125529404D01*
X131432857Y-125481785D01*
X131480476Y-125481785D01*
X131575714Y-125529404D01*
X131623333Y-125577023D01*
X131670952Y-125672261D01*
X131670952Y-125862738D01*
X131718571Y-125957976D01*
X131766190Y-126005595D01*
X131861428Y-126053214D01*
X132051904Y-126053214D01*
X132147142Y-126005595D01*
X132194761Y-125957976D01*
X132242380Y-125862738D01*
X132242380Y-125672261D01*
X132194761Y-125577023D01*
X132147142Y-125529404D01*
X132051904Y-125481785D01*
X131861428Y-125481785D01*
X131766190Y-125529404D01*
X131718571Y-125577023D01*
X131670952Y-125672261D01*
%TO.C,C4*%
X156753333Y-95297142D02*
X156705714Y-95344761D01*
X156562857Y-95392380D01*
X156467619Y-95392380D01*
X156324761Y-95344761D01*
X156229523Y-95249523D01*
X156181904Y-95154285D01*
X156134285Y-94963809D01*
X156134285Y-94820952D01*
X156181904Y-94630476D01*
X156229523Y-94535238D01*
X156324761Y-94440000D01*
X156467619Y-94392380D01*
X156562857Y-94392380D01*
X156705714Y-94440000D01*
X156753333Y-94487619D01*
X157610476Y-94725714D02*
X157610476Y-95392380D01*
X157372380Y-94344761D02*
X157134285Y-95059047D01*
X157753333Y-95059047D01*
%TO.C,D15*%
X124429096Y-130487214D02*
X123721990Y-129780107D01*
X123890348Y-129611748D01*
X124025035Y-129544405D01*
X124159722Y-129544405D01*
X124260738Y-129578077D01*
X124429096Y-129679092D01*
X124530112Y-129780107D01*
X124631127Y-129948466D01*
X124664799Y-130049481D01*
X124664799Y-130184168D01*
X124597455Y-130318855D01*
X124429096Y-130487214D01*
X125506593Y-129409718D02*
X125102532Y-129813779D01*
X125304562Y-129611748D02*
X124597455Y-128904641D01*
X124631127Y-129073000D01*
X124631127Y-129207687D01*
X124597455Y-129308703D01*
X125439249Y-128062848D02*
X125102532Y-128399565D01*
X125405577Y-128769954D01*
X125405577Y-128702611D01*
X125439249Y-128601596D01*
X125607608Y-128433237D01*
X125708623Y-128399565D01*
X125775967Y-128399565D01*
X125876982Y-128433237D01*
X126045341Y-128601596D01*
X126079012Y-128702611D01*
X126079012Y-128769954D01*
X126045341Y-128870970D01*
X125876982Y-129039328D01*
X125775967Y-129073000D01*
X125708623Y-129073000D01*
%TO.C,C17*%
X171717142Y-92807142D02*
X171669523Y-92854761D01*
X171526666Y-92902380D01*
X171431428Y-92902380D01*
X171288571Y-92854761D01*
X171193333Y-92759523D01*
X171145714Y-92664285D01*
X171098095Y-92473809D01*
X171098095Y-92330952D01*
X171145714Y-92140476D01*
X171193333Y-92045238D01*
X171288571Y-91950000D01*
X171431428Y-91902380D01*
X171526666Y-91902380D01*
X171669523Y-91950000D01*
X171717142Y-91997619D01*
X172669523Y-92902380D02*
X172098095Y-92902380D01*
X172383809Y-92902380D02*
X172383809Y-91902380D01*
X172288571Y-92045238D01*
X172193333Y-92140476D01*
X172098095Y-92188095D01*
X173002857Y-91902380D02*
X173669523Y-91902380D01*
X173240952Y-92902380D01*
%TO.C,D12*%
X147785714Y-127602380D02*
X147785714Y-126602380D01*
X148023809Y-126602380D01*
X148166666Y-126650000D01*
X148261904Y-126745238D01*
X148309523Y-126840476D01*
X148357142Y-127030952D01*
X148357142Y-127173809D01*
X148309523Y-127364285D01*
X148261904Y-127459523D01*
X148166666Y-127554761D01*
X148023809Y-127602380D01*
X147785714Y-127602380D01*
X149309523Y-127602380D02*
X148738095Y-127602380D01*
X149023809Y-127602380D02*
X149023809Y-126602380D01*
X148928571Y-126745238D01*
X148833333Y-126840476D01*
X148738095Y-126888095D01*
X149690476Y-126697619D02*
X149738095Y-126650000D01*
X149833333Y-126602380D01*
X150071428Y-126602380D01*
X150166666Y-126650000D01*
X150214285Y-126697619D01*
X150261904Y-126792857D01*
X150261904Y-126888095D01*
X150214285Y-127030952D01*
X149642857Y-127602380D01*
X150261904Y-127602380D01*
D14*
%TO.C,IC2*%
X167396666Y-100593333D02*
X166696666Y-100593333D01*
X167330000Y-99860000D02*
X167363333Y-99893333D01*
X167396666Y-99993333D01*
X167396666Y-100060000D01*
X167363333Y-100160000D01*
X167296666Y-100226666D01*
X167230000Y-100260000D01*
X167096666Y-100293333D01*
X166996666Y-100293333D01*
X166863333Y-100260000D01*
X166796666Y-100226666D01*
X166730000Y-100160000D01*
X166696666Y-100060000D01*
X166696666Y-99993333D01*
X166730000Y-99893333D01*
X166763333Y-99860000D01*
X166763333Y-99593333D02*
X166730000Y-99560000D01*
X166696666Y-99493333D01*
X166696666Y-99326666D01*
X166730000Y-99260000D01*
X166763333Y-99226666D01*
X166830000Y-99193333D01*
X166896666Y-99193333D01*
X166996666Y-99226666D01*
X167396666Y-99626666D01*
X167396666Y-99193333D01*
D11*
%TO.C,C15*%
X172487142Y-108412857D02*
X172534761Y-108460476D01*
X172582380Y-108603333D01*
X172582380Y-108698571D01*
X172534761Y-108841428D01*
X172439523Y-108936666D01*
X172344285Y-108984285D01*
X172153809Y-109031904D01*
X172010952Y-109031904D01*
X171820476Y-108984285D01*
X171725238Y-108936666D01*
X171630000Y-108841428D01*
X171582380Y-108698571D01*
X171582380Y-108603333D01*
X171630000Y-108460476D01*
X171677619Y-108412857D01*
X172582380Y-107460476D02*
X172582380Y-108031904D01*
X172582380Y-107746190D02*
X171582380Y-107746190D01*
X171725238Y-107841428D01*
X171820476Y-107936666D01*
X171868095Y-108031904D01*
X171582380Y-106555714D02*
X171582380Y-107031904D01*
X172058571Y-107079523D01*
X172010952Y-107031904D01*
X171963333Y-106936666D01*
X171963333Y-106698571D01*
X172010952Y-106603333D01*
X172058571Y-106555714D01*
X172153809Y-106508095D01*
X172391904Y-106508095D01*
X172487142Y-106555714D01*
X172534761Y-106603333D01*
X172582380Y-106698571D01*
X172582380Y-106936666D01*
X172534761Y-107031904D01*
X172487142Y-107079523D01*
%TO.C,C10*%
X176627142Y-103357142D02*
X176579523Y-103404761D01*
X176436666Y-103452380D01*
X176341428Y-103452380D01*
X176198571Y-103404761D01*
X176103333Y-103309523D01*
X176055714Y-103214285D01*
X176008095Y-103023809D01*
X176008095Y-102880952D01*
X176055714Y-102690476D01*
X176103333Y-102595238D01*
X176198571Y-102500000D01*
X176341428Y-102452380D01*
X176436666Y-102452380D01*
X176579523Y-102500000D01*
X176627142Y-102547619D01*
X177579523Y-103452380D02*
X177008095Y-103452380D01*
X177293809Y-103452380D02*
X177293809Y-102452380D01*
X177198571Y-102595238D01*
X177103333Y-102690476D01*
X177008095Y-102738095D01*
X178198571Y-102452380D02*
X178293809Y-102452380D01*
X178389047Y-102500000D01*
X178436666Y-102547619D01*
X178484285Y-102642857D01*
X178531904Y-102833333D01*
X178531904Y-103071428D01*
X178484285Y-103261904D01*
X178436666Y-103357142D01*
X178389047Y-103404761D01*
X178293809Y-103452380D01*
X178198571Y-103452380D01*
X178103333Y-103404761D01*
X178055714Y-103357142D01*
X178008095Y-103261904D01*
X177960476Y-103071428D01*
X177960476Y-102833333D01*
X178008095Y-102642857D01*
X178055714Y-102547619D01*
X178103333Y-102500000D01*
X178198571Y-102452380D01*
%TO.C,D6*%
X125302380Y-127135595D02*
X124302380Y-127135595D01*
X124302380Y-126897500D01*
X124350000Y-126754642D01*
X124445238Y-126659404D01*
X124540476Y-126611785D01*
X124730952Y-126564166D01*
X124873809Y-126564166D01*
X125064285Y-126611785D01*
X125159523Y-126659404D01*
X125254761Y-126754642D01*
X125302380Y-126897500D01*
X125302380Y-127135595D01*
X124302380Y-125707023D02*
X124302380Y-125897500D01*
X124350000Y-125992738D01*
X124397619Y-126040357D01*
X124540476Y-126135595D01*
X124730952Y-126183214D01*
X125111904Y-126183214D01*
X125207142Y-126135595D01*
X125254761Y-126087976D01*
X125302380Y-125992738D01*
X125302380Y-125802261D01*
X125254761Y-125707023D01*
X125207142Y-125659404D01*
X125111904Y-125611785D01*
X124873809Y-125611785D01*
X124778571Y-125659404D01*
X124730952Y-125707023D01*
X124683333Y-125802261D01*
X124683333Y-125992738D01*
X124730952Y-126087976D01*
X124778571Y-126135595D01*
X124873809Y-126183214D01*
%TO.C,D18*%
X122279096Y-142167214D02*
X121571990Y-141460107D01*
X121740348Y-141291748D01*
X121875035Y-141224405D01*
X122009722Y-141224405D01*
X122110738Y-141258077D01*
X122279096Y-141359092D01*
X122380112Y-141460107D01*
X122481127Y-141628466D01*
X122514799Y-141729481D01*
X122514799Y-141864168D01*
X122447455Y-141998855D01*
X122279096Y-142167214D01*
X123356593Y-141089718D02*
X122952532Y-141493779D01*
X123154562Y-141291748D02*
X122447455Y-140584641D01*
X122481127Y-140753000D01*
X122481127Y-140887687D01*
X122447455Y-140988703D01*
X123356593Y-140281596D02*
X123255577Y-140315267D01*
X123188234Y-140315267D01*
X123087219Y-140281596D01*
X123053547Y-140247924D01*
X123019875Y-140146909D01*
X123019875Y-140079565D01*
X123053547Y-139978550D01*
X123188234Y-139843863D01*
X123289249Y-139810191D01*
X123356593Y-139810191D01*
X123457608Y-139843863D01*
X123491280Y-139877535D01*
X123524951Y-139978550D01*
X123524951Y-140045893D01*
X123491280Y-140146909D01*
X123356593Y-140281596D01*
X123322921Y-140382611D01*
X123322921Y-140449954D01*
X123356593Y-140550970D01*
X123491280Y-140685657D01*
X123592295Y-140719328D01*
X123659638Y-140719328D01*
X123760654Y-140685657D01*
X123895341Y-140550970D01*
X123929012Y-140449954D01*
X123929012Y-140382611D01*
X123895341Y-140281596D01*
X123760654Y-140146909D01*
X123659638Y-140113237D01*
X123592295Y-140113237D01*
X123491280Y-140146909D01*
%TO.C,R2*%
X182853333Y-88252380D02*
X182520000Y-87776190D01*
X182281904Y-88252380D02*
X182281904Y-87252380D01*
X182662857Y-87252380D01*
X182758095Y-87300000D01*
X182805714Y-87347619D01*
X182853333Y-87442857D01*
X182853333Y-87585714D01*
X182805714Y-87680952D01*
X182758095Y-87728571D01*
X182662857Y-87776190D01*
X182281904Y-87776190D01*
X183234285Y-87347619D02*
X183281904Y-87300000D01*
X183377142Y-87252380D01*
X183615238Y-87252380D01*
X183710476Y-87300000D01*
X183758095Y-87347619D01*
X183805714Y-87442857D01*
X183805714Y-87538095D01*
X183758095Y-87680952D01*
X183186666Y-88252380D01*
X183805714Y-88252380D01*
%TO.C,C18*%
X167336862Y-93652274D02*
X167404206Y-93652274D01*
X167538893Y-93719618D01*
X167606236Y-93786961D01*
X167673580Y-93921648D01*
X167673580Y-94056335D01*
X167639908Y-94157350D01*
X167538893Y-94325709D01*
X167437878Y-94426724D01*
X167269519Y-94527740D01*
X167168504Y-94561411D01*
X167033817Y-94561411D01*
X166899130Y-94494068D01*
X166831786Y-94426724D01*
X166764443Y-94292037D01*
X166764443Y-94224694D01*
X166730771Y-92911495D02*
X167134832Y-93315556D01*
X166932801Y-93113526D02*
X166225694Y-93820633D01*
X166394053Y-93786961D01*
X166528740Y-93786961D01*
X166629756Y-93820633D01*
X165922649Y-92911495D02*
X165956320Y-93012511D01*
X165956320Y-93079854D01*
X165922649Y-93180869D01*
X165888977Y-93214541D01*
X165787962Y-93248213D01*
X165720618Y-93248213D01*
X165619603Y-93214541D01*
X165484916Y-93079854D01*
X165451244Y-92978839D01*
X165451244Y-92911495D01*
X165484916Y-92810480D01*
X165518588Y-92776808D01*
X165619603Y-92743137D01*
X165686946Y-92743137D01*
X165787962Y-92776808D01*
X165922649Y-92911495D01*
X166023664Y-92945167D01*
X166091007Y-92945167D01*
X166192023Y-92911495D01*
X166326710Y-92776808D01*
X166360381Y-92675793D01*
X166360381Y-92608450D01*
X166326710Y-92507434D01*
X166192023Y-92372747D01*
X166091007Y-92339076D01*
X166023664Y-92339076D01*
X165922649Y-92372747D01*
X165787962Y-92507434D01*
X165754290Y-92608450D01*
X165754290Y-92675793D01*
X165787962Y-92776808D01*
%TO.C,C8*%
X160455833Y-113012142D02*
X160408214Y-113059761D01*
X160265357Y-113107380D01*
X160170119Y-113107380D01*
X160027261Y-113059761D01*
X159932023Y-112964523D01*
X159884404Y-112869285D01*
X159836785Y-112678809D01*
X159836785Y-112535952D01*
X159884404Y-112345476D01*
X159932023Y-112250238D01*
X160027261Y-112155000D01*
X160170119Y-112107380D01*
X160265357Y-112107380D01*
X160408214Y-112155000D01*
X160455833Y-112202619D01*
X161027261Y-112535952D02*
X160932023Y-112488333D01*
X160884404Y-112440714D01*
X160836785Y-112345476D01*
X160836785Y-112297857D01*
X160884404Y-112202619D01*
X160932023Y-112155000D01*
X161027261Y-112107380D01*
X161217738Y-112107380D01*
X161312976Y-112155000D01*
X161360595Y-112202619D01*
X161408214Y-112297857D01*
X161408214Y-112345476D01*
X161360595Y-112440714D01*
X161312976Y-112488333D01*
X161217738Y-112535952D01*
X161027261Y-112535952D01*
X160932023Y-112583571D01*
X160884404Y-112631190D01*
X160836785Y-112726428D01*
X160836785Y-112916904D01*
X160884404Y-113012142D01*
X160932023Y-113059761D01*
X161027261Y-113107380D01*
X161217738Y-113107380D01*
X161312976Y-113059761D01*
X161360595Y-113012142D01*
X161408214Y-112916904D01*
X161408214Y-112726428D01*
X161360595Y-112631190D01*
X161312976Y-112583571D01*
X161217738Y-112535952D01*
%TO.C,C7*%
X162810833Y-102887142D02*
X162763214Y-102934761D01*
X162620357Y-102982380D01*
X162525119Y-102982380D01*
X162382261Y-102934761D01*
X162287023Y-102839523D01*
X162239404Y-102744285D01*
X162191785Y-102553809D01*
X162191785Y-102410952D01*
X162239404Y-102220476D01*
X162287023Y-102125238D01*
X162382261Y-102030000D01*
X162525119Y-101982380D01*
X162620357Y-101982380D01*
X162763214Y-102030000D01*
X162810833Y-102077619D01*
X163144166Y-101982380D02*
X163810833Y-101982380D01*
X163382261Y-102982380D01*
%TO.C,D20*%
X120704525Y-150701785D02*
X119997419Y-149994678D01*
X120165777Y-149826319D01*
X120300464Y-149758976D01*
X120435151Y-149758976D01*
X120536167Y-149792648D01*
X120704525Y-149893663D01*
X120805541Y-149994678D01*
X120906556Y-150163037D01*
X120940228Y-150264052D01*
X120940228Y-150398739D01*
X120872884Y-150533426D01*
X120704525Y-150701785D01*
X120738197Y-149388586D02*
X120738197Y-149321243D01*
X120771869Y-149220228D01*
X120940228Y-149051869D01*
X121041243Y-149018197D01*
X121108586Y-149018197D01*
X121209602Y-149051869D01*
X121276945Y-149119212D01*
X121344289Y-149253899D01*
X121344289Y-150062022D01*
X121782022Y-149624289D01*
X121512648Y-148479449D02*
X121579991Y-148412106D01*
X121681006Y-148378434D01*
X121748350Y-148378434D01*
X121849365Y-148412106D01*
X122017724Y-148513121D01*
X122186083Y-148681480D01*
X122287098Y-148849838D01*
X122320770Y-148950854D01*
X122320770Y-149018197D01*
X122287098Y-149119212D01*
X122219754Y-149186556D01*
X122118739Y-149220228D01*
X122051396Y-149220228D01*
X121950380Y-149186556D01*
X121782022Y-149085541D01*
X121613663Y-148917182D01*
X121512648Y-148748823D01*
X121478976Y-148647808D01*
X121478976Y-148580464D01*
X121512648Y-148479449D01*
%TO.C,D9*%
X135552380Y-126858095D02*
X134552380Y-126858095D01*
X134552380Y-126620000D01*
X134600000Y-126477142D01*
X134695238Y-126381904D01*
X134790476Y-126334285D01*
X134980952Y-126286666D01*
X135123809Y-126286666D01*
X135314285Y-126334285D01*
X135409523Y-126381904D01*
X135504761Y-126477142D01*
X135552380Y-126620000D01*
X135552380Y-126858095D01*
X135552380Y-125810476D02*
X135552380Y-125620000D01*
X135504761Y-125524761D01*
X135457142Y-125477142D01*
X135314285Y-125381904D01*
X135123809Y-125334285D01*
X134742857Y-125334285D01*
X134647619Y-125381904D01*
X134600000Y-125429523D01*
X134552380Y-125524761D01*
X134552380Y-125715238D01*
X134600000Y-125810476D01*
X134647619Y-125858095D01*
X134742857Y-125905714D01*
X134980952Y-125905714D01*
X135076190Y-125858095D01*
X135123809Y-125810476D01*
X135171428Y-125715238D01*
X135171428Y-125524761D01*
X135123809Y-125429523D01*
X135076190Y-125381904D01*
X134980952Y-125334285D01*
D15*
%TO.C,D22*%
X103818571Y-95355238D02*
X103818571Y-95255238D01*
X103842380Y-95255238D01*
X103856666Y-95260000D01*
X103866190Y-95269523D01*
X103870952Y-95279047D01*
X103875714Y-95298095D01*
X103875714Y-95312380D01*
X103870952Y-95331428D01*
X103866190Y-95340952D01*
X103856666Y-95350476D01*
X103842380Y-95355238D01*
X103818571Y-95355238D01*
X103913809Y-95264761D02*
X103918571Y-95260000D01*
X103928095Y-95255238D01*
X103951904Y-95255238D01*
X103961428Y-95260000D01*
X103966190Y-95264761D01*
X103970952Y-95274285D01*
X103970952Y-95283809D01*
X103966190Y-95298095D01*
X103909047Y-95355238D01*
X103970952Y-95355238D01*
X104009047Y-95264761D02*
X104013809Y-95260000D01*
X104023333Y-95255238D01*
X104047142Y-95255238D01*
X104056666Y-95260000D01*
X104061428Y-95264761D01*
X104066190Y-95274285D01*
X104066190Y-95283809D01*
X104061428Y-95298095D01*
X104004285Y-95355238D01*
X104066190Y-95355238D01*
D11*
%TO.C,D14*%
X123614525Y-134361785D02*
X122907419Y-133654678D01*
X123075777Y-133486319D01*
X123210464Y-133418976D01*
X123345151Y-133418976D01*
X123446167Y-133452648D01*
X123614525Y-133553663D01*
X123715541Y-133654678D01*
X123816556Y-133823037D01*
X123850228Y-133924052D01*
X123850228Y-134058739D01*
X123782884Y-134193426D01*
X123614525Y-134361785D01*
X124692022Y-133284289D02*
X124287961Y-133688350D01*
X124489991Y-133486319D02*
X123782884Y-132779212D01*
X123816556Y-132947571D01*
X123816556Y-133082258D01*
X123782884Y-133183274D01*
X124826709Y-132206793D02*
X125298113Y-132678197D01*
X124388976Y-132105777D02*
X124725693Y-132779212D01*
X125163426Y-132341480D01*
%TO.C,J5*%
X194067071Y-90938477D02*
X194572147Y-91443553D01*
X194639491Y-91578240D01*
X194639491Y-91712927D01*
X194572147Y-91847614D01*
X194504804Y-91914957D01*
X194740506Y-90265042D02*
X194403789Y-90601759D01*
X194706834Y-90972148D01*
X194706834Y-90904805D01*
X194740506Y-90803790D01*
X194908865Y-90635431D01*
X195009880Y-90601759D01*
X195077224Y-90601759D01*
X195178239Y-90635431D01*
X195346598Y-90803790D01*
X195380269Y-90904805D01*
X195380269Y-90972148D01*
X195346598Y-91073164D01*
X195178239Y-91241522D01*
X195077224Y-91275194D01*
X195009880Y-91275194D01*
%TO.C,D3*%
X115332380Y-127408095D02*
X114332380Y-127408095D01*
X114332380Y-127170000D01*
X114380000Y-127027142D01*
X114475238Y-126931904D01*
X114570476Y-126884285D01*
X114760952Y-126836666D01*
X114903809Y-126836666D01*
X115094285Y-126884285D01*
X115189523Y-126931904D01*
X115284761Y-127027142D01*
X115332380Y-127170000D01*
X115332380Y-127408095D01*
X114332380Y-126503333D02*
X114332380Y-125884285D01*
X114713333Y-126217619D01*
X114713333Y-126074761D01*
X114760952Y-125979523D01*
X114808571Y-125931904D01*
X114903809Y-125884285D01*
X115141904Y-125884285D01*
X115237142Y-125931904D01*
X115284761Y-125979523D01*
X115332380Y-126074761D01*
X115332380Y-126360476D01*
X115284761Y-126455714D01*
X115237142Y-126503333D01*
%TO.C,D5*%
X121772380Y-127188095D02*
X120772380Y-127188095D01*
X120772380Y-126950000D01*
X120820000Y-126807142D01*
X120915238Y-126711904D01*
X121010476Y-126664285D01*
X121200952Y-126616666D01*
X121343809Y-126616666D01*
X121534285Y-126664285D01*
X121629523Y-126711904D01*
X121724761Y-126807142D01*
X121772380Y-126950000D01*
X121772380Y-127188095D01*
X120772380Y-125711904D02*
X120772380Y-126188095D01*
X121248571Y-126235714D01*
X121200952Y-126188095D01*
X121153333Y-126092857D01*
X121153333Y-125854761D01*
X121200952Y-125759523D01*
X121248571Y-125711904D01*
X121343809Y-125664285D01*
X121581904Y-125664285D01*
X121677142Y-125711904D01*
X121724761Y-125759523D01*
X121772380Y-125854761D01*
X121772380Y-126092857D01*
X121724761Y-126188095D01*
X121677142Y-126235714D01*
%TO.C,C2*%
X194777142Y-103796666D02*
X194824761Y-103844285D01*
X194872380Y-103987142D01*
X194872380Y-104082380D01*
X194824761Y-104225238D01*
X194729523Y-104320476D01*
X194634285Y-104368095D01*
X194443809Y-104415714D01*
X194300952Y-104415714D01*
X194110476Y-104368095D01*
X194015238Y-104320476D01*
X193920000Y-104225238D01*
X193872380Y-104082380D01*
X193872380Y-103987142D01*
X193920000Y-103844285D01*
X193967619Y-103796666D01*
X193967619Y-103415714D02*
X193920000Y-103368095D01*
X193872380Y-103272857D01*
X193872380Y-103034761D01*
X193920000Y-102939523D01*
X193967619Y-102891904D01*
X194062857Y-102844285D01*
X194158095Y-102844285D01*
X194300952Y-102891904D01*
X194872380Y-103463333D01*
X194872380Y-102844285D01*
D16*
%TO.C,J2*%
X202146190Y-100516666D02*
X202503333Y-100516666D01*
X202574761Y-100540476D01*
X202622380Y-100588095D01*
X202646190Y-100659523D01*
X202646190Y-100707142D01*
X202193809Y-100302380D02*
X202170000Y-100278571D01*
X202146190Y-100230952D01*
X202146190Y-100111904D01*
X202170000Y-100064285D01*
X202193809Y-100040476D01*
X202241428Y-100016666D01*
X202289047Y-100016666D01*
X202360476Y-100040476D01*
X202646190Y-100326190D01*
X202646190Y-100016666D01*
D11*
%TO.C,C5*%
X156893333Y-105037142D02*
X156845714Y-105084761D01*
X156702857Y-105132380D01*
X156607619Y-105132380D01*
X156464761Y-105084761D01*
X156369523Y-104989523D01*
X156321904Y-104894285D01*
X156274285Y-104703809D01*
X156274285Y-104560952D01*
X156321904Y-104370476D01*
X156369523Y-104275238D01*
X156464761Y-104180000D01*
X156607619Y-104132380D01*
X156702857Y-104132380D01*
X156845714Y-104180000D01*
X156893333Y-104227619D01*
X157798095Y-104132380D02*
X157321904Y-104132380D01*
X157274285Y-104608571D01*
X157321904Y-104560952D01*
X157417142Y-104513333D01*
X157655238Y-104513333D01*
X157750476Y-104560952D01*
X157798095Y-104608571D01*
X157845714Y-104703809D01*
X157845714Y-104941904D01*
X157798095Y-105037142D01*
X157750476Y-105084761D01*
X157655238Y-105132380D01*
X157417142Y-105132380D01*
X157321904Y-105084761D01*
X157274285Y-105037142D01*
%TO.C,D1*%
X107841904Y-128442380D02*
X107841904Y-127442380D01*
X108080000Y-127442380D01*
X108222857Y-127490000D01*
X108318095Y-127585238D01*
X108365714Y-127680476D01*
X108413333Y-127870952D01*
X108413333Y-128013809D01*
X108365714Y-128204285D01*
X108318095Y-128299523D01*
X108222857Y-128394761D01*
X108080000Y-128442380D01*
X107841904Y-128442380D01*
X109365714Y-128442380D02*
X108794285Y-128442380D01*
X109080000Y-128442380D02*
X109080000Y-127442380D01*
X108984761Y-127585238D01*
X108889523Y-127680476D01*
X108794285Y-127728095D01*
%TO.C,U2*%
X178242380Y-92211904D02*
X179051904Y-92211904D01*
X179147142Y-92164285D01*
X179194761Y-92116666D01*
X179242380Y-92021428D01*
X179242380Y-91830952D01*
X179194761Y-91735714D01*
X179147142Y-91688095D01*
X179051904Y-91640476D01*
X178242380Y-91640476D01*
X178337619Y-91211904D02*
X178290000Y-91164285D01*
X178242380Y-91069047D01*
X178242380Y-90830952D01*
X178290000Y-90735714D01*
X178337619Y-90688095D01*
X178432857Y-90640476D01*
X178528095Y-90640476D01*
X178670952Y-90688095D01*
X179242380Y-91259523D01*
X179242380Y-90640476D01*
%TO.C,C14*%
X173947142Y-95047142D02*
X173899523Y-95094761D01*
X173756666Y-95142380D01*
X173661428Y-95142380D01*
X173518571Y-95094761D01*
X173423333Y-94999523D01*
X173375714Y-94904285D01*
X173328095Y-94713809D01*
X173328095Y-94570952D01*
X173375714Y-94380476D01*
X173423333Y-94285238D01*
X173518571Y-94190000D01*
X173661428Y-94142380D01*
X173756666Y-94142380D01*
X173899523Y-94190000D01*
X173947142Y-94237619D01*
X174899523Y-95142380D02*
X174328095Y-95142380D01*
X174613809Y-95142380D02*
X174613809Y-94142380D01*
X174518571Y-94285238D01*
X174423333Y-94380476D01*
X174328095Y-94428095D01*
X175756666Y-94475714D02*
X175756666Y-95142380D01*
X175518571Y-94094761D02*
X175280476Y-94809047D01*
X175899523Y-94809047D01*
%TO.C,D19*%
X121664525Y-146231785D02*
X120957419Y-145524678D01*
X121125777Y-145356319D01*
X121260464Y-145288976D01*
X121395151Y-145288976D01*
X121496167Y-145322648D01*
X121664525Y-145423663D01*
X121765541Y-145524678D01*
X121866556Y-145693037D01*
X121900228Y-145794052D01*
X121900228Y-145928739D01*
X121832884Y-146063426D01*
X121664525Y-146231785D01*
X122742022Y-145154289D02*
X122337961Y-145558350D01*
X122539991Y-145356319D02*
X121832884Y-144649212D01*
X121866556Y-144817571D01*
X121866556Y-144952258D01*
X121832884Y-145053274D01*
X123078739Y-144817571D02*
X123213426Y-144682884D01*
X123247098Y-144581869D01*
X123247098Y-144514525D01*
X123213426Y-144346167D01*
X123112411Y-144177808D01*
X122843037Y-143908434D01*
X122742022Y-143874762D01*
X122674678Y-143874762D01*
X122573663Y-143908434D01*
X122438976Y-144043121D01*
X122405304Y-144144136D01*
X122405304Y-144211480D01*
X122438976Y-144312495D01*
X122607335Y-144480854D01*
X122708350Y-144514525D01*
X122775693Y-144514525D01*
X122876709Y-144480854D01*
X123011396Y-144346167D01*
X123045067Y-144245151D01*
X123045067Y-144177808D01*
X123011396Y-144076793D01*
%TO.C,D2*%
X112292380Y-127768095D02*
X111292380Y-127768095D01*
X111292380Y-127530000D01*
X111340000Y-127387142D01*
X111435238Y-127291904D01*
X111530476Y-127244285D01*
X111720952Y-127196666D01*
X111863809Y-127196666D01*
X112054285Y-127244285D01*
X112149523Y-127291904D01*
X112244761Y-127387142D01*
X112292380Y-127530000D01*
X112292380Y-127768095D01*
X111387619Y-126815714D02*
X111340000Y-126768095D01*
X111292380Y-126672857D01*
X111292380Y-126434761D01*
X111340000Y-126339523D01*
X111387619Y-126291904D01*
X111482857Y-126244285D01*
X111578095Y-126244285D01*
X111720952Y-126291904D01*
X112292380Y-126863333D01*
X112292380Y-126244285D01*
%TO.C,C12*%
X166427142Y-116625357D02*
X166474761Y-116672976D01*
X166522380Y-116815833D01*
X166522380Y-116911071D01*
X166474761Y-117053928D01*
X166379523Y-117149166D01*
X166284285Y-117196785D01*
X166093809Y-117244404D01*
X165950952Y-117244404D01*
X165760476Y-117196785D01*
X165665238Y-117149166D01*
X165570000Y-117053928D01*
X165522380Y-116911071D01*
X165522380Y-116815833D01*
X165570000Y-116672976D01*
X165617619Y-116625357D01*
X166522380Y-115672976D02*
X166522380Y-116244404D01*
X166522380Y-115958690D02*
X165522380Y-115958690D01*
X165665238Y-116053928D01*
X165760476Y-116149166D01*
X165808095Y-116244404D01*
X165617619Y-115292023D02*
X165570000Y-115244404D01*
X165522380Y-115149166D01*
X165522380Y-114911071D01*
X165570000Y-114815833D01*
X165617619Y-114768214D01*
X165712857Y-114720595D01*
X165808095Y-114720595D01*
X165950952Y-114768214D01*
X166522380Y-115339642D01*
X166522380Y-114720595D01*
%TO.C,D21*%
X120024525Y-155281785D02*
X119317419Y-154574678D01*
X119485777Y-154406319D01*
X119620464Y-154338976D01*
X119755151Y-154338976D01*
X119856167Y-154372648D01*
X120024525Y-154473663D01*
X120125541Y-154574678D01*
X120226556Y-154743037D01*
X120260228Y-154844052D01*
X120260228Y-154978739D01*
X120192884Y-155113426D01*
X120024525Y-155281785D01*
X120058197Y-153968586D02*
X120058197Y-153901243D01*
X120091869Y-153800228D01*
X120260228Y-153631869D01*
X120361243Y-153598197D01*
X120428586Y-153598197D01*
X120529602Y-153631869D01*
X120596945Y-153699212D01*
X120664289Y-153833899D01*
X120664289Y-154642022D01*
X121102022Y-154204289D01*
X121775457Y-153530854D02*
X121371396Y-153934915D01*
X121573426Y-153732884D02*
X120866319Y-153025777D01*
X120899991Y-153194136D01*
X120899991Y-153328823D01*
X120866319Y-153429838D01*
%TO.C,D7*%
X128892380Y-127098095D02*
X127892380Y-127098095D01*
X127892380Y-126860000D01*
X127940000Y-126717142D01*
X128035238Y-126621904D01*
X128130476Y-126574285D01*
X128320952Y-126526666D01*
X128463809Y-126526666D01*
X128654285Y-126574285D01*
X128749523Y-126621904D01*
X128844761Y-126717142D01*
X128892380Y-126860000D01*
X128892380Y-127098095D01*
X127892380Y-126193333D02*
X127892380Y-125526666D01*
X128892380Y-125955238D01*
%TO.C,J4*%
X188097073Y-87578477D02*
X188602149Y-88083553D01*
X188669493Y-88218240D01*
X188669493Y-88352927D01*
X188602149Y-88487614D01*
X188534806Y-88554957D01*
X188972539Y-87174416D02*
X189443943Y-87645820D01*
X188534806Y-87073400D02*
X188871523Y-87746835D01*
X189309256Y-87309103D01*
D17*
%TO.C,Y1*%
X156804761Y-100284761D02*
X157409523Y-100284761D01*
X156139523Y-100708095D02*
X156804761Y-100284761D01*
X156139523Y-99861428D01*
X157409523Y-98772857D02*
X157409523Y-99498571D01*
X157409523Y-99135714D02*
X156139523Y-99135714D01*
X156320952Y-99256666D01*
X156441904Y-99377619D01*
X156502380Y-99498571D01*
D11*
%TO.C,C21*%
X174547142Y-106387142D02*
X174499523Y-106434761D01*
X174356666Y-106482380D01*
X174261428Y-106482380D01*
X174118571Y-106434761D01*
X174023333Y-106339523D01*
X173975714Y-106244285D01*
X173928095Y-106053809D01*
X173928095Y-105910952D01*
X173975714Y-105720476D01*
X174023333Y-105625238D01*
X174118571Y-105530000D01*
X174261428Y-105482380D01*
X174356666Y-105482380D01*
X174499523Y-105530000D01*
X174547142Y-105577619D01*
X174928095Y-105577619D02*
X174975714Y-105530000D01*
X175070952Y-105482380D01*
X175309047Y-105482380D01*
X175404285Y-105530000D01*
X175451904Y-105577619D01*
X175499523Y-105672857D01*
X175499523Y-105768095D01*
X175451904Y-105910952D01*
X174880476Y-106482380D01*
X175499523Y-106482380D01*
X176451904Y-106482380D02*
X175880476Y-106482380D01*
X176166190Y-106482380D02*
X176166190Y-105482380D01*
X176070952Y-105625238D01*
X175975714Y-105720476D01*
X175880476Y-105768095D01*
D14*
%TO.C,IC1*%
X163001904Y-115776190D02*
X163001904Y-115276190D01*
X163525714Y-115728571D02*
X163501904Y-115752380D01*
X163430476Y-115776190D01*
X163382857Y-115776190D01*
X163311428Y-115752380D01*
X163263809Y-115704761D01*
X163240000Y-115657142D01*
X163216190Y-115561904D01*
X163216190Y-115490476D01*
X163240000Y-115395238D01*
X163263809Y-115347619D01*
X163311428Y-115300000D01*
X163382857Y-115276190D01*
X163430476Y-115276190D01*
X163501904Y-115300000D01*
X163525714Y-115323809D01*
X164001904Y-115776190D02*
X163716190Y-115776190D01*
X163859047Y-115776190D02*
X163859047Y-115276190D01*
X163811428Y-115347619D01*
X163763809Y-115395238D01*
X163716190Y-115419047D01*
D11*
%TO.C,D11*%
X142222380Y-127474285D02*
X141222380Y-127474285D01*
X141222380Y-127236190D01*
X141270000Y-127093333D01*
X141365238Y-126998095D01*
X141460476Y-126950476D01*
X141650952Y-126902857D01*
X141793809Y-126902857D01*
X141984285Y-126950476D01*
X142079523Y-126998095D01*
X142174761Y-127093333D01*
X142222380Y-127236190D01*
X142222380Y-127474285D01*
X142222380Y-125950476D02*
X142222380Y-126521904D01*
X142222380Y-126236190D02*
X141222380Y-126236190D01*
X141365238Y-126331428D01*
X141460476Y-126426666D01*
X141508095Y-126521904D01*
X142222380Y-124998095D02*
X142222380Y-125569523D01*
X142222380Y-125283809D02*
X141222380Y-125283809D01*
X141365238Y-125379047D01*
X141460476Y-125474285D01*
X141508095Y-125569523D01*
%TO.C,C3*%
X181553333Y-97927142D02*
X181505714Y-97974761D01*
X181362857Y-98022380D01*
X181267619Y-98022380D01*
X181124761Y-97974761D01*
X181029523Y-97879523D01*
X180981904Y-97784285D01*
X180934285Y-97593809D01*
X180934285Y-97450952D01*
X180981904Y-97260476D01*
X181029523Y-97165238D01*
X181124761Y-97070000D01*
X181267619Y-97022380D01*
X181362857Y-97022380D01*
X181505714Y-97070000D01*
X181553333Y-97117619D01*
X181886666Y-97022380D02*
X182505714Y-97022380D01*
X182172380Y-97403333D01*
X182315238Y-97403333D01*
X182410476Y-97450952D01*
X182458095Y-97498571D01*
X182505714Y-97593809D01*
X182505714Y-97831904D01*
X182458095Y-97927142D01*
X182410476Y-97974761D01*
X182315238Y-98022380D01*
X182029523Y-98022380D01*
X181934285Y-97974761D01*
X181886666Y-97927142D01*
%TO.C,D10*%
X138892380Y-127354285D02*
X137892380Y-127354285D01*
X137892380Y-127116190D01*
X137940000Y-126973333D01*
X138035238Y-126878095D01*
X138130476Y-126830476D01*
X138320952Y-126782857D01*
X138463809Y-126782857D01*
X138654285Y-126830476D01*
X138749523Y-126878095D01*
X138844761Y-126973333D01*
X138892380Y-127116190D01*
X138892380Y-127354285D01*
X138892380Y-125830476D02*
X138892380Y-126401904D01*
X138892380Y-126116190D02*
X137892380Y-126116190D01*
X138035238Y-126211428D01*
X138130476Y-126306666D01*
X138178095Y-126401904D01*
X137892380Y-125211428D02*
X137892380Y-125116190D01*
X137940000Y-125020952D01*
X137987619Y-124973333D01*
X138082857Y-124925714D01*
X138273333Y-124878095D01*
X138511428Y-124878095D01*
X138701904Y-124925714D01*
X138797142Y-124973333D01*
X138844761Y-125020952D01*
X138892380Y-125116190D01*
X138892380Y-125211428D01*
X138844761Y-125306666D01*
X138797142Y-125354285D01*
X138701904Y-125401904D01*
X138511428Y-125449523D01*
X138273333Y-125449523D01*
X138082857Y-125401904D01*
X137987619Y-125354285D01*
X137940000Y-125306666D01*
X137892380Y-125211428D01*
D18*
%TO.C,R3*%
X159620000Y-100466359D02*
X159620000Y-100773641D01*
X160380000Y-100466359D02*
X160380000Y-100773641D01*
%TO.C,C1*%
X192520000Y-99898080D02*
X192520000Y-99616920D01*
X193540000Y-99898080D02*
X193540000Y-99616920D01*
%TO.C,C11*%
X164540000Y-118322164D02*
X164540000Y-118537836D01*
X165260000Y-118322164D02*
X165260000Y-118537836D01*
%TO.C,C20*%
X163075336Y-99930000D02*
X162859664Y-99930000D01*
X163075336Y-100650000D02*
X162859664Y-100650000D01*
%TO.C,D17*%
X196022855Y-110509500D02*
X194124274Y-112408081D01*
X194124274Y-112408081D02*
X195481919Y-113765726D01*
X195481919Y-113765726D02*
X197380500Y-111867145D01*
%TO.C,R1*%
X182497500Y-92943641D02*
X182497500Y-92636359D01*
X183257500Y-92943641D02*
X183257500Y-92636359D01*
%TO.C,D16*%
X124171919Y-140205726D02*
X126070500Y-138307145D01*
X124712855Y-136949500D02*
X122814274Y-138848081D01*
X122814274Y-138848081D02*
X124171919Y-140205726D01*
%TO.C,D13*%
X129282500Y-121060000D02*
X126597500Y-121060000D01*
X126597500Y-122980000D02*
X129282500Y-122980000D01*
X126597500Y-121060000D02*
X126597500Y-122980000D01*
%TO.C,C9*%
X162007836Y-121252500D02*
X161792164Y-121252500D01*
X162007836Y-120532500D02*
X161792164Y-120532500D01*
%TO.C,J1*%
X185420000Y-112990000D02*
X185420000Y-111490000D01*
X184170000Y-108990000D02*
X179670000Y-108990000D01*
X179670000Y-115490000D02*
X184170000Y-115490000D01*
X178420000Y-111490000D02*
X178420000Y-112990000D01*
%TO.C,G\u002A\u002A\u002A*%
G36*
X131127748Y-121238073D02*
G01*
X131020206Y-122020000D01*
X132701978Y-122020000D01*
X133483431Y-122028984D01*
X133993335Y-122059830D01*
X134277237Y-122118379D01*
X134380685Y-122210470D01*
X134383750Y-122235644D01*
X134475501Y-122341656D01*
X134773815Y-122436618D01*
X135313279Y-122527764D01*
X136128481Y-122622326D01*
X136328437Y-122642362D01*
X139574856Y-123060775D01*
X142621033Y-123667105D01*
X145536106Y-124481221D01*
X148389215Y-125522993D01*
X151249498Y-126812290D01*
X151806765Y-127090577D01*
X152552146Y-127472170D01*
X153042069Y-127736334D01*
X153306334Y-127905039D01*
X153374742Y-128000260D01*
X153277096Y-128043966D01*
X153116250Y-128056036D01*
X152861927Y-128065015D01*
X152319227Y-128084045D01*
X151517079Y-128112116D01*
X150484414Y-128148215D01*
X149250162Y-128191334D01*
X147843253Y-128240460D01*
X146292616Y-128294585D01*
X144627181Y-128352696D01*
X142875880Y-128413783D01*
X142655895Y-128421455D01*
X140601353Y-128494005D01*
X138842071Y-128558402D01*
X137355951Y-128615932D01*
X136120893Y-128667881D01*
X135114797Y-128715536D01*
X134315565Y-128760184D01*
X133701096Y-128803111D01*
X133249293Y-128845603D01*
X132938055Y-128888948D01*
X132745283Y-128934430D01*
X132648879Y-128983338D01*
X132631915Y-129005000D01*
X132485846Y-129327491D01*
X132340361Y-129679687D01*
X132237741Y-129899154D01*
X132094343Y-130029317D01*
X131834846Y-130093694D01*
X131383931Y-130115801D01*
X130934340Y-130118680D01*
X130316689Y-130136804D01*
X129809349Y-130182511D01*
X129507523Y-130246595D01*
X129482890Y-130259038D01*
X129390044Y-130455529D01*
X129247103Y-130951262D01*
X129057217Y-131732472D01*
X128823535Y-132785399D01*
X128549205Y-134096278D01*
X128237376Y-135651348D01*
X128166710Y-136011294D01*
X127594136Y-138936747D01*
X127056342Y-141682365D01*
X126555683Y-144236182D01*
X126094515Y-146586237D01*
X125675195Y-148720565D01*
X125300077Y-150627203D01*
X124971518Y-152294188D01*
X124691872Y-153709555D01*
X124463497Y-154861341D01*
X124288748Y-155737582D01*
X124169981Y-156326316D01*
X124109550Y-156615578D01*
X124109044Y-156617823D01*
X123985625Y-157163772D01*
X120731250Y-158238533D01*
X119770057Y-158554793D01*
X118912170Y-158834823D01*
X118202781Y-159064056D01*
X117687082Y-159227925D01*
X117410264Y-159311861D01*
X117377057Y-159319771D01*
X117347401Y-159184677D01*
X117382457Y-158832904D01*
X117428697Y-158572187D01*
X117518091Y-158147225D01*
X117661132Y-157490337D01*
X117840716Y-156679113D01*
X118039740Y-155791143D01*
X118119823Y-155436875D01*
X118279436Y-154726412D01*
X118488109Y-153787897D01*
X118739544Y-152650287D01*
X119027441Y-151342540D01*
X119345502Y-149893613D01*
X119687427Y-148332463D01*
X120046917Y-146688050D01*
X120417675Y-144989330D01*
X120793400Y-143265262D01*
X121167794Y-141544802D01*
X121534559Y-139856909D01*
X121887394Y-138230541D01*
X122220002Y-136694655D01*
X122526083Y-135278209D01*
X122799339Y-134010160D01*
X123033470Y-132919467D01*
X123222179Y-132035087D01*
X123359165Y-131385978D01*
X123438130Y-131001098D01*
X123454910Y-130910000D01*
X123509375Y-130513125D01*
X121564687Y-130571418D01*
X120709240Y-130592965D01*
X120129205Y-130584338D01*
X119782677Y-130526202D01*
X119627752Y-130399225D01*
X119622526Y-130184070D01*
X119725096Y-129861405D01*
X119769685Y-129743215D01*
X119813349Y-129398862D01*
X119606542Y-129229360D01*
X119137930Y-129227138D01*
X119022951Y-129244241D01*
X118754152Y-129268234D01*
X118211843Y-129299992D01*
X117435599Y-129338113D01*
X116464991Y-129381191D01*
X115339593Y-129427824D01*
X114098977Y-129476607D01*
X112782716Y-129526137D01*
X111430384Y-129575009D01*
X110081552Y-129621820D01*
X108775795Y-129665167D01*
X107552685Y-129703644D01*
X106451794Y-129735849D01*
X105512697Y-129760377D01*
X104774964Y-129775825D01*
X104278171Y-129780789D01*
X104067260Y-129774793D01*
X103925895Y-129728009D01*
X103933510Y-129625858D01*
X104120021Y-129436578D01*
X104515348Y-129128408D01*
X105023655Y-128759461D01*
X105742817Y-128247161D01*
X106294895Y-127865137D01*
X106769787Y-127557206D01*
X107257392Y-127267185D01*
X107847606Y-126938892D01*
X108507500Y-126582199D01*
X110408693Y-125660462D01*
X112520460Y-124813325D01*
X114752282Y-124068335D01*
X117013645Y-123453040D01*
X119214033Y-122994988D01*
X121162044Y-122730896D01*
X121785838Y-122656966D01*
X122159069Y-122564768D01*
X122348656Y-122432545D01*
X122401133Y-122328020D01*
X122489619Y-122181052D01*
X122684935Y-122086408D01*
X123051486Y-122029060D01*
X123653679Y-121993986D01*
X123865648Y-121986365D01*
X125236243Y-121940625D01*
X125377424Y-121385000D01*
X125498707Y-120989554D01*
X125611760Y-120745466D01*
X125625239Y-120729981D01*
X125811520Y-120692732D01*
X126261513Y-120651410D01*
X126921521Y-120609521D01*
X127737849Y-120570571D01*
X128483583Y-120543367D01*
X131235291Y-120456147D01*
X131127748Y-121238073D01*
G37*
%TO.C,R6*%
X198948303Y-108202770D02*
X198612770Y-108538303D01*
X199687230Y-108941697D02*
X199351697Y-109277230D01*
%TO.C,D4*%
X118820000Y-125510000D02*
X118820000Y-128195000D01*
X118820000Y-128195000D02*
X120740000Y-128195000D01*
X120740000Y-128195000D02*
X120740000Y-125510000D01*
%TO.C,C13*%
X174752164Y-103420000D02*
X174967836Y-103420000D01*
X174752164Y-104140000D02*
X174967836Y-104140000D01*
%TO.C,C19*%
X172740000Y-105112164D02*
X172740000Y-105327836D01*
X173460000Y-105112164D02*
X173460000Y-105327836D01*
%TO.C,G\u002A\u002A\u002A*%
G36*
X102994961Y-95559195D02*
G01*
X102990983Y-95563172D01*
X102987006Y-95559195D01*
X102990983Y-95555218D01*
X102994961Y-95559195D01*
G37*
G36*
X104116602Y-95948985D02*
G01*
X104112625Y-95952963D01*
X104108647Y-95948985D01*
X104112625Y-95945008D01*
X104116602Y-95948985D01*
G37*
G36*
X103790451Y-95583060D02*
G01*
X103786474Y-95587037D01*
X103782496Y-95583060D01*
X103786474Y-95579082D01*
X103790451Y-95583060D01*
G37*
G36*
X104426843Y-95630789D02*
G01*
X104422866Y-95634767D01*
X104418888Y-95630789D01*
X104422866Y-95626812D01*
X104426843Y-95630789D01*
G37*
G36*
X103901809Y-95823376D02*
G01*
X103915595Y-95828666D01*
X103915418Y-95832619D01*
X103906267Y-95833639D01*
X103893038Y-95829270D01*
X103890346Y-95826426D01*
X103892891Y-95822361D01*
X103901809Y-95823376D01*
G37*
G36*
X103859394Y-95597644D02*
G01*
X103858302Y-95602373D01*
X103854090Y-95602947D01*
X103847543Y-95600036D01*
X103848787Y-95597644D01*
X103858228Y-95596692D01*
X103859394Y-95597644D01*
G37*
G36*
X104115373Y-95598210D02*
G01*
X104123913Y-95606220D01*
X104122161Y-95610824D01*
X104121049Y-95610902D01*
X104114321Y-95605252D01*
X104111865Y-95601718D01*
X104110927Y-95596274D01*
X104115373Y-95598210D01*
G37*
G36*
X102055007Y-95519801D02*
G01*
X102073724Y-95474492D01*
X102089405Y-95437033D01*
X102098391Y-95416007D01*
X102108428Y-95392557D01*
X102123518Y-95356834D01*
X102142646Y-95311267D01*
X102164792Y-95258290D01*
X102188939Y-95200332D01*
X102214070Y-95139827D01*
X102223241Y-95117698D01*
X102249966Y-95053224D01*
X102277388Y-94987150D01*
X102304201Y-94922622D01*
X102329096Y-94862786D01*
X102350765Y-94810786D01*
X102367901Y-94769768D01*
X102370440Y-94763705D01*
X102400950Y-94690787D01*
X102436422Y-94605828D01*
X102475748Y-94511494D01*
X102517820Y-94410451D01*
X102561530Y-94305366D01*
X102605771Y-94198903D01*
X102649433Y-94093729D01*
X102691411Y-93992510D01*
X102730595Y-93897911D01*
X102765877Y-93812599D01*
X102791941Y-93749455D01*
X102801146Y-93727223D01*
X102815612Y-93692407D01*
X102834466Y-93647102D01*
X102856834Y-93593403D01*
X102881842Y-93533405D01*
X102908616Y-93469203D01*
X102936284Y-93402891D01*
X102963971Y-93336567D01*
X102990804Y-93272323D01*
X103015908Y-93212256D01*
X103030778Y-93176702D01*
X103075243Y-93070340D01*
X103116288Y-92971994D01*
X103153415Y-92882867D01*
X103186123Y-92804159D01*
X103213914Y-92737072D01*
X103236288Y-92682806D01*
X103245787Y-92659633D01*
X103261634Y-92621127D01*
X103277278Y-92583551D01*
X103290581Y-92552027D01*
X103297338Y-92536332D01*
X103305324Y-92517672D01*
X103318269Y-92486932D01*
X103335074Y-92446747D01*
X103354639Y-92399748D01*
X103375867Y-92348568D01*
X103388686Y-92317573D01*
X103447047Y-92176486D01*
X103499589Y-92049859D01*
X103546439Y-91937395D01*
X103587722Y-91838797D01*
X103623566Y-91753767D01*
X103654095Y-91682008D01*
X103679438Y-91623223D01*
X103699719Y-91577114D01*
X103715065Y-91543385D01*
X103725603Y-91521738D01*
X103730271Y-91513484D01*
X103753959Y-91487954D01*
X103787268Y-91465565D01*
X103791479Y-91463399D01*
X103833349Y-91442534D01*
X104677720Y-91442534D01*
X104815563Y-91442530D01*
X104938416Y-91442549D01*
X105047199Y-91442631D01*
X105142834Y-91442817D01*
X105226239Y-91443151D01*
X105298335Y-91443672D01*
X105360042Y-91444424D01*
X105412281Y-91445448D01*
X105455971Y-91446785D01*
X105492033Y-91448477D01*
X105521387Y-91450566D01*
X105544952Y-91453094D01*
X105563650Y-91456102D01*
X105578400Y-91459632D01*
X105590123Y-91463725D01*
X105599739Y-91468424D01*
X105608167Y-91473770D01*
X105616328Y-91479805D01*
X105623600Y-91485399D01*
X105652850Y-91516727D01*
X105674132Y-91557776D01*
X105685053Y-91603367D01*
X105685990Y-91620564D01*
X105685366Y-91631863D01*
X105683126Y-91645081D01*
X105678715Y-91661612D01*
X105671582Y-91682851D01*
X105661173Y-91710194D01*
X105646936Y-91745035D01*
X105628317Y-91788770D01*
X105604764Y-91842793D01*
X105575723Y-91908499D01*
X105540642Y-91987283D01*
X105540502Y-91987597D01*
X105508173Y-92060056D01*
X105475998Y-92132200D01*
X105444956Y-92201837D01*
X105416023Y-92266774D01*
X105390174Y-92324818D01*
X105368389Y-92373778D01*
X105351642Y-92411461D01*
X105345651Y-92424964D01*
X105331905Y-92455895D01*
X105312565Y-92499294D01*
X105288550Y-92553109D01*
X105260777Y-92615291D01*
X105230162Y-92683790D01*
X105197623Y-92756555D01*
X105164077Y-92831537D01*
X105130442Y-92906686D01*
X105097634Y-92979951D01*
X105066571Y-93049282D01*
X105038170Y-93112631D01*
X105013348Y-93167945D01*
X104993023Y-93213176D01*
X104987958Y-93224431D01*
X104980320Y-93241402D01*
X104972853Y-93258004D01*
X104965031Y-93275419D01*
X104956325Y-93294825D01*
X104946207Y-93317404D01*
X104934151Y-93344334D01*
X104919627Y-93376795D01*
X104902108Y-93415967D01*
X104881067Y-93463031D01*
X104855975Y-93519165D01*
X104826306Y-93585550D01*
X104791530Y-93663365D01*
X104751120Y-93753791D01*
X104722841Y-93817072D01*
X104686297Y-93898818D01*
X104645189Y-93990715D01*
X104601472Y-94088400D01*
X104557099Y-94187510D01*
X104514023Y-94283680D01*
X104474197Y-94372549D01*
X104451616Y-94422911D01*
X104422516Y-94487904D01*
X104395543Y-94548355D01*
X104371375Y-94602732D01*
X104350689Y-94649501D01*
X104334161Y-94687130D01*
X104322468Y-94714087D01*
X104316287Y-94728840D01*
X104315475Y-94731163D01*
X104323235Y-94731880D01*
X104345739Y-94732564D01*
X104381820Y-94733206D01*
X104430312Y-94733798D01*
X104490048Y-94734332D01*
X104559862Y-94734800D01*
X104638588Y-94735193D01*
X104725059Y-94735503D01*
X104818110Y-94735722D01*
X104916573Y-94735842D01*
X104978737Y-94735863D01*
X105099050Y-94735857D01*
X105204509Y-94735879D01*
X105296169Y-94735986D01*
X105375086Y-94736235D01*
X105442315Y-94736685D01*
X105498912Y-94737393D01*
X105545932Y-94738417D01*
X105584431Y-94739813D01*
X105615465Y-94741641D01*
X105640088Y-94743958D01*
X105659357Y-94746820D01*
X105674327Y-94750287D01*
X105686053Y-94754416D01*
X105695591Y-94759263D01*
X105703997Y-94764888D01*
X105712326Y-94771347D01*
X105718523Y-94776276D01*
X105745764Y-94806794D01*
X105765417Y-94846855D01*
X105776186Y-94891447D01*
X105776773Y-94935555D01*
X105768347Y-94968799D01*
X105762279Y-94979935D01*
X105748704Y-95002328D01*
X105727500Y-95036168D01*
X105698543Y-95081647D01*
X105661708Y-95138957D01*
X105616872Y-95208287D01*
X105563912Y-95289830D01*
X105502703Y-95383777D01*
X105433122Y-95490319D01*
X105355044Y-95609647D01*
X105268346Y-95741953D01*
X105226473Y-95805797D01*
X105167309Y-95895988D01*
X105116128Y-95974029D01*
X105072178Y-96041067D01*
X105034707Y-96098251D01*
X105002962Y-96146727D01*
X104976194Y-96187643D01*
X104953649Y-96222147D01*
X104934576Y-96251387D01*
X104929469Y-96259226D01*
X104905192Y-96296476D01*
X104875663Y-96341740D01*
X104844339Y-96389719D01*
X104814679Y-96435113D01*
X104810053Y-96442189D01*
X104779941Y-96488261D01*
X104746540Y-96539391D01*
X104713713Y-96589663D01*
X104685326Y-96633159D01*
X104682766Y-96637084D01*
X104660233Y-96671555D01*
X104631242Y-96715794D01*
X104598097Y-96766290D01*
X104563105Y-96819532D01*
X104528571Y-96872009D01*
X104518258Y-96887664D01*
X104489353Y-96931610D01*
X104453539Y-96986187D01*
X104412584Y-97048694D01*
X104368258Y-97116426D01*
X104322330Y-97186681D01*
X104276568Y-97256756D01*
X104234529Y-97321206D01*
X104155252Y-97442783D01*
X104084458Y-97551260D01*
X104022169Y-97646604D01*
X103968406Y-97728782D01*
X103923191Y-97797762D01*
X103886545Y-97853511D01*
X103858490Y-97895994D01*
X103839048Y-97925181D01*
X103830554Y-97937711D01*
X103822120Y-97950311D01*
X103805888Y-97974896D01*
X103782741Y-98010118D01*
X103753561Y-98054627D01*
X103719232Y-98107076D01*
X103680636Y-98166117D01*
X103638656Y-98230401D01*
X103594175Y-98298579D01*
X103570133Y-98335456D01*
X103520248Y-98411947D01*
X103468805Y-98490751D01*
X103417248Y-98569661D01*
X103367018Y-98646471D01*
X103319560Y-98718976D01*
X103276317Y-98784970D01*
X103238731Y-98842248D01*
X103208246Y-98888603D01*
X103205811Y-98892299D01*
X103168595Y-98948874D01*
X103125133Y-99015111D01*
X103077835Y-99087325D01*
X103029114Y-99161831D01*
X102981381Y-99234942D01*
X102937047Y-99302973D01*
X102927343Y-99317886D01*
X102857612Y-99424928D01*
X102791444Y-99526201D01*
X102729316Y-99620988D01*
X102671705Y-99708571D01*
X102619088Y-99788234D01*
X102571942Y-99859260D01*
X102530744Y-99920930D01*
X102495970Y-99972529D01*
X102468097Y-100013339D01*
X102447603Y-100042642D01*
X102434964Y-100059721D01*
X102431341Y-100063810D01*
X102389623Y-100088600D01*
X102341956Y-100102041D01*
X102293024Y-100103472D01*
X102247508Y-100092233D01*
X102243223Y-100090340D01*
X102200495Y-100062179D01*
X102167817Y-100023085D01*
X102156141Y-100000274D01*
X102147114Y-99971403D01*
X102144069Y-99940038D01*
X102147306Y-99903458D01*
X102157129Y-99858946D01*
X102173838Y-99803782D01*
X102179935Y-99785636D01*
X102188489Y-99760394D01*
X102201556Y-99721555D01*
X102218634Y-99670621D01*
X102239222Y-99609093D01*
X102262818Y-99538474D01*
X102288920Y-99460266D01*
X102317028Y-99375970D01*
X102346638Y-99287089D01*
X102377250Y-99195123D01*
X102399920Y-99126968D01*
X102426526Y-99046962D01*
X102457606Y-98953516D01*
X102492609Y-98848285D01*
X102530983Y-98732925D01*
X102572180Y-98609091D01*
X102615647Y-98478438D01*
X102660834Y-98342622D01*
X102707190Y-98203299D01*
X102754165Y-98062123D01*
X102801207Y-97920750D01*
X102847766Y-97780836D01*
X102893292Y-97644036D01*
X102917337Y-97571785D01*
X102958329Y-97448595D01*
X102998217Y-97328680D01*
X103036683Y-97213003D01*
X103073407Y-97102525D01*
X103108069Y-96998210D01*
X103140350Y-96901019D01*
X103169932Y-96811914D01*
X103196493Y-96731858D01*
X103219715Y-96661813D01*
X103239278Y-96602742D01*
X103254864Y-96555606D01*
X103266151Y-96521369D01*
X103272822Y-96500991D01*
X103273828Y-96497873D01*
X103283450Y-96468233D01*
X103296999Y-96427082D01*
X103313295Y-96377973D01*
X103331158Y-96324464D01*
X103349407Y-96270110D01*
X103353075Y-96259226D01*
X103371207Y-96205338D01*
X103389164Y-96151762D01*
X103405775Y-96102001D01*
X103419873Y-96059559D01*
X103430287Y-96027939D01*
X103431916Y-96022940D01*
X103454424Y-95953706D01*
X102798511Y-95953333D01*
X102696974Y-95953215D01*
X102599475Y-95952982D01*
X102507266Y-95952646D01*
X102421597Y-95952217D01*
X102343718Y-95951703D01*
X102274880Y-95951116D01*
X102216334Y-95950466D01*
X102169329Y-95949761D01*
X102135117Y-95949013D01*
X102114947Y-95948231D01*
X102110554Y-95947836D01*
X102068902Y-95934099D01*
X102029586Y-95908612D01*
X101997868Y-95875264D01*
X101985954Y-95855765D01*
X101974202Y-95830593D01*
X101966582Y-95808543D01*
X101963426Y-95786913D01*
X101965061Y-95763006D01*
X101971817Y-95734121D01*
X101984024Y-95697558D01*
X102002012Y-95650617D01*
X102014927Y-95618306D01*
X102021908Y-95601062D01*
X102406298Y-95601062D01*
X102413979Y-95601769D01*
X102435929Y-95602203D01*
X102470510Y-95602371D01*
X102516084Y-95602276D01*
X102571013Y-95601926D01*
X102633659Y-95601326D01*
X102702384Y-95600481D01*
X102742393Y-95599911D01*
X102814510Y-95598866D01*
X102882072Y-95597949D01*
X102943336Y-95597179D01*
X102996559Y-95596575D01*
X103039998Y-95596157D01*
X103071910Y-95595943D01*
X103090551Y-95595952D01*
X103094397Y-95596050D01*
X103118252Y-95597004D01*
X103152129Y-95597329D01*
X103192907Y-95597103D01*
X103237464Y-95596405D01*
X103282680Y-95595315D01*
X103325434Y-95593911D01*
X103362603Y-95592274D01*
X103391067Y-95590482D01*
X103407705Y-95588615D01*
X103409965Y-95588036D01*
X103428784Y-95585744D01*
X103439354Y-95592602D01*
X103455869Y-95600343D01*
X103471173Y-95598274D01*
X103490219Y-95595599D01*
X103521325Y-95594177D01*
X103560696Y-95593923D01*
X103604539Y-95594748D01*
X103649060Y-95596568D01*
X103690464Y-95599296D01*
X103724959Y-95602845D01*
X103734767Y-95604277D01*
X103780382Y-95616934D01*
X103814951Y-95639453D01*
X103841244Y-95674024D01*
X103852553Y-95697465D01*
X103860738Y-95721537D01*
X103867620Y-95749906D01*
X103872610Y-95778532D01*
X103875122Y-95803374D01*
X103874570Y-95820390D01*
X103871175Y-95825684D01*
X103866066Y-95832802D01*
X103858378Y-95851799D01*
X103849472Y-95879139D01*
X103845958Y-95891312D01*
X103836829Y-95922328D01*
X103828452Y-95947782D01*
X103822238Y-95963481D01*
X103820862Y-95965862D01*
X103817839Y-95973998D01*
X103810107Y-95996309D01*
X103797973Y-96031870D01*
X103781746Y-96079758D01*
X103761734Y-96139050D01*
X103738244Y-96208821D01*
X103711586Y-96288149D01*
X103682067Y-96376110D01*
X103649995Y-96471779D01*
X103615678Y-96574234D01*
X103579426Y-96682551D01*
X103541545Y-96795806D01*
X103502344Y-96913075D01*
X103462131Y-97033436D01*
X103421215Y-97155964D01*
X103379903Y-97279736D01*
X103338503Y-97403828D01*
X103297325Y-97527317D01*
X103256675Y-97649280D01*
X103216862Y-97768791D01*
X103178194Y-97884929D01*
X103140980Y-97996769D01*
X103105527Y-98103387D01*
X103072144Y-98203861D01*
X103041138Y-98297266D01*
X103012819Y-98382680D01*
X102987493Y-98459177D01*
X102965470Y-98525835D01*
X102947057Y-98581731D01*
X102932563Y-98625940D01*
X102922295Y-98657539D01*
X102916563Y-98675604D01*
X102915412Y-98679687D01*
X102917141Y-98678274D01*
X102922606Y-98670999D01*
X102932226Y-98657231D01*
X102946419Y-98636336D01*
X102965602Y-98607681D01*
X102990192Y-98570635D01*
X103020609Y-98524564D01*
X103057270Y-98468835D01*
X103100593Y-98402817D01*
X103150995Y-98325875D01*
X103208895Y-98237378D01*
X103274711Y-98136693D01*
X103334546Y-98045102D01*
X103384891Y-97968033D01*
X103435283Y-97890913D01*
X103484582Y-97815487D01*
X103531648Y-97743498D01*
X103575340Y-97676689D01*
X103614517Y-97616805D01*
X103648040Y-97565589D01*
X103674768Y-97524784D01*
X103688287Y-97504168D01*
X103719439Y-97456661D01*
X103751105Y-97408302D01*
X103780976Y-97362626D01*
X103806739Y-97323165D01*
X103826085Y-97293454D01*
X103826144Y-97293363D01*
X103839872Y-97272278D01*
X103861242Y-97239525D01*
X103889179Y-97196747D01*
X103922609Y-97145588D01*
X103960458Y-97087689D01*
X104001652Y-97024696D01*
X104045119Y-96958249D01*
X104089783Y-96889993D01*
X104091307Y-96887664D01*
X104136571Y-96818491D01*
X104181149Y-96750348D01*
X104223891Y-96684994D01*
X104263645Y-96624189D01*
X104299261Y-96569693D01*
X104329589Y-96523267D01*
X104353478Y-96486670D01*
X104369508Y-96462076D01*
X104398589Y-96417447D01*
X104431432Y-96367129D01*
X104463627Y-96317876D01*
X104486401Y-96283091D01*
X104541538Y-96198919D01*
X104589481Y-96125616D01*
X104629953Y-96063609D01*
X104662676Y-96013326D01*
X104687373Y-95975191D01*
X104703765Y-95949633D01*
X104709827Y-95939979D01*
X104719152Y-95925298D01*
X104735501Y-95900049D01*
X104757115Y-95866929D01*
X104782233Y-95828636D01*
X104804701Y-95794526D01*
X104982479Y-95524505D01*
X105155178Y-95260917D01*
X105164248Y-95247036D01*
X105269238Y-95086331D01*
X104631269Y-95084116D01*
X103993301Y-95081901D01*
X103959141Y-95062340D01*
X103921724Y-95032329D01*
X103893259Y-94992254D01*
X103875625Y-94946162D01*
X103870703Y-94898100D01*
X103873097Y-94877115D01*
X103877434Y-94863955D01*
X103887573Y-94838159D01*
X103902728Y-94801573D01*
X103922115Y-94756044D01*
X103944949Y-94703418D01*
X103970444Y-94645542D01*
X103994036Y-94592674D01*
X104022503Y-94529198D01*
X104056072Y-94454251D01*
X104093372Y-94370894D01*
X104133035Y-94282192D01*
X104173691Y-94191206D01*
X104213971Y-94101001D01*
X104252506Y-94014639D01*
X104271432Y-93972192D01*
X104303745Y-93899727D01*
X104334563Y-93830660D01*
X104363185Y-93766557D01*
X104388910Y-93708986D01*
X104411039Y-93659512D01*
X104428872Y-93619701D01*
X104441708Y-93591119D01*
X104448848Y-93575332D01*
X104449254Y-93574447D01*
X104458169Y-93554854D01*
X104472714Y-93522617D01*
X104492045Y-93479624D01*
X104515318Y-93427764D01*
X104541688Y-93368925D01*
X104570312Y-93304995D01*
X104600344Y-93237863D01*
X104630942Y-93169418D01*
X104661260Y-93101547D01*
X104690454Y-93036140D01*
X104717680Y-92975085D01*
X104742094Y-92920270D01*
X104762851Y-92873583D01*
X104779108Y-92836914D01*
X104788879Y-92814754D01*
X104806789Y-92774078D01*
X104824467Y-92734190D01*
X104839856Y-92699711D01*
X104850775Y-92675543D01*
X104870996Y-92631228D01*
X104893190Y-92582387D01*
X104916435Y-92531069D01*
X104939810Y-92479324D01*
X104962392Y-92429201D01*
X104983261Y-92382750D01*
X105001495Y-92342019D01*
X105016171Y-92309057D01*
X105026368Y-92285915D01*
X105031166Y-92274642D01*
X105031416Y-92273893D01*
X105034520Y-92265851D01*
X105042788Y-92246947D01*
X105054654Y-92220735D01*
X105059258Y-92210729D01*
X105072000Y-92182790D01*
X105081677Y-92160901D01*
X105086720Y-92148634D01*
X105087100Y-92147289D01*
X105090242Y-92139170D01*
X105098666Y-92120035D01*
X105110870Y-92093261D01*
X105118081Y-92077717D01*
X105136744Y-92037332D01*
X105156556Y-91993817D01*
X105176421Y-91949651D01*
X105195244Y-91907316D01*
X105211930Y-91869291D01*
X105225383Y-91838055D01*
X105234509Y-91816089D01*
X105238213Y-91805872D01*
X105238243Y-91805602D01*
X105230489Y-91804811D01*
X105208026Y-91804108D01*
X105172056Y-91803498D01*
X105123781Y-91802988D01*
X105064401Y-91802583D01*
X104995119Y-91802290D01*
X104917135Y-91802114D01*
X104831650Y-91802062D01*
X104739867Y-91802140D01*
X104642987Y-91802353D01*
X104613080Y-91802445D01*
X103987916Y-91804482D01*
X103930397Y-91943692D01*
X103911263Y-91989878D01*
X103887535Y-92046954D01*
X103860788Y-92111145D01*
X103832595Y-92178676D01*
X103804532Y-92245772D01*
X103782777Y-92297685D01*
X103758764Y-92354966D01*
X103735832Y-92409737D01*
X103714970Y-92459631D01*
X103697168Y-92502282D01*
X103683413Y-92535323D01*
X103674694Y-92556386D01*
X103673947Y-92558208D01*
X103659582Y-92593128D01*
X103643801Y-92631251D01*
X103636127Y-92649690D01*
X103625442Y-92675292D01*
X103610621Y-92710803D01*
X103593656Y-92751450D01*
X103577196Y-92790889D01*
X103559434Y-92833354D01*
X103541283Y-92876596D01*
X103524979Y-92915295D01*
X103513651Y-92942032D01*
X103501776Y-92970209D01*
X103485771Y-93008576D01*
X103467522Y-93052595D01*
X103448912Y-93097730D01*
X103444249Y-93109085D01*
X103426977Y-93151012D01*
X103410652Y-93190341D01*
X103396777Y-93223473D01*
X103386854Y-93246812D01*
X103384471Y-93252274D01*
X103377825Y-93267761D01*
X103366022Y-93295753D01*
X103349981Y-93334052D01*
X103330619Y-93380460D01*
X103308857Y-93432778D01*
X103285611Y-93488807D01*
X103281440Y-93498876D01*
X103256127Y-93559907D01*
X103230410Y-93621750D01*
X103205599Y-93681267D01*
X103183002Y-93735323D01*
X103163929Y-93780782D01*
X103150288Y-93813094D01*
X103131206Y-93858287D01*
X103108634Y-93912099D01*
X103085123Y-93968432D01*
X103063222Y-94021186D01*
X103058812Y-94031854D01*
X103021699Y-94121553D01*
X102985550Y-94208542D01*
X102948375Y-94297592D01*
X102908182Y-94393477D01*
X102880315Y-94459781D01*
X102860587Y-94506892D01*
X102840938Y-94554183D01*
X102823097Y-94597469D01*
X102808792Y-94632566D01*
X102803114Y-94646721D01*
X102789547Y-94680338D01*
X102776156Y-94712631D01*
X102765558Y-94737301D01*
X102764423Y-94739840D01*
X102756195Y-94758705D01*
X102742818Y-94790105D01*
X102725199Y-94831864D01*
X102704245Y-94881804D01*
X102680863Y-94937750D01*
X102655961Y-94997524D01*
X102630446Y-95058949D01*
X102605224Y-95119850D01*
X102581202Y-95178049D01*
X102559289Y-95231369D01*
X102544634Y-95267215D01*
X102530344Y-95301859D01*
X102516274Y-95335280D01*
X102504938Y-95361523D01*
X102502652Y-95366652D01*
X102493096Y-95388464D01*
X102480373Y-95418361D01*
X102465726Y-95453322D01*
X102450397Y-95490322D01*
X102435630Y-95526340D01*
X102422666Y-95558351D01*
X102412748Y-95583334D01*
X102407118Y-95598266D01*
X102406298Y-95601062D01*
X102021908Y-95601062D01*
X102034870Y-95569044D01*
X102055007Y-95519801D01*
G37*
G36*
X104703051Y-95672505D02*
G01*
X104703075Y-95672695D01*
X104704374Y-95698637D01*
X104702994Y-95720424D01*
X104701336Y-95724818D01*
X104700179Y-95715353D01*
X104699775Y-95694428D01*
X104700253Y-95674014D01*
X104701429Y-95666150D01*
X104703051Y-95672505D01*
G37*
G36*
X102835863Y-95384187D02*
G01*
X102831885Y-95388165D01*
X102827908Y-95384187D01*
X102831885Y-95380210D01*
X102835863Y-95384187D01*
G37*
G36*
X104259790Y-95837617D02*
G01*
X104255813Y-95841594D01*
X104251835Y-95837617D01*
X104255813Y-95833639D01*
X104259790Y-95837617D01*
G37*
G36*
X103980050Y-95763747D02*
G01*
X103981369Y-95765171D01*
X103975148Y-95770301D01*
X103969436Y-95772877D01*
X103959193Y-95773042D01*
X103957504Y-95769750D01*
X103963951Y-95762913D01*
X103969436Y-95762045D01*
X103980050Y-95763747D01*
G37*
G36*
X102994961Y-95543285D02*
G01*
X102990983Y-95547263D01*
X102987006Y-95543285D01*
X102990983Y-95539308D01*
X102994961Y-95543285D01*
G37*
G36*
X104721175Y-95622834D02*
G01*
X104717197Y-95626812D01*
X104713220Y-95622834D01*
X104717197Y-95618857D01*
X104721175Y-95622834D01*
G37*
G36*
X104283655Y-95821707D02*
G01*
X104279678Y-95825684D01*
X104275700Y-95821707D01*
X104279678Y-95817729D01*
X104283655Y-95821707D01*
G37*
G36*
X104275700Y-95575105D02*
G01*
X104271723Y-95579082D01*
X104267745Y-95575105D01*
X104271723Y-95571127D01*
X104275700Y-95575105D01*
G37*
G36*
X104530257Y-95559195D02*
G01*
X104526279Y-95563172D01*
X104522302Y-95559195D01*
X104526279Y-95555218D01*
X104530257Y-95559195D01*
G37*
G36*
X102939277Y-95487601D02*
G01*
X102935299Y-95491578D01*
X102931322Y-95487601D01*
X102935299Y-95483623D01*
X102939277Y-95487601D01*
G37*
G36*
X103368841Y-95543285D02*
G01*
X103364864Y-95547263D01*
X103360886Y-95543285D01*
X103364864Y-95539308D01*
X103368841Y-95543285D01*
G37*
G36*
X103363908Y-95494015D02*
G01*
X103368841Y-95498692D01*
X103362067Y-95503638D01*
X103348960Y-95504658D01*
X103333989Y-95501744D01*
X103329072Y-95497545D01*
X103335886Y-95493057D01*
X103348954Y-95491578D01*
X103363908Y-95494015D01*
G37*
G36*
X104312823Y-95756742D02*
G01*
X104313775Y-95766182D01*
X104312823Y-95767348D01*
X104308094Y-95766256D01*
X104307520Y-95762045D01*
X104310430Y-95755497D01*
X104312823Y-95756742D01*
G37*
%TO.C,C16*%
X167950000Y-106422164D02*
X167950000Y-106637836D01*
X168670000Y-106422164D02*
X168670000Y-106637836D01*
%TO.C,J3*%
X114765000Y-80930000D02*
X116095000Y-80930000D01*
X113435000Y-91210000D02*
X116095000Y-91210000D01*
X113435000Y-83530000D02*
X116095000Y-83530000D01*
X116095000Y-83530000D02*
X116095000Y-91210000D01*
X116095000Y-80930000D02*
X116095000Y-82260000D01*
X113435000Y-83530000D02*
X113435000Y-91210000D01*
%TO.C,U1*%
X189030000Y-98327500D02*
X185270000Y-98327500D01*
X185270000Y-98327500D02*
X185270000Y-99587500D01*
X185270000Y-105147500D02*
X185270000Y-103887500D01*
X191280000Y-105147500D02*
X185270000Y-105147500D01*
%TO.C,G\u002A\u002A\u002A*%
G36*
X88294280Y-118833013D02*
G01*
X88338920Y-118835694D01*
X88354551Y-118840126D01*
X88354554Y-118840193D01*
X88351818Y-118863260D01*
X88344557Y-118916856D01*
X88334186Y-118990598D01*
X88331110Y-119012096D01*
X88320002Y-119093224D01*
X88311736Y-119160731D01*
X88307795Y-119202314D01*
X88307656Y-119206669D01*
X88311051Y-119216507D01*
X88323587Y-119223873D01*
X88348774Y-119228991D01*
X88390124Y-119232086D01*
X88451148Y-119233381D01*
X88535359Y-119233102D01*
X88646266Y-119231471D01*
X88684854Y-119230760D01*
X89062064Y-119223596D01*
X89052308Y-119272434D01*
X89040348Y-119331423D01*
X89033437Y-119364860D01*
X89031211Y-119380645D01*
X89034898Y-119392341D01*
X89048680Y-119400850D01*
X89076734Y-119407077D01*
X89123241Y-119411923D01*
X89192379Y-119416293D01*
X89288327Y-119421090D01*
X89295131Y-119421416D01*
X89543272Y-119442167D01*
X89814261Y-119480957D01*
X90103301Y-119536360D01*
X90405597Y-119606951D01*
X90716353Y-119691307D01*
X91030774Y-119788001D01*
X91344063Y-119895610D01*
X91651425Y-120012708D01*
X91948064Y-120137872D01*
X92229185Y-120269675D01*
X92340400Y-120326111D01*
X92407168Y-120362212D01*
X92485096Y-120406563D01*
X92569614Y-120456314D01*
X92656156Y-120508612D01*
X92740154Y-120560605D01*
X92817040Y-120609440D01*
X92882248Y-120652265D01*
X92931209Y-120686228D01*
X92959357Y-120708477D01*
X92964172Y-120715639D01*
X92947418Y-120721075D01*
X92904851Y-120726722D01*
X92835749Y-120732618D01*
X92739389Y-120738803D01*
X92615045Y-120745317D01*
X92461996Y-120752200D01*
X92279518Y-120759491D01*
X92066887Y-120767229D01*
X91941815Y-120771521D01*
X91811199Y-120775951D01*
X91653683Y-120781340D01*
X91473617Y-120787535D01*
X91275351Y-120794386D01*
X91063235Y-120801742D01*
X90841619Y-120809453D01*
X90614853Y-120817366D01*
X90387288Y-120825330D01*
X90163274Y-120833196D01*
X89988105Y-120839366D01*
X88722149Y-120884028D01*
X88681230Y-121081977D01*
X88640312Y-121279926D01*
X88318980Y-121290347D01*
X88221858Y-121294060D01*
X88135609Y-121298431D01*
X88065029Y-121303128D01*
X88014910Y-121307820D01*
X87990048Y-121312176D01*
X87988336Y-121313180D01*
X87983524Y-121335591D01*
X87973478Y-121394759D01*
X87958836Y-121486514D01*
X87940240Y-121606681D01*
X87918330Y-121751090D01*
X87893746Y-121915566D01*
X87867129Y-122095938D01*
X87846031Y-122240413D01*
X87813773Y-122462226D01*
X87779390Y-122698493D01*
X87744198Y-122940189D01*
X87709512Y-123178287D01*
X87676647Y-123403763D01*
X87646918Y-123607589D01*
X87621639Y-123780740D01*
X87618654Y-123801173D01*
X87571747Y-124122180D01*
X87524510Y-124445427D01*
X87477611Y-124766334D01*
X87431722Y-125080319D01*
X87387510Y-125382800D01*
X87345647Y-125669195D01*
X87306801Y-125934923D01*
X87271643Y-126175402D01*
X87240842Y-126386052D01*
X87215067Y-126562289D01*
X87205960Y-126624553D01*
X87188765Y-126742267D01*
X87166584Y-126894378D01*
X87140366Y-127074369D01*
X87111060Y-127275723D01*
X87079613Y-127491919D01*
X87046974Y-127716442D01*
X87014092Y-127942773D01*
X86986150Y-128135217D01*
X86956572Y-128337920D01*
X86928522Y-128528114D01*
X86902595Y-128701894D01*
X86879388Y-128855354D01*
X86859499Y-128984589D01*
X86843524Y-129085695D01*
X86832059Y-129154766D01*
X86825703Y-129187896D01*
X86824923Y-129190196D01*
X86807712Y-129200099D01*
X86765106Y-129220491D01*
X86701534Y-129249375D01*
X86621428Y-129284752D01*
X86529217Y-129324625D01*
X86486677Y-129342770D01*
X86370858Y-129392036D01*
X86246663Y-129444981D01*
X86123648Y-129497523D01*
X86011369Y-129545581D01*
X85919835Y-129584879D01*
X85815703Y-129628992D01*
X85738294Y-129659988D01*
X85684876Y-129678715D01*
X85652718Y-129686023D01*
X85639089Y-129682758D01*
X85640319Y-129671671D01*
X85645678Y-129647437D01*
X85656509Y-129588629D01*
X85671739Y-129501423D01*
X85690297Y-129391997D01*
X85711110Y-129266527D01*
X85718972Y-129218472D01*
X85738191Y-129100837D01*
X85762952Y-128949677D01*
X85792078Y-128772165D01*
X85824390Y-128575477D01*
X85858708Y-128366786D01*
X85893855Y-128153265D01*
X85928651Y-127942089D01*
X85939753Y-127874758D01*
X85972860Y-127673942D01*
X86005594Y-127475229D01*
X86036976Y-127284571D01*
X86066027Y-127107925D01*
X86091769Y-126951244D01*
X86113222Y-126820483D01*
X86129407Y-126721596D01*
X86135040Y-126687063D01*
X86154589Y-126567210D01*
X86178451Y-126421254D01*
X86204238Y-126263796D01*
X86229559Y-126109438D01*
X86242493Y-126030706D01*
X86269322Y-125867532D01*
X86301736Y-125670430D01*
X86338627Y-125446130D01*
X86378888Y-125201364D01*
X86421412Y-124942860D01*
X86465092Y-124677350D01*
X86508820Y-124411564D01*
X86551490Y-124152233D01*
X86591993Y-123906086D01*
X86629222Y-123679855D01*
X86662071Y-123480270D01*
X86689431Y-123314062D01*
X86691567Y-123301091D01*
X86721782Y-123117558D01*
X86756109Y-122909024D01*
X86791963Y-122691193D01*
X86826760Y-122479768D01*
X86857915Y-122290452D01*
X86863049Y-122259254D01*
X86888384Y-122105413D01*
X86913351Y-121954033D01*
X86936590Y-121813353D01*
X86956737Y-121691609D01*
X86972433Y-121597040D01*
X86979537Y-121554439D01*
X86993212Y-121470491D01*
X87003764Y-121401481D01*
X87009622Y-121357888D01*
X87010308Y-121349345D01*
X86995290Y-121342621D01*
X86950082Y-121338494D01*
X86874449Y-121336961D01*
X86768158Y-121338017D01*
X86630974Y-121341661D01*
X86580461Y-121343375D01*
X86468222Y-121347002D01*
X86366914Y-121349606D01*
X86280526Y-121351138D01*
X86213044Y-121351550D01*
X86168458Y-121350795D01*
X86150754Y-121348823D01*
X86150615Y-121348572D01*
X86155268Y-121324939D01*
X86167292Y-121274305D01*
X86179440Y-121225887D01*
X86197754Y-121151347D01*
X86213191Y-121083432D01*
X86219226Y-121053746D01*
X86230187Y-120994260D01*
X86022371Y-121007801D01*
X85957776Y-121011764D01*
X85867111Y-121016971D01*
X85755542Y-121023144D01*
X85628239Y-121030003D01*
X85490371Y-121037271D01*
X85347106Y-121044667D01*
X85220584Y-121051066D01*
X85082221Y-121058002D01*
X84918758Y-121066218D01*
X84736334Y-121075403D01*
X84541087Y-121085248D01*
X84339157Y-121095444D01*
X84136682Y-121105680D01*
X83939801Y-121115646D01*
X83769156Y-121124297D01*
X83608473Y-121132266D01*
X83457326Y-121139406D01*
X83318569Y-121145605D01*
X83195058Y-121150755D01*
X83089648Y-121154743D01*
X83005194Y-121157460D01*
X82944552Y-121158795D01*
X82910575Y-121158637D01*
X82904176Y-121157779D01*
X82913633Y-121143385D01*
X82945183Y-121111118D01*
X82994307Y-121064973D01*
X83056485Y-121008943D01*
X83127197Y-120947021D01*
X83201924Y-120883201D01*
X83276147Y-120821475D01*
X83345345Y-120765839D01*
X83365875Y-120749829D01*
X83446285Y-120690219D01*
X83547994Y-120618640D01*
X83663689Y-120539921D01*
X83786058Y-120458890D01*
X83907790Y-120380373D01*
X84021573Y-120309199D01*
X84120095Y-120250195D01*
X84139594Y-120238987D01*
X84471159Y-120061927D01*
X84808462Y-119904234D01*
X85146558Y-119767642D01*
X85480501Y-119653890D01*
X85805345Y-119564715D01*
X86116144Y-119501854D01*
X86313572Y-119475374D01*
X86425155Y-119463464D01*
X86509602Y-119453177D01*
X86570962Y-119443203D01*
X86613284Y-119432235D01*
X86640617Y-119418964D01*
X86657009Y-119402082D01*
X86666509Y-119380279D01*
X86671602Y-119359654D01*
X86685528Y-119294923D01*
X87288096Y-119264805D01*
X87376044Y-118858831D01*
X87712899Y-118845271D01*
X87869607Y-118839455D01*
X88008297Y-118835305D01*
X88126771Y-118832836D01*
X88222832Y-118832066D01*
X88294280Y-118833013D01*
G37*
G36*
X86383575Y-121982627D02*
G01*
X86409069Y-121984076D01*
X86411058Y-121984810D01*
X86410693Y-122008172D01*
X86403748Y-122064655D01*
X86391290Y-122146972D01*
X86374383Y-122247835D01*
X86364199Y-122305132D01*
X86341583Y-122430335D01*
X86314275Y-122582017D01*
X86284803Y-122746109D01*
X86255694Y-122908545D01*
X86235804Y-123019795D01*
X86159300Y-123445804D01*
X86082981Y-123866040D01*
X86007327Y-124278049D01*
X85932816Y-124679379D01*
X85859928Y-125067574D01*
X85789142Y-125440182D01*
X85720937Y-125794750D01*
X85655792Y-126128823D01*
X85594187Y-126439948D01*
X85536600Y-126725672D01*
X85483511Y-126983540D01*
X85435398Y-127211101D01*
X85392742Y-127405899D01*
X85356021Y-127565481D01*
X85325714Y-127687394D01*
X85320413Y-127707229D01*
X85231950Y-127973636D01*
X85117935Y-128217436D01*
X84979715Y-128437260D01*
X84818637Y-128631739D01*
X84636046Y-128799503D01*
X84433290Y-128939185D01*
X84211713Y-129049414D01*
X83972663Y-129128823D01*
X83907187Y-129144389D01*
X83728794Y-129176889D01*
X83564653Y-129191816D01*
X83401009Y-129190118D01*
X83326457Y-129184427D01*
X83150666Y-129148484D01*
X82988489Y-129075890D01*
X82841056Y-128968204D01*
X82709499Y-128826983D01*
X82594948Y-128653784D01*
X82498533Y-128450163D01*
X82421386Y-128217678D01*
X82364637Y-127957887D01*
X82346330Y-127834622D01*
X82332762Y-127690412D01*
X82324512Y-127518461D01*
X82321700Y-127332120D01*
X82324448Y-127144743D01*
X82332877Y-126969682D01*
X82337889Y-126905849D01*
X82343815Y-126861593D01*
X82356719Y-126780767D01*
X82375901Y-126667197D01*
X82400658Y-126524709D01*
X82430288Y-126357128D01*
X82464088Y-126168282D01*
X82501358Y-125961995D01*
X82541394Y-125742095D01*
X82583496Y-125512406D01*
X82626961Y-125276755D01*
X82671086Y-125038968D01*
X82715170Y-124802870D01*
X82758512Y-124572289D01*
X82800408Y-124351049D01*
X82840157Y-124142977D01*
X82877057Y-123951898D01*
X82910406Y-123781640D01*
X82920073Y-123732888D01*
X82930505Y-123670895D01*
X82934244Y-123627493D01*
X82932169Y-123614871D01*
X82914220Y-123613379D01*
X82870013Y-123613991D01*
X82804500Y-123616513D01*
X82722637Y-123620750D01*
X82629378Y-123626507D01*
X82620082Y-123627128D01*
X82526071Y-123632828D01*
X82443047Y-123636687D01*
X82375948Y-123638572D01*
X82329708Y-123638350D01*
X82309263Y-123635889D01*
X82308836Y-123635525D01*
X82309331Y-123612158D01*
X82316796Y-123556098D01*
X82330054Y-123474885D01*
X82347930Y-123376062D01*
X82355327Y-123337329D01*
X82377361Y-123223443D01*
X82404762Y-123081688D01*
X82435116Y-122924557D01*
X82466010Y-122764542D01*
X82493147Y-122623897D01*
X82518645Y-122495596D01*
X82542934Y-122380541D01*
X82564564Y-122285052D01*
X82582085Y-122215451D01*
X82594045Y-122178061D01*
X82596375Y-122174023D01*
X82619180Y-122165482D01*
X82669569Y-122157109D01*
X82743866Y-122149305D01*
X82838396Y-122142471D01*
X82926345Y-122137963D01*
X83012741Y-122134105D01*
X83124753Y-122128902D01*
X83256762Y-122122626D01*
X83403145Y-122115549D01*
X83558282Y-122107943D01*
X83716551Y-122100080D01*
X83872332Y-122092231D01*
X83889464Y-122091361D01*
X84029232Y-122084429D01*
X84159043Y-122078334D01*
X84275630Y-122073203D01*
X84375723Y-122069165D01*
X84456056Y-122066347D01*
X84513360Y-122064877D01*
X84544367Y-122064884D01*
X84549004Y-122065500D01*
X84547466Y-122087254D01*
X84539475Y-122142050D01*
X84526213Y-122222515D01*
X84508864Y-122321282D01*
X84501088Y-122364027D01*
X84485324Y-122450347D01*
X84463465Y-122570756D01*
X84436673Y-122718810D01*
X84406113Y-122888064D01*
X84372947Y-123072074D01*
X84338340Y-123264394D01*
X84303455Y-123458581D01*
X84298064Y-123488622D01*
X84264424Y-123676050D01*
X84231912Y-123857101D01*
X84201505Y-124026338D01*
X84174181Y-124178328D01*
X84150917Y-124307634D01*
X84132690Y-124408822D01*
X84120478Y-124476457D01*
X84118243Y-124488786D01*
X84052988Y-124848653D01*
X83994856Y-125170476D01*
X83943478Y-125456669D01*
X83898489Y-125709648D01*
X83859520Y-125931827D01*
X83826206Y-126125623D01*
X83798179Y-126293450D01*
X83775072Y-126437723D01*
X83756519Y-126560858D01*
X83742151Y-126665270D01*
X83731603Y-126753374D01*
X83724508Y-126827585D01*
X83720498Y-126890319D01*
X83719206Y-126943990D01*
X83720266Y-126991015D01*
X83723310Y-127033808D01*
X83726770Y-127065351D01*
X83742699Y-127162547D01*
X83764788Y-127229288D01*
X83797618Y-127276735D01*
X83822757Y-127299320D01*
X83892846Y-127332948D01*
X83964742Y-127326041D01*
X84037451Y-127279568D01*
X84109981Y-127194500D01*
X84181337Y-127071807D01*
X84250526Y-126912459D01*
X84268385Y-126864176D01*
X84296774Y-126781675D01*
X84321665Y-126700776D01*
X84344636Y-126614556D01*
X84367260Y-126516093D01*
X84391114Y-126398466D01*
X84417774Y-126254752D01*
X84448815Y-126078031D01*
X84453380Y-126051542D01*
X84469004Y-125960949D01*
X84490567Y-125836257D01*
X84516942Y-125683964D01*
X84547001Y-125510568D01*
X84579620Y-125322565D01*
X84613671Y-125126452D01*
X84648029Y-124928728D01*
X84655686Y-124884684D01*
X84693179Y-124668938D01*
X84735887Y-124423002D01*
X84782003Y-124157298D01*
X84829719Y-123882245D01*
X84877228Y-123608263D01*
X84922721Y-123345771D01*
X84964393Y-123105189D01*
X84970158Y-123071887D01*
X85003857Y-122877442D01*
X85035590Y-122694740D01*
X85064631Y-122527934D01*
X85090254Y-122381179D01*
X85111731Y-122258628D01*
X85128337Y-122164435D01*
X85139346Y-122102753D01*
X85143957Y-122078051D01*
X85166707Y-122048715D01*
X85217464Y-122032200D01*
X85253947Y-122028174D01*
X85314566Y-122023577D01*
X85395158Y-122018575D01*
X85491558Y-122013333D01*
X85599603Y-122008016D01*
X85715131Y-122002789D01*
X85833976Y-121997819D01*
X85951976Y-121993270D01*
X86064968Y-121989307D01*
X86168787Y-121986096D01*
X86259270Y-121983802D01*
X86332254Y-121982590D01*
X86383575Y-121982627D01*
G37*
G36*
X90707830Y-121813901D02*
G01*
X90703187Y-121846417D01*
X90694176Y-121914505D01*
X90681507Y-122012619D01*
X90665889Y-122135210D01*
X90648032Y-122276731D01*
X90628645Y-122431634D01*
X90621927Y-122485590D01*
X90602400Y-122641310D01*
X90584277Y-122783317D01*
X90568232Y-122906517D01*
X90554942Y-123005816D01*
X90545081Y-123076119D01*
X90539324Y-123112333D01*
X90538351Y-123116101D01*
X90521453Y-123120163D01*
X90477921Y-123126530D01*
X90412313Y-123134716D01*
X90329187Y-123144240D01*
X90233101Y-123154615D01*
X90128611Y-123165358D01*
X90020277Y-123175985D01*
X89912656Y-123186012D01*
X89810305Y-123194955D01*
X89749030Y-123199937D01*
X89677977Y-123206930D01*
X89619082Y-123215412D01*
X89578956Y-123224253D01*
X89564404Y-123231471D01*
X89558829Y-123257357D01*
X89550139Y-123312749D01*
X89539641Y-123387434D01*
X89528638Y-123471201D01*
X89518438Y-123553837D01*
X89510345Y-123625128D01*
X89505664Y-123674864D01*
X89505442Y-123692745D01*
X89521639Y-123693495D01*
X89561925Y-123691255D01*
X89619234Y-123686488D01*
X89654850Y-123683016D01*
X89737388Y-123674840D01*
X89834985Y-123665555D01*
X89931502Y-123656687D01*
X89970212Y-123653243D01*
X90140025Y-123638344D01*
X90130525Y-123698922D01*
X90125037Y-123737422D01*
X90115223Y-123809773D01*
X90102044Y-123908753D01*
X90086461Y-124027140D01*
X90069433Y-124157710D01*
X90065679Y-124186653D01*
X90037254Y-124405384D01*
X90013516Y-124586407D01*
X89993980Y-124733115D01*
X89978158Y-124848898D01*
X89965565Y-124937149D01*
X89955714Y-125001258D01*
X89948119Y-125044617D01*
X89942294Y-125070618D01*
X89937752Y-125082652D01*
X89937083Y-125083541D01*
X89918678Y-125089829D01*
X89874032Y-125099761D01*
X89807979Y-125112421D01*
X89725352Y-125126895D01*
X89630985Y-125142266D01*
X89608466Y-125145779D01*
X89501182Y-125162663D01*
X89420958Y-125176263D01*
X89363766Y-125187723D01*
X89325582Y-125198182D01*
X89302378Y-125208784D01*
X89290130Y-125220670D01*
X89284811Y-125234982D01*
X89284311Y-125237710D01*
X89275026Y-125300809D01*
X89264905Y-125381542D01*
X89254957Y-125470012D01*
X89246191Y-125556323D01*
X89239616Y-125630578D01*
X89236240Y-125682881D01*
X89236871Y-125703168D01*
X89253403Y-125702810D01*
X89297189Y-125697718D01*
X89364477Y-125688491D01*
X89451515Y-125675724D01*
X89554553Y-125660014D01*
X89669838Y-125641959D01*
X89793620Y-125622154D01*
X89922147Y-125601195D01*
X90051668Y-125579681D01*
X90178430Y-125558207D01*
X90298684Y-125537370D01*
X90408676Y-125517766D01*
X90449077Y-125510382D01*
X90513202Y-125499160D01*
X90564375Y-125491333D01*
X90595647Y-125487903D01*
X90601946Y-125488343D01*
X90600725Y-125509841D01*
X90594304Y-125566496D01*
X90583488Y-125652566D01*
X90569081Y-125762312D01*
X90551889Y-125889991D01*
X90532716Y-126029864D01*
X90512368Y-126176190D01*
X90491648Y-126323227D01*
X90471362Y-126465235D01*
X90452314Y-126596472D01*
X90435310Y-126711199D01*
X90421154Y-126803674D01*
X90410651Y-126868156D01*
X90404605Y-126898905D01*
X90403967Y-126900554D01*
X90384438Y-126912889D01*
X90342820Y-126931368D01*
X90287418Y-126952369D01*
X90276421Y-126956206D01*
X90222290Y-126974832D01*
X90145569Y-127001217D01*
X90053940Y-127032719D01*
X89955086Y-127066699D01*
X89878554Y-127093000D01*
X89806201Y-127117918D01*
X89707939Y-127151841D01*
X89588110Y-127193268D01*
X89451054Y-127240695D01*
X89301115Y-127292618D01*
X89142634Y-127347536D01*
X88979952Y-127403944D01*
X88817411Y-127460340D01*
X88815661Y-127460947D01*
X88586919Y-127540335D01*
X88386553Y-127609850D01*
X88212687Y-127670131D01*
X88063446Y-127721813D01*
X87936954Y-127765536D01*
X87831336Y-127801935D01*
X87744717Y-127831647D01*
X87675220Y-127855311D01*
X87620972Y-127873562D01*
X87580095Y-127887039D01*
X87550715Y-127896378D01*
X87530957Y-127902217D01*
X87518944Y-127905192D01*
X87512802Y-127905941D01*
X87510655Y-127905101D01*
X87510492Y-127904359D01*
X87513414Y-127882036D01*
X87521749Y-127823241D01*
X87534851Y-127732385D01*
X87552073Y-127613877D01*
X87572771Y-127472129D01*
X87596297Y-127311552D01*
X87622006Y-127136556D01*
X87649251Y-126951552D01*
X87677387Y-126760951D01*
X87705767Y-126569163D01*
X87729692Y-126407884D01*
X87748554Y-126282153D01*
X87765572Y-126171099D01*
X87779763Y-126080934D01*
X87790148Y-126017868D01*
X87795744Y-125988113D01*
X87796239Y-125986648D01*
X87812783Y-125980767D01*
X87853416Y-125970201D01*
X87911333Y-125956646D01*
X87956439Y-125946732D01*
X88021797Y-125932404D01*
X88074117Y-125920350D01*
X88106735Y-125912140D01*
X88114257Y-125909558D01*
X88117722Y-125888963D01*
X88126519Y-125831835D01*
X88139996Y-125742548D01*
X88157499Y-125625472D01*
X88178376Y-125484978D01*
X88201974Y-125325438D01*
X88227640Y-125151223D01*
X88236189Y-125093052D01*
X88266040Y-124889923D01*
X88297151Y-124678440D01*
X88328277Y-124467043D01*
X88358175Y-124264171D01*
X88385602Y-124078262D01*
X88409313Y-123917757D01*
X88425386Y-123809170D01*
X88445291Y-123674263D01*
X88462989Y-123553174D01*
X88477624Y-123451835D01*
X88488345Y-123376179D01*
X88494298Y-123332138D01*
X88495231Y-123323494D01*
X88480739Y-123317696D01*
X88441777Y-123313883D01*
X88385116Y-123312530D01*
X88346223Y-123313074D01*
X88281278Y-123313853D01*
X88229037Y-123312660D01*
X88196719Y-123309755D01*
X88189982Y-123307438D01*
X88190034Y-123284498D01*
X88195382Y-123228779D01*
X88205120Y-123148347D01*
X88218344Y-123051271D01*
X88220107Y-123038985D01*
X88235077Y-122933895D01*
X88253882Y-122799786D01*
X88274854Y-122648664D01*
X88296327Y-122492533D01*
X88315332Y-122353019D01*
X88332967Y-122223625D01*
X88349001Y-122107452D01*
X88362518Y-122011018D01*
X88372602Y-121940837D01*
X88378339Y-121903427D01*
X88379016Y-121899820D01*
X88398471Y-121882741D01*
X88444938Y-121874403D01*
X88467386Y-121873752D01*
X88500034Y-121872990D01*
X88560515Y-121870819D01*
X88645420Y-121867401D01*
X88751342Y-121862896D01*
X88874875Y-121857465D01*
X89012610Y-121851267D01*
X89161141Y-121844464D01*
X89317059Y-121837216D01*
X89476959Y-121829684D01*
X89637432Y-121822028D01*
X89795071Y-121814409D01*
X89946469Y-121806987D01*
X90088218Y-121799923D01*
X90216912Y-121793377D01*
X90329142Y-121787511D01*
X90421502Y-121782483D01*
X90490583Y-121778456D01*
X90492843Y-121778316D01*
X90716364Y-121764448D01*
X90707830Y-121813901D01*
G37*
G36*
X87456831Y-128487604D02*
G01*
X87491899Y-128416513D01*
X87549918Y-128365597D01*
X87620920Y-128339441D01*
X87686474Y-128354306D01*
X87746678Y-128410222D01*
X87759390Y-128428303D01*
X87795944Y-128509409D01*
X87806268Y-128593685D01*
X87794134Y-128674523D01*
X87763314Y-128745316D01*
X87717579Y-128799457D01*
X87660703Y-128830339D01*
X87596455Y-128831354D01*
X87543260Y-128806895D01*
X87486625Y-128746080D01*
X87452986Y-128661000D01*
X87446751Y-128599498D01*
X87484739Y-128599498D01*
X87498056Y-128677611D01*
X87534169Y-128740956D01*
X87555635Y-128760327D01*
X87610420Y-128787721D01*
X87661989Y-128781689D01*
X87688757Y-128767851D01*
X87727373Y-128725392D01*
X87756969Y-128659575D01*
X87771066Y-128588091D01*
X87769126Y-128548392D01*
X87742308Y-128475811D01*
X87697985Y-128424246D01*
X87644086Y-128397205D01*
X87588540Y-128398199D01*
X87539274Y-128430735D01*
X87530006Y-128442559D01*
X87495096Y-128517515D01*
X87484739Y-128599498D01*
X87446751Y-128599498D01*
X87445142Y-128583628D01*
X87456831Y-128487604D01*
G37*
G36*
X87690246Y-128468605D02*
G01*
X87690828Y-128588417D01*
X87688688Y-128665478D01*
X87681056Y-128702203D01*
X87667537Y-128699368D01*
X87651169Y-128666555D01*
X87631440Y-128633543D01*
X87617894Y-128624881D01*
X87601060Y-128642268D01*
X87593175Y-128666555D01*
X87581556Y-128704672D01*
X87570670Y-128705031D01*
X87562166Y-128671527D01*
X87557694Y-128608057D01*
X87557384Y-128582009D01*
X87557384Y-128541534D01*
X87588646Y-128541534D01*
X87597804Y-128574213D01*
X87627723Y-128583208D01*
X87658366Y-128573440D01*
X87666800Y-128541534D01*
X87657641Y-128508855D01*
X87627723Y-128499861D01*
X87597080Y-128509628D01*
X87588646Y-128541534D01*
X87557384Y-128541534D01*
X87557384Y-128455791D01*
X87690246Y-128468605D01*
G37*
G36*
X91235780Y-123532844D02*
G01*
X91255345Y-123374589D01*
X91271187Y-123245639D01*
X91282938Y-123148962D01*
X91290229Y-123087526D01*
X91292691Y-123064400D01*
X91287548Y-123052201D01*
X91268462Y-123045502D01*
X91230664Y-123043938D01*
X91169384Y-123047146D01*
X91119570Y-123051192D01*
X91044205Y-123057365D01*
X90994913Y-123059702D01*
X90966595Y-123057471D01*
X90954152Y-123049940D01*
X90952481Y-123036376D01*
X90954025Y-123027423D01*
X90958473Y-122997613D01*
X90967170Y-122932108D01*
X90979428Y-122836362D01*
X90994559Y-122715832D01*
X91011873Y-122575971D01*
X91030681Y-122422236D01*
X91036992Y-122370273D01*
X91111935Y-121752006D01*
X91253337Y-121740003D01*
X91295586Y-121737015D01*
X91365671Y-121732786D01*
X91460185Y-121727493D01*
X91575720Y-121721314D01*
X91708871Y-121714426D01*
X91856229Y-121707007D01*
X92014387Y-121699233D01*
X92179938Y-121691283D01*
X92277877Y-121686666D01*
X92446056Y-121678739D01*
X92608741Y-121670965D01*
X92762535Y-121663512D01*
X92904042Y-121656551D01*
X93029867Y-121650251D01*
X93136613Y-121644781D01*
X93220885Y-121640311D01*
X93279286Y-121637009D01*
X93300021Y-121635692D01*
X93439027Y-121626052D01*
X93429802Y-121880143D01*
X93402242Y-122278149D01*
X93349430Y-122666140D01*
X93272443Y-123039475D01*
X93172357Y-123393513D01*
X93050248Y-123723613D01*
X92952912Y-123936612D01*
X92889350Y-124051904D01*
X92809679Y-124177551D01*
X92720580Y-124304459D01*
X92628735Y-124423533D01*
X92540825Y-124525677D01*
X92465446Y-124600140D01*
X92385245Y-124664896D01*
X92294205Y-124730492D01*
X92201135Y-124791233D01*
X92114843Y-124841427D01*
X92044139Y-124875380D01*
X92033236Y-124879510D01*
X91988300Y-124901025D01*
X91956799Y-124926132D01*
X91950196Y-124936382D01*
X91943109Y-124967392D01*
X91931944Y-125031253D01*
X91918023Y-125119769D01*
X91902668Y-125224743D01*
X91896331Y-125270164D01*
X91861419Y-125523550D01*
X91831612Y-125738909D01*
X91806470Y-125919226D01*
X91785552Y-126067487D01*
X91768417Y-126186677D01*
X91754624Y-126279782D01*
X91743732Y-126349786D01*
X91735301Y-126399676D01*
X91728890Y-126432436D01*
X91724057Y-126451052D01*
X91720961Y-126457860D01*
X91701845Y-126468830D01*
X91657871Y-126487763D01*
X91594502Y-126512496D01*
X91517206Y-126540864D01*
X91465077Y-126559193D01*
X91307831Y-126613546D01*
X91178341Y-126658205D01*
X91074118Y-126694013D01*
X90992670Y-126721812D01*
X90931508Y-126742446D01*
X90888142Y-126756755D01*
X90860081Y-126765583D01*
X90844837Y-126769773D01*
X90840777Y-126770410D01*
X90841633Y-126750351D01*
X90847367Y-126692112D01*
X90857632Y-126598601D01*
X90872079Y-126472723D01*
X90890362Y-126317387D01*
X90912131Y-126135500D01*
X90937039Y-125929968D01*
X90964739Y-125703698D01*
X90994881Y-125459599D01*
X91027119Y-125200576D01*
X91060849Y-124931567D01*
X91095011Y-124659811D01*
X91127663Y-124399552D01*
X91158434Y-124153758D01*
X91186956Y-123925397D01*
X91207371Y-123761512D01*
X92074499Y-123761512D01*
X92078791Y-123798838D01*
X92094992Y-123809513D01*
X92125398Y-123798364D01*
X92172306Y-123770218D01*
X92177731Y-123766818D01*
X92261757Y-123697861D01*
X92349926Y-123595986D01*
X92436893Y-123467985D01*
X92496627Y-123361795D01*
X92547435Y-123255827D01*
X92593213Y-123145544D01*
X92630727Y-123040141D01*
X92656741Y-122948813D01*
X92668022Y-122880756D01*
X92668239Y-122873938D01*
X92668678Y-122821846D01*
X92422478Y-122842683D01*
X92176277Y-122863519D01*
X92148286Y-123113560D01*
X92133716Y-123241349D01*
X92117162Y-123382854D01*
X92101095Y-123517107D01*
X92092450Y-123587596D01*
X92079817Y-123692707D01*
X92074499Y-123761512D01*
X91207371Y-123761512D01*
X91212861Y-123717436D01*
X91235780Y-123532844D01*
G37*
%TO.C,C6*%
X176828307Y-99130810D02*
X176980810Y-98978307D01*
X176319190Y-98621693D02*
X176471693Y-98469190D01*
%TO.C,D8*%
X132480000Y-125267500D02*
X132480000Y-127952500D01*
X134400000Y-127952500D02*
X134400000Y-125267500D01*
X132480000Y-127952500D02*
X134400000Y-127952500D01*
%TO.C,C4*%
X156812164Y-96460000D02*
X157027836Y-96460000D01*
X156812164Y-95740000D02*
X157027836Y-95740000D01*
%TO.C,D15*%
X125621919Y-132345726D02*
X127520500Y-130447145D01*
X124264274Y-130988081D02*
X125621919Y-132345726D01*
X126162855Y-129089500D02*
X124264274Y-130988081D01*
%TO.C,C17*%
X172252164Y-93250000D02*
X172467836Y-93250000D01*
X172252164Y-93970000D02*
X172467836Y-93970000D01*
%TO.C,D12*%
X148282500Y-125980000D02*
X145597500Y-125980000D01*
X145597500Y-127900000D02*
X148282500Y-127900000D01*
X145597500Y-125980000D02*
X145597500Y-127900000D01*
D19*
%TO.C,IC2*%
X172730000Y-96015000D02*
G75*
G03*
X172730000Y-96015000I-100000J0D01*
G01*
D18*
%TO.C,C15*%
X172370000Y-105132164D02*
X172370000Y-105347836D01*
X171650000Y-105132164D02*
X171650000Y-105347836D01*
%TO.C,C10*%
X174752164Y-103110000D02*
X174967836Y-103110000D01*
X174752164Y-102390000D02*
X174967836Y-102390000D01*
%TO.C,D6*%
X127460000Y-128082500D02*
X127460000Y-125397500D01*
X125540000Y-128082500D02*
X127460000Y-128082500D01*
X125540000Y-125397500D02*
X125540000Y-128082500D01*
%TO.C,D18*%
X123471919Y-144025726D02*
X125370500Y-142127145D01*
X124012855Y-140769500D02*
X122114274Y-142668081D01*
X122114274Y-142668081D02*
X123471919Y-144025726D01*
%TO.C,R2*%
X183257500Y-89603641D02*
X183257500Y-89296359D01*
X182497500Y-89603641D02*
X182497500Y-89296359D01*
%TO.C,C18*%
X167780810Y-92451693D02*
X167628307Y-92299190D01*
X167271693Y-92960810D02*
X167119190Y-92808307D01*
%TO.C,C8*%
X160481920Y-114595000D02*
X160763080Y-114595000D01*
X160481920Y-113575000D02*
X160763080Y-113575000D01*
%TO.C,C7*%
X163085336Y-101010000D02*
X162869664Y-101010000D01*
X163085336Y-101730000D02*
X162869664Y-101730000D01*
%TO.C,D20*%
X122438284Y-149304071D02*
X120539703Y-151202652D01*
X120539703Y-151202652D02*
X121897348Y-152560297D01*
X121897348Y-152560297D02*
X123795929Y-150661716D01*
%TO.C,D9*%
X137710000Y-127805000D02*
X137710000Y-125120000D01*
X135790000Y-127805000D02*
X137710000Y-127805000D01*
X135790000Y-125120000D02*
X135790000Y-127805000D01*
D14*
%TO.C,D22*%
X102910000Y-95290000D02*
G75*
G03*
X102910000Y-95290000I-50000J0D01*
G01*
D18*
%TO.C,D14*%
X124807348Y-136220297D02*
X126705929Y-134321716D01*
X123449703Y-134862652D02*
X124807348Y-136220297D01*
X125348284Y-132964071D02*
X123449703Y-134862652D01*
%TO.C,J5*%
X196411522Y-90957574D02*
X198292426Y-92838478D01*
X196411522Y-90957574D02*
X192776994Y-94592102D01*
X198250000Y-89119096D02*
X199190452Y-90059548D01*
X192776994Y-94592102D02*
X194657898Y-96473006D01*
X198292426Y-92838478D02*
X194657898Y-96473006D01*
X197309548Y-90059548D02*
X198250000Y-89119096D01*
%TO.C,D3*%
X115570000Y-125670000D02*
X115570000Y-128355000D01*
X115570000Y-128355000D02*
X117490000Y-128355000D01*
X117490000Y-128355000D02*
X117490000Y-125670000D01*
%TO.C,D5*%
X122010000Y-128135000D02*
X123930000Y-128135000D01*
X123930000Y-128135000D02*
X123930000Y-125450000D01*
X122010000Y-125450000D02*
X122010000Y-128135000D01*
%TO.C,C2*%
X192480000Y-103489420D02*
X192480000Y-103770580D01*
X193500000Y-103489420D02*
X193500000Y-103770580D01*
%TO.C,J2*%
X200230000Y-96880000D02*
X200230000Y-97260000D01*
X200230000Y-104500000D02*
X200230000Y-104120000D01*
X202000000Y-104500000D02*
X200230000Y-104500000D01*
X204540000Y-104500000D02*
X204280000Y-104500000D01*
X204280000Y-96880000D02*
X204540000Y-96880000D01*
X200230000Y-96880000D02*
X202000000Y-96880000D01*
%TO.C,C5*%
X157327836Y-103020000D02*
X157112164Y-103020000D01*
X157327836Y-103740000D02*
X157112164Y-103740000D01*
%TO.C,D1*%
X107675000Y-127230000D02*
X107675000Y-129150000D01*
X107675000Y-129150000D02*
X110360000Y-129150000D01*
X110360000Y-127230000D02*
X107675000Y-127230000D01*
%TO.C,U2*%
X181445000Y-88245000D02*
X181445000Y-86570000D01*
X176255000Y-90970000D02*
X176255000Y-93695000D01*
X181705000Y-93695000D02*
X181445000Y-93695000D01*
X176255000Y-93695000D02*
X176515000Y-93695000D01*
X176255000Y-90970000D02*
X176255000Y-88245000D01*
X176255000Y-88245000D02*
X176515000Y-88245000D01*
X181705000Y-88245000D02*
X181445000Y-88245000D01*
X181705000Y-90970000D02*
X181705000Y-88245000D01*
X181705000Y-90970000D02*
X181705000Y-93695000D01*
%TO.C,C14*%
X172242164Y-95150000D02*
X172457836Y-95150000D01*
X172242164Y-94430000D02*
X172457836Y-94430000D01*
%TO.C,D19*%
X121499703Y-146732652D02*
X122857348Y-148090297D01*
X122857348Y-148090297D02*
X124755929Y-146191716D01*
X123398284Y-144834071D02*
X121499703Y-146732652D01*
%TO.C,D2*%
X112530000Y-128715000D02*
X114450000Y-128715000D01*
X114450000Y-128715000D02*
X114450000Y-126030000D01*
X112530000Y-126030000D02*
X112530000Y-128715000D01*
%TO.C,C12*%
X165270000Y-115874664D02*
X165270000Y-116090336D01*
X164550000Y-115874664D02*
X164550000Y-116090336D01*
%TO.C,D21*%
X121217348Y-157140297D02*
X123115929Y-155241716D01*
X119859703Y-155782652D02*
X121217348Y-157140297D01*
X121758284Y-153884071D02*
X119859703Y-155782652D01*
%TO.C,D7*%
X129130000Y-128045000D02*
X131050000Y-128045000D01*
X131050000Y-128045000D02*
X131050000Y-125360000D01*
X129130000Y-125360000D02*
X129130000Y-128045000D01*
%TO.C,J4*%
X190481580Y-90307996D02*
X189350209Y-89176625D01*
X188982513Y-83944035D02*
X190113884Y-85075406D01*
X190113884Y-85075406D02*
X190820991Y-84368299D01*
X192178636Y-86348198D02*
X193037771Y-87207333D01*
X186436929Y-86489620D02*
X187144036Y-85782513D01*
X192376626Y-86150208D02*
X193507997Y-87281579D01*
X189901752Y-85994645D02*
X189194645Y-86701752D01*
X189336067Y-83590482D02*
X187738005Y-81992420D01*
X193507997Y-87281579D02*
X194158535Y-86631041D01*
X194158535Y-86631041D02*
X188628960Y-81101466D01*
X192178636Y-86348198D02*
X192376626Y-86150208D01*
X189831041Y-90958534D02*
X190481580Y-90307996D01*
X190820991Y-84368299D02*
X189689620Y-83236928D01*
X187568300Y-87620990D02*
X186436929Y-86489620D01*
X188275406Y-86913884D02*
X187568300Y-87620990D01*
X186818766Y-82911659D02*
X189901752Y-85994645D01*
X188982513Y-83944035D02*
X187384452Y-82345974D01*
X188699671Y-89827164D02*
X189350209Y-89176625D01*
X187144036Y-85782513D02*
X188275406Y-86913884D01*
X189350209Y-89176625D02*
X189548199Y-88978635D01*
X189689620Y-83236928D02*
X188982513Y-83944035D01*
X184301466Y-85428959D02*
X189831041Y-90958534D01*
X188628960Y-81101466D02*
X184301466Y-85428959D01*
X193027164Y-85499670D02*
X192376626Y-86150208D01*
X189194645Y-86701752D02*
X186111660Y-83618766D01*
D14*
%TO.C,Y1*%
X155260000Y-98480000D02*
G75*
G03*
X155260000Y-98380000I0J50000D01*
G01*
X155260000Y-98380000D02*
G75*
G03*
X155260000Y-98480000I0J-50000D01*
G01*
X155260000Y-98380000D02*
X155260000Y-98380000D01*
X155260000Y-98480000D02*
X155260000Y-98480000D01*
D18*
%TO.C,C21*%
X174762164Y-105190000D02*
X174977836Y-105190000D01*
X174762164Y-104470000D02*
X174977836Y-104470000D01*
D20*
%TO.C,IC1*%
X159255250Y-115575000D02*
G75*
G03*
X159255250Y-115575000I-162500J0D01*
G01*
D18*
%TO.C,D11*%
X144380000Y-127945000D02*
X144380000Y-125260000D01*
X142460000Y-127945000D02*
X144380000Y-127945000D01*
X142460000Y-125260000D02*
X142460000Y-127945000D01*
%TO.C,C3*%
X181512164Y-96010000D02*
X181727836Y-96010000D01*
X181512164Y-96730000D02*
X181727836Y-96730000D01*
%TO.C,D10*%
X141050000Y-127825000D02*
X141050000Y-125140000D01*
X139130000Y-125140000D02*
X139130000Y-127825000D01*
X139130000Y-127825000D02*
X141050000Y-127825000D01*
%TD*%
M02*
