%TF.GenerationSoftware,KiCad,Pcbnew,(6.0.2-0)*%
%TF.CreationDate,2022-06-10T14:05:29-06:00*%
%TF.ProjectId,Graduation Cap,47726164-7561-4746-996f-6e204361702e,rev?*%
%TF.SameCoordinates,Original*%
%TF.FileFunction,Legend,Top*%
%TF.FilePolarity,Positive*%
%FSLAX46Y46*%
G04 Gerber Fmt 4.6, Leading zero omitted, Abs format (unit mm)*
G04 Created by KiCad (PCBNEW (6.0.2-0)) date 2022-06-10 14:05:29*
%MOMM*%
%LPD*%
G01*
G04 APERTURE LIST*
%ADD10C,0.100000*%
%ADD11C,0.300000*%
%ADD12C,0.150000*%
%ADD13C,0.015000*%
%ADD14C,0.006350*%
%ADD15C,0.125000*%
%ADD16C,0.200000*%
%ADD17C,0.120000*%
%ADD18C,0.325000*%
G04 APERTURE END LIST*
D10*
X195925549Y-108287225D02*
X196396954Y-108522927D01*
X196161251Y-108051522D01*
X196548477Y-107899999D02*
X196784179Y-108135702D01*
X196396954Y-108051522D02*
X196582148Y-108236717D01*
X196632656Y-108253553D01*
X196683164Y-108236717D01*
X196733671Y-108186209D01*
X196750507Y-108135702D01*
X196750507Y-108102030D01*
X196918866Y-107967343D02*
X196969374Y-107950507D01*
X197036717Y-107883164D01*
X197053553Y-107832656D01*
X197036717Y-107782148D01*
X197019881Y-107765312D01*
X196969374Y-107748477D01*
X196918866Y-107765312D01*
X196868358Y-107815820D01*
X196817851Y-107832656D01*
X196767343Y-107815820D01*
X196750507Y-107798984D01*
X196733671Y-107748477D01*
X196750507Y-107697969D01*
X196801015Y-107647461D01*
X196851522Y-107630625D01*
X197238748Y-107681133D02*
X196885194Y-107327580D01*
X197019881Y-107462267D02*
X197036717Y-107411759D01*
X197104061Y-107344416D01*
X197154568Y-107327580D01*
X197188240Y-107327580D01*
X197238748Y-107344416D01*
X197339763Y-107445431D01*
X197356599Y-107495938D01*
X197356599Y-107529610D01*
X197339763Y-107580118D01*
X197272419Y-107647461D01*
X197221912Y-107664297D01*
X192117639Y-112125135D02*
X192589043Y-112360837D01*
X192353341Y-111889433D01*
X192824746Y-112125135D02*
X192471192Y-111771582D01*
X192605879Y-111906269D02*
X192622715Y-111855761D01*
X192690059Y-111788417D01*
X192740566Y-111771582D01*
X192774238Y-111771582D01*
X192824746Y-111788417D01*
X192925761Y-111889433D01*
X192942597Y-111939940D01*
X192942597Y-111973612D01*
X192925761Y-112024120D01*
X192858417Y-112091463D01*
X192807910Y-112108299D01*
X193296150Y-111653730D02*
X193110956Y-111468536D01*
X193060448Y-111451700D01*
X193009940Y-111468536D01*
X192942597Y-111535879D01*
X192925761Y-111586387D01*
X193279314Y-111636895D02*
X193262478Y-111687402D01*
X193178299Y-111771582D01*
X193127791Y-111788417D01*
X193077284Y-111771582D01*
X193043612Y-111737910D01*
X193026776Y-111687402D01*
X193043612Y-111636895D01*
X193127791Y-111552715D01*
X193144627Y-111502208D01*
X193178299Y-111300177D02*
X193312986Y-111165490D01*
X193110956Y-111131818D02*
X193414001Y-111434864D01*
X193464509Y-111451700D01*
X193515017Y-111434864D01*
X193548688Y-111401192D01*
D11*
X143606967Y-158517803D02*
X146132348Y-155992422D01*
X143101891Y-155992422D02*
X146637425Y-161548261D01*
X147310860Y-157844368D02*
X144785478Y-160369750D01*
X147815936Y-160369750D02*
X144280402Y-154813911D01*
X148152653Y-151951812D02*
X147647577Y-152120170D01*
X147142501Y-152625247D01*
X146805783Y-153298682D01*
X146805783Y-153972117D01*
X146974142Y-154477193D01*
X147479218Y-155318987D01*
X147984295Y-155824063D01*
X148826088Y-156329139D01*
X149331165Y-156497498D01*
X150004600Y-156497498D01*
X150678035Y-156160781D01*
X151014752Y-155824063D01*
X151351470Y-155150628D01*
X151351470Y-154813911D01*
X150172959Y-153635399D01*
X149499523Y-154308834D01*
X153708492Y-153130323D02*
X153203416Y-153298682D01*
X152866699Y-153298682D01*
X152361622Y-153130323D01*
X151351470Y-152120170D01*
X151183111Y-151615094D01*
X151183111Y-151278377D01*
X151351470Y-150773300D01*
X151856546Y-150268224D01*
X152361622Y-150099865D01*
X152698340Y-150099865D01*
X153203416Y-150268224D01*
X154213569Y-151278377D01*
X154381927Y-151783453D01*
X154381927Y-152120170D01*
X154213569Y-152625247D01*
X153708492Y-153130323D01*
X156402233Y-150436583D02*
X152866699Y-146901049D01*
X156570591Y-148247919D01*
X155223721Y-144544026D01*
X158759255Y-148079560D01*
X160442843Y-146395973D02*
X158085820Y-144038950D01*
X156907309Y-142860439D02*
X156907309Y-143197156D01*
X157244026Y-143197156D01*
X157244026Y-142860439D01*
X156907309Y-142860439D01*
X157244026Y-143197156D01*
X159769408Y-142355362D02*
X162126430Y-144712385D01*
X160106125Y-142692080D02*
X160106125Y-142355362D01*
X160274484Y-141850286D01*
X160779560Y-141345210D01*
X161284637Y-141176851D01*
X161789713Y-141345210D01*
X163641659Y-143197156D01*
X166503758Y-139998340D02*
X166335399Y-140503416D01*
X165661964Y-141176851D01*
X165156888Y-141345210D01*
X164651812Y-141176851D01*
X163304942Y-139829981D01*
X163136583Y-139324905D01*
X163304942Y-138819829D01*
X163978377Y-138146394D01*
X164483453Y-137978035D01*
X164988529Y-138146394D01*
X165325247Y-138483111D01*
X163978377Y-140503416D01*
X168355704Y-138483111D02*
X165998682Y-136126088D01*
X166672117Y-136799523D02*
X166503758Y-136294447D01*
X166503758Y-135957730D01*
X166672117Y-135452653D01*
X167008834Y-135115936D01*
X170207651Y-136294447D02*
X170712727Y-136126088D01*
X171386162Y-135452653D01*
X171554521Y-134947577D01*
X171386162Y-134442501D01*
X171217803Y-134274142D01*
X170712727Y-134105783D01*
X170207651Y-134274142D01*
X169702574Y-134779218D01*
X169197498Y-134947577D01*
X168692422Y-134779218D01*
X168524063Y-134610860D01*
X168355704Y-134105783D01*
X168524063Y-133600707D01*
X169029139Y-133095631D01*
X169534216Y-132927272D01*
X173069750Y-133095631D02*
X173406467Y-133095631D01*
X173406467Y-133432348D01*
X173069750Y-133432348D01*
X173069750Y-133095631D01*
X173406467Y-133432348D01*
X172059597Y-132085478D02*
X169870933Y-130233532D01*
X169870933Y-129896814D01*
X170207651Y-129896814D01*
X172059597Y-132085478D01*
X169870933Y-129896814D01*
D10*
X194005549Y-110257225D02*
X194476954Y-110492927D01*
X194241251Y-110021522D01*
X194712656Y-110257225D02*
X194359103Y-109903671D01*
X194493790Y-110038358D02*
X194510625Y-109987851D01*
X194577969Y-109920507D01*
X194628477Y-109903671D01*
X194662148Y-109903671D01*
X194712656Y-109920507D01*
X194813671Y-110021522D01*
X194830507Y-110072030D01*
X194830507Y-110105702D01*
X194813671Y-110156209D01*
X194746328Y-110223553D01*
X194695820Y-110240389D01*
X194948358Y-109550118D02*
X195184061Y-109785820D01*
X194796835Y-109701641D02*
X194982030Y-109886835D01*
X195032538Y-109903671D01*
X195083045Y-109886835D01*
X195133553Y-109836328D01*
X195150389Y-109785820D01*
X195150389Y-109752148D01*
X195318748Y-109617461D02*
X195369255Y-109600625D01*
X195436599Y-109533282D01*
X195453435Y-109482774D01*
X195436599Y-109432267D01*
X195419763Y-109415431D01*
X195369255Y-109398595D01*
X195318748Y-109415431D01*
X195268240Y-109465938D01*
X195217732Y-109482774D01*
X195167225Y-109465938D01*
X195150389Y-109449103D01*
X195133553Y-109398595D01*
X195150389Y-109348087D01*
X195200896Y-109297580D01*
X195251404Y-109280744D01*
D11*
X74796190Y-114984761D02*
X74796190Y-112984761D01*
X75462857Y-114413333D01*
X76129523Y-112984761D01*
X76129523Y-114984761D01*
X77939047Y-114984761D02*
X77939047Y-113937142D01*
X77843809Y-113746666D01*
X77653333Y-113651428D01*
X77272380Y-113651428D01*
X77081904Y-113746666D01*
X77939047Y-114889523D02*
X77748571Y-114984761D01*
X77272380Y-114984761D01*
X77081904Y-114889523D01*
X76986666Y-114699047D01*
X76986666Y-114508571D01*
X77081904Y-114318095D01*
X77272380Y-114222857D01*
X77748571Y-114222857D01*
X77939047Y-114127619D01*
X78700952Y-113651428D02*
X79177142Y-114984761D01*
X79653333Y-113651428D02*
X79177142Y-114984761D01*
X78986666Y-115460952D01*
X78891428Y-115556190D01*
X78700952Y-115651428D01*
X82986666Y-114984761D02*
X81843809Y-114984761D01*
X82415238Y-114984761D02*
X82415238Y-112984761D01*
X82224761Y-113270476D01*
X82034285Y-113460952D01*
X81843809Y-113556190D01*
X84700952Y-113651428D02*
X84700952Y-114984761D01*
X84224761Y-112889523D02*
X83748571Y-114318095D01*
X84986666Y-114318095D01*
X85462857Y-113651428D02*
X86224761Y-113651428D01*
X85748571Y-112984761D02*
X85748571Y-114699047D01*
X85843809Y-114889523D01*
X86034285Y-114984761D01*
X86224761Y-114984761D01*
X86891428Y-114984761D02*
X86891428Y-112984761D01*
X87748571Y-114984761D02*
X87748571Y-113937142D01*
X87653333Y-113746666D01*
X87462857Y-113651428D01*
X87177142Y-113651428D01*
X86986666Y-113746666D01*
X86891428Y-113841904D01*
X88796190Y-114889523D02*
X88796190Y-114984761D01*
X88700952Y-115175238D01*
X88605714Y-115270476D01*
X91081904Y-113175238D02*
X91177142Y-113080000D01*
X91367619Y-112984761D01*
X91843809Y-112984761D01*
X92034285Y-113080000D01*
X92129523Y-113175238D01*
X92224761Y-113365714D01*
X92224761Y-113556190D01*
X92129523Y-113841904D01*
X90986666Y-114984761D01*
X92224761Y-114984761D01*
X93462857Y-112984761D02*
X93653333Y-112984761D01*
X93843809Y-113080000D01*
X93939047Y-113175238D01*
X94034285Y-113365714D01*
X94129523Y-113746666D01*
X94129523Y-114222857D01*
X94034285Y-114603809D01*
X93939047Y-114794285D01*
X93843809Y-114889523D01*
X93653333Y-114984761D01*
X93462857Y-114984761D01*
X93272380Y-114889523D01*
X93177142Y-114794285D01*
X93081904Y-114603809D01*
X92986666Y-114222857D01*
X92986666Y-113746666D01*
X93081904Y-113365714D01*
X93177142Y-113175238D01*
X93272380Y-113080000D01*
X93462857Y-112984761D01*
X94891428Y-113175238D02*
X94986666Y-113080000D01*
X95177142Y-112984761D01*
X95653333Y-112984761D01*
X95843809Y-113080000D01*
X95939047Y-113175238D01*
X96034285Y-113365714D01*
X96034285Y-113556190D01*
X95939047Y-113841904D01*
X94796190Y-114984761D01*
X96034285Y-114984761D01*
X96796190Y-113175238D02*
X96891428Y-113080000D01*
X97081904Y-112984761D01*
X97558095Y-112984761D01*
X97748571Y-113080000D01*
X97843809Y-113175238D01*
X97939047Y-113365714D01*
X97939047Y-113556190D01*
X97843809Y-113841904D01*
X96700952Y-114984761D01*
X97939047Y-114984761D01*
X74810476Y-93860952D02*
X74810476Y-95646666D01*
X74691428Y-96003809D01*
X74453333Y-96241904D01*
X74096190Y-96360952D01*
X73858095Y-96360952D01*
X76953333Y-96241904D02*
X76715238Y-96360952D01*
X76239047Y-96360952D01*
X76000952Y-96241904D01*
X75881904Y-96003809D01*
X75881904Y-95051428D01*
X76000952Y-94813333D01*
X76239047Y-94694285D01*
X76715238Y-94694285D01*
X76953333Y-94813333D01*
X77072380Y-95051428D01*
X77072380Y-95289523D01*
X75881904Y-95527619D01*
X78024761Y-96241904D02*
X78262857Y-96360952D01*
X78739047Y-96360952D01*
X78977142Y-96241904D01*
X79096190Y-96003809D01*
X79096190Y-95884761D01*
X78977142Y-95646666D01*
X78739047Y-95527619D01*
X78381904Y-95527619D01*
X78143809Y-95408571D01*
X78024761Y-95170476D01*
X78024761Y-95051428D01*
X78143809Y-94813333D01*
X78381904Y-94694285D01*
X78739047Y-94694285D01*
X78977142Y-94813333D01*
X81239047Y-94694285D02*
X81239047Y-96360952D01*
X80167619Y-94694285D02*
X80167619Y-96003809D01*
X80286666Y-96241904D01*
X80524761Y-96360952D01*
X80881904Y-96360952D01*
X81119999Y-96241904D01*
X81239047Y-96122857D01*
X82310476Y-96241904D02*
X82548571Y-96360952D01*
X83024761Y-96360952D01*
X83262857Y-96241904D01*
X83381904Y-96003809D01*
X83381904Y-95884761D01*
X83262857Y-95646666D01*
X83024761Y-95527619D01*
X82667619Y-95527619D01*
X82429523Y-95408571D01*
X82310476Y-95170476D01*
X82310476Y-95051428D01*
X82429523Y-94813333D01*
X82667619Y-94694285D01*
X83024761Y-94694285D01*
X83262857Y-94813333D01*
X86358095Y-96360952D02*
X86358095Y-93860952D01*
X87191428Y-95646666D01*
X88024761Y-93860952D01*
X88024761Y-96360952D01*
X89215238Y-96360952D02*
X89215238Y-94694285D01*
X89215238Y-93860952D02*
X89096190Y-93980000D01*
X89215238Y-94099047D01*
X89334285Y-93980000D01*
X89215238Y-93860952D01*
X89215238Y-94099047D01*
X90405714Y-94694285D02*
X90405714Y-96360952D01*
X90405714Y-94932380D02*
X90524761Y-94813333D01*
X90762857Y-94694285D01*
X91119999Y-94694285D01*
X91358095Y-94813333D01*
X91477142Y-95051428D01*
X91477142Y-96360952D01*
X92667619Y-94694285D02*
X92667619Y-96837142D01*
X92548571Y-97075238D01*
X92310476Y-97194285D01*
X92191428Y-97194285D01*
X92667619Y-93860952D02*
X92548571Y-93980000D01*
X92667619Y-94099047D01*
X92786666Y-93980000D01*
X92667619Y-93860952D01*
X92667619Y-94099047D01*
X94929523Y-96360952D02*
X94929523Y-95051428D01*
X94810476Y-94813333D01*
X94572380Y-94694285D01*
X94096190Y-94694285D01*
X93858095Y-94813333D01*
X94929523Y-96241904D02*
X94691428Y-96360952D01*
X94096190Y-96360952D01*
X93858095Y-96241904D01*
X93739047Y-96003809D01*
X93739047Y-95765714D01*
X93858095Y-95527619D01*
X94096190Y-95408571D01*
X94691428Y-95408571D01*
X94929523Y-95289523D01*
X96120000Y-96360952D02*
X96120000Y-94694285D01*
X96120000Y-95170476D02*
X96239047Y-94932380D01*
X96358095Y-94813333D01*
X96596190Y-94694285D01*
X96834285Y-94694285D01*
X98620000Y-96241904D02*
X98381904Y-96360952D01*
X97905714Y-96360952D01*
X97667619Y-96241904D01*
X97548571Y-96003809D01*
X97548571Y-95051428D01*
X97667619Y-94813333D01*
X97905714Y-94694285D01*
X98381904Y-94694285D01*
X98620000Y-94813333D01*
X98739047Y-95051428D01*
X98739047Y-95289523D01*
X97548571Y-95527619D01*
X99691428Y-96241904D02*
X99929523Y-96360952D01*
X100405714Y-96360952D01*
X100643809Y-96241904D01*
X100762857Y-96003809D01*
X100762857Y-95884761D01*
X100643809Y-95646666D01*
X100405714Y-95527619D01*
X100048571Y-95527619D01*
X99810476Y-95408571D01*
X99691428Y-95170476D01*
X99691428Y-95051428D01*
X99810476Y-94813333D01*
X100048571Y-94694285D01*
X100405714Y-94694285D01*
X100643809Y-94813333D01*
X71601904Y-103268452D02*
X71601904Y-100768452D01*
X72435238Y-102554166D01*
X73268571Y-100768452D01*
X73268571Y-103268452D01*
X75530476Y-103268452D02*
X75530476Y-101958928D01*
X75411428Y-101720833D01*
X75173333Y-101601785D01*
X74697142Y-101601785D01*
X74459047Y-101720833D01*
X75530476Y-103149404D02*
X75292380Y-103268452D01*
X74697142Y-103268452D01*
X74459047Y-103149404D01*
X74340000Y-102911309D01*
X74340000Y-102673214D01*
X74459047Y-102435119D01*
X74697142Y-102316071D01*
X75292380Y-102316071D01*
X75530476Y-102197023D01*
X76601904Y-103149404D02*
X76840000Y-103268452D01*
X77316190Y-103268452D01*
X77554285Y-103149404D01*
X77673333Y-102911309D01*
X77673333Y-102792261D01*
X77554285Y-102554166D01*
X77316190Y-102435119D01*
X76959047Y-102435119D01*
X76720952Y-102316071D01*
X76601904Y-102077976D01*
X76601904Y-101958928D01*
X76720952Y-101720833D01*
X76959047Y-101601785D01*
X77316190Y-101601785D01*
X77554285Y-101720833D01*
X78387619Y-101601785D02*
X79340000Y-101601785D01*
X78744761Y-100768452D02*
X78744761Y-102911309D01*
X78863809Y-103149404D01*
X79101904Y-103268452D01*
X79340000Y-103268452D01*
X81125714Y-103149404D02*
X80887619Y-103268452D01*
X80411428Y-103268452D01*
X80173333Y-103149404D01*
X80054285Y-102911309D01*
X80054285Y-101958928D01*
X80173333Y-101720833D01*
X80411428Y-101601785D01*
X80887619Y-101601785D01*
X81125714Y-101720833D01*
X81244761Y-101958928D01*
X81244761Y-102197023D01*
X80054285Y-102435119D01*
X82316190Y-103268452D02*
X82316190Y-101601785D01*
X82316190Y-102077976D02*
X82435238Y-101839880D01*
X82554285Y-101720833D01*
X82792380Y-101601785D01*
X83030476Y-101601785D01*
X86125714Y-103268452D02*
X85887619Y-103149404D01*
X85768571Y-103030357D01*
X85649523Y-102792261D01*
X85649523Y-102077976D01*
X85768571Y-101839880D01*
X85887619Y-101720833D01*
X86125714Y-101601785D01*
X86482857Y-101601785D01*
X86720952Y-101720833D01*
X86840000Y-101839880D01*
X86959047Y-102077976D01*
X86959047Y-102792261D01*
X86840000Y-103030357D01*
X86720952Y-103149404D01*
X86482857Y-103268452D01*
X86125714Y-103268452D01*
X87673333Y-101601785D02*
X88625714Y-101601785D01*
X88030476Y-103268452D02*
X88030476Y-101125595D01*
X88149523Y-100887500D01*
X88387619Y-100768452D01*
X88625714Y-100768452D01*
X91244761Y-103149404D02*
X91601904Y-103268452D01*
X92197142Y-103268452D01*
X92435238Y-103149404D01*
X92554285Y-103030357D01*
X92673333Y-102792261D01*
X92673333Y-102554166D01*
X92554285Y-102316071D01*
X92435238Y-102197023D01*
X92197142Y-102077976D01*
X91720952Y-101958928D01*
X91482857Y-101839880D01*
X91363809Y-101720833D01*
X91244761Y-101482738D01*
X91244761Y-101244642D01*
X91363809Y-101006547D01*
X91482857Y-100887500D01*
X91720952Y-100768452D01*
X92316190Y-100768452D01*
X92673333Y-100887500D01*
X94816190Y-103149404D02*
X94578095Y-103268452D01*
X94101904Y-103268452D01*
X93863809Y-103149404D01*
X93744761Y-103030357D01*
X93625714Y-102792261D01*
X93625714Y-102077976D01*
X93744761Y-101839880D01*
X93863809Y-101720833D01*
X94101904Y-101601785D01*
X94578095Y-101601785D01*
X94816190Y-101720833D01*
X95887619Y-103268452D02*
X95887619Y-101601785D01*
X95887619Y-100768452D02*
X95768571Y-100887500D01*
X95887619Y-101006547D01*
X96006666Y-100887500D01*
X95887619Y-100768452D01*
X95887619Y-101006547D01*
X98030476Y-103149404D02*
X97792380Y-103268452D01*
X97316190Y-103268452D01*
X97078095Y-103149404D01*
X96959047Y-102911309D01*
X96959047Y-101958928D01*
X97078095Y-101720833D01*
X97316190Y-101601785D01*
X97792380Y-101601785D01*
X98030476Y-101720833D01*
X98149523Y-101958928D01*
X98149523Y-102197023D01*
X96959047Y-102435119D01*
X99220952Y-101601785D02*
X99220952Y-103268452D01*
X99220952Y-101839880D02*
X99339999Y-101720833D01*
X99578095Y-101601785D01*
X99935238Y-101601785D01*
X100173333Y-101720833D01*
X100292380Y-101958928D01*
X100292380Y-103268452D01*
X102554285Y-103149404D02*
X102316190Y-103268452D01*
X101840000Y-103268452D01*
X101601904Y-103149404D01*
X101482857Y-103030357D01*
X101363809Y-102792261D01*
X101363809Y-102077976D01*
X101482857Y-101839880D01*
X101601904Y-101720833D01*
X101840000Y-101601785D01*
X102316190Y-101601785D01*
X102554285Y-101720833D01*
X104578095Y-103149404D02*
X104339999Y-103268452D01*
X103863809Y-103268452D01*
X103625714Y-103149404D01*
X103506666Y-102911309D01*
X103506666Y-101958928D01*
X103625714Y-101720833D01*
X103863809Y-101601785D01*
X104339999Y-101601785D01*
X104578095Y-101720833D01*
X104697142Y-101958928D01*
X104697142Y-102197023D01*
X103506666Y-102435119D01*
X69399523Y-107055357D02*
X69280476Y-107174404D01*
X68923333Y-107293452D01*
X68685238Y-107293452D01*
X68328095Y-107174404D01*
X68090000Y-106936309D01*
X67970952Y-106698214D01*
X67851904Y-106222023D01*
X67851904Y-105864880D01*
X67970952Y-105388690D01*
X68090000Y-105150595D01*
X68328095Y-104912500D01*
X68685238Y-104793452D01*
X68923333Y-104793452D01*
X69280476Y-104912500D01*
X69399523Y-105031547D01*
X70828095Y-107293452D02*
X70590000Y-107174404D01*
X70470952Y-107055357D01*
X70351904Y-106817261D01*
X70351904Y-106102976D01*
X70470952Y-105864880D01*
X70590000Y-105745833D01*
X70828095Y-105626785D01*
X71185238Y-105626785D01*
X71423333Y-105745833D01*
X71542380Y-105864880D01*
X71661428Y-106102976D01*
X71661428Y-106817261D01*
X71542380Y-107055357D01*
X71423333Y-107174404D01*
X71185238Y-107293452D01*
X70828095Y-107293452D01*
X72732857Y-107293452D02*
X72732857Y-105626785D01*
X72732857Y-105864880D02*
X72851904Y-105745833D01*
X73090000Y-105626785D01*
X73447142Y-105626785D01*
X73685238Y-105745833D01*
X73804285Y-105983928D01*
X73804285Y-107293452D01*
X73804285Y-105983928D02*
X73923333Y-105745833D01*
X74161428Y-105626785D01*
X74518571Y-105626785D01*
X74756666Y-105745833D01*
X74875714Y-105983928D01*
X74875714Y-107293452D01*
X76066190Y-105626785D02*
X76066190Y-108126785D01*
X76066190Y-105745833D02*
X76304285Y-105626785D01*
X76780476Y-105626785D01*
X77018571Y-105745833D01*
X77137619Y-105864880D01*
X77256666Y-106102976D01*
X77256666Y-106817261D01*
X77137619Y-107055357D01*
X77018571Y-107174404D01*
X76780476Y-107293452D01*
X76304285Y-107293452D01*
X76066190Y-107174404D01*
X79399523Y-105626785D02*
X79399523Y-107293452D01*
X78328095Y-105626785D02*
X78328095Y-106936309D01*
X78447142Y-107174404D01*
X78685238Y-107293452D01*
X79042380Y-107293452D01*
X79280476Y-107174404D01*
X79399523Y-107055357D01*
X80232857Y-105626785D02*
X81185238Y-105626785D01*
X80590000Y-104793452D02*
X80590000Y-106936309D01*
X80709047Y-107174404D01*
X80947142Y-107293452D01*
X81185238Y-107293452D01*
X82970952Y-107174404D02*
X82732857Y-107293452D01*
X82256666Y-107293452D01*
X82018571Y-107174404D01*
X81899523Y-106936309D01*
X81899523Y-105983928D01*
X82018571Y-105745833D01*
X82256666Y-105626785D01*
X82732857Y-105626785D01*
X82970952Y-105745833D01*
X83090000Y-105983928D01*
X83090000Y-106222023D01*
X81899523Y-106460119D01*
X84161428Y-107293452D02*
X84161428Y-105626785D01*
X84161428Y-106102976D02*
X84280476Y-105864880D01*
X84399523Y-105745833D01*
X84637619Y-105626785D01*
X84875714Y-105626785D01*
X87613809Y-105983928D02*
X88447142Y-105983928D01*
X88804285Y-107293452D02*
X87613809Y-107293452D01*
X87613809Y-104793452D01*
X88804285Y-104793452D01*
X89875714Y-105626785D02*
X89875714Y-107293452D01*
X89875714Y-105864880D02*
X89994761Y-105745833D01*
X90232857Y-105626785D01*
X90590000Y-105626785D01*
X90828095Y-105745833D01*
X90947142Y-105983928D01*
X90947142Y-107293452D01*
X93209047Y-105626785D02*
X93209047Y-107650595D01*
X93090000Y-107888690D01*
X92970952Y-108007738D01*
X92732857Y-108126785D01*
X92375714Y-108126785D01*
X92137619Y-108007738D01*
X93209047Y-107174404D02*
X92970952Y-107293452D01*
X92494761Y-107293452D01*
X92256666Y-107174404D01*
X92137619Y-107055357D01*
X92018571Y-106817261D01*
X92018571Y-106102976D01*
X92137619Y-105864880D01*
X92256666Y-105745833D01*
X92494761Y-105626785D01*
X92970952Y-105626785D01*
X93209047Y-105745833D01*
X94399523Y-107293452D02*
X94399523Y-105626785D01*
X94399523Y-104793452D02*
X94280476Y-104912500D01*
X94399523Y-105031547D01*
X94518571Y-104912500D01*
X94399523Y-104793452D01*
X94399523Y-105031547D01*
X95590000Y-105626785D02*
X95590000Y-107293452D01*
X95590000Y-105864880D02*
X95709047Y-105745833D01*
X95947142Y-105626785D01*
X96304285Y-105626785D01*
X96542380Y-105745833D01*
X96661428Y-105983928D01*
X96661428Y-107293452D01*
X98804285Y-107174404D02*
X98566190Y-107293452D01*
X98090000Y-107293452D01*
X97851904Y-107174404D01*
X97732857Y-106936309D01*
X97732857Y-105983928D01*
X97851904Y-105745833D01*
X98090000Y-105626785D01*
X98566190Y-105626785D01*
X98804285Y-105745833D01*
X98923333Y-105983928D01*
X98923333Y-106222023D01*
X97732857Y-106460119D01*
X100947142Y-107174404D02*
X100709047Y-107293452D01*
X100232857Y-107293452D01*
X99994761Y-107174404D01*
X99875714Y-106936309D01*
X99875714Y-105983928D01*
X99994761Y-105745833D01*
X100232857Y-105626785D01*
X100709047Y-105626785D01*
X100947142Y-105745833D01*
X101066190Y-105983928D01*
X101066190Y-106222023D01*
X99875714Y-106460119D01*
X102137619Y-107293452D02*
X102137619Y-105626785D01*
X102137619Y-106102976D02*
X102256666Y-105864880D01*
X102375714Y-105745833D01*
X102613809Y-105626785D01*
X102851904Y-105626785D01*
X103685238Y-107293452D02*
X103685238Y-105626785D01*
X103685238Y-104793452D02*
X103566190Y-104912500D01*
X103685238Y-105031547D01*
X103804285Y-104912500D01*
X103685238Y-104793452D01*
X103685238Y-105031547D01*
X104875714Y-105626785D02*
X104875714Y-107293452D01*
X104875714Y-105864880D02*
X104994761Y-105745833D01*
X105232857Y-105626785D01*
X105589999Y-105626785D01*
X105828095Y-105745833D01*
X105947142Y-105983928D01*
X105947142Y-107293452D01*
X108209047Y-105626785D02*
X108209047Y-107650595D01*
X108089999Y-107888690D01*
X107970952Y-108007738D01*
X107732857Y-108126785D01*
X107375714Y-108126785D01*
X107137619Y-108007738D01*
X108209047Y-107174404D02*
X107970952Y-107293452D01*
X107494761Y-107293452D01*
X107256666Y-107174404D01*
X107137619Y-107055357D01*
X107018571Y-106817261D01*
X107018571Y-106102976D01*
X107137619Y-105864880D01*
X107256666Y-105745833D01*
X107494761Y-105626785D01*
X107970952Y-105626785D01*
X108209047Y-105745833D01*
D12*
%TO.C,R3*%
X161622380Y-100786666D02*
X161146190Y-101120000D01*
X161622380Y-101358095D02*
X160622380Y-101358095D01*
X160622380Y-100977142D01*
X160670000Y-100881904D01*
X160717619Y-100834285D01*
X160812857Y-100786666D01*
X160955714Y-100786666D01*
X161050952Y-100834285D01*
X161098571Y-100881904D01*
X161146190Y-100977142D01*
X161146190Y-101358095D01*
X160622380Y-100453333D02*
X160622380Y-99834285D01*
X161003333Y-100167619D01*
X161003333Y-100024761D01*
X161050952Y-99929523D01*
X161098571Y-99881904D01*
X161193809Y-99834285D01*
X161431904Y-99834285D01*
X161527142Y-99881904D01*
X161574761Y-99929523D01*
X161622380Y-100024761D01*
X161622380Y-100310476D01*
X161574761Y-100405714D01*
X161527142Y-100453333D01*
%TO.C,C1*%
X188818396Y-106243320D02*
X188885739Y-106243320D01*
X189020426Y-106310664D01*
X189087770Y-106378008D01*
X189155113Y-106512695D01*
X189155113Y-106647382D01*
X189121442Y-106748397D01*
X189020426Y-106916756D01*
X188919411Y-107017771D01*
X188751052Y-107118786D01*
X188650037Y-107152458D01*
X188515350Y-107152458D01*
X188380663Y-107085114D01*
X188313319Y-107017771D01*
X188245976Y-106883084D01*
X188245976Y-106815740D01*
X188212304Y-105502542D02*
X188616365Y-105906603D01*
X188414335Y-105704572D02*
X187707228Y-106411679D01*
X187875587Y-106378008D01*
X188010274Y-106378007D01*
X188111289Y-106411679D01*
%TO.C,C11*%
X166417142Y-119072857D02*
X166464761Y-119120476D01*
X166512380Y-119263333D01*
X166512380Y-119358571D01*
X166464761Y-119501428D01*
X166369523Y-119596666D01*
X166274285Y-119644285D01*
X166083809Y-119691904D01*
X165940952Y-119691904D01*
X165750476Y-119644285D01*
X165655238Y-119596666D01*
X165560000Y-119501428D01*
X165512380Y-119358571D01*
X165512380Y-119263333D01*
X165560000Y-119120476D01*
X165607619Y-119072857D01*
X166512380Y-118120476D02*
X166512380Y-118691904D01*
X166512380Y-118406190D02*
X165512380Y-118406190D01*
X165655238Y-118501428D01*
X165750476Y-118596666D01*
X165798095Y-118691904D01*
X166512380Y-117168095D02*
X166512380Y-117739523D01*
X166512380Y-117453809D02*
X165512380Y-117453809D01*
X165655238Y-117549047D01*
X165750476Y-117644285D01*
X165798095Y-117739523D01*
%TO.C,C20*%
X162407142Y-99527142D02*
X162359523Y-99574761D01*
X162216666Y-99622380D01*
X162121428Y-99622380D01*
X161978571Y-99574761D01*
X161883333Y-99479523D01*
X161835714Y-99384285D01*
X161788095Y-99193809D01*
X161788095Y-99050952D01*
X161835714Y-98860476D01*
X161883333Y-98765238D01*
X161978571Y-98670000D01*
X162121428Y-98622380D01*
X162216666Y-98622380D01*
X162359523Y-98670000D01*
X162407142Y-98717619D01*
X162788095Y-98717619D02*
X162835714Y-98670000D01*
X162930952Y-98622380D01*
X163169047Y-98622380D01*
X163264285Y-98670000D01*
X163311904Y-98717619D01*
X163359523Y-98812857D01*
X163359523Y-98908095D01*
X163311904Y-99050952D01*
X162740476Y-99622380D01*
X163359523Y-99622380D01*
X163978571Y-98622380D02*
X164073809Y-98622380D01*
X164169047Y-98670000D01*
X164216666Y-98717619D01*
X164264285Y-98812857D01*
X164311904Y-99003333D01*
X164311904Y-99241428D01*
X164264285Y-99431904D01*
X164216666Y-99527142D01*
X164169047Y-99574761D01*
X164073809Y-99622380D01*
X163978571Y-99622380D01*
X163883333Y-99574761D01*
X163835714Y-99527142D01*
X163788095Y-99431904D01*
X163740476Y-99241428D01*
X163740476Y-99003333D01*
X163788095Y-98812857D01*
X163835714Y-98717619D01*
X163883333Y-98670000D01*
X163978571Y-98622380D01*
%TO.C,SW1*%
X170606666Y-77334761D02*
X170749523Y-77382380D01*
X170987619Y-77382380D01*
X171082857Y-77334761D01*
X171130476Y-77287142D01*
X171178095Y-77191904D01*
X171178095Y-77096666D01*
X171130476Y-77001428D01*
X171082857Y-76953809D01*
X170987619Y-76906190D01*
X170797142Y-76858571D01*
X170701904Y-76810952D01*
X170654285Y-76763333D01*
X170606666Y-76668095D01*
X170606666Y-76572857D01*
X170654285Y-76477619D01*
X170701904Y-76430000D01*
X170797142Y-76382380D01*
X171035238Y-76382380D01*
X171178095Y-76430000D01*
X171511428Y-76382380D02*
X171749523Y-77382380D01*
X171940000Y-76668095D01*
X172130476Y-77382380D01*
X172368571Y-76382380D01*
X173273333Y-77382380D02*
X172701904Y-77382380D01*
X172987619Y-77382380D02*
X172987619Y-76382380D01*
X172892380Y-76525238D01*
X172797142Y-76620476D01*
X172701904Y-76668095D01*
%TO.C,D17*%
X195569808Y-87226593D02*
X194862701Y-87933699D01*
X194694342Y-87765341D01*
X194626999Y-87630654D01*
X194626999Y-87495967D01*
X194660671Y-87394951D01*
X194761686Y-87226593D01*
X194862701Y-87125577D01*
X195031060Y-87024562D01*
X195132075Y-86990890D01*
X195266762Y-86990890D01*
X195401449Y-87058234D01*
X195569808Y-87226593D01*
X194492312Y-86149096D02*
X194896373Y-86553157D01*
X194694342Y-86351127D02*
X193987235Y-87058234D01*
X194155594Y-87024562D01*
X194290281Y-87024562D01*
X194391297Y-87058234D01*
X193549503Y-86620501D02*
X193078098Y-86149096D01*
X194088251Y-85745035D01*
%TO.C,R1*%
X182833333Y-91602380D02*
X182500000Y-91126190D01*
X182261904Y-91602380D02*
X182261904Y-90602380D01*
X182642857Y-90602380D01*
X182738095Y-90650000D01*
X182785714Y-90697619D01*
X182833333Y-90792857D01*
X182833333Y-90935714D01*
X182785714Y-91030952D01*
X182738095Y-91078571D01*
X182642857Y-91126190D01*
X182261904Y-91126190D01*
X183785714Y-91602380D02*
X183214285Y-91602380D01*
X183500000Y-91602380D02*
X183500000Y-90602380D01*
X183404761Y-90745238D01*
X183309523Y-90840476D01*
X183214285Y-90888095D01*
%TO.C,D16*%
X122979096Y-138347214D02*
X122271990Y-137640107D01*
X122440348Y-137471748D01*
X122575035Y-137404405D01*
X122709722Y-137404405D01*
X122810738Y-137438077D01*
X122979096Y-137539092D01*
X123080112Y-137640107D01*
X123181127Y-137808466D01*
X123214799Y-137909481D01*
X123214799Y-138044168D01*
X123147455Y-138178855D01*
X122979096Y-138347214D01*
X124056593Y-137269718D02*
X123652532Y-137673779D01*
X123854562Y-137471748D02*
X123147455Y-136764641D01*
X123181127Y-136933000D01*
X123181127Y-137067687D01*
X123147455Y-137168703D01*
X123955577Y-135956519D02*
X123820890Y-136091206D01*
X123787219Y-136192222D01*
X123787219Y-136259565D01*
X123820890Y-136427924D01*
X123921906Y-136596283D01*
X124191280Y-136865657D01*
X124292295Y-136899328D01*
X124359638Y-136899328D01*
X124460654Y-136865657D01*
X124595341Y-136730970D01*
X124629012Y-136629954D01*
X124629012Y-136562611D01*
X124595341Y-136461596D01*
X124426982Y-136293237D01*
X124325967Y-136259565D01*
X124258623Y-136259565D01*
X124157608Y-136293237D01*
X124022921Y-136427924D01*
X123989249Y-136528939D01*
X123989249Y-136596283D01*
X124022921Y-136697298D01*
%TO.C,D13*%
X126485714Y-122112380D02*
X126485714Y-121112380D01*
X126723809Y-121112380D01*
X126866666Y-121160000D01*
X126961904Y-121255238D01*
X127009523Y-121350476D01*
X127057142Y-121540952D01*
X127057142Y-121683809D01*
X127009523Y-121874285D01*
X126961904Y-121969523D01*
X126866666Y-122064761D01*
X126723809Y-122112380D01*
X126485714Y-122112380D01*
X128009523Y-122112380D02*
X127438095Y-122112380D01*
X127723809Y-122112380D02*
X127723809Y-121112380D01*
X127628571Y-121255238D01*
X127533333Y-121350476D01*
X127438095Y-121398095D01*
X128342857Y-121112380D02*
X128961904Y-121112380D01*
X128628571Y-121493333D01*
X128771428Y-121493333D01*
X128866666Y-121540952D01*
X128914285Y-121588571D01*
X128961904Y-121683809D01*
X128961904Y-121921904D01*
X128914285Y-122017142D01*
X128866666Y-122064761D01*
X128771428Y-122112380D01*
X128485714Y-122112380D01*
X128390476Y-122064761D01*
X128342857Y-122017142D01*
%TO.C,C9*%
X161733333Y-122409642D02*
X161685714Y-122457261D01*
X161542857Y-122504880D01*
X161447619Y-122504880D01*
X161304761Y-122457261D01*
X161209523Y-122362023D01*
X161161904Y-122266785D01*
X161114285Y-122076309D01*
X161114285Y-121933452D01*
X161161904Y-121742976D01*
X161209523Y-121647738D01*
X161304761Y-121552500D01*
X161447619Y-121504880D01*
X161542857Y-121504880D01*
X161685714Y-121552500D01*
X161733333Y-121600119D01*
X162209523Y-122504880D02*
X162400000Y-122504880D01*
X162495238Y-122457261D01*
X162542857Y-122409642D01*
X162638095Y-122266785D01*
X162685714Y-122076309D01*
X162685714Y-121695357D01*
X162638095Y-121600119D01*
X162590476Y-121552500D01*
X162495238Y-121504880D01*
X162304761Y-121504880D01*
X162209523Y-121552500D01*
X162161904Y-121600119D01*
X162114285Y-121695357D01*
X162114285Y-121933452D01*
X162161904Y-122028690D01*
X162209523Y-122076309D01*
X162304761Y-122123928D01*
X162495238Y-122123928D01*
X162590476Y-122076309D01*
X162638095Y-122028690D01*
X162685714Y-121933452D01*
D11*
%TO.C,G\u002A\u002A\u002A*%
X123587428Y-137998000D02*
X123442285Y-137925428D01*
X123224571Y-137925428D01*
X123006857Y-137998000D01*
X122861714Y-138143142D01*
X122789142Y-138288285D01*
X122716571Y-138578571D01*
X122716571Y-138796285D01*
X122789142Y-139086571D01*
X122861714Y-139231714D01*
X123006857Y-139376857D01*
X123224571Y-139449428D01*
X123369714Y-139449428D01*
X123587428Y-139376857D01*
X123660000Y-139304285D01*
X123660000Y-138796285D01*
X123369714Y-138796285D01*
X124530857Y-137925428D02*
X124530857Y-138288285D01*
X124168000Y-138143142D02*
X124530857Y-138288285D01*
X124893714Y-138143142D01*
X124313142Y-138578571D02*
X124530857Y-138288285D01*
X124748571Y-138578571D01*
X125692000Y-137925428D02*
X125692000Y-138288285D01*
X125329142Y-138143142D02*
X125692000Y-138288285D01*
X126054857Y-138143142D01*
X125474285Y-138578571D02*
X125692000Y-138288285D01*
X125909714Y-138578571D01*
X126853142Y-137925428D02*
X126853142Y-138288285D01*
X126490285Y-138143142D02*
X126853142Y-138288285D01*
X127216000Y-138143142D01*
X126635428Y-138578571D02*
X126853142Y-138288285D01*
X127070857Y-138578571D01*
D12*
%TO.C,R6*%
X197887732Y-89707969D02*
X197786717Y-90280389D01*
X198291793Y-90112030D02*
X197584687Y-90819137D01*
X197315312Y-90549763D01*
X197281641Y-90448748D01*
X197281641Y-90381404D01*
X197315312Y-90280389D01*
X197416328Y-90179374D01*
X197517343Y-90145702D01*
X197584687Y-90145702D01*
X197685702Y-90179374D01*
X197955076Y-90448748D01*
X196574534Y-89808984D02*
X196709221Y-89943671D01*
X196810236Y-89977343D01*
X196877580Y-89977343D01*
X197045938Y-89943671D01*
X197214297Y-89842656D01*
X197483671Y-89573282D01*
X197517343Y-89472267D01*
X197517343Y-89404923D01*
X197483671Y-89303908D01*
X197348984Y-89169221D01*
X197247969Y-89135549D01*
X197180625Y-89135549D01*
X197079610Y-89169221D01*
X196911251Y-89337580D01*
X196877580Y-89438595D01*
X196877580Y-89505938D01*
X196911251Y-89606954D01*
X197045938Y-89741641D01*
X197146954Y-89775312D01*
X197214297Y-89775312D01*
X197315312Y-89741641D01*
%TO.C,D4*%
X118582380Y-127248095D02*
X117582380Y-127248095D01*
X117582380Y-127010000D01*
X117630000Y-126867142D01*
X117725238Y-126771904D01*
X117820476Y-126724285D01*
X118010952Y-126676666D01*
X118153809Y-126676666D01*
X118344285Y-126724285D01*
X118439523Y-126771904D01*
X118534761Y-126867142D01*
X118582380Y-127010000D01*
X118582380Y-127248095D01*
X117915714Y-125819523D02*
X118582380Y-125819523D01*
X117534761Y-126057619D02*
X118249047Y-126295714D01*
X118249047Y-125676666D01*
%TO.C,C13*%
X176697142Y-104597142D02*
X176649523Y-104644761D01*
X176506666Y-104692380D01*
X176411428Y-104692380D01*
X176268571Y-104644761D01*
X176173333Y-104549523D01*
X176125714Y-104454285D01*
X176078095Y-104263809D01*
X176078095Y-104120952D01*
X176125714Y-103930476D01*
X176173333Y-103835238D01*
X176268571Y-103740000D01*
X176411428Y-103692380D01*
X176506666Y-103692380D01*
X176649523Y-103740000D01*
X176697142Y-103787619D01*
X177649523Y-104692380D02*
X177078095Y-104692380D01*
X177363809Y-104692380D02*
X177363809Y-103692380D01*
X177268571Y-103835238D01*
X177173333Y-103930476D01*
X177078095Y-103978095D01*
X177982857Y-103692380D02*
X178601904Y-103692380D01*
X178268571Y-104073333D01*
X178411428Y-104073333D01*
X178506666Y-104120952D01*
X178554285Y-104168571D01*
X178601904Y-104263809D01*
X178601904Y-104501904D01*
X178554285Y-104597142D01*
X178506666Y-104644761D01*
X178411428Y-104692380D01*
X178125714Y-104692380D01*
X178030476Y-104644761D01*
X177982857Y-104597142D01*
%TO.C,C19*%
X173777142Y-108412857D02*
X173824761Y-108460476D01*
X173872380Y-108603333D01*
X173872380Y-108698571D01*
X173824761Y-108841428D01*
X173729523Y-108936666D01*
X173634285Y-108984285D01*
X173443809Y-109031904D01*
X173300952Y-109031904D01*
X173110476Y-108984285D01*
X173015238Y-108936666D01*
X172920000Y-108841428D01*
X172872380Y-108698571D01*
X172872380Y-108603333D01*
X172920000Y-108460476D01*
X172967619Y-108412857D01*
X173872380Y-107460476D02*
X173872380Y-108031904D01*
X173872380Y-107746190D02*
X172872380Y-107746190D01*
X173015238Y-107841428D01*
X173110476Y-107936666D01*
X173158095Y-108031904D01*
X173872380Y-106984285D02*
X173872380Y-106793809D01*
X173824761Y-106698571D01*
X173777142Y-106650952D01*
X173634285Y-106555714D01*
X173443809Y-106508095D01*
X173062857Y-106508095D01*
X172967619Y-106555714D01*
X172920000Y-106603333D01*
X172872380Y-106698571D01*
X172872380Y-106889047D01*
X172920000Y-106984285D01*
X172967619Y-107031904D01*
X173062857Y-107079523D01*
X173300952Y-107079523D01*
X173396190Y-107031904D01*
X173443809Y-106984285D01*
X173491428Y-106889047D01*
X173491428Y-106698571D01*
X173443809Y-106603333D01*
X173396190Y-106555714D01*
X173300952Y-106508095D01*
D13*
%TO.C,G\u002A\u002A\u002A*%
X102787857Y-98765000D02*
X102773571Y-98757857D01*
X102752142Y-98757857D01*
X102730714Y-98765000D01*
X102716428Y-98779285D01*
X102709285Y-98793571D01*
X102702142Y-98822142D01*
X102702142Y-98843571D01*
X102709285Y-98872142D01*
X102716428Y-98886428D01*
X102730714Y-98900714D01*
X102752142Y-98907857D01*
X102766428Y-98907857D01*
X102787857Y-98900714D01*
X102795000Y-98893571D01*
X102795000Y-98843571D01*
X102766428Y-98843571D01*
X102880714Y-98757857D02*
X102880714Y-98793571D01*
X102845000Y-98779285D02*
X102880714Y-98793571D01*
X102916428Y-98779285D01*
X102859285Y-98822142D02*
X102880714Y-98793571D01*
X102902142Y-98822142D01*
X102995000Y-98757857D02*
X102995000Y-98793571D01*
X102959285Y-98779285D02*
X102995000Y-98793571D01*
X103030714Y-98779285D01*
X102973571Y-98822142D02*
X102995000Y-98793571D01*
X103016428Y-98822142D01*
X103109285Y-98757857D02*
X103109285Y-98793571D01*
X103073571Y-98779285D02*
X103109285Y-98793571D01*
X103145000Y-98779285D01*
X103087857Y-98822142D02*
X103109285Y-98793571D01*
X103130714Y-98822142D01*
D12*
%TO.C,C16*%
X169827142Y-107172857D02*
X169874761Y-107220476D01*
X169922380Y-107363333D01*
X169922380Y-107458571D01*
X169874761Y-107601428D01*
X169779523Y-107696666D01*
X169684285Y-107744285D01*
X169493809Y-107791904D01*
X169350952Y-107791904D01*
X169160476Y-107744285D01*
X169065238Y-107696666D01*
X168970000Y-107601428D01*
X168922380Y-107458571D01*
X168922380Y-107363333D01*
X168970000Y-107220476D01*
X169017619Y-107172857D01*
X169922380Y-106220476D02*
X169922380Y-106791904D01*
X169922380Y-106506190D02*
X168922380Y-106506190D01*
X169065238Y-106601428D01*
X169160476Y-106696666D01*
X169208095Y-106791904D01*
X168922380Y-105363333D02*
X168922380Y-105553809D01*
X168970000Y-105649047D01*
X169017619Y-105696666D01*
X169160476Y-105791904D01*
X169350952Y-105839523D01*
X169731904Y-105839523D01*
X169827142Y-105791904D01*
X169874761Y-105744285D01*
X169922380Y-105649047D01*
X169922380Y-105458571D01*
X169874761Y-105363333D01*
X169827142Y-105315714D01*
X169731904Y-105268095D01*
X169493809Y-105268095D01*
X169398571Y-105315714D01*
X169350952Y-105363333D01*
X169303333Y-105458571D01*
X169303333Y-105649047D01*
X169350952Y-105744285D01*
X169398571Y-105791904D01*
X169493809Y-105839523D01*
%TO.C,J3*%
X116552380Y-86403333D02*
X117266666Y-86403333D01*
X117409523Y-86450952D01*
X117504761Y-86546190D01*
X117552380Y-86689047D01*
X117552380Y-86784285D01*
X116552380Y-86022380D02*
X116552380Y-85403333D01*
X116933333Y-85736666D01*
X116933333Y-85593809D01*
X116980952Y-85498571D01*
X117028571Y-85450952D01*
X117123809Y-85403333D01*
X117361904Y-85403333D01*
X117457142Y-85450952D01*
X117504761Y-85498571D01*
X117552380Y-85593809D01*
X117552380Y-85879523D01*
X117504761Y-85974761D01*
X117457142Y-86022380D01*
%TO.C,C3*%
X184407142Y-95746666D02*
X184454761Y-95794285D01*
X184502380Y-95937142D01*
X184502380Y-96032380D01*
X184454761Y-96175238D01*
X184359523Y-96270476D01*
X184264285Y-96318095D01*
X184073809Y-96365714D01*
X183930952Y-96365714D01*
X183740476Y-96318095D01*
X183645238Y-96270476D01*
X183550000Y-96175238D01*
X183502380Y-96032380D01*
X183502380Y-95937142D01*
X183550000Y-95794285D01*
X183597619Y-95746666D01*
X183502380Y-95413333D02*
X183502380Y-94794285D01*
X183883333Y-95127619D01*
X183883333Y-94984761D01*
X183930952Y-94889523D01*
X183978571Y-94841904D01*
X184073809Y-94794285D01*
X184311904Y-94794285D01*
X184407142Y-94841904D01*
X184454761Y-94889523D01*
X184502380Y-94984761D01*
X184502380Y-95270476D01*
X184454761Y-95365714D01*
X184407142Y-95413333D01*
%TO.C,U1*%
X181211461Y-110266635D02*
X181783881Y-110839055D01*
X181884896Y-110872727D01*
X181952240Y-110872727D01*
X182053255Y-110839055D01*
X182187942Y-110704368D01*
X182221614Y-110603353D01*
X182221614Y-110536009D01*
X182187942Y-110434994D01*
X181615522Y-109862574D01*
X183029736Y-109862574D02*
X182625675Y-110266635D01*
X182827705Y-110064605D02*
X182120599Y-109357498D01*
X182154270Y-109525857D01*
X182154270Y-109660544D01*
X182120599Y-109761559D01*
%TO.C,C6*%
X175964443Y-98350145D02*
X175964443Y-98417488D01*
X175897099Y-98552175D01*
X175829756Y-98619519D01*
X175695068Y-98686862D01*
X175560381Y-98686862D01*
X175459366Y-98653191D01*
X175291007Y-98552175D01*
X175189992Y-98451160D01*
X175088977Y-98282801D01*
X175055305Y-98181786D01*
X175055305Y-98047099D01*
X175122649Y-97912412D01*
X175189992Y-97845068D01*
X175324679Y-97777725D01*
X175392023Y-97777725D01*
X175930771Y-97104290D02*
X175796084Y-97238977D01*
X175762412Y-97339992D01*
X175762412Y-97407336D01*
X175796084Y-97575694D01*
X175897099Y-97744053D01*
X176166473Y-98013427D01*
X176267488Y-98047099D01*
X176334832Y-98047099D01*
X176435847Y-98013427D01*
X176570534Y-97878740D01*
X176604206Y-97777725D01*
X176604206Y-97710381D01*
X176570534Y-97609366D01*
X176402175Y-97441007D01*
X176301160Y-97407336D01*
X176233817Y-97407336D01*
X176132801Y-97441007D01*
X175998114Y-97575694D01*
X175964443Y-97676710D01*
X175964443Y-97744053D01*
X175998114Y-97845068D01*
%TO.C,D8*%
X132242380Y-127005595D02*
X131242380Y-127005595D01*
X131242380Y-126767500D01*
X131290000Y-126624642D01*
X131385238Y-126529404D01*
X131480476Y-126481785D01*
X131670952Y-126434166D01*
X131813809Y-126434166D01*
X132004285Y-126481785D01*
X132099523Y-126529404D01*
X132194761Y-126624642D01*
X132242380Y-126767500D01*
X132242380Y-127005595D01*
X131670952Y-125862738D02*
X131623333Y-125957976D01*
X131575714Y-126005595D01*
X131480476Y-126053214D01*
X131432857Y-126053214D01*
X131337619Y-126005595D01*
X131290000Y-125957976D01*
X131242380Y-125862738D01*
X131242380Y-125672261D01*
X131290000Y-125577023D01*
X131337619Y-125529404D01*
X131432857Y-125481785D01*
X131480476Y-125481785D01*
X131575714Y-125529404D01*
X131623333Y-125577023D01*
X131670952Y-125672261D01*
X131670952Y-125862738D01*
X131718571Y-125957976D01*
X131766190Y-126005595D01*
X131861428Y-126053214D01*
X132051904Y-126053214D01*
X132147142Y-126005595D01*
X132194761Y-125957976D01*
X132242380Y-125862738D01*
X132242380Y-125672261D01*
X132194761Y-125577023D01*
X132147142Y-125529404D01*
X132051904Y-125481785D01*
X131861428Y-125481785D01*
X131766190Y-125529404D01*
X131718571Y-125577023D01*
X131670952Y-125672261D01*
%TO.C,C4*%
X156753333Y-95297142D02*
X156705714Y-95344761D01*
X156562857Y-95392380D01*
X156467619Y-95392380D01*
X156324761Y-95344761D01*
X156229523Y-95249523D01*
X156181904Y-95154285D01*
X156134285Y-94963809D01*
X156134285Y-94820952D01*
X156181904Y-94630476D01*
X156229523Y-94535238D01*
X156324761Y-94440000D01*
X156467619Y-94392380D01*
X156562857Y-94392380D01*
X156705714Y-94440000D01*
X156753333Y-94487619D01*
X157610476Y-94725714D02*
X157610476Y-95392380D01*
X157372380Y-94344761D02*
X157134285Y-95059047D01*
X157753333Y-95059047D01*
%TO.C,D15*%
X124429096Y-130487214D02*
X123721990Y-129780107D01*
X123890348Y-129611748D01*
X124025035Y-129544405D01*
X124159722Y-129544405D01*
X124260738Y-129578077D01*
X124429096Y-129679092D01*
X124530112Y-129780107D01*
X124631127Y-129948466D01*
X124664799Y-130049481D01*
X124664799Y-130184168D01*
X124597455Y-130318855D01*
X124429096Y-130487214D01*
X125506593Y-129409718D02*
X125102532Y-129813779D01*
X125304562Y-129611748D02*
X124597455Y-128904641D01*
X124631127Y-129073000D01*
X124631127Y-129207687D01*
X124597455Y-129308703D01*
X125439249Y-128062848D02*
X125102532Y-128399565D01*
X125405577Y-128769954D01*
X125405577Y-128702611D01*
X125439249Y-128601596D01*
X125607608Y-128433237D01*
X125708623Y-128399565D01*
X125775967Y-128399565D01*
X125876982Y-128433237D01*
X126045341Y-128601596D01*
X126079012Y-128702611D01*
X126079012Y-128769954D01*
X126045341Y-128870970D01*
X125876982Y-129039328D01*
X125775967Y-129073000D01*
X125708623Y-129073000D01*
%TO.C,C17*%
X171717142Y-92807142D02*
X171669523Y-92854761D01*
X171526666Y-92902380D01*
X171431428Y-92902380D01*
X171288571Y-92854761D01*
X171193333Y-92759523D01*
X171145714Y-92664285D01*
X171098095Y-92473809D01*
X171098095Y-92330952D01*
X171145714Y-92140476D01*
X171193333Y-92045238D01*
X171288571Y-91950000D01*
X171431428Y-91902380D01*
X171526666Y-91902380D01*
X171669523Y-91950000D01*
X171717142Y-91997619D01*
X172669523Y-92902380D02*
X172098095Y-92902380D01*
X172383809Y-92902380D02*
X172383809Y-91902380D01*
X172288571Y-92045238D01*
X172193333Y-92140476D01*
X172098095Y-92188095D01*
X173002857Y-91902380D02*
X173669523Y-91902380D01*
X173240952Y-92902380D01*
%TO.C,D12*%
X147785714Y-127602380D02*
X147785714Y-126602380D01*
X148023809Y-126602380D01*
X148166666Y-126650000D01*
X148261904Y-126745238D01*
X148309523Y-126840476D01*
X148357142Y-127030952D01*
X148357142Y-127173809D01*
X148309523Y-127364285D01*
X148261904Y-127459523D01*
X148166666Y-127554761D01*
X148023809Y-127602380D01*
X147785714Y-127602380D01*
X149309523Y-127602380D02*
X148738095Y-127602380D01*
X149023809Y-127602380D02*
X149023809Y-126602380D01*
X148928571Y-126745238D01*
X148833333Y-126840476D01*
X148738095Y-126888095D01*
X149690476Y-126697619D02*
X149738095Y-126650000D01*
X149833333Y-126602380D01*
X150071428Y-126602380D01*
X150166666Y-126650000D01*
X150214285Y-126697619D01*
X150261904Y-126792857D01*
X150261904Y-126888095D01*
X150214285Y-127030952D01*
X149642857Y-127602380D01*
X150261904Y-127602380D01*
D11*
%TO.C,G\u002A\u002A\u002A*%
X122727428Y-41758000D02*
X122582285Y-41685428D01*
X122364571Y-41685428D01*
X122146857Y-41758000D01*
X122001714Y-41903142D01*
X121929142Y-42048285D01*
X121856571Y-42338571D01*
X121856571Y-42556285D01*
X121929142Y-42846571D01*
X122001714Y-42991714D01*
X122146857Y-43136857D01*
X122364571Y-43209428D01*
X122509714Y-43209428D01*
X122727428Y-43136857D01*
X122800000Y-43064285D01*
X122800000Y-42556285D01*
X122509714Y-42556285D01*
X123670857Y-41685428D02*
X123670857Y-42048285D01*
X123308000Y-41903142D02*
X123670857Y-42048285D01*
X124033714Y-41903142D01*
X123453142Y-42338571D02*
X123670857Y-42048285D01*
X123888571Y-42338571D01*
X124832000Y-41685428D02*
X124832000Y-42048285D01*
X124469142Y-41903142D02*
X124832000Y-42048285D01*
X125194857Y-41903142D01*
X124614285Y-42338571D02*
X124832000Y-42048285D01*
X125049714Y-42338571D01*
X125993142Y-41685428D02*
X125993142Y-42048285D01*
X125630285Y-41903142D02*
X125993142Y-42048285D01*
X126356000Y-41903142D01*
X125775428Y-42338571D02*
X125993142Y-42048285D01*
X126210857Y-42338571D01*
D10*
%TO.C,IC2*%
X167396666Y-100593333D02*
X166696666Y-100593333D01*
X167330000Y-99860000D02*
X167363333Y-99893333D01*
X167396666Y-99993333D01*
X167396666Y-100060000D01*
X167363333Y-100160000D01*
X167296666Y-100226666D01*
X167230000Y-100260000D01*
X167096666Y-100293333D01*
X166996666Y-100293333D01*
X166863333Y-100260000D01*
X166796666Y-100226666D01*
X166730000Y-100160000D01*
X166696666Y-100060000D01*
X166696666Y-99993333D01*
X166730000Y-99893333D01*
X166763333Y-99860000D01*
X166763333Y-99593333D02*
X166730000Y-99560000D01*
X166696666Y-99493333D01*
X166696666Y-99326666D01*
X166730000Y-99260000D01*
X166763333Y-99226666D01*
X166830000Y-99193333D01*
X166896666Y-99193333D01*
X166996666Y-99226666D01*
X167396666Y-99626666D01*
X167396666Y-99193333D01*
D12*
%TO.C,C15*%
X172487142Y-108412857D02*
X172534761Y-108460476D01*
X172582380Y-108603333D01*
X172582380Y-108698571D01*
X172534761Y-108841428D01*
X172439523Y-108936666D01*
X172344285Y-108984285D01*
X172153809Y-109031904D01*
X172010952Y-109031904D01*
X171820476Y-108984285D01*
X171725238Y-108936666D01*
X171630000Y-108841428D01*
X171582380Y-108698571D01*
X171582380Y-108603333D01*
X171630000Y-108460476D01*
X171677619Y-108412857D01*
X172582380Y-107460476D02*
X172582380Y-108031904D01*
X172582380Y-107746190D02*
X171582380Y-107746190D01*
X171725238Y-107841428D01*
X171820476Y-107936666D01*
X171868095Y-108031904D01*
X171582380Y-106555714D02*
X171582380Y-107031904D01*
X172058571Y-107079523D01*
X172010952Y-107031904D01*
X171963333Y-106936666D01*
X171963333Y-106698571D01*
X172010952Y-106603333D01*
X172058571Y-106555714D01*
X172153809Y-106508095D01*
X172391904Y-106508095D01*
X172487142Y-106555714D01*
X172534761Y-106603333D01*
X172582380Y-106698571D01*
X172582380Y-106936666D01*
X172534761Y-107031904D01*
X172487142Y-107079523D01*
%TO.C,C10*%
X176627142Y-103357142D02*
X176579523Y-103404761D01*
X176436666Y-103452380D01*
X176341428Y-103452380D01*
X176198571Y-103404761D01*
X176103333Y-103309523D01*
X176055714Y-103214285D01*
X176008095Y-103023809D01*
X176008095Y-102880952D01*
X176055714Y-102690476D01*
X176103333Y-102595238D01*
X176198571Y-102500000D01*
X176341428Y-102452380D01*
X176436666Y-102452380D01*
X176579523Y-102500000D01*
X176627142Y-102547619D01*
X177579523Y-103452380D02*
X177008095Y-103452380D01*
X177293809Y-103452380D02*
X177293809Y-102452380D01*
X177198571Y-102595238D01*
X177103333Y-102690476D01*
X177008095Y-102738095D01*
X178198571Y-102452380D02*
X178293809Y-102452380D01*
X178389047Y-102500000D01*
X178436666Y-102547619D01*
X178484285Y-102642857D01*
X178531904Y-102833333D01*
X178531904Y-103071428D01*
X178484285Y-103261904D01*
X178436666Y-103357142D01*
X178389047Y-103404761D01*
X178293809Y-103452380D01*
X178198571Y-103452380D01*
X178103333Y-103404761D01*
X178055714Y-103357142D01*
X178008095Y-103261904D01*
X177960476Y-103071428D01*
X177960476Y-102833333D01*
X178008095Y-102642857D01*
X178055714Y-102547619D01*
X178103333Y-102500000D01*
X178198571Y-102452380D01*
%TO.C,D6*%
X125302380Y-127135595D02*
X124302380Y-127135595D01*
X124302380Y-126897500D01*
X124350000Y-126754642D01*
X124445238Y-126659404D01*
X124540476Y-126611785D01*
X124730952Y-126564166D01*
X124873809Y-126564166D01*
X125064285Y-126611785D01*
X125159523Y-126659404D01*
X125254761Y-126754642D01*
X125302380Y-126897500D01*
X125302380Y-127135595D01*
X124302380Y-125707023D02*
X124302380Y-125897500D01*
X124350000Y-125992738D01*
X124397619Y-126040357D01*
X124540476Y-126135595D01*
X124730952Y-126183214D01*
X125111904Y-126183214D01*
X125207142Y-126135595D01*
X125254761Y-126087976D01*
X125302380Y-125992738D01*
X125302380Y-125802261D01*
X125254761Y-125707023D01*
X125207142Y-125659404D01*
X125111904Y-125611785D01*
X124873809Y-125611785D01*
X124778571Y-125659404D01*
X124730952Y-125707023D01*
X124683333Y-125802261D01*
X124683333Y-125992738D01*
X124730952Y-126087976D01*
X124778571Y-126135595D01*
X124873809Y-126183214D01*
%TO.C,D18*%
X122279096Y-142167214D02*
X121571990Y-141460107D01*
X121740348Y-141291748D01*
X121875035Y-141224405D01*
X122009722Y-141224405D01*
X122110738Y-141258077D01*
X122279096Y-141359092D01*
X122380112Y-141460107D01*
X122481127Y-141628466D01*
X122514799Y-141729481D01*
X122514799Y-141864168D01*
X122447455Y-141998855D01*
X122279096Y-142167214D01*
X123356593Y-141089718D02*
X122952532Y-141493779D01*
X123154562Y-141291748D02*
X122447455Y-140584641D01*
X122481127Y-140753000D01*
X122481127Y-140887687D01*
X122447455Y-140988703D01*
X123356593Y-140281596D02*
X123255577Y-140315267D01*
X123188234Y-140315267D01*
X123087219Y-140281596D01*
X123053547Y-140247924D01*
X123019875Y-140146909D01*
X123019875Y-140079565D01*
X123053547Y-139978550D01*
X123188234Y-139843863D01*
X123289249Y-139810191D01*
X123356593Y-139810191D01*
X123457608Y-139843863D01*
X123491280Y-139877535D01*
X123524951Y-139978550D01*
X123524951Y-140045893D01*
X123491280Y-140146909D01*
X123356593Y-140281596D01*
X123322921Y-140382611D01*
X123322921Y-140449954D01*
X123356593Y-140550970D01*
X123491280Y-140685657D01*
X123592295Y-140719328D01*
X123659638Y-140719328D01*
X123760654Y-140685657D01*
X123895341Y-140550970D01*
X123929012Y-140449954D01*
X123929012Y-140382611D01*
X123895341Y-140281596D01*
X123760654Y-140146909D01*
X123659638Y-140113237D01*
X123592295Y-140113237D01*
X123491280Y-140146909D01*
%TO.C,R2*%
X182853333Y-88252380D02*
X182520000Y-87776190D01*
X182281904Y-88252380D02*
X182281904Y-87252380D01*
X182662857Y-87252380D01*
X182758095Y-87300000D01*
X182805714Y-87347619D01*
X182853333Y-87442857D01*
X182853333Y-87585714D01*
X182805714Y-87680952D01*
X182758095Y-87728571D01*
X182662857Y-87776190D01*
X182281904Y-87776190D01*
X183234285Y-87347619D02*
X183281904Y-87300000D01*
X183377142Y-87252380D01*
X183615238Y-87252380D01*
X183710476Y-87300000D01*
X183758095Y-87347619D01*
X183805714Y-87442857D01*
X183805714Y-87538095D01*
X183758095Y-87680952D01*
X183186666Y-88252380D01*
X183805714Y-88252380D01*
%TO.C,C18*%
X167336862Y-93652274D02*
X167404206Y-93652274D01*
X167538893Y-93719618D01*
X167606236Y-93786961D01*
X167673580Y-93921648D01*
X167673580Y-94056335D01*
X167639908Y-94157350D01*
X167538893Y-94325709D01*
X167437878Y-94426724D01*
X167269519Y-94527740D01*
X167168504Y-94561411D01*
X167033817Y-94561411D01*
X166899130Y-94494068D01*
X166831786Y-94426724D01*
X166764443Y-94292037D01*
X166764443Y-94224694D01*
X166730771Y-92911495D02*
X167134832Y-93315556D01*
X166932801Y-93113526D02*
X166225694Y-93820633D01*
X166394053Y-93786961D01*
X166528740Y-93786961D01*
X166629756Y-93820633D01*
X165922649Y-92911495D02*
X165956320Y-93012511D01*
X165956320Y-93079854D01*
X165922649Y-93180869D01*
X165888977Y-93214541D01*
X165787962Y-93248213D01*
X165720618Y-93248213D01*
X165619603Y-93214541D01*
X165484916Y-93079854D01*
X165451244Y-92978839D01*
X165451244Y-92911495D01*
X165484916Y-92810480D01*
X165518588Y-92776808D01*
X165619603Y-92743137D01*
X165686946Y-92743137D01*
X165787962Y-92776808D01*
X165922649Y-92911495D01*
X166023664Y-92945167D01*
X166091007Y-92945167D01*
X166192023Y-92911495D01*
X166326710Y-92776808D01*
X166360381Y-92675793D01*
X166360381Y-92608450D01*
X166326710Y-92507434D01*
X166192023Y-92372747D01*
X166091007Y-92339076D01*
X166023664Y-92339076D01*
X165922649Y-92372747D01*
X165787962Y-92507434D01*
X165754290Y-92608450D01*
X165754290Y-92675793D01*
X165787962Y-92776808D01*
%TO.C,C8*%
X160455833Y-113012142D02*
X160408214Y-113059761D01*
X160265357Y-113107380D01*
X160170119Y-113107380D01*
X160027261Y-113059761D01*
X159932023Y-112964523D01*
X159884404Y-112869285D01*
X159836785Y-112678809D01*
X159836785Y-112535952D01*
X159884404Y-112345476D01*
X159932023Y-112250238D01*
X160027261Y-112155000D01*
X160170119Y-112107380D01*
X160265357Y-112107380D01*
X160408214Y-112155000D01*
X160455833Y-112202619D01*
X161027261Y-112535952D02*
X160932023Y-112488333D01*
X160884404Y-112440714D01*
X160836785Y-112345476D01*
X160836785Y-112297857D01*
X160884404Y-112202619D01*
X160932023Y-112155000D01*
X161027261Y-112107380D01*
X161217738Y-112107380D01*
X161312976Y-112155000D01*
X161360595Y-112202619D01*
X161408214Y-112297857D01*
X161408214Y-112345476D01*
X161360595Y-112440714D01*
X161312976Y-112488333D01*
X161217738Y-112535952D01*
X161027261Y-112535952D01*
X160932023Y-112583571D01*
X160884404Y-112631190D01*
X160836785Y-112726428D01*
X160836785Y-112916904D01*
X160884404Y-113012142D01*
X160932023Y-113059761D01*
X161027261Y-113107380D01*
X161217738Y-113107380D01*
X161312976Y-113059761D01*
X161360595Y-113012142D01*
X161408214Y-112916904D01*
X161408214Y-112726428D01*
X161360595Y-112631190D01*
X161312976Y-112583571D01*
X161217738Y-112535952D01*
%TO.C,C7*%
X162810833Y-102887142D02*
X162763214Y-102934761D01*
X162620357Y-102982380D01*
X162525119Y-102982380D01*
X162382261Y-102934761D01*
X162287023Y-102839523D01*
X162239404Y-102744285D01*
X162191785Y-102553809D01*
X162191785Y-102410952D01*
X162239404Y-102220476D01*
X162287023Y-102125238D01*
X162382261Y-102030000D01*
X162525119Y-101982380D01*
X162620357Y-101982380D01*
X162763214Y-102030000D01*
X162810833Y-102077619D01*
X163144166Y-101982380D02*
X163810833Y-101982380D01*
X163382261Y-102982380D01*
%TO.C,D20*%
X120704525Y-150701785D02*
X119997419Y-149994678D01*
X120165777Y-149826319D01*
X120300464Y-149758976D01*
X120435151Y-149758976D01*
X120536167Y-149792648D01*
X120704525Y-149893663D01*
X120805541Y-149994678D01*
X120906556Y-150163037D01*
X120940228Y-150264052D01*
X120940228Y-150398739D01*
X120872884Y-150533426D01*
X120704525Y-150701785D01*
X120738197Y-149388586D02*
X120738197Y-149321243D01*
X120771869Y-149220228D01*
X120940228Y-149051869D01*
X121041243Y-149018197D01*
X121108586Y-149018197D01*
X121209602Y-149051869D01*
X121276945Y-149119212D01*
X121344289Y-149253899D01*
X121344289Y-150062022D01*
X121782022Y-149624289D01*
X121512648Y-148479449D02*
X121579991Y-148412106D01*
X121681006Y-148378434D01*
X121748350Y-148378434D01*
X121849365Y-148412106D01*
X122017724Y-148513121D01*
X122186083Y-148681480D01*
X122287098Y-148849838D01*
X122320770Y-148950854D01*
X122320770Y-149018197D01*
X122287098Y-149119212D01*
X122219754Y-149186556D01*
X122118739Y-149220228D01*
X122051396Y-149220228D01*
X121950380Y-149186556D01*
X121782022Y-149085541D01*
X121613663Y-148917182D01*
X121512648Y-148748823D01*
X121478976Y-148647808D01*
X121478976Y-148580464D01*
X121512648Y-148479449D01*
%TO.C,D9*%
X135552380Y-126858095D02*
X134552380Y-126858095D01*
X134552380Y-126620000D01*
X134600000Y-126477142D01*
X134695238Y-126381904D01*
X134790476Y-126334285D01*
X134980952Y-126286666D01*
X135123809Y-126286666D01*
X135314285Y-126334285D01*
X135409523Y-126381904D01*
X135504761Y-126477142D01*
X135552380Y-126620000D01*
X135552380Y-126858095D01*
X135552380Y-125810476D02*
X135552380Y-125620000D01*
X135504761Y-125524761D01*
X135457142Y-125477142D01*
X135314285Y-125381904D01*
X135123809Y-125334285D01*
X134742857Y-125334285D01*
X134647619Y-125381904D01*
X134600000Y-125429523D01*
X134552380Y-125524761D01*
X134552380Y-125715238D01*
X134600000Y-125810476D01*
X134647619Y-125858095D01*
X134742857Y-125905714D01*
X134980952Y-125905714D01*
X135076190Y-125858095D01*
X135123809Y-125810476D01*
X135171428Y-125715238D01*
X135171428Y-125524761D01*
X135123809Y-125429523D01*
X135076190Y-125381904D01*
X134980952Y-125334285D01*
D14*
%TO.C,D22*%
X103818571Y-95355238D02*
X103818571Y-95255238D01*
X103842380Y-95255238D01*
X103856666Y-95260000D01*
X103866190Y-95269523D01*
X103870952Y-95279047D01*
X103875714Y-95298095D01*
X103875714Y-95312380D01*
X103870952Y-95331428D01*
X103866190Y-95340952D01*
X103856666Y-95350476D01*
X103842380Y-95355238D01*
X103818571Y-95355238D01*
X103913809Y-95264761D02*
X103918571Y-95260000D01*
X103928095Y-95255238D01*
X103951904Y-95255238D01*
X103961428Y-95260000D01*
X103966190Y-95264761D01*
X103970952Y-95274285D01*
X103970952Y-95283809D01*
X103966190Y-95298095D01*
X103909047Y-95355238D01*
X103970952Y-95355238D01*
X104009047Y-95264761D02*
X104013809Y-95260000D01*
X104023333Y-95255238D01*
X104047142Y-95255238D01*
X104056666Y-95260000D01*
X104061428Y-95264761D01*
X104066190Y-95274285D01*
X104066190Y-95283809D01*
X104061428Y-95298095D01*
X104004285Y-95355238D01*
X104066190Y-95355238D01*
D12*
%TO.C,D14*%
X123614525Y-134361785D02*
X122907419Y-133654678D01*
X123075777Y-133486319D01*
X123210464Y-133418976D01*
X123345151Y-133418976D01*
X123446167Y-133452648D01*
X123614525Y-133553663D01*
X123715541Y-133654678D01*
X123816556Y-133823037D01*
X123850228Y-133924052D01*
X123850228Y-134058739D01*
X123782884Y-134193426D01*
X123614525Y-134361785D01*
X124692022Y-133284289D02*
X124287961Y-133688350D01*
X124489991Y-133486319D02*
X123782884Y-132779212D01*
X123816556Y-132947571D01*
X123816556Y-133082258D01*
X123782884Y-133183274D01*
X124826709Y-132206793D02*
X125298113Y-132678197D01*
X124388976Y-132105777D02*
X124725693Y-132779212D01*
X125163426Y-132341480D01*
%TO.C,J5*%
X200798477Y-109032927D02*
X201303553Y-108527851D01*
X201438240Y-108460507D01*
X201572927Y-108460507D01*
X201707614Y-108527851D01*
X201774957Y-108595194D01*
X200125042Y-108359492D02*
X200461759Y-108696209D01*
X200832148Y-108393164D01*
X200764805Y-108393164D01*
X200663790Y-108359492D01*
X200495431Y-108191133D01*
X200461759Y-108090118D01*
X200461759Y-108022774D01*
X200495431Y-107921759D01*
X200663790Y-107753400D01*
X200764805Y-107719729D01*
X200832148Y-107719729D01*
X200933164Y-107753400D01*
X201101522Y-107921759D01*
X201135194Y-108022774D01*
X201135194Y-108090118D01*
%TO.C,D3*%
X115332380Y-127408095D02*
X114332380Y-127408095D01*
X114332380Y-127170000D01*
X114380000Y-127027142D01*
X114475238Y-126931904D01*
X114570476Y-126884285D01*
X114760952Y-126836666D01*
X114903809Y-126836666D01*
X115094285Y-126884285D01*
X115189523Y-126931904D01*
X115284761Y-127027142D01*
X115332380Y-127170000D01*
X115332380Y-127408095D01*
X114332380Y-126503333D02*
X114332380Y-125884285D01*
X114713333Y-126217619D01*
X114713333Y-126074761D01*
X114760952Y-125979523D01*
X114808571Y-125931904D01*
X114903809Y-125884285D01*
X115141904Y-125884285D01*
X115237142Y-125931904D01*
X115284761Y-125979523D01*
X115332380Y-126074761D01*
X115332380Y-126360476D01*
X115284761Y-126455714D01*
X115237142Y-126503333D01*
%TO.C,D5*%
X121772380Y-127188095D02*
X120772380Y-127188095D01*
X120772380Y-126950000D01*
X120820000Y-126807142D01*
X120915238Y-126711904D01*
X121010476Y-126664285D01*
X121200952Y-126616666D01*
X121343809Y-126616666D01*
X121534285Y-126664285D01*
X121629523Y-126711904D01*
X121724761Y-126807142D01*
X121772380Y-126950000D01*
X121772380Y-127188095D01*
X120772380Y-125711904D02*
X120772380Y-126188095D01*
X121248571Y-126235714D01*
X121200952Y-126188095D01*
X121153333Y-126092857D01*
X121153333Y-125854761D01*
X121200952Y-125759523D01*
X121248571Y-125711904D01*
X121343809Y-125664285D01*
X121581904Y-125664285D01*
X121677142Y-125711904D01*
X121724761Y-125759523D01*
X121772380Y-125854761D01*
X121772380Y-126092857D01*
X121724761Y-126188095D01*
X121677142Y-126235714D01*
%TO.C,C2*%
X185671552Y-103454149D02*
X185738895Y-103454149D01*
X185873582Y-103521493D01*
X185940926Y-103588837D01*
X186008269Y-103723524D01*
X186008269Y-103858211D01*
X185974598Y-103959226D01*
X185873582Y-104127585D01*
X185772567Y-104228600D01*
X185604208Y-104329615D01*
X185503193Y-104363287D01*
X185368506Y-104363287D01*
X185233819Y-104295943D01*
X185166475Y-104228600D01*
X185099132Y-104093913D01*
X185099132Y-104026569D01*
X184829758Y-103757195D02*
X184762414Y-103757195D01*
X184661399Y-103723524D01*
X184493040Y-103555165D01*
X184459369Y-103454149D01*
X184459369Y-103386806D01*
X184493040Y-103285791D01*
X184560384Y-103218447D01*
X184695071Y-103151104D01*
X185503193Y-103151104D01*
X185065460Y-102713371D01*
D15*
%TO.C,J2*%
X202146190Y-100516666D02*
X202503333Y-100516666D01*
X202574761Y-100540476D01*
X202622380Y-100588095D01*
X202646190Y-100659523D01*
X202646190Y-100707142D01*
X202193809Y-100302380D02*
X202170000Y-100278571D01*
X202146190Y-100230952D01*
X202146190Y-100111904D01*
X202170000Y-100064285D01*
X202193809Y-100040476D01*
X202241428Y-100016666D01*
X202289047Y-100016666D01*
X202360476Y-100040476D01*
X202646190Y-100326190D01*
X202646190Y-100016666D01*
D12*
%TO.C,C5*%
X156893333Y-105037142D02*
X156845714Y-105084761D01*
X156702857Y-105132380D01*
X156607619Y-105132380D01*
X156464761Y-105084761D01*
X156369523Y-104989523D01*
X156321904Y-104894285D01*
X156274285Y-104703809D01*
X156274285Y-104560952D01*
X156321904Y-104370476D01*
X156369523Y-104275238D01*
X156464761Y-104180000D01*
X156607619Y-104132380D01*
X156702857Y-104132380D01*
X156845714Y-104180000D01*
X156893333Y-104227619D01*
X157798095Y-104132380D02*
X157321904Y-104132380D01*
X157274285Y-104608571D01*
X157321904Y-104560952D01*
X157417142Y-104513333D01*
X157655238Y-104513333D01*
X157750476Y-104560952D01*
X157798095Y-104608571D01*
X157845714Y-104703809D01*
X157845714Y-104941904D01*
X157798095Y-105037142D01*
X157750476Y-105084761D01*
X157655238Y-105132380D01*
X157417142Y-105132380D01*
X157321904Y-105084761D01*
X157274285Y-105037142D01*
%TO.C,D1*%
X107841904Y-128442380D02*
X107841904Y-127442380D01*
X108080000Y-127442380D01*
X108222857Y-127490000D01*
X108318095Y-127585238D01*
X108365714Y-127680476D01*
X108413333Y-127870952D01*
X108413333Y-128013809D01*
X108365714Y-128204285D01*
X108318095Y-128299523D01*
X108222857Y-128394761D01*
X108080000Y-128442380D01*
X107841904Y-128442380D01*
X109365714Y-128442380D02*
X108794285Y-128442380D01*
X109080000Y-128442380D02*
X109080000Y-127442380D01*
X108984761Y-127585238D01*
X108889523Y-127680476D01*
X108794285Y-127728095D01*
%TO.C,U2*%
X178242380Y-92211904D02*
X179051904Y-92211904D01*
X179147142Y-92164285D01*
X179194761Y-92116666D01*
X179242380Y-92021428D01*
X179242380Y-91830952D01*
X179194761Y-91735714D01*
X179147142Y-91688095D01*
X179051904Y-91640476D01*
X178242380Y-91640476D01*
X178337619Y-91211904D02*
X178290000Y-91164285D01*
X178242380Y-91069047D01*
X178242380Y-90830952D01*
X178290000Y-90735714D01*
X178337619Y-90688095D01*
X178432857Y-90640476D01*
X178528095Y-90640476D01*
X178670952Y-90688095D01*
X179242380Y-91259523D01*
X179242380Y-90640476D01*
%TO.C,C14*%
X173947142Y-95047142D02*
X173899523Y-95094761D01*
X173756666Y-95142380D01*
X173661428Y-95142380D01*
X173518571Y-95094761D01*
X173423333Y-94999523D01*
X173375714Y-94904285D01*
X173328095Y-94713809D01*
X173328095Y-94570952D01*
X173375714Y-94380476D01*
X173423333Y-94285238D01*
X173518571Y-94190000D01*
X173661428Y-94142380D01*
X173756666Y-94142380D01*
X173899523Y-94190000D01*
X173947142Y-94237619D01*
X174899523Y-95142380D02*
X174328095Y-95142380D01*
X174613809Y-95142380D02*
X174613809Y-94142380D01*
X174518571Y-94285238D01*
X174423333Y-94380476D01*
X174328095Y-94428095D01*
X175756666Y-94475714D02*
X175756666Y-95142380D01*
X175518571Y-94094761D02*
X175280476Y-94809047D01*
X175899523Y-94809047D01*
%TO.C,D19*%
X121664525Y-146231785D02*
X120957419Y-145524678D01*
X121125777Y-145356319D01*
X121260464Y-145288976D01*
X121395151Y-145288976D01*
X121496167Y-145322648D01*
X121664525Y-145423663D01*
X121765541Y-145524678D01*
X121866556Y-145693037D01*
X121900228Y-145794052D01*
X121900228Y-145928739D01*
X121832884Y-146063426D01*
X121664525Y-146231785D01*
X122742022Y-145154289D02*
X122337961Y-145558350D01*
X122539991Y-145356319D02*
X121832884Y-144649212D01*
X121866556Y-144817571D01*
X121866556Y-144952258D01*
X121832884Y-145053274D01*
X123078739Y-144817571D02*
X123213426Y-144682884D01*
X123247098Y-144581869D01*
X123247098Y-144514525D01*
X123213426Y-144346167D01*
X123112411Y-144177808D01*
X122843037Y-143908434D01*
X122742022Y-143874762D01*
X122674678Y-143874762D01*
X122573663Y-143908434D01*
X122438976Y-144043121D01*
X122405304Y-144144136D01*
X122405304Y-144211480D01*
X122438976Y-144312495D01*
X122607335Y-144480854D01*
X122708350Y-144514525D01*
X122775693Y-144514525D01*
X122876709Y-144480854D01*
X123011396Y-144346167D01*
X123045067Y-144245151D01*
X123045067Y-144177808D01*
X123011396Y-144076793D01*
%TO.C,D2*%
X112292380Y-127768095D02*
X111292380Y-127768095D01*
X111292380Y-127530000D01*
X111340000Y-127387142D01*
X111435238Y-127291904D01*
X111530476Y-127244285D01*
X111720952Y-127196666D01*
X111863809Y-127196666D01*
X112054285Y-127244285D01*
X112149523Y-127291904D01*
X112244761Y-127387142D01*
X112292380Y-127530000D01*
X112292380Y-127768095D01*
X111387619Y-126815714D02*
X111340000Y-126768095D01*
X111292380Y-126672857D01*
X111292380Y-126434761D01*
X111340000Y-126339523D01*
X111387619Y-126291904D01*
X111482857Y-126244285D01*
X111578095Y-126244285D01*
X111720952Y-126291904D01*
X112292380Y-126863333D01*
X112292380Y-126244285D01*
%TO.C,C12*%
X166427142Y-116625357D02*
X166474761Y-116672976D01*
X166522380Y-116815833D01*
X166522380Y-116911071D01*
X166474761Y-117053928D01*
X166379523Y-117149166D01*
X166284285Y-117196785D01*
X166093809Y-117244404D01*
X165950952Y-117244404D01*
X165760476Y-117196785D01*
X165665238Y-117149166D01*
X165570000Y-117053928D01*
X165522380Y-116911071D01*
X165522380Y-116815833D01*
X165570000Y-116672976D01*
X165617619Y-116625357D01*
X166522380Y-115672976D02*
X166522380Y-116244404D01*
X166522380Y-115958690D02*
X165522380Y-115958690D01*
X165665238Y-116053928D01*
X165760476Y-116149166D01*
X165808095Y-116244404D01*
X165617619Y-115292023D02*
X165570000Y-115244404D01*
X165522380Y-115149166D01*
X165522380Y-114911071D01*
X165570000Y-114815833D01*
X165617619Y-114768214D01*
X165712857Y-114720595D01*
X165808095Y-114720595D01*
X165950952Y-114768214D01*
X166522380Y-115339642D01*
X166522380Y-114720595D01*
%TO.C,D21*%
X120024525Y-155281785D02*
X119317419Y-154574678D01*
X119485777Y-154406319D01*
X119620464Y-154338976D01*
X119755151Y-154338976D01*
X119856167Y-154372648D01*
X120024525Y-154473663D01*
X120125541Y-154574678D01*
X120226556Y-154743037D01*
X120260228Y-154844052D01*
X120260228Y-154978739D01*
X120192884Y-155113426D01*
X120024525Y-155281785D01*
X120058197Y-153968586D02*
X120058197Y-153901243D01*
X120091869Y-153800228D01*
X120260228Y-153631869D01*
X120361243Y-153598197D01*
X120428586Y-153598197D01*
X120529602Y-153631869D01*
X120596945Y-153699212D01*
X120664289Y-153833899D01*
X120664289Y-154642022D01*
X121102022Y-154204289D01*
X121775457Y-153530854D02*
X121371396Y-153934915D01*
X121573426Y-153732884D02*
X120866319Y-153025777D01*
X120899991Y-153194136D01*
X120899991Y-153328823D01*
X120866319Y-153429838D01*
%TO.C,D7*%
X128892380Y-127098095D02*
X127892380Y-127098095D01*
X127892380Y-126860000D01*
X127940000Y-126717142D01*
X128035238Y-126621904D01*
X128130476Y-126574285D01*
X128320952Y-126526666D01*
X128463809Y-126526666D01*
X128654285Y-126574285D01*
X128749523Y-126621904D01*
X128844761Y-126717142D01*
X128892380Y-126860000D01*
X128892380Y-127098095D01*
X127892380Y-126193333D02*
X127892380Y-125526666D01*
X128892380Y-125955238D01*
%TO.C,J4*%
X186373782Y-120403409D02*
X186878858Y-119898333D01*
X187013545Y-119830989D01*
X187148232Y-119830989D01*
X187282919Y-119898333D01*
X187350262Y-119965676D01*
X185969721Y-119527943D02*
X186441125Y-119056539D01*
X185868705Y-119965676D02*
X186542140Y-119628959D01*
X186104408Y-119191226D01*
D16*
%TO.C,Y1*%
X154910952Y-101940952D02*
X155291904Y-101940952D01*
X154491904Y-102207619D02*
X154910952Y-101940952D01*
X154491904Y-101674285D01*
X155291904Y-100988571D02*
X155291904Y-101445714D01*
X155291904Y-101217142D02*
X154491904Y-101217142D01*
X154606190Y-101293333D01*
X154682380Y-101369523D01*
X154720476Y-101445714D01*
D12*
%TO.C,C21*%
X174547142Y-106387142D02*
X174499523Y-106434761D01*
X174356666Y-106482380D01*
X174261428Y-106482380D01*
X174118571Y-106434761D01*
X174023333Y-106339523D01*
X173975714Y-106244285D01*
X173928095Y-106053809D01*
X173928095Y-105910952D01*
X173975714Y-105720476D01*
X174023333Y-105625238D01*
X174118571Y-105530000D01*
X174261428Y-105482380D01*
X174356666Y-105482380D01*
X174499523Y-105530000D01*
X174547142Y-105577619D01*
X174928095Y-105577619D02*
X174975714Y-105530000D01*
X175070952Y-105482380D01*
X175309047Y-105482380D01*
X175404285Y-105530000D01*
X175451904Y-105577619D01*
X175499523Y-105672857D01*
X175499523Y-105768095D01*
X175451904Y-105910952D01*
X174880476Y-106482380D01*
X175499523Y-106482380D01*
X176451904Y-106482380D02*
X175880476Y-106482380D01*
X176166190Y-106482380D02*
X176166190Y-105482380D01*
X176070952Y-105625238D01*
X175975714Y-105720476D01*
X175880476Y-105768095D01*
D10*
%TO.C,IC1*%
X163001904Y-115776190D02*
X163001904Y-115276190D01*
X163525714Y-115728571D02*
X163501904Y-115752380D01*
X163430476Y-115776190D01*
X163382857Y-115776190D01*
X163311428Y-115752380D01*
X163263809Y-115704761D01*
X163240000Y-115657142D01*
X163216190Y-115561904D01*
X163216190Y-115490476D01*
X163240000Y-115395238D01*
X163263809Y-115347619D01*
X163311428Y-115300000D01*
X163382857Y-115276190D01*
X163430476Y-115276190D01*
X163501904Y-115300000D01*
X163525714Y-115323809D01*
X164001904Y-115776190D02*
X163716190Y-115776190D01*
X163859047Y-115776190D02*
X163859047Y-115276190D01*
X163811428Y-115347619D01*
X163763809Y-115395238D01*
X163716190Y-115419047D01*
D12*
%TO.C,D11*%
X142222380Y-127474285D02*
X141222380Y-127474285D01*
X141222380Y-127236190D01*
X141270000Y-127093333D01*
X141365238Y-126998095D01*
X141460476Y-126950476D01*
X141650952Y-126902857D01*
X141793809Y-126902857D01*
X141984285Y-126950476D01*
X142079523Y-126998095D01*
X142174761Y-127093333D01*
X142222380Y-127236190D01*
X142222380Y-127474285D01*
X142222380Y-125950476D02*
X142222380Y-126521904D01*
X142222380Y-126236190D02*
X141222380Y-126236190D01*
X141365238Y-126331428D01*
X141460476Y-126426666D01*
X141508095Y-126521904D01*
X142222380Y-124998095D02*
X142222380Y-125569523D01*
X142222380Y-125283809D02*
X141222380Y-125283809D01*
X141365238Y-125379047D01*
X141460476Y-125474285D01*
X141508095Y-125569523D01*
%TO.C,D10*%
X138892380Y-127354285D02*
X137892380Y-127354285D01*
X137892380Y-127116190D01*
X137940000Y-126973333D01*
X138035238Y-126878095D01*
X138130476Y-126830476D01*
X138320952Y-126782857D01*
X138463809Y-126782857D01*
X138654285Y-126830476D01*
X138749523Y-126878095D01*
X138844761Y-126973333D01*
X138892380Y-127116190D01*
X138892380Y-127354285D01*
X138892380Y-125830476D02*
X138892380Y-126401904D01*
X138892380Y-126116190D02*
X137892380Y-126116190D01*
X138035238Y-126211428D01*
X138130476Y-126306666D01*
X138178095Y-126401904D01*
X137892380Y-125211428D02*
X137892380Y-125116190D01*
X137940000Y-125020952D01*
X137987619Y-124973333D01*
X138082857Y-124925714D01*
X138273333Y-124878095D01*
X138511428Y-124878095D01*
X138701904Y-124925714D01*
X138797142Y-124973333D01*
X138844761Y-125020952D01*
X138892380Y-125116190D01*
X138892380Y-125211428D01*
X138844761Y-125306666D01*
X138797142Y-125354285D01*
X138701904Y-125401904D01*
X138511428Y-125449523D01*
X138273333Y-125449523D01*
X138082857Y-125401904D01*
X137987619Y-125354285D01*
X137940000Y-125306666D01*
X137892380Y-125211428D01*
D17*
%TO.C,R3*%
X159620000Y-100466359D02*
X159620000Y-100773641D01*
X160380000Y-100466359D02*
X160380000Y-100773641D01*
%TO.C,C1*%
X187469227Y-106957978D02*
X187668038Y-107156789D01*
X186747978Y-107679227D02*
X186946789Y-107878038D01*
%TO.C,C11*%
X164540000Y-118322164D02*
X164540000Y-118537836D01*
X165260000Y-118322164D02*
X165260000Y-118537836D01*
%TO.C,C20*%
X163075336Y-99930000D02*
X162859664Y-99930000D01*
X163075336Y-100650000D02*
X162859664Y-100650000D01*
%TO.C,SW1*%
X168440000Y-80430000D02*
X168440000Y-81930000D01*
X175440000Y-81930000D02*
X175440000Y-80430000D01*
X174190000Y-77930000D02*
X169690000Y-77930000D01*
X169690000Y-84430000D02*
X174190000Y-84430000D01*
%TO.C,D17*%
X194610500Y-87882855D02*
X192711919Y-85984274D01*
X192711919Y-85984274D02*
X191354274Y-87341919D01*
X191354274Y-87341919D02*
X193252855Y-89240500D01*
%TO.C,R1*%
X182497500Y-92943641D02*
X182497500Y-92636359D01*
X183257500Y-92943641D02*
X183257500Y-92636359D01*
%TO.C,D16*%
X124171919Y-140205726D02*
X126070500Y-138307145D01*
X124712855Y-136949500D02*
X122814274Y-138848081D01*
X122814274Y-138848081D02*
X124171919Y-140205726D01*
%TO.C,D13*%
X129282500Y-121060000D02*
X126597500Y-121060000D01*
X126597500Y-122980000D02*
X129282500Y-122980000D01*
X126597500Y-121060000D02*
X126597500Y-122980000D01*
%TO.C,C9*%
X162007836Y-121252500D02*
X161792164Y-121252500D01*
X162007836Y-120532500D02*
X161792164Y-120532500D01*
%TO.C,G\u002A\u002A\u002A*%
G36*
X131127748Y-121238073D02*
G01*
X131020206Y-122020000D01*
X132701978Y-122020000D01*
X133483431Y-122028984D01*
X133993335Y-122059830D01*
X134277237Y-122118379D01*
X134380685Y-122210470D01*
X134383750Y-122235644D01*
X134475501Y-122341656D01*
X134773815Y-122436618D01*
X135313279Y-122527764D01*
X136128481Y-122622326D01*
X136328437Y-122642362D01*
X139574856Y-123060775D01*
X142621033Y-123667105D01*
X145536106Y-124481221D01*
X148389215Y-125522993D01*
X151249498Y-126812290D01*
X151806765Y-127090577D01*
X152552146Y-127472170D01*
X153042069Y-127736334D01*
X153306334Y-127905039D01*
X153374742Y-128000260D01*
X153277096Y-128043966D01*
X153116250Y-128056036D01*
X152861927Y-128065015D01*
X152319227Y-128084045D01*
X151517079Y-128112116D01*
X150484414Y-128148215D01*
X149250162Y-128191334D01*
X147843253Y-128240460D01*
X146292616Y-128294585D01*
X144627181Y-128352696D01*
X142875880Y-128413783D01*
X142655895Y-128421455D01*
X140601353Y-128494005D01*
X138842071Y-128558402D01*
X137355951Y-128615932D01*
X136120893Y-128667881D01*
X135114797Y-128715536D01*
X134315565Y-128760184D01*
X133701096Y-128803111D01*
X133249293Y-128845603D01*
X132938055Y-128888948D01*
X132745283Y-128934430D01*
X132648879Y-128983338D01*
X132631915Y-129005000D01*
X132485846Y-129327491D01*
X132340361Y-129679687D01*
X132237741Y-129899154D01*
X132094343Y-130029317D01*
X131834846Y-130093694D01*
X131383931Y-130115801D01*
X130934340Y-130118680D01*
X130316689Y-130136804D01*
X129809349Y-130182511D01*
X129507523Y-130246595D01*
X129482890Y-130259038D01*
X129390044Y-130455529D01*
X129247103Y-130951262D01*
X129057217Y-131732472D01*
X128823535Y-132785399D01*
X128549205Y-134096278D01*
X128237376Y-135651348D01*
X128166710Y-136011294D01*
X127594136Y-138936747D01*
X127056342Y-141682365D01*
X126555683Y-144236182D01*
X126094515Y-146586237D01*
X125675195Y-148720565D01*
X125300077Y-150627203D01*
X124971518Y-152294188D01*
X124691872Y-153709555D01*
X124463497Y-154861341D01*
X124288748Y-155737582D01*
X124169981Y-156326316D01*
X124109550Y-156615578D01*
X124109044Y-156617823D01*
X123985625Y-157163772D01*
X120731250Y-158238533D01*
X119770057Y-158554793D01*
X118912170Y-158834823D01*
X118202781Y-159064056D01*
X117687082Y-159227925D01*
X117410264Y-159311861D01*
X117377057Y-159319771D01*
X117347401Y-159184677D01*
X117382457Y-158832904D01*
X117428697Y-158572187D01*
X117518091Y-158147225D01*
X117661132Y-157490337D01*
X117840716Y-156679113D01*
X118039740Y-155791143D01*
X118119823Y-155436875D01*
X118279436Y-154726412D01*
X118488109Y-153787897D01*
X118739544Y-152650287D01*
X119027441Y-151342540D01*
X119345502Y-149893613D01*
X119687427Y-148332463D01*
X120046917Y-146688050D01*
X120417675Y-144989330D01*
X120793400Y-143265262D01*
X121167794Y-141544802D01*
X121534559Y-139856909D01*
X121887394Y-138230541D01*
X122220002Y-136694655D01*
X122526083Y-135278209D01*
X122799339Y-134010160D01*
X123033470Y-132919467D01*
X123222179Y-132035087D01*
X123359165Y-131385978D01*
X123438130Y-131001098D01*
X123454910Y-130910000D01*
X123509375Y-130513125D01*
X121564687Y-130571418D01*
X120709240Y-130592965D01*
X120129205Y-130584338D01*
X119782677Y-130526202D01*
X119627752Y-130399225D01*
X119622526Y-130184070D01*
X119725096Y-129861405D01*
X119769685Y-129743215D01*
X119813349Y-129398862D01*
X119606542Y-129229360D01*
X119137930Y-129227138D01*
X119022951Y-129244241D01*
X118754152Y-129268234D01*
X118211843Y-129299992D01*
X117435599Y-129338113D01*
X116464991Y-129381191D01*
X115339593Y-129427824D01*
X114098977Y-129476607D01*
X112782716Y-129526137D01*
X111430384Y-129575009D01*
X110081552Y-129621820D01*
X108775795Y-129665167D01*
X107552685Y-129703644D01*
X106451794Y-129735849D01*
X105512697Y-129760377D01*
X104774964Y-129775825D01*
X104278171Y-129780789D01*
X104067260Y-129774793D01*
X103925895Y-129728009D01*
X103933510Y-129625858D01*
X104120021Y-129436578D01*
X104515348Y-129128408D01*
X105023655Y-128759461D01*
X105742817Y-128247161D01*
X106294895Y-127865137D01*
X106769787Y-127557206D01*
X107257392Y-127267185D01*
X107847606Y-126938892D01*
X108507500Y-126582199D01*
X110408693Y-125660462D01*
X112520460Y-124813325D01*
X114752282Y-124068335D01*
X117013645Y-123453040D01*
X119214033Y-122994988D01*
X121162044Y-122730896D01*
X121785838Y-122656966D01*
X122159069Y-122564768D01*
X122348656Y-122432545D01*
X122401133Y-122328020D01*
X122489619Y-122181052D01*
X122684935Y-122086408D01*
X123051486Y-122029060D01*
X123653679Y-121993986D01*
X123865648Y-121986365D01*
X125236243Y-121940625D01*
X125377424Y-121385000D01*
X125498707Y-120989554D01*
X125611760Y-120745466D01*
X125625239Y-120729981D01*
X125811520Y-120692732D01*
X126261513Y-120651410D01*
X126921521Y-120609521D01*
X127737849Y-120570571D01*
X128483583Y-120543367D01*
X131235291Y-120456147D01*
X131127748Y-121238073D01*
G37*
%TO.C,R6*%
X196917230Y-90808303D02*
X196581697Y-90472770D01*
X196178303Y-91547230D02*
X195842770Y-91211697D01*
%TO.C,D4*%
X118820000Y-125510000D02*
X118820000Y-128195000D01*
X118820000Y-128195000D02*
X120740000Y-128195000D01*
X120740000Y-128195000D02*
X120740000Y-125510000D01*
%TO.C,C13*%
X174752164Y-103420000D02*
X174967836Y-103420000D01*
X174752164Y-104140000D02*
X174967836Y-104140000D01*
%TO.C,C19*%
X172740000Y-105112164D02*
X172740000Y-105327836D01*
X173460000Y-105112164D02*
X173460000Y-105327836D01*
%TO.C,G\u002A\u002A\u002A*%
G36*
X104312823Y-95756742D02*
G01*
X104313775Y-95766182D01*
X104312823Y-95767348D01*
X104308094Y-95766256D01*
X104307520Y-95762045D01*
X104310430Y-95755497D01*
X104312823Y-95756742D01*
G37*
G36*
X103363908Y-95494015D02*
G01*
X103368841Y-95498692D01*
X103362067Y-95503638D01*
X103348960Y-95504658D01*
X103333989Y-95501744D01*
X103329072Y-95497545D01*
X103335886Y-95493057D01*
X103348954Y-95491578D01*
X103363908Y-95494015D01*
G37*
G36*
X103368841Y-95543285D02*
G01*
X103364864Y-95547263D01*
X103360886Y-95543285D01*
X103364864Y-95539308D01*
X103368841Y-95543285D01*
G37*
G36*
X102939277Y-95487601D02*
G01*
X102935299Y-95491578D01*
X102931322Y-95487601D01*
X102935299Y-95483623D01*
X102939277Y-95487601D01*
G37*
G36*
X104530257Y-95559195D02*
G01*
X104526279Y-95563172D01*
X104522302Y-95559195D01*
X104526279Y-95555218D01*
X104530257Y-95559195D01*
G37*
G36*
X104275700Y-95575105D02*
G01*
X104271723Y-95579082D01*
X104267745Y-95575105D01*
X104271723Y-95571127D01*
X104275700Y-95575105D01*
G37*
G36*
X104283655Y-95821707D02*
G01*
X104279678Y-95825684D01*
X104275700Y-95821707D01*
X104279678Y-95817729D01*
X104283655Y-95821707D01*
G37*
G36*
X104721175Y-95622834D02*
G01*
X104717197Y-95626812D01*
X104713220Y-95622834D01*
X104717197Y-95618857D01*
X104721175Y-95622834D01*
G37*
G36*
X102994961Y-95543285D02*
G01*
X102990983Y-95547263D01*
X102987006Y-95543285D01*
X102990983Y-95539308D01*
X102994961Y-95543285D01*
G37*
G36*
X103980050Y-95763747D02*
G01*
X103981369Y-95765171D01*
X103975148Y-95770301D01*
X103969436Y-95772877D01*
X103959193Y-95773042D01*
X103957504Y-95769750D01*
X103963951Y-95762913D01*
X103969436Y-95762045D01*
X103980050Y-95763747D01*
G37*
G36*
X104259790Y-95837617D02*
G01*
X104255813Y-95841594D01*
X104251835Y-95837617D01*
X104255813Y-95833639D01*
X104259790Y-95837617D01*
G37*
G36*
X102835863Y-95384187D02*
G01*
X102831885Y-95388165D01*
X102827908Y-95384187D01*
X102831885Y-95380210D01*
X102835863Y-95384187D01*
G37*
G36*
X104703051Y-95672505D02*
G01*
X104703075Y-95672695D01*
X104704374Y-95698637D01*
X104702994Y-95720424D01*
X104701336Y-95724818D01*
X104700179Y-95715353D01*
X104699775Y-95694428D01*
X104700253Y-95674014D01*
X104701429Y-95666150D01*
X104703051Y-95672505D01*
G37*
G36*
X102055007Y-95519801D02*
G01*
X102073724Y-95474492D01*
X102089405Y-95437033D01*
X102098391Y-95416007D01*
X102108428Y-95392557D01*
X102123518Y-95356834D01*
X102142646Y-95311267D01*
X102164792Y-95258290D01*
X102188939Y-95200332D01*
X102214070Y-95139827D01*
X102223241Y-95117698D01*
X102249966Y-95053224D01*
X102277388Y-94987150D01*
X102304201Y-94922622D01*
X102329096Y-94862786D01*
X102350765Y-94810786D01*
X102367901Y-94769768D01*
X102370440Y-94763705D01*
X102400950Y-94690787D01*
X102436422Y-94605828D01*
X102475748Y-94511494D01*
X102517820Y-94410451D01*
X102561530Y-94305366D01*
X102605771Y-94198903D01*
X102649433Y-94093729D01*
X102691411Y-93992510D01*
X102730595Y-93897911D01*
X102765877Y-93812599D01*
X102791941Y-93749455D01*
X102801146Y-93727223D01*
X102815612Y-93692407D01*
X102834466Y-93647102D01*
X102856834Y-93593403D01*
X102881842Y-93533405D01*
X102908616Y-93469203D01*
X102936284Y-93402891D01*
X102963971Y-93336567D01*
X102990804Y-93272323D01*
X103015908Y-93212256D01*
X103030778Y-93176702D01*
X103075243Y-93070340D01*
X103116288Y-92971994D01*
X103153415Y-92882867D01*
X103186123Y-92804159D01*
X103213914Y-92737072D01*
X103236288Y-92682806D01*
X103245787Y-92659633D01*
X103261634Y-92621127D01*
X103277278Y-92583551D01*
X103290581Y-92552027D01*
X103297338Y-92536332D01*
X103305324Y-92517672D01*
X103318269Y-92486932D01*
X103335074Y-92446747D01*
X103354639Y-92399748D01*
X103375867Y-92348568D01*
X103388686Y-92317573D01*
X103447047Y-92176486D01*
X103499589Y-92049859D01*
X103546439Y-91937395D01*
X103587722Y-91838797D01*
X103623566Y-91753767D01*
X103654095Y-91682008D01*
X103679438Y-91623223D01*
X103699719Y-91577114D01*
X103715065Y-91543385D01*
X103725603Y-91521738D01*
X103730271Y-91513484D01*
X103753959Y-91487954D01*
X103787268Y-91465565D01*
X103791479Y-91463399D01*
X103833349Y-91442534D01*
X104677720Y-91442534D01*
X104815563Y-91442530D01*
X104938416Y-91442549D01*
X105047199Y-91442631D01*
X105142834Y-91442817D01*
X105226239Y-91443151D01*
X105298335Y-91443672D01*
X105360042Y-91444424D01*
X105412281Y-91445448D01*
X105455971Y-91446785D01*
X105492033Y-91448477D01*
X105521387Y-91450566D01*
X105544952Y-91453094D01*
X105563650Y-91456102D01*
X105578400Y-91459632D01*
X105590123Y-91463725D01*
X105599739Y-91468424D01*
X105608167Y-91473770D01*
X105616328Y-91479805D01*
X105623600Y-91485399D01*
X105652850Y-91516727D01*
X105674132Y-91557776D01*
X105685053Y-91603367D01*
X105685990Y-91620564D01*
X105685366Y-91631863D01*
X105683126Y-91645081D01*
X105678715Y-91661612D01*
X105671582Y-91682851D01*
X105661173Y-91710194D01*
X105646936Y-91745035D01*
X105628317Y-91788770D01*
X105604764Y-91842793D01*
X105575723Y-91908499D01*
X105540642Y-91987283D01*
X105540502Y-91987597D01*
X105508173Y-92060056D01*
X105475998Y-92132200D01*
X105444956Y-92201837D01*
X105416023Y-92266774D01*
X105390174Y-92324818D01*
X105368389Y-92373778D01*
X105351642Y-92411461D01*
X105345651Y-92424964D01*
X105331905Y-92455895D01*
X105312565Y-92499294D01*
X105288550Y-92553109D01*
X105260777Y-92615291D01*
X105230162Y-92683790D01*
X105197623Y-92756555D01*
X105164077Y-92831537D01*
X105130442Y-92906686D01*
X105097634Y-92979951D01*
X105066571Y-93049282D01*
X105038170Y-93112631D01*
X105013348Y-93167945D01*
X104993023Y-93213176D01*
X104987958Y-93224431D01*
X104980320Y-93241402D01*
X104972853Y-93258004D01*
X104965031Y-93275419D01*
X104956325Y-93294825D01*
X104946207Y-93317404D01*
X104934151Y-93344334D01*
X104919627Y-93376795D01*
X104902108Y-93415967D01*
X104881067Y-93463031D01*
X104855975Y-93519165D01*
X104826306Y-93585550D01*
X104791530Y-93663365D01*
X104751120Y-93753791D01*
X104722841Y-93817072D01*
X104686297Y-93898818D01*
X104645189Y-93990715D01*
X104601472Y-94088400D01*
X104557099Y-94187510D01*
X104514023Y-94283680D01*
X104474197Y-94372549D01*
X104451616Y-94422911D01*
X104422516Y-94487904D01*
X104395543Y-94548355D01*
X104371375Y-94602732D01*
X104350689Y-94649501D01*
X104334161Y-94687130D01*
X104322468Y-94714087D01*
X104316287Y-94728840D01*
X104315475Y-94731163D01*
X104323235Y-94731880D01*
X104345739Y-94732564D01*
X104381820Y-94733206D01*
X104430312Y-94733798D01*
X104490048Y-94734332D01*
X104559862Y-94734800D01*
X104638588Y-94735193D01*
X104725059Y-94735503D01*
X104818110Y-94735722D01*
X104916573Y-94735842D01*
X104978737Y-94735863D01*
X105099050Y-94735857D01*
X105204509Y-94735879D01*
X105296169Y-94735986D01*
X105375086Y-94736235D01*
X105442315Y-94736685D01*
X105498912Y-94737393D01*
X105545932Y-94738417D01*
X105584431Y-94739813D01*
X105615465Y-94741641D01*
X105640088Y-94743958D01*
X105659357Y-94746820D01*
X105674327Y-94750287D01*
X105686053Y-94754416D01*
X105695591Y-94759263D01*
X105703997Y-94764888D01*
X105712326Y-94771347D01*
X105718523Y-94776276D01*
X105745764Y-94806794D01*
X105765417Y-94846855D01*
X105776186Y-94891447D01*
X105776773Y-94935555D01*
X105768347Y-94968799D01*
X105762279Y-94979935D01*
X105748704Y-95002328D01*
X105727500Y-95036168D01*
X105698543Y-95081647D01*
X105661708Y-95138957D01*
X105616872Y-95208287D01*
X105563912Y-95289830D01*
X105502703Y-95383777D01*
X105433122Y-95490319D01*
X105355044Y-95609647D01*
X105268346Y-95741953D01*
X105226473Y-95805797D01*
X105167309Y-95895988D01*
X105116128Y-95974029D01*
X105072178Y-96041067D01*
X105034707Y-96098251D01*
X105002962Y-96146727D01*
X104976194Y-96187643D01*
X104953649Y-96222147D01*
X104934576Y-96251387D01*
X104929469Y-96259226D01*
X104905192Y-96296476D01*
X104875663Y-96341740D01*
X104844339Y-96389719D01*
X104814679Y-96435113D01*
X104810053Y-96442189D01*
X104779941Y-96488261D01*
X104746540Y-96539391D01*
X104713713Y-96589663D01*
X104685326Y-96633159D01*
X104682766Y-96637084D01*
X104660233Y-96671555D01*
X104631242Y-96715794D01*
X104598097Y-96766290D01*
X104563105Y-96819532D01*
X104528571Y-96872009D01*
X104518258Y-96887664D01*
X104489353Y-96931610D01*
X104453539Y-96986187D01*
X104412584Y-97048694D01*
X104368258Y-97116426D01*
X104322330Y-97186681D01*
X104276568Y-97256756D01*
X104234529Y-97321206D01*
X104155252Y-97442783D01*
X104084458Y-97551260D01*
X104022169Y-97646604D01*
X103968406Y-97728782D01*
X103923191Y-97797762D01*
X103886545Y-97853511D01*
X103858490Y-97895994D01*
X103839048Y-97925181D01*
X103830554Y-97937711D01*
X103822120Y-97950311D01*
X103805888Y-97974896D01*
X103782741Y-98010118D01*
X103753561Y-98054627D01*
X103719232Y-98107076D01*
X103680636Y-98166117D01*
X103638656Y-98230401D01*
X103594175Y-98298579D01*
X103570133Y-98335456D01*
X103520248Y-98411947D01*
X103468805Y-98490751D01*
X103417248Y-98569661D01*
X103367018Y-98646471D01*
X103319560Y-98718976D01*
X103276317Y-98784970D01*
X103238731Y-98842248D01*
X103208246Y-98888603D01*
X103205811Y-98892299D01*
X103168595Y-98948874D01*
X103125133Y-99015111D01*
X103077835Y-99087325D01*
X103029114Y-99161831D01*
X102981381Y-99234942D01*
X102937047Y-99302973D01*
X102927343Y-99317886D01*
X102857612Y-99424928D01*
X102791444Y-99526201D01*
X102729316Y-99620988D01*
X102671705Y-99708571D01*
X102619088Y-99788234D01*
X102571942Y-99859260D01*
X102530744Y-99920930D01*
X102495970Y-99972529D01*
X102468097Y-100013339D01*
X102447603Y-100042642D01*
X102434964Y-100059721D01*
X102431341Y-100063810D01*
X102389623Y-100088600D01*
X102341956Y-100102041D01*
X102293024Y-100103472D01*
X102247508Y-100092233D01*
X102243223Y-100090340D01*
X102200495Y-100062179D01*
X102167817Y-100023085D01*
X102156141Y-100000274D01*
X102147114Y-99971403D01*
X102144069Y-99940038D01*
X102147306Y-99903458D01*
X102157129Y-99858946D01*
X102173838Y-99803782D01*
X102179935Y-99785636D01*
X102188489Y-99760394D01*
X102201556Y-99721555D01*
X102218634Y-99670621D01*
X102239222Y-99609093D01*
X102262818Y-99538474D01*
X102288920Y-99460266D01*
X102317028Y-99375970D01*
X102346638Y-99287089D01*
X102377250Y-99195123D01*
X102399920Y-99126968D01*
X102426526Y-99046962D01*
X102457606Y-98953516D01*
X102492609Y-98848285D01*
X102530983Y-98732925D01*
X102572180Y-98609091D01*
X102615647Y-98478438D01*
X102660834Y-98342622D01*
X102707190Y-98203299D01*
X102754165Y-98062123D01*
X102801207Y-97920750D01*
X102847766Y-97780836D01*
X102893292Y-97644036D01*
X102917337Y-97571785D01*
X102958329Y-97448595D01*
X102998217Y-97328680D01*
X103036683Y-97213003D01*
X103073407Y-97102525D01*
X103108069Y-96998210D01*
X103140350Y-96901019D01*
X103169932Y-96811914D01*
X103196493Y-96731858D01*
X103219715Y-96661813D01*
X103239278Y-96602742D01*
X103254864Y-96555606D01*
X103266151Y-96521369D01*
X103272822Y-96500991D01*
X103273828Y-96497873D01*
X103283450Y-96468233D01*
X103296999Y-96427082D01*
X103313295Y-96377973D01*
X103331158Y-96324464D01*
X103349407Y-96270110D01*
X103353075Y-96259226D01*
X103371207Y-96205338D01*
X103389164Y-96151762D01*
X103405775Y-96102001D01*
X103419873Y-96059559D01*
X103430287Y-96027939D01*
X103431916Y-96022940D01*
X103454424Y-95953706D01*
X102798511Y-95953333D01*
X102696974Y-95953215D01*
X102599475Y-95952982D01*
X102507266Y-95952646D01*
X102421597Y-95952217D01*
X102343718Y-95951703D01*
X102274880Y-95951116D01*
X102216334Y-95950466D01*
X102169329Y-95949761D01*
X102135117Y-95949013D01*
X102114947Y-95948231D01*
X102110554Y-95947836D01*
X102068902Y-95934099D01*
X102029586Y-95908612D01*
X101997868Y-95875264D01*
X101985954Y-95855765D01*
X101974202Y-95830593D01*
X101966582Y-95808543D01*
X101963426Y-95786913D01*
X101965061Y-95763006D01*
X101971817Y-95734121D01*
X101984024Y-95697558D01*
X102002012Y-95650617D01*
X102014927Y-95618306D01*
X102021908Y-95601062D01*
X102406298Y-95601062D01*
X102413979Y-95601769D01*
X102435929Y-95602203D01*
X102470510Y-95602371D01*
X102516084Y-95602276D01*
X102571013Y-95601926D01*
X102633659Y-95601326D01*
X102702384Y-95600481D01*
X102742393Y-95599911D01*
X102814510Y-95598866D01*
X102882072Y-95597949D01*
X102943336Y-95597179D01*
X102996559Y-95596575D01*
X103039998Y-95596157D01*
X103071910Y-95595943D01*
X103090551Y-95595952D01*
X103094397Y-95596050D01*
X103118252Y-95597004D01*
X103152129Y-95597329D01*
X103192907Y-95597103D01*
X103237464Y-95596405D01*
X103282680Y-95595315D01*
X103325434Y-95593911D01*
X103362603Y-95592274D01*
X103391067Y-95590482D01*
X103407705Y-95588615D01*
X103409965Y-95588036D01*
X103428784Y-95585744D01*
X103439354Y-95592602D01*
X103455869Y-95600343D01*
X103471173Y-95598274D01*
X103490219Y-95595599D01*
X103521325Y-95594177D01*
X103560696Y-95593923D01*
X103604539Y-95594748D01*
X103649060Y-95596568D01*
X103690464Y-95599296D01*
X103724959Y-95602845D01*
X103734767Y-95604277D01*
X103780382Y-95616934D01*
X103814951Y-95639453D01*
X103841244Y-95674024D01*
X103852553Y-95697465D01*
X103860738Y-95721537D01*
X103867620Y-95749906D01*
X103872610Y-95778532D01*
X103875122Y-95803374D01*
X103874570Y-95820390D01*
X103871175Y-95825684D01*
X103866066Y-95832802D01*
X103858378Y-95851799D01*
X103849472Y-95879139D01*
X103845958Y-95891312D01*
X103836829Y-95922328D01*
X103828452Y-95947782D01*
X103822238Y-95963481D01*
X103820862Y-95965862D01*
X103817839Y-95973998D01*
X103810107Y-95996309D01*
X103797973Y-96031870D01*
X103781746Y-96079758D01*
X103761734Y-96139050D01*
X103738244Y-96208821D01*
X103711586Y-96288149D01*
X103682067Y-96376110D01*
X103649995Y-96471779D01*
X103615678Y-96574234D01*
X103579426Y-96682551D01*
X103541545Y-96795806D01*
X103502344Y-96913075D01*
X103462131Y-97033436D01*
X103421215Y-97155964D01*
X103379903Y-97279736D01*
X103338503Y-97403828D01*
X103297325Y-97527317D01*
X103256675Y-97649280D01*
X103216862Y-97768791D01*
X103178194Y-97884929D01*
X103140980Y-97996769D01*
X103105527Y-98103387D01*
X103072144Y-98203861D01*
X103041138Y-98297266D01*
X103012819Y-98382680D01*
X102987493Y-98459177D01*
X102965470Y-98525835D01*
X102947057Y-98581731D01*
X102932563Y-98625940D01*
X102922295Y-98657539D01*
X102916563Y-98675604D01*
X102915412Y-98679687D01*
X102917141Y-98678274D01*
X102922606Y-98670999D01*
X102932226Y-98657231D01*
X102946419Y-98636336D01*
X102965602Y-98607681D01*
X102990192Y-98570635D01*
X103020609Y-98524564D01*
X103057270Y-98468835D01*
X103100593Y-98402817D01*
X103150995Y-98325875D01*
X103208895Y-98237378D01*
X103274711Y-98136693D01*
X103334546Y-98045102D01*
X103384891Y-97968033D01*
X103435283Y-97890913D01*
X103484582Y-97815487D01*
X103531648Y-97743498D01*
X103575340Y-97676689D01*
X103614517Y-97616805D01*
X103648040Y-97565589D01*
X103674768Y-97524784D01*
X103688287Y-97504168D01*
X103719439Y-97456661D01*
X103751105Y-97408302D01*
X103780976Y-97362626D01*
X103806739Y-97323165D01*
X103826085Y-97293454D01*
X103826144Y-97293363D01*
X103839872Y-97272278D01*
X103861242Y-97239525D01*
X103889179Y-97196747D01*
X103922609Y-97145588D01*
X103960458Y-97087689D01*
X104001652Y-97024696D01*
X104045119Y-96958249D01*
X104089783Y-96889993D01*
X104091307Y-96887664D01*
X104136571Y-96818491D01*
X104181149Y-96750348D01*
X104223891Y-96684994D01*
X104263645Y-96624189D01*
X104299261Y-96569693D01*
X104329589Y-96523267D01*
X104353478Y-96486670D01*
X104369508Y-96462076D01*
X104398589Y-96417447D01*
X104431432Y-96367129D01*
X104463627Y-96317876D01*
X104486401Y-96283091D01*
X104541538Y-96198919D01*
X104589481Y-96125616D01*
X104629953Y-96063609D01*
X104662676Y-96013326D01*
X104687373Y-95975191D01*
X104703765Y-95949633D01*
X104709827Y-95939979D01*
X104719152Y-95925298D01*
X104735501Y-95900049D01*
X104757115Y-95866929D01*
X104782233Y-95828636D01*
X104804701Y-95794526D01*
X104982479Y-95524505D01*
X105155178Y-95260917D01*
X105164248Y-95247036D01*
X105269238Y-95086331D01*
X104631269Y-95084116D01*
X103993301Y-95081901D01*
X103959141Y-95062340D01*
X103921724Y-95032329D01*
X103893259Y-94992254D01*
X103875625Y-94946162D01*
X103870703Y-94898100D01*
X103873097Y-94877115D01*
X103877434Y-94863955D01*
X103887573Y-94838159D01*
X103902728Y-94801573D01*
X103922115Y-94756044D01*
X103944949Y-94703418D01*
X103970444Y-94645542D01*
X103994036Y-94592674D01*
X104022503Y-94529198D01*
X104056072Y-94454251D01*
X104093372Y-94370894D01*
X104133035Y-94282192D01*
X104173691Y-94191206D01*
X104213971Y-94101001D01*
X104252506Y-94014639D01*
X104271432Y-93972192D01*
X104303745Y-93899727D01*
X104334563Y-93830660D01*
X104363185Y-93766557D01*
X104388910Y-93708986D01*
X104411039Y-93659512D01*
X104428872Y-93619701D01*
X104441708Y-93591119D01*
X104448848Y-93575332D01*
X104449254Y-93574447D01*
X104458169Y-93554854D01*
X104472714Y-93522617D01*
X104492045Y-93479624D01*
X104515318Y-93427764D01*
X104541688Y-93368925D01*
X104570312Y-93304995D01*
X104600344Y-93237863D01*
X104630942Y-93169418D01*
X104661260Y-93101547D01*
X104690454Y-93036140D01*
X104717680Y-92975085D01*
X104742094Y-92920270D01*
X104762851Y-92873583D01*
X104779108Y-92836914D01*
X104788879Y-92814754D01*
X104806789Y-92774078D01*
X104824467Y-92734190D01*
X104839856Y-92699711D01*
X104850775Y-92675543D01*
X104870996Y-92631228D01*
X104893190Y-92582387D01*
X104916435Y-92531069D01*
X104939810Y-92479324D01*
X104962392Y-92429201D01*
X104983261Y-92382750D01*
X105001495Y-92342019D01*
X105016171Y-92309057D01*
X105026368Y-92285915D01*
X105031166Y-92274642D01*
X105031416Y-92273893D01*
X105034520Y-92265851D01*
X105042788Y-92246947D01*
X105054654Y-92220735D01*
X105059258Y-92210729D01*
X105072000Y-92182790D01*
X105081677Y-92160901D01*
X105086720Y-92148634D01*
X105087100Y-92147289D01*
X105090242Y-92139170D01*
X105098666Y-92120035D01*
X105110870Y-92093261D01*
X105118081Y-92077717D01*
X105136744Y-92037332D01*
X105156556Y-91993817D01*
X105176421Y-91949651D01*
X105195244Y-91907316D01*
X105211930Y-91869291D01*
X105225383Y-91838055D01*
X105234509Y-91816089D01*
X105238213Y-91805872D01*
X105238243Y-91805602D01*
X105230489Y-91804811D01*
X105208026Y-91804108D01*
X105172056Y-91803498D01*
X105123781Y-91802988D01*
X105064401Y-91802583D01*
X104995119Y-91802290D01*
X104917135Y-91802114D01*
X104831650Y-91802062D01*
X104739867Y-91802140D01*
X104642987Y-91802353D01*
X104613080Y-91802445D01*
X103987916Y-91804482D01*
X103930397Y-91943692D01*
X103911263Y-91989878D01*
X103887535Y-92046954D01*
X103860788Y-92111145D01*
X103832595Y-92178676D01*
X103804532Y-92245772D01*
X103782777Y-92297685D01*
X103758764Y-92354966D01*
X103735832Y-92409737D01*
X103714970Y-92459631D01*
X103697168Y-92502282D01*
X103683413Y-92535323D01*
X103674694Y-92556386D01*
X103673947Y-92558208D01*
X103659582Y-92593128D01*
X103643801Y-92631251D01*
X103636127Y-92649690D01*
X103625442Y-92675292D01*
X103610621Y-92710803D01*
X103593656Y-92751450D01*
X103577196Y-92790889D01*
X103559434Y-92833354D01*
X103541283Y-92876596D01*
X103524979Y-92915295D01*
X103513651Y-92942032D01*
X103501776Y-92970209D01*
X103485771Y-93008576D01*
X103467522Y-93052595D01*
X103448912Y-93097730D01*
X103444249Y-93109085D01*
X103426977Y-93151012D01*
X103410652Y-93190341D01*
X103396777Y-93223473D01*
X103386854Y-93246812D01*
X103384471Y-93252274D01*
X103377825Y-93267761D01*
X103366022Y-93295753D01*
X103349981Y-93334052D01*
X103330619Y-93380460D01*
X103308857Y-93432778D01*
X103285611Y-93488807D01*
X103281440Y-93498876D01*
X103256127Y-93559907D01*
X103230410Y-93621750D01*
X103205599Y-93681267D01*
X103183002Y-93735323D01*
X103163929Y-93780782D01*
X103150288Y-93813094D01*
X103131206Y-93858287D01*
X103108634Y-93912099D01*
X103085123Y-93968432D01*
X103063222Y-94021186D01*
X103058812Y-94031854D01*
X103021699Y-94121553D01*
X102985550Y-94208542D01*
X102948375Y-94297592D01*
X102908182Y-94393477D01*
X102880315Y-94459781D01*
X102860587Y-94506892D01*
X102840938Y-94554183D01*
X102823097Y-94597469D01*
X102808792Y-94632566D01*
X102803114Y-94646721D01*
X102789547Y-94680338D01*
X102776156Y-94712631D01*
X102765558Y-94737301D01*
X102764423Y-94739840D01*
X102756195Y-94758705D01*
X102742818Y-94790105D01*
X102725199Y-94831864D01*
X102704245Y-94881804D01*
X102680863Y-94937750D01*
X102655961Y-94997524D01*
X102630446Y-95058949D01*
X102605224Y-95119850D01*
X102581202Y-95178049D01*
X102559289Y-95231369D01*
X102544634Y-95267215D01*
X102530344Y-95301859D01*
X102516274Y-95335280D01*
X102504938Y-95361523D01*
X102502652Y-95366652D01*
X102493096Y-95388464D01*
X102480373Y-95418361D01*
X102465726Y-95453322D01*
X102450397Y-95490322D01*
X102435630Y-95526340D01*
X102422666Y-95558351D01*
X102412748Y-95583334D01*
X102407118Y-95598266D01*
X102406298Y-95601062D01*
X102021908Y-95601062D01*
X102034870Y-95569044D01*
X102055007Y-95519801D01*
G37*
G36*
X104115373Y-95598210D02*
G01*
X104123913Y-95606220D01*
X104122161Y-95610824D01*
X104121049Y-95610902D01*
X104114321Y-95605252D01*
X104111865Y-95601718D01*
X104110927Y-95596274D01*
X104115373Y-95598210D01*
G37*
G36*
X103859394Y-95597644D02*
G01*
X103858302Y-95602373D01*
X103854090Y-95602947D01*
X103847543Y-95600036D01*
X103848787Y-95597644D01*
X103858228Y-95596692D01*
X103859394Y-95597644D01*
G37*
G36*
X103901809Y-95823376D02*
G01*
X103915595Y-95828666D01*
X103915418Y-95832619D01*
X103906267Y-95833639D01*
X103893038Y-95829270D01*
X103890346Y-95826426D01*
X103892891Y-95822361D01*
X103901809Y-95823376D01*
G37*
G36*
X104426843Y-95630789D02*
G01*
X104422866Y-95634767D01*
X104418888Y-95630789D01*
X104422866Y-95626812D01*
X104426843Y-95630789D01*
G37*
G36*
X103790451Y-95583060D02*
G01*
X103786474Y-95587037D01*
X103782496Y-95583060D01*
X103786474Y-95579082D01*
X103790451Y-95583060D01*
G37*
G36*
X104116602Y-95948985D02*
G01*
X104112625Y-95952963D01*
X104108647Y-95948985D01*
X104112625Y-95945008D01*
X104116602Y-95948985D01*
G37*
G36*
X102994961Y-95559195D02*
G01*
X102990983Y-95563172D01*
X102987006Y-95559195D01*
X102990983Y-95555218D01*
X102994961Y-95559195D01*
G37*
%TO.C,C16*%
X167950000Y-106422164D02*
X167950000Y-106637836D01*
X168670000Y-106422164D02*
X168670000Y-106637836D01*
%TO.C,J3*%
X114765000Y-80930000D02*
X116095000Y-80930000D01*
X113435000Y-91210000D02*
X116095000Y-91210000D01*
X113435000Y-83530000D02*
X116095000Y-83530000D01*
X116095000Y-83530000D02*
X116095000Y-91210000D01*
X116095000Y-80930000D02*
X116095000Y-82260000D01*
X113435000Y-83530000D02*
X113435000Y-91210000D01*
%TO.C,C3*%
X183250000Y-95472164D02*
X183250000Y-95687836D01*
X182530000Y-95472164D02*
X182530000Y-95687836D01*
%TO.C,U1*%
X185639382Y-108776913D02*
X182980660Y-106118192D01*
X182980660Y-106118192D02*
X182089706Y-107009146D01*
X178158192Y-110940660D02*
X179049146Y-110049706D01*
X182407904Y-115190372D02*
X178158192Y-110940660D01*
%TO.C,C6*%
X176828307Y-99130810D02*
X176980810Y-98978307D01*
X176319190Y-98621693D02*
X176471693Y-98469190D01*
%TO.C,D8*%
X132480000Y-125267500D02*
X132480000Y-127952500D01*
X134400000Y-127952500D02*
X134400000Y-125267500D01*
X132480000Y-127952500D02*
X134400000Y-127952500D01*
%TO.C,C4*%
X156812164Y-96460000D02*
X157027836Y-96460000D01*
X156812164Y-95740000D02*
X157027836Y-95740000D01*
%TO.C,D15*%
X125621919Y-132345726D02*
X127520500Y-130447145D01*
X124264274Y-130988081D02*
X125621919Y-132345726D01*
X126162855Y-129089500D02*
X124264274Y-130988081D01*
%TO.C,C17*%
X172252164Y-93250000D02*
X172467836Y-93250000D01*
X172252164Y-93970000D02*
X172467836Y-93970000D01*
%TO.C,D12*%
X148282500Y-125980000D02*
X145597500Y-125980000D01*
X145597500Y-127900000D02*
X148282500Y-127900000D01*
X145597500Y-125980000D02*
X145597500Y-127900000D01*
%TO.C,G\u002A\u002A\u002A*%
G36*
X124651574Y-72329092D02*
G01*
X124654486Y-72778477D01*
X124643784Y-73067517D01*
X124605624Y-73205261D01*
X124538028Y-73194629D01*
X124456189Y-73071554D01*
X124357542Y-72947735D01*
X124289815Y-72915246D01*
X124205645Y-72980460D01*
X124166219Y-73071554D01*
X124108123Y-73214525D01*
X124053692Y-73215870D01*
X124011174Y-73090204D01*
X123988816Y-72852141D01*
X123987266Y-72754445D01*
X123987266Y-72602631D01*
X124143574Y-72602631D01*
X124189366Y-72725201D01*
X124338958Y-72758938D01*
X124492172Y-72722304D01*
X124534343Y-72602631D01*
X124488550Y-72480060D01*
X124338958Y-72446323D01*
X124185745Y-72482957D01*
X124143574Y-72602631D01*
X123987266Y-72602631D01*
X123987266Y-72281028D01*
X124651574Y-72329092D01*
G37*
G36*
X123484500Y-72400350D02*
G01*
X123659839Y-72133705D01*
X123949935Y-71942733D01*
X124304942Y-71844627D01*
X124632713Y-71900383D01*
X124933732Y-72110109D01*
X124997296Y-72177925D01*
X125180065Y-72482137D01*
X125231685Y-72798237D01*
X125171014Y-73101441D01*
X125016913Y-73366970D01*
X124788241Y-73570041D01*
X124503857Y-73685871D01*
X124182620Y-73689680D01*
X123916646Y-73597940D01*
X123633467Y-73369834D01*
X123465272Y-73050719D01*
X123434100Y-72820041D01*
X123624037Y-72820041D01*
X123690625Y-73113025D01*
X123871191Y-73350617D01*
X123978517Y-73423274D01*
X124252444Y-73526021D01*
X124510290Y-73503395D01*
X124644130Y-73451494D01*
X124837211Y-73292241D01*
X124985190Y-73045376D01*
X125055674Y-72777255D01*
X125045975Y-72628353D01*
X124911882Y-72356118D01*
X124690268Y-72162709D01*
X124420774Y-72061286D01*
X124143042Y-72065012D01*
X123896715Y-72187048D01*
X123850375Y-72231400D01*
X123675822Y-72512541D01*
X123624037Y-72820041D01*
X123434100Y-72820041D01*
X123426056Y-72760514D01*
X123484500Y-72400350D01*
G37*
G36*
X118118217Y-48001683D02*
G01*
X118245690Y-48007118D01*
X118255636Y-48009872D01*
X118253810Y-48097497D01*
X118219086Y-48309351D01*
X118156792Y-48618102D01*
X118072260Y-48996418D01*
X118021341Y-49211327D01*
X117908259Y-49680933D01*
X117771720Y-50249856D01*
X117624359Y-50865330D01*
X117478814Y-51474588D01*
X117379366Y-51891861D01*
X116996844Y-53489723D01*
X116615249Y-55065931D01*
X116236977Y-56611283D01*
X115864423Y-58116576D01*
X115499983Y-59572608D01*
X115146052Y-60970176D01*
X114805028Y-62300076D01*
X114479304Y-63553107D01*
X114171277Y-64720066D01*
X113883343Y-65791750D01*
X113617898Y-66758956D01*
X113377336Y-67612482D01*
X113164054Y-68343124D01*
X112980448Y-68941681D01*
X112828913Y-69398950D01*
X112802411Y-69473343D01*
X112360092Y-70472575D01*
X111790017Y-71387013D01*
X111098919Y-72211522D01*
X110293528Y-72940967D01*
X109380576Y-73570214D01*
X108366792Y-74094128D01*
X107258910Y-74507573D01*
X106063659Y-74805415D01*
X105736280Y-74863799D01*
X104844316Y-74985699D01*
X104023607Y-75041687D01*
X103205389Y-75035319D01*
X102832629Y-75013975D01*
X101953673Y-74879158D01*
X101142787Y-74606877D01*
X100405625Y-74202972D01*
X99747839Y-73673284D01*
X99175083Y-73023653D01*
X98693011Y-72259919D01*
X98307275Y-71387923D01*
X98023530Y-70413505D01*
X97931994Y-69951166D01*
X97864156Y-69410269D01*
X97822903Y-68765319D01*
X97808843Y-68066399D01*
X97822583Y-67363591D01*
X97864729Y-66706975D01*
X97889788Y-66467554D01*
X97919417Y-66301559D01*
X97983941Y-65998399D01*
X98079850Y-65572424D01*
X98203633Y-65037984D01*
X98351782Y-64409428D01*
X98520785Y-63701109D01*
X98707134Y-62927376D01*
X98907316Y-62102579D01*
X99117824Y-61241069D01*
X99335147Y-60357197D01*
X99555774Y-59465312D01*
X99776196Y-58579765D01*
X99992903Y-57714907D01*
X100202384Y-56885087D01*
X100401130Y-56104657D01*
X100585631Y-55387966D01*
X100752376Y-54749365D01*
X100800707Y-54566508D01*
X100852869Y-54333988D01*
X100871563Y-54171198D01*
X100861187Y-54123856D01*
X100771445Y-54118259D01*
X100550407Y-54120554D01*
X100222844Y-54130013D01*
X99813529Y-54145905D01*
X99347234Y-54167500D01*
X99300754Y-54169827D01*
X98830697Y-54191206D01*
X98415581Y-54205681D01*
X98080083Y-54212752D01*
X97848884Y-54211921D01*
X97746660Y-54202686D01*
X97744523Y-54201323D01*
X97747000Y-54113678D01*
X97784324Y-53903409D01*
X97850614Y-53598801D01*
X97939993Y-53228139D01*
X97976978Y-53082859D01*
X98087149Y-52655699D01*
X98224154Y-52124008D01*
X98375924Y-51534645D01*
X98530392Y-50934468D01*
X98666081Y-50406938D01*
X98793567Y-49925714D01*
X98915012Y-49494167D01*
X99023163Y-49136009D01*
X99110767Y-48874954D01*
X99170570Y-48734713D01*
X99182221Y-48719565D01*
X99296243Y-48687532D01*
X99548188Y-48656126D01*
X99919676Y-48626853D01*
X100392323Y-48601221D01*
X100832069Y-48584312D01*
X101264047Y-48569843D01*
X101824110Y-48550328D01*
X102484153Y-48526789D01*
X103216068Y-48500244D01*
X103991753Y-48471715D01*
X104783100Y-48442222D01*
X105562004Y-48412784D01*
X105647664Y-48409519D01*
X106346504Y-48383521D01*
X106995560Y-48360660D01*
X107578492Y-48341415D01*
X108078960Y-48326267D01*
X108480624Y-48315696D01*
X108767143Y-48310184D01*
X108922178Y-48310211D01*
X108945363Y-48312522D01*
X108937674Y-48394117D01*
X108897718Y-48599641D01*
X108831410Y-48901449D01*
X108744665Y-49271899D01*
X108705785Y-49432227D01*
X108626965Y-49755992D01*
X108517667Y-50207619D01*
X108383708Y-50762936D01*
X108230907Y-51397770D01*
X108065081Y-52087948D01*
X107892046Y-52809298D01*
X107717620Y-53537646D01*
X107690664Y-53650323D01*
X107522462Y-54353323D01*
X107359902Y-55032402D01*
X107207869Y-55667173D01*
X107071249Y-56237251D01*
X106954930Y-56722249D01*
X106863795Y-57101782D01*
X106802733Y-57355463D01*
X106791558Y-57401708D01*
X106465286Y-58751488D01*
X106174623Y-59958570D01*
X105917735Y-61032014D01*
X105692788Y-61980879D01*
X105497946Y-62814223D01*
X105331375Y-63541105D01*
X105191239Y-64170584D01*
X105075705Y-64711720D01*
X104982937Y-65173571D01*
X104911101Y-65565195D01*
X104858361Y-65895653D01*
X104822883Y-66174003D01*
X104802832Y-66409303D01*
X104796374Y-66610613D01*
X104801673Y-66786992D01*
X104816894Y-66947499D01*
X104834195Y-67065807D01*
X104913839Y-67430370D01*
X105024285Y-67680697D01*
X105188434Y-67858660D01*
X105314131Y-67943373D01*
X105664574Y-68069504D01*
X106024053Y-68043596D01*
X106387601Y-67869286D01*
X106750249Y-67550216D01*
X107107029Y-67090022D01*
X107452973Y-66492346D01*
X107542267Y-66311246D01*
X107684212Y-66001807D01*
X107808671Y-65698372D01*
X107923522Y-65374980D01*
X108036644Y-65005668D01*
X108155915Y-64564476D01*
X108289214Y-64025440D01*
X108444419Y-63362601D01*
X108467244Y-63263246D01*
X108545366Y-62923451D01*
X108653179Y-62455761D01*
X108785052Y-61884547D01*
X108935351Y-61234176D01*
X109098445Y-60529020D01*
X109268701Y-59793448D01*
X109440488Y-59051828D01*
X109478773Y-58886631D01*
X109666238Y-58077415D01*
X109879779Y-57154969D01*
X110110359Y-56158374D01*
X110348939Y-55126713D01*
X110586483Y-54099068D01*
X110813951Y-53114522D01*
X111022307Y-52212155D01*
X111051135Y-52087246D01*
X111219630Y-51357928D01*
X111378296Y-50672654D01*
X111523501Y-50047006D01*
X111651613Y-49496561D01*
X111759000Y-49036900D01*
X111842031Y-48683602D01*
X111897073Y-48452247D01*
X111920131Y-48359599D01*
X112033880Y-48249564D01*
X112287662Y-48187620D01*
X112470079Y-48172519D01*
X112773175Y-48155277D01*
X113176132Y-48136515D01*
X113658133Y-48116853D01*
X114198361Y-48096911D01*
X114775997Y-48077308D01*
X115370224Y-48058665D01*
X115960225Y-48041602D01*
X116525182Y-48026738D01*
X117044277Y-48014695D01*
X117496693Y-48006091D01*
X117861613Y-48001547D01*
X118118217Y-48001683D01*
G37*
G36*
X139739492Y-47368833D02*
G01*
X139716277Y-47490792D01*
X139671223Y-47746175D01*
X139607878Y-48114176D01*
X139529789Y-48573987D01*
X139440503Y-49104800D01*
X139343568Y-49685807D01*
X139309979Y-49888183D01*
X139212345Y-50472251D01*
X139121728Y-51004886D01*
X139041506Y-51466980D01*
X138975053Y-51839428D01*
X138925748Y-52103121D01*
X138896965Y-52238952D01*
X138892097Y-52253082D01*
X138807607Y-52268318D01*
X138589948Y-52292198D01*
X138261909Y-52322905D01*
X137846279Y-52358625D01*
X137365847Y-52397540D01*
X136843401Y-52437835D01*
X136301730Y-52477696D01*
X135763623Y-52515305D01*
X135251869Y-52548848D01*
X134945493Y-52567531D01*
X134590231Y-52593762D01*
X134295754Y-52625576D01*
X134095124Y-52658737D01*
X134022366Y-52685809D01*
X133994489Y-52782901D01*
X133951040Y-52990663D01*
X133898547Y-53270791D01*
X133843535Y-53584982D01*
X133792534Y-53894929D01*
X133752068Y-54162328D01*
X133728666Y-54348874D01*
X133727553Y-54415943D01*
X133808541Y-54418754D01*
X134009971Y-54410355D01*
X134296515Y-54392473D01*
X134474595Y-54379452D01*
X134887283Y-54348782D01*
X135375268Y-54313959D01*
X135857852Y-54280695D01*
X136051406Y-54267781D01*
X136900469Y-54211895D01*
X136852971Y-54439109D01*
X136825528Y-54583514D01*
X136776459Y-54854888D01*
X136710565Y-55226139D01*
X136632648Y-55670180D01*
X136547507Y-56159919D01*
X136528738Y-56268477D01*
X136386614Y-57088886D01*
X136267926Y-57767863D01*
X136170244Y-58318130D01*
X136091135Y-58752407D01*
X136028170Y-59083414D01*
X135978915Y-59323872D01*
X135940941Y-59486502D01*
X135911815Y-59584025D01*
X135889106Y-59629161D01*
X135885758Y-59632497D01*
X135793733Y-59656082D01*
X135570505Y-59693334D01*
X135240241Y-59740820D01*
X134827106Y-59795106D01*
X134355269Y-59852759D01*
X134242672Y-59865939D01*
X133706255Y-59929265D01*
X133305132Y-59980277D01*
X133019175Y-60023258D01*
X132828252Y-60062490D01*
X132712235Y-60102255D01*
X132650994Y-60146837D01*
X132624400Y-60200517D01*
X132621900Y-60210749D01*
X132575473Y-60447420D01*
X132524868Y-60750230D01*
X132475130Y-61082060D01*
X132431301Y-61405792D01*
X132398425Y-61684305D01*
X132381545Y-61880481D01*
X132384699Y-61956576D01*
X132467360Y-61955230D01*
X132686289Y-61936133D01*
X133022728Y-61901523D01*
X133457920Y-61853638D01*
X133973108Y-61794715D01*
X134549536Y-61726993D01*
X135168445Y-61652708D01*
X135811079Y-61574099D01*
X136458682Y-61493403D01*
X137092495Y-61412859D01*
X137693762Y-61334704D01*
X138243726Y-61261175D01*
X138445728Y-61233480D01*
X138766352Y-61191388D01*
X139022218Y-61162030D01*
X139178580Y-61149165D01*
X139210072Y-61150814D01*
X139203967Y-61231449D01*
X139171862Y-61443948D01*
X139117782Y-61766779D01*
X139045750Y-62178409D01*
X138959790Y-62657306D01*
X138863926Y-63181938D01*
X138762183Y-63730770D01*
X138658584Y-64282272D01*
X138557154Y-64814911D01*
X138461916Y-65307153D01*
X138376894Y-65737466D01*
X138306114Y-66084319D01*
X138253597Y-66326177D01*
X138223370Y-66441509D01*
X138220181Y-66447692D01*
X138122532Y-66493958D01*
X137914445Y-66563270D01*
X137637435Y-66642039D01*
X137582451Y-66656433D01*
X137311795Y-66726292D01*
X136928190Y-66825255D01*
X136470046Y-66943415D01*
X135975775Y-67070863D01*
X135593112Y-67169514D01*
X135231350Y-67262974D01*
X134740040Y-67390214D01*
X134140893Y-67545596D01*
X133455616Y-67723482D01*
X132705920Y-67918235D01*
X131913512Y-68124218D01*
X131100102Y-68335792D01*
X130287399Y-68547321D01*
X130278651Y-68549599D01*
X129134940Y-68847363D01*
X128133108Y-69108099D01*
X127263778Y-69334197D01*
X126517572Y-69528048D01*
X125885113Y-69692040D01*
X125357023Y-69828563D01*
X124923927Y-69940008D01*
X124576445Y-70028765D01*
X124305202Y-70097222D01*
X124100820Y-70147770D01*
X123953921Y-70182799D01*
X123855128Y-70204698D01*
X123795065Y-70215858D01*
X123764354Y-70218667D01*
X123753618Y-70215517D01*
X123752805Y-70212733D01*
X123767414Y-70129006D01*
X123809088Y-69908480D01*
X123874597Y-69567698D01*
X123960710Y-69123203D01*
X124064197Y-68591539D01*
X124181828Y-67989251D01*
X124310372Y-67332881D01*
X124446598Y-66638974D01*
X124587277Y-65924073D01*
X124729177Y-65204723D01*
X124848803Y-64599800D01*
X124943114Y-64128212D01*
X125028202Y-63711675D01*
X125099161Y-63373487D01*
X125151084Y-63136942D01*
X125179066Y-63025336D01*
X125181540Y-63019844D01*
X125264259Y-62997783D01*
X125467423Y-62958152D01*
X125757008Y-62907311D01*
X125982540Y-62870126D01*
X126309329Y-62816385D01*
X126570930Y-62771173D01*
X126734018Y-62740379D01*
X126771627Y-62730697D01*
X126788954Y-62653447D01*
X126832941Y-62439176D01*
X126900325Y-62104279D01*
X126987841Y-61665154D01*
X127092226Y-61138194D01*
X127210215Y-60539796D01*
X127338545Y-59886357D01*
X127381289Y-59668169D01*
X127530545Y-58906279D01*
X127686097Y-58113057D01*
X127841728Y-57320155D01*
X127991218Y-56559227D01*
X128128352Y-55861927D01*
X128246909Y-55259908D01*
X128327272Y-54852624D01*
X128426801Y-54346619D01*
X128515288Y-53892442D01*
X128588466Y-53512343D01*
X128642069Y-53228574D01*
X128671833Y-53063388D01*
X128676497Y-53030966D01*
X128604037Y-53009218D01*
X128409228Y-52994918D01*
X128125924Y-52989842D01*
X127931457Y-52991882D01*
X127606734Y-52994806D01*
X127345531Y-52990332D01*
X127183938Y-52979436D01*
X127150253Y-52970746D01*
X127150515Y-52884701D01*
X127177254Y-52675711D01*
X127225945Y-52374032D01*
X127292062Y-52009920D01*
X127300881Y-51963837D01*
X127375731Y-51569669D01*
X127469752Y-51066659D01*
X127574612Y-50499835D01*
X127681978Y-49914223D01*
X127777005Y-49390938D01*
X127865180Y-48905611D01*
X127945349Y-48469874D01*
X128012933Y-48108170D01*
X128063355Y-47844939D01*
X128092037Y-47704621D01*
X128095426Y-47691092D01*
X128192700Y-47627036D01*
X128425036Y-47595760D01*
X128537275Y-47593318D01*
X128700516Y-47590459D01*
X129002918Y-47582318D01*
X129427443Y-47569498D01*
X129957055Y-47552601D01*
X130574718Y-47532228D01*
X131263394Y-47508983D01*
X132006047Y-47483466D01*
X132785641Y-47456281D01*
X133585139Y-47428030D01*
X134387504Y-47399314D01*
X135175699Y-47370736D01*
X135932688Y-47342898D01*
X136641435Y-47316403D01*
X137284902Y-47291852D01*
X137846053Y-47269847D01*
X138307852Y-47250991D01*
X138653261Y-47235886D01*
X138664560Y-47235362D01*
X139782162Y-47183343D01*
X139739492Y-47368833D01*
G37*
G36*
X142379246Y-53816190D02*
G01*
X142477071Y-53222612D01*
X142556281Y-52738951D01*
X142615034Y-52376337D01*
X142651488Y-52145905D01*
X142663799Y-52059166D01*
X142638083Y-52013410D01*
X142542655Y-51988283D01*
X142353665Y-51982418D01*
X142047265Y-51994450D01*
X141798196Y-52009624D01*
X141421367Y-52032777D01*
X141174909Y-52041543D01*
X141033321Y-52033176D01*
X140971102Y-52004928D01*
X140962749Y-51954054D01*
X140970471Y-51920474D01*
X140992709Y-51808662D01*
X141036195Y-51562967D01*
X141097485Y-51203848D01*
X141173137Y-50751766D01*
X141259707Y-50227182D01*
X141353751Y-49650557D01*
X141385303Y-49455654D01*
X141760021Y-47136678D01*
X142467028Y-47091658D01*
X142678272Y-47080450D01*
X143028697Y-47064587D01*
X143501267Y-47044736D01*
X144078946Y-47021559D01*
X144744698Y-46995724D01*
X145481487Y-46967896D01*
X146272277Y-46938739D01*
X147100032Y-46908919D01*
X147589728Y-46891603D01*
X148430624Y-46861871D01*
X149244047Y-46832711D01*
X150013017Y-46804759D01*
X150720554Y-46778650D01*
X151349679Y-46755019D01*
X151883411Y-46734502D01*
X152304770Y-46717734D01*
X152596776Y-46705350D01*
X152700449Y-46700412D01*
X153395477Y-46664255D01*
X153349354Y-47617289D01*
X153211554Y-49110119D01*
X152947496Y-50565384D01*
X152562560Y-51965678D01*
X152062129Y-53293592D01*
X151451582Y-54531719D01*
X150964902Y-55330631D01*
X150647095Y-55763063D01*
X150248739Y-56234338D01*
X149803243Y-56710341D01*
X149344017Y-57156959D01*
X148904470Y-57540076D01*
X148527574Y-57819372D01*
X148126569Y-58062256D01*
X147671369Y-58308290D01*
X147206019Y-58536118D01*
X146774561Y-58724384D01*
X146421039Y-58851733D01*
X146366522Y-58867225D01*
X146141845Y-58947920D01*
X145984340Y-59042094D01*
X145951322Y-59080536D01*
X145915889Y-59196848D01*
X145860063Y-59436376D01*
X145790457Y-59768378D01*
X145713684Y-60162114D01*
X145681997Y-60332477D01*
X145507437Y-61282869D01*
X145358404Y-62090631D01*
X145232694Y-62766960D01*
X145128103Y-63323052D01*
X145042427Y-63770107D01*
X144973462Y-64119320D01*
X144919004Y-64381890D01*
X144876849Y-64569014D01*
X144844793Y-64691889D01*
X144820631Y-64761713D01*
X144805148Y-64787252D01*
X144709570Y-64828395D01*
X144489697Y-64899409D01*
X144172856Y-64992176D01*
X143786374Y-65098579D01*
X143525728Y-65167327D01*
X142739499Y-65371191D01*
X142092051Y-65538697D01*
X141570932Y-65673005D01*
X141163693Y-65777275D01*
X140857883Y-65854665D01*
X140641053Y-65908337D01*
X140500751Y-65941450D01*
X140424530Y-65957163D01*
X140404231Y-65959554D01*
X140408509Y-65884317D01*
X140437179Y-65665877D01*
X140488503Y-65315136D01*
X140560740Y-64842999D01*
X140652152Y-64260370D01*
X140760999Y-63578152D01*
X140885540Y-62807248D01*
X141024037Y-61958564D01*
X141174749Y-61043002D01*
X141335938Y-60071467D01*
X141504587Y-59062477D01*
X141675401Y-58043184D01*
X141838657Y-57067013D01*
X141992513Y-56145095D01*
X142135124Y-55288564D01*
X142237198Y-54673870D01*
X146572839Y-54673870D01*
X146594301Y-54813872D01*
X146675305Y-54853911D01*
X146827333Y-54812093D01*
X147061873Y-54706526D01*
X147089001Y-54693774D01*
X147509127Y-54435130D01*
X147949973Y-54053021D01*
X148384810Y-53572917D01*
X148683481Y-53174625D01*
X148937520Y-52777163D01*
X149166411Y-52363517D01*
X149353978Y-51968175D01*
X149484051Y-51625626D01*
X149540455Y-51370360D01*
X149541541Y-51344784D01*
X149543736Y-51149400D01*
X147081728Y-51305708D01*
X146941775Y-52243554D01*
X146868924Y-52722859D01*
X146786156Y-53253612D01*
X146705820Y-53757163D01*
X146662592Y-54021554D01*
X146599431Y-54415800D01*
X146572839Y-54673870D01*
X142237198Y-54673870D01*
X142264650Y-54508552D01*
X142379246Y-53816190D01*
G37*
G36*
X127671746Y-36188207D02*
G01*
X127894942Y-36198263D01*
X127973100Y-36214887D01*
X127973112Y-36215140D01*
X127959436Y-36301658D01*
X127923129Y-36502685D01*
X127871272Y-36779274D01*
X127855895Y-36859909D01*
X127800356Y-37164201D01*
X127759025Y-37417404D01*
X127739320Y-37573370D01*
X127738623Y-37589708D01*
X127755601Y-37626607D01*
X127818278Y-37654235D01*
X127944214Y-37673432D01*
X128150964Y-37685039D01*
X128456086Y-37689897D01*
X128877137Y-37688849D01*
X129431675Y-37682733D01*
X129624615Y-37680066D01*
X131510662Y-37653194D01*
X131461882Y-37836374D01*
X131402084Y-38057628D01*
X131367531Y-38183045D01*
X131356397Y-38242250D01*
X131374835Y-38286118D01*
X131443743Y-38318035D01*
X131584015Y-38341388D01*
X131816548Y-38359567D01*
X132162238Y-38375957D01*
X132641981Y-38393948D01*
X132675997Y-38395171D01*
X133916706Y-38473006D01*
X135271650Y-38618497D01*
X136716851Y-38826300D01*
X138228331Y-39091072D01*
X139782110Y-39407470D01*
X141354212Y-39770148D01*
X142920657Y-40173763D01*
X144457467Y-40612973D01*
X145940663Y-41082432D01*
X147346268Y-41576797D01*
X147902343Y-41788475D01*
X148236186Y-41923879D01*
X148625822Y-42090233D01*
X149048413Y-42276837D01*
X149481122Y-42472995D01*
X149901112Y-42668007D01*
X150285544Y-42851176D01*
X150611583Y-43011803D01*
X150856389Y-43139191D01*
X150997127Y-43222640D01*
X151021203Y-43249505D01*
X150937432Y-43269895D01*
X150724601Y-43291073D01*
X150379091Y-43313188D01*
X149897287Y-43336388D01*
X149275571Y-43360821D01*
X148510326Y-43386636D01*
X147597934Y-43413981D01*
X146534780Y-43443005D01*
X145909420Y-43459106D01*
X145256341Y-43475722D01*
X144468760Y-43495932D01*
X143568429Y-43519169D01*
X142577097Y-43544866D01*
X141516517Y-43572458D01*
X140408437Y-43601377D01*
X139274610Y-43631057D01*
X138136786Y-43660931D01*
X137016715Y-43690433D01*
X136140870Y-43713576D01*
X129811089Y-43881092D01*
X129606496Y-44623554D01*
X129401904Y-45366015D01*
X127795243Y-45405101D01*
X127309633Y-45419029D01*
X126878391Y-45435422D01*
X126525488Y-45453039D01*
X126274896Y-45470639D01*
X126150585Y-45486978D01*
X126142025Y-45490744D01*
X126117966Y-45574800D01*
X126067732Y-45796728D01*
X125994523Y-46140878D01*
X125901542Y-46591599D01*
X125791992Y-47133241D01*
X125669072Y-47750153D01*
X125535987Y-48426687D01*
X125430500Y-48968581D01*
X125269207Y-49800547D01*
X125097293Y-50686731D01*
X124921335Y-51593277D01*
X124747905Y-52486330D01*
X124583580Y-53332037D01*
X124434933Y-54096543D01*
X124308540Y-54745992D01*
X124293613Y-54822631D01*
X124059080Y-56026653D01*
X123822893Y-57239080D01*
X123588401Y-58442727D01*
X123358952Y-59620411D01*
X123137895Y-60754947D01*
X122928578Y-61829149D01*
X122734349Y-62825834D01*
X122558558Y-63727817D01*
X122404553Y-64517913D01*
X122275681Y-65178938D01*
X122230142Y-65412477D01*
X122144167Y-65853993D01*
X122033263Y-66424529D01*
X121902174Y-67099634D01*
X121755642Y-67854864D01*
X121598408Y-68665768D01*
X121435215Y-69507901D01*
X121270804Y-70356815D01*
X121131092Y-71078631D01*
X120983205Y-71838922D01*
X120842952Y-72552295D01*
X120713317Y-73204102D01*
X120597284Y-73779696D01*
X120497838Y-74264428D01*
X120417962Y-74643653D01*
X120360641Y-74902721D01*
X120328858Y-75026987D01*
X120324959Y-75035613D01*
X120238903Y-75072754D01*
X120025872Y-75149241D01*
X119708016Y-75257578D01*
X119307485Y-75390271D01*
X118846430Y-75539825D01*
X118633728Y-75607883D01*
X118054632Y-75792667D01*
X117433657Y-75991251D01*
X116818583Y-76188325D01*
X116257189Y-76368580D01*
X115799519Y-76515977D01*
X115278859Y-76681433D01*
X114891813Y-76797692D01*
X114624725Y-76867935D01*
X114463936Y-76895344D01*
X114395789Y-76883100D01*
X114401939Y-76841515D01*
X114428736Y-76750617D01*
X114482890Y-76530041D01*
X114559041Y-76202953D01*
X114651829Y-75792521D01*
X114755894Y-75321911D01*
X114795206Y-75141669D01*
X114891298Y-74700446D01*
X115015106Y-74133479D01*
X115160735Y-73467676D01*
X115322293Y-72729944D01*
X115493884Y-71947190D01*
X115669617Y-71146323D01*
X115843598Y-70354249D01*
X115899110Y-70101708D01*
X116064643Y-69348494D01*
X116228312Y-68603165D01*
X116385223Y-67888054D01*
X116530480Y-67225495D01*
X116659189Y-66637821D01*
X116766454Y-66147365D01*
X116847380Y-65776462D01*
X116875543Y-65646938D01*
X116973287Y-65197396D01*
X117092601Y-64649949D01*
X117221535Y-64059362D01*
X117348137Y-63480400D01*
X117412810Y-63185092D01*
X117546954Y-62573065D01*
X117709023Y-61833782D01*
X117893478Y-60992486D01*
X118094785Y-60074422D01*
X118307406Y-59104835D01*
X118525805Y-58108968D01*
X118744446Y-57112066D01*
X118957792Y-56139374D01*
X119160307Y-55216136D01*
X119346454Y-54367596D01*
X119510697Y-53618999D01*
X119647499Y-52995588D01*
X119658177Y-52946938D01*
X119809252Y-52258548D01*
X119980887Y-51476385D01*
X120160159Y-50659350D01*
X120334144Y-49866344D01*
X120489919Y-49156265D01*
X120515588Y-49039246D01*
X120642263Y-48462227D01*
X120767101Y-47894436D01*
X120883293Y-47366774D01*
X120984031Y-46910141D01*
X121062509Y-46555437D01*
X121098027Y-46395651D01*
X121166402Y-46080781D01*
X121219165Y-45821940D01*
X121248454Y-45658433D01*
X121251882Y-45626390D01*
X121176795Y-45601170D01*
X120950754Y-45585691D01*
X120572591Y-45579938D01*
X120041134Y-45583902D01*
X119355215Y-45597568D01*
X119102651Y-45603996D01*
X118541454Y-45617600D01*
X118034915Y-45627367D01*
X117602972Y-45633114D01*
X117265566Y-45634661D01*
X117042633Y-45631827D01*
X116954114Y-45624432D01*
X116953420Y-45623491D01*
X116976685Y-45534849D01*
X117036803Y-45344931D01*
X117097543Y-45163327D01*
X117189114Y-44883746D01*
X117266300Y-44629010D01*
X117296473Y-44517665D01*
X117351281Y-44294546D01*
X116312197Y-44345337D01*
X115989226Y-44360199D01*
X115535897Y-44379730D01*
X114978052Y-44402883D01*
X114341538Y-44428612D01*
X113652197Y-44455871D01*
X112935874Y-44483613D01*
X112303266Y-44507613D01*
X111611450Y-44533630D01*
X110794134Y-44564445D01*
X109882012Y-44598897D01*
X108905779Y-44635824D01*
X107896128Y-44674064D01*
X106883754Y-44712456D01*
X105899350Y-44749838D01*
X105046125Y-44782287D01*
X104242710Y-44812177D01*
X103486973Y-44838956D01*
X102793190Y-44862209D01*
X102175636Y-44881523D01*
X101648586Y-44896482D01*
X101226316Y-44906672D01*
X100923102Y-44911679D01*
X100753219Y-44911088D01*
X100721222Y-44907869D01*
X100768508Y-44853879D01*
X100926260Y-44732855D01*
X101171879Y-44559776D01*
X101482769Y-44349619D01*
X101836331Y-44117364D01*
X102209966Y-43877989D01*
X102581078Y-43646472D01*
X102927067Y-43437792D01*
X103029717Y-43377745D01*
X103431769Y-43154159D01*
X103940312Y-42885684D01*
X104518787Y-42590428D01*
X105130635Y-42286497D01*
X105739296Y-41991999D01*
X106308211Y-41725042D01*
X106800820Y-41503732D01*
X106898312Y-41461691D01*
X108556138Y-40797583D01*
X110242655Y-40206110D01*
X111933135Y-39693787D01*
X113602848Y-39267130D01*
X115227068Y-38932655D01*
X116781065Y-38696878D01*
X117768205Y-38597558D01*
X118326117Y-38552885D01*
X118748352Y-38514300D01*
X119055154Y-38476892D01*
X119266765Y-38435753D01*
X119403429Y-38385977D01*
X119485389Y-38322653D01*
X119532889Y-38240875D01*
X119558352Y-38163518D01*
X119627984Y-37920728D01*
X121134403Y-37864244D01*
X122640823Y-37807760D01*
X122860694Y-37046404D01*
X123080564Y-36285047D01*
X124764838Y-36234185D01*
X125548378Y-36212373D01*
X126241828Y-36196804D01*
X126834200Y-36187543D01*
X127314502Y-36184656D01*
X127671746Y-36188207D01*
G37*
D16*
%TO.C,IC2*%
X172730000Y-96015000D02*
G75*
G03*
X172730000Y-96015000I-100000J0D01*
G01*
D17*
%TO.C,C15*%
X172370000Y-105132164D02*
X172370000Y-105347836D01*
X171650000Y-105132164D02*
X171650000Y-105347836D01*
%TO.C,C10*%
X174752164Y-103110000D02*
X174967836Y-103110000D01*
X174752164Y-102390000D02*
X174967836Y-102390000D01*
%TO.C,D6*%
X127460000Y-128082500D02*
X127460000Y-125397500D01*
X125540000Y-128082500D02*
X127460000Y-128082500D01*
X125540000Y-125397500D02*
X125540000Y-128082500D01*
%TO.C,D18*%
X123471919Y-144025726D02*
X125370500Y-142127145D01*
X124012855Y-140769500D02*
X122114274Y-142668081D01*
X122114274Y-142668081D02*
X123471919Y-144025726D01*
%TO.C,R2*%
X183257500Y-89603641D02*
X183257500Y-89296359D01*
X182497500Y-89603641D02*
X182497500Y-89296359D01*
%TO.C,C18*%
X167780810Y-92451693D02*
X167628307Y-92299190D01*
X167271693Y-92960810D02*
X167119190Y-92808307D01*
%TO.C,C8*%
X160481920Y-114595000D02*
X160763080Y-114595000D01*
X160481920Y-113575000D02*
X160763080Y-113575000D01*
%TO.C,C7*%
X163085336Y-101010000D02*
X162869664Y-101010000D01*
X163085336Y-101730000D02*
X162869664Y-101730000D01*
%TO.C,D20*%
X122438284Y-149304071D02*
X120539703Y-151202652D01*
X120539703Y-151202652D02*
X121897348Y-152560297D01*
X121897348Y-152560297D02*
X123795929Y-150661716D01*
%TO.C,D9*%
X137710000Y-127805000D02*
X137710000Y-125120000D01*
X135790000Y-127805000D02*
X137710000Y-127805000D01*
X135790000Y-125120000D02*
X135790000Y-127805000D01*
D10*
%TO.C,D22*%
X102910000Y-95290000D02*
G75*
G03*
X102910000Y-95290000I-50000J0D01*
G01*
D17*
%TO.C,D14*%
X124807348Y-136220297D02*
X126705929Y-134321716D01*
X123449703Y-134862652D02*
X124807348Y-136220297D01*
X125348284Y-132964071D02*
X123449703Y-134862652D01*
%TO.C,J5*%
X196411522Y-109497574D02*
X198292426Y-111378478D01*
X196411522Y-109497574D02*
X192776994Y-113132102D01*
X198250000Y-107659096D02*
X199190452Y-108599548D01*
X192776994Y-113132102D02*
X194657898Y-115013006D01*
X198292426Y-111378478D02*
X194657898Y-115013006D01*
X197309548Y-108599548D02*
X198250000Y-107659096D01*
%TO.C,D3*%
X115570000Y-125670000D02*
X115570000Y-128355000D01*
X115570000Y-128355000D02*
X117490000Y-128355000D01*
X117490000Y-128355000D02*
X117490000Y-125670000D01*
%TO.C,D5*%
X122010000Y-128135000D02*
X123930000Y-128135000D01*
X123930000Y-128135000D02*
X123930000Y-125450000D01*
X122010000Y-125450000D02*
X122010000Y-128135000D01*
%TO.C,C2*%
X183829970Y-104861219D02*
X184028781Y-105060030D01*
X184551219Y-104139970D02*
X184750030Y-104338781D01*
%TO.C,J2*%
X200230000Y-96880000D02*
X200230000Y-97260000D01*
X200230000Y-104500000D02*
X200230000Y-104120000D01*
X202000000Y-104500000D02*
X200230000Y-104500000D01*
X204540000Y-104500000D02*
X204280000Y-104500000D01*
X204280000Y-96880000D02*
X204540000Y-96880000D01*
X200230000Y-96880000D02*
X202000000Y-96880000D01*
%TO.C,C5*%
X157327836Y-103020000D02*
X157112164Y-103020000D01*
X157327836Y-103740000D02*
X157112164Y-103740000D01*
%TO.C,D1*%
X107675000Y-127230000D02*
X107675000Y-129150000D01*
X107675000Y-129150000D02*
X110360000Y-129150000D01*
X110360000Y-127230000D02*
X107675000Y-127230000D01*
%TO.C,U2*%
X181445000Y-88245000D02*
X181445000Y-86570000D01*
X176255000Y-90970000D02*
X176255000Y-93695000D01*
X181705000Y-93695000D02*
X181445000Y-93695000D01*
X176255000Y-93695000D02*
X176515000Y-93695000D01*
X176255000Y-90970000D02*
X176255000Y-88245000D01*
X176255000Y-88245000D02*
X176515000Y-88245000D01*
X181705000Y-88245000D02*
X181445000Y-88245000D01*
X181705000Y-90970000D02*
X181705000Y-88245000D01*
X181705000Y-90970000D02*
X181705000Y-93695000D01*
%TO.C,C14*%
X172242164Y-95150000D02*
X172457836Y-95150000D01*
X172242164Y-94430000D02*
X172457836Y-94430000D01*
%TO.C,D19*%
X121499703Y-146732652D02*
X122857348Y-148090297D01*
X122857348Y-148090297D02*
X124755929Y-146191716D01*
X123398284Y-144834071D02*
X121499703Y-146732652D01*
%TO.C,D2*%
X112530000Y-128715000D02*
X114450000Y-128715000D01*
X114450000Y-128715000D02*
X114450000Y-126030000D01*
X112530000Y-126030000D02*
X112530000Y-128715000D01*
%TO.C,C12*%
X165270000Y-115874664D02*
X165270000Y-116090336D01*
X164550000Y-115874664D02*
X164550000Y-116090336D01*
%TO.C,D21*%
X121217348Y-157140297D02*
X123115929Y-155241716D01*
X119859703Y-155782652D02*
X121217348Y-157140297D01*
X121758284Y-153884071D02*
X119859703Y-155782652D01*
%TO.C,D7*%
X129130000Y-128045000D02*
X131050000Y-128045000D01*
X131050000Y-128045000D02*
X131050000Y-125360000D01*
X129130000Y-125360000D02*
X129130000Y-128045000D01*
%TO.C,J4*%
X191127996Y-117668421D02*
X189996625Y-118799792D01*
X184764035Y-119167488D02*
X185895406Y-118036117D01*
X185895406Y-118036117D02*
X185188299Y-117329010D01*
X187168198Y-115971365D02*
X188027333Y-115112230D01*
X187309620Y-121713072D02*
X186602513Y-121005965D01*
X186970208Y-115773375D02*
X188101579Y-114642004D01*
X186814645Y-118248249D02*
X187521752Y-118955356D01*
X184410482Y-118813934D02*
X182812420Y-120411996D01*
X188101579Y-114642004D02*
X187451041Y-113991466D01*
X187451041Y-113991466D02*
X181921466Y-119521041D01*
X187168198Y-115971365D02*
X186970208Y-115773375D01*
X191778534Y-118318960D02*
X191127996Y-117668421D01*
X185188299Y-117329010D02*
X184056928Y-118460381D01*
X188440990Y-120581701D02*
X187309620Y-121713072D01*
X187733884Y-119874595D02*
X188440990Y-120581701D01*
X183731659Y-121331235D02*
X186814645Y-118248249D01*
X184764035Y-119167488D02*
X183165974Y-120765549D01*
X190647164Y-119450330D02*
X189996625Y-118799792D01*
X186602513Y-121005965D02*
X187733884Y-119874595D01*
X189996625Y-118799792D02*
X189798635Y-118601802D01*
X184056928Y-118460381D02*
X184764035Y-119167488D01*
X186248959Y-123848535D02*
X191778534Y-118318960D01*
X181921466Y-119521041D02*
X186248959Y-123848535D01*
X186319670Y-115122837D02*
X186970208Y-115773375D01*
X187521752Y-118955356D02*
X184438766Y-122038341D01*
D10*
%TO.C,Y1*%
X155260000Y-98480000D02*
X155260000Y-98480000D01*
X155260000Y-98380000D02*
X155260000Y-98380000D01*
X155260000Y-98380000D02*
G75*
G03*
X155260000Y-98480000I0J-50000D01*
G01*
X155260000Y-98480000D02*
G75*
G03*
X155260000Y-98380000I0J50000D01*
G01*
D17*
%TO.C,C21*%
X174762164Y-105190000D02*
X174977836Y-105190000D01*
X174762164Y-104470000D02*
X174977836Y-104470000D01*
D18*
%TO.C,IC1*%
X159255250Y-115575000D02*
G75*
G03*
X159255250Y-115575000I-162500J0D01*
G01*
D17*
%TO.C,D11*%
X144380000Y-127945000D02*
X144380000Y-125260000D01*
X142460000Y-127945000D02*
X144380000Y-127945000D01*
X142460000Y-125260000D02*
X142460000Y-127945000D01*
%TO.C,D10*%
X141050000Y-127825000D02*
X141050000Y-125140000D01*
X139130000Y-125140000D02*
X139130000Y-127825000D01*
X139130000Y-127825000D02*
X141050000Y-127825000D01*
%TD*%
M02*
